<svg width="25" height="33" viewBox="0 0 25 33" fill="none" xmlns="http://www.w3.org/2000/svg">
<path d="M18.2693 11.4913L22.5961 10.7216L24.8966 8.30596C24.823 8.15272 24.7175 8.01575 24.5718 7.91834L13.0335 0.162005C12.8719 0.0540828 12.6861 0 12.5001 0L11.5386 5.83354L12.5001 8.4139L14.5033 10.6412L18.2693 11.4913Z" fill="#FF0059"/>
<path d="M6.73073 11.4915L4.08652 8.79869L0.103416 8.30615C0.0420682 8.43411 0 8.57257 0 8.71856V24.103C0 24.2493 0.0420669 24.3877 0.103416 24.5157L4.56728 23.9428L6.73073 21.3304L8.01276 16.0905L6.73073 11.4915Z" fill="#FF0059"/>
<path d="M18.2693 21.3303L14.9039 21.9398L12.5001 24.4072L11.5386 28.4138L12.5001 32.8208C12.6861 32.8208 12.8719 32.7673 13.0335 32.6593L24.5718 24.903C24.7175 24.8058 24.823 24.6689 24.8966 24.5156L22.1154 21.8596L18.2693 21.3303Z" fill="#FF0059"/>
<path d="M12.4997 8.41451V0.000488281C12.3139 0.000488281 12.1279 0.0545743 11.9666 0.162493L0.428282 7.91883C0.282552 8.01623 0.17713 8.1532 0.103516 8.30645L6.73102 11.4917L12.4997 8.41451Z" fill="#FF5E95"/>
<path d="M18.269 21.3304L24.8965 24.5157C24.9579 24.3877 25 24.2493 25 24.103V8.71856C25 8.57258 24.9579 8.43411 24.8965 8.30615L18.269 11.4914V21.3304Z" fill="#E50048"/>
<path d="M6.73102 21.3303L0.103516 24.5156C0.17713 24.6689 0.282552 24.8058 0.428282 24.9032L11.9666 32.6596C12.1281 32.7675 12.3139 32.8211 12.4997 32.8211V24.4077L6.73102 21.3303Z" fill="#FF5E95"/>
<path d="M18.2691 11.4875V21.3336L12.4999 24.4105L6.73096 21.3336V11.4875L12.4999 8.41064L18.2691 11.4875Z" fill="#FFA2C3"/>
<path d="M18.2692 11.4875V21.3336L12.5 24.4105V8.41064L18.2692 11.4875Z" fill="#FF5E95"/>
</svg>
