<svg width="41" height="41" viewBox="0 0 41 41" fill="none" xmlns="http://www.w3.org/2000/svg">
<path d="M16.9941 28.122L15.4132 29.6005L14.09 28.2782L16.1772 26.1909C16.3477 26.0146 16.442 25.7784 16.44 25.5332C16.4379 25.288 16.3396 25.0534 16.1663 24.88C15.993 24.7065 15.7585 24.6081 15.5133 24.6059C15.2681 24.6036 15.0318 24.6978 14.8554 24.8681L12.7672 26.9554L11.4416 25.6298L13.1039 23.845C13.1888 23.7554 13.2551 23.6498 13.299 23.5344C13.3428 23.4189 13.3634 23.296 13.3595 23.1725C13.3556 23.0491 13.3273 22.9277 13.2762 22.8153C13.2252 22.7028 13.1523 22.6016 13.0619 22.5175C12.9715 22.4334 12.8654 22.368 12.7496 22.3251C12.6338 22.2822 12.5106 22.2627 12.3872 22.2677C12.2638 22.2726 12.1427 22.302 12.0307 22.354C11.9187 22.4061 11.8181 22.4798 11.7348 22.5709L10.1188 24.3075L8.75071 22.9394L5.58147 23.255L5.26633 26.4233L7.52425 28.6812L4.1432 32.8539H4.12029C3.04004 32.8539 2.00404 33.283 1.24019 34.0468C0.476342 34.8107 0.0472172 35.8467 0.0472172 36.9269C0.0472172 38.0072 0.476342 39.0432 1.24019 39.807C2.00404 40.5709 3.04004 41 4.12029 41H4.12357C4.65783 41 5.18683 40.8946 5.68034 40.6899C6.17384 40.4852 6.62216 40.1853 6.99964 39.8072C7.37796 39.429 7.67889 38.9799 7.88341 38.4855C8.08792 37.9912 8.19294 37.4614 8.19243 36.9265C8.19243 36.9185 8.19243 36.9106 8.19243 36.9031L12.3656 33.523L14.623 35.7804L17.7923 35.4648L18.1069 32.2956L17.7937 31.9832L16.7369 30.926L18.2729 29.4892C18.4493 29.3186 18.5515 29.0855 18.5576 28.8403C18.5637 28.595 18.4732 28.3571 18.3055 28.178C18.1379 27.9988 17.9065 27.8928 17.6614 27.8826C17.4162 27.8725 17.1769 27.9592 16.995 28.1239L16.9941 28.122ZM5.67873 38.483C5.42258 38.7392 5.10722 38.9282 4.76056 39.0334C4.41391 39.1386 4.04666 39.1566 3.69136 39.086C3.33606 39.0153 3.00368 38.8581 2.72365 38.6283C2.44362 38.3985 2.22459 38.1032 2.08596 37.7685C1.94734 37.4338 1.8934 37.0701 1.92891 36.7096C1.96443 36.3491 2.08831 36.0029 2.28959 35.7017C2.49086 35.4005 2.76331 35.1536 3.0828 34.9828C3.4023 34.8121 3.75897 34.7227 4.12123 34.7228C4.23819 34.7247 4.35482 34.7358 4.47004 34.756C4.5369 34.7672 4.60282 34.7836 4.66828 34.7999C4.73375 34.8163 4.78938 34.8327 4.84923 34.8537C4.90908 34.8747 4.96706 34.8972 5.02458 34.9229C5.09608 34.9556 5.1657 34.9923 5.23312 35.0328C5.27661 35.058 5.3215 35.0795 5.36312 35.1104C5.47028 35.183 5.57074 35.265 5.6633 35.3554L5.67825 35.3676C5.682 35.3718 5.68481 35.3764 5.68901 35.3807C5.77939 35.4737 5.86167 35.5743 5.93496 35.6813C5.96488 35.7253 5.9892 35.7716 6.01538 35.8169C6.05419 35.8828 6.09066 35.9502 6.12246 36.0189C6.14864 36.0787 6.17248 36.1395 6.19352 36.2008C6.21456 36.262 6.22952 36.3139 6.24402 36.371C6.26179 36.4402 6.27956 36.5113 6.29078 36.5805C6.31046 36.6942 6.32157 36.8092 6.32398 36.9246C6.32455 37.2141 6.26778 37.5008 6.15695 37.7682C6.04612 38.0356 5.88389 38.2788 5.67873 38.483ZM7.6664 34.9215C7.65658 34.9037 7.64256 34.8878 7.63227 34.8696C7.56331 34.7518 7.4884 34.6375 7.40783 34.5273C7.38445 34.4946 7.36106 34.4623 7.33675 34.4305C7.23335 34.2949 7.12138 34.1661 7.00151 34.0448C6.88044 33.9255 6.75207 33.8138 6.61715 33.7105C6.58442 33.6848 6.55076 33.6637 6.51709 33.6371C6.40704 33.5566 6.29296 33.4819 6.1753 33.4131C6.158 33.4028 6.1421 33.3892 6.12433 33.3794L6.98701 32.3152L8.73061 34.0593L7.6664 34.9215ZM10.1913 32.8754L8.17045 30.8545L8.85451 30.0101L9.67698 30.833L11.033 32.1918L10.1913 32.8754ZM16.0828 33.7535L15.3192 33.8292L13.8272 32.3372L10.4139 28.9239L7.21472 25.7247L7.28999 24.9621L8.05401 24.8863L13.7379 30.5702L15.3693 32.2016L16.1571 32.9895L16.0828 33.7535ZM23.5201 12.7298L33.5543 2.00824L37.3043 2.41924C32.2493 7.04395 30.5 9.04395 25.3754 14.3481C25.2861 14.4343 25.2149 14.5375 25.1659 14.6516C25.1168 14.7657 25.0911 14.8884 25.09 15.0126C25.0889 15.1368 25.1126 15.2599 25.1596 15.3748C25.2066 15.4898 25.276 15.5942 25.3638 15.682C25.4517 15.7698 25.5561 15.8392 25.671 15.8862C25.7859 15.9333 25.9091 15.9569 26.0332 15.9558C26.1574 15.9548 26.2801 15.929 26.3942 15.88C26.5083 15.8309 26.6115 15.7597 26.6977 15.6704L38.6168 3.75184L39.0376 7.49246L28.5087 17.3429C28.419 17.4268 28.3467 17.5275 28.2959 17.6393C28.2451 17.7512 28.2168 17.8719 28.2127 17.9946C28.2086 18.1174 28.2287 18.2397 28.2718 18.3547C28.315 18.4697 28.3804 18.575 28.4642 18.6648C28.5481 18.7545 28.6489 18.8268 28.7607 18.8776C28.8725 18.9283 28.9932 18.9566 29.116 18.9607C29.2387 18.9649 29.3611 18.9448 29.4761 18.9016C29.591 18.8584 29.6964 18.7931 29.7861 18.7092L41 8.21346L40.1701 0.849581L32.8291 0.0439453L22.1548 11.45C22.0709 11.5397 22.0055 11.6451 21.9623 11.7601C21.9192 11.8751 21.8991 11.9974 21.9032 12.1202C21.9073 12.2429 21.9356 12.3636 21.9864 12.4754C22.0372 12.5873 22.1095 12.688 22.1992 12.7719C22.2889 12.8558 22.3942 12.9211 22.5092 12.9643C22.6242 13.0075 22.7466 13.0276 22.8693 13.0234C22.992 13.0193 23.1128 12.991 23.2246 12.9403C23.3364 12.8895 23.4371 12.8172 23.521 12.7275L23.5201 12.7298ZM36.8811 32.852H36.8582L33.4767 28.6793L35.7346 26.4214L35.4185 23.2531L32.2493 22.9375L30.8802 24.3065L8.17185 0.0439453L0.828535 0.850049L0 8.21393L24.264 30.9218L22.894 32.2923L22.9408 32.7328L23.211 35.4606L26.3812 35.7762L28.6382 33.5192L32.8109 36.8998C32.8109 36.9073 32.8109 36.9148 32.8109 36.9223C32.8107 37.4572 32.916 37.9869 33.1206 38.4811C33.3252 38.9753 33.6252 39.4244 34.0034 39.8026C34.3815 40.1809 34.8305 40.481 35.3247 40.6857C35.8189 40.8904 36.3485 40.9958 36.8834 40.9958H36.8872C37.9675 40.9953 39.0032 40.5657 39.7667 39.8015C40.5302 39.0373 40.9589 38.0011 40.9584 36.9209C40.9579 35.8406 40.5283 34.8048 39.7641 34.0413C38.9999 33.2778 37.9637 32.8492 36.8834 32.8497L36.8811 32.852ZM7.44664 2.00543L29.556 25.6289L28.2328 26.953L3.69666 2.4169L7.44664 2.00543ZM1.96429 7.48965L2.38511 3.74903L26.9105 28.2744L25.5877 29.5977L1.96429 7.48965ZM27.1737 32.3344L25.6817 33.8264L24.9177 33.7507L24.8424 32.9876L32.945 24.8849L33.7086 24.9607L33.7848 25.7233L29.7328 29.7753L27.1737 32.3344ZM29.9652 32.1894L32.1464 30.0077L32.8305 30.8522L30.8092 32.8735L29.9652 32.1894ZM34.3829 33.7091C34.2485 33.8121 34.1208 33.9235 34.0004 34.0424C33.8821 34.1619 33.7716 34.2887 33.6693 34.4221C33.6417 34.4572 33.6165 34.4932 33.5908 34.5287C33.5122 34.6372 33.4393 34.748 33.3724 34.8621C33.3612 34.8808 33.3467 34.8981 33.3359 34.9173L32.2717 34.0551L34.0158 32.311L34.8785 33.3752C34.8607 33.385 34.8453 33.3981 34.828 33.4084C34.7107 33.4772 34.5969 33.5518 34.4871 33.6319C34.4511 33.6586 34.4189 33.6829 34.3829 33.7091ZM38.4372 38.4784C38.1116 38.8153 37.6864 39.0388 37.2242 39.1159C36.762 39.193 36.2873 39.1196 35.8699 38.9066C35.4526 38.6936 35.1146 38.3521 34.9059 37.9326C34.6972 37.5131 34.6288 37.0376 34.7106 36.5763C34.7227 36.5066 34.7383 36.4376 34.7574 36.3696C34.7723 36.3107 34.7892 36.2518 34.8093 36.1942C34.8294 36.1367 34.8532 36.075 34.879 36.0166C34.9116 35.9456 34.9479 35.8765 34.9879 35.8094C35.0136 35.7655 35.0374 35.7206 35.0664 35.678C35.1422 35.5654 35.2283 35.4601 35.3236 35.3634L35.326 35.361C35.4225 35.2669 35.5272 35.1814 35.6388 35.1057C35.6808 35.0772 35.7257 35.0538 35.7692 35.0281C35.8366 34.988 35.9061 34.9515 35.9773 34.9187C36.0353 34.893 36.0942 34.8719 36.1536 34.8495C36.2129 34.827 36.2728 34.8116 36.3331 34.7962C36.3934 34.7808 36.465 34.763 36.5328 34.7494C36.6478 34.7292 36.7643 34.7181 36.8811 34.7162C37.3168 34.716 37.7428 34.845 38.1051 35.087C38.4674 35.329 38.7499 35.673 38.9166 36.0756C39.0833 36.4781 39.1268 36.9211 39.0416 37.3484C38.9565 37.7757 38.7464 38.1681 38.4381 38.476L38.4372 38.4784Z" fill="#EA5D5C"/>
</svg>
