<?xml version="1.0" encoding="UTF-8" standalone="no"?><!-- Generator: Gravit.io -->
<svg xmlns="http://www.w3.org/2000/svg"
     style="isolation:isolate" viewBox="1787.621 1568.4 561.419 726.59" width="561.419pt" height="726.59pt"><g><path d=" M 1849.69 1793.81 C 1850.39 1791.39 1853.51 1739.02 1893.04 1702.96 C 1932.57 1666.9 1976.61 1621.82 1976.61 1621.82 C 1976.61 1621.82 1982.51 1636.38 1976.61 1663.43 C 1970.72 1690.48 1957.89 1719.26 1957.89 1719.26 C 1957.89 1719.26 2029.32 1696.37 2073.01 1662.73 C 2116.71 1629.1 2131.27 1601.7 2133.35 1601.36 C 2135.43 1601.01 2140.98 1639.15 2133.35 1675.22 C 2125.72 1711.28 2116.01 1740.76 2116.01 1740.76 C 2116.01 1740.76 2167.34 1700.53 2214.15 1672.1 C 2260.97 1643.66 2267.55 1646.44 2267.55 1646.44 C 2267.55 1646.44 2256.46 1673.48 2245.71 1711.98 C 2234.96 1750.47 2228.02 1796.59 2228.02 1796.59 C 2228.02 1796.59 2253.68 1789.31 2275.53 1777.52 C 2297.38 1765.73 2307.09 1756.02 2307.09 1756.02 C 2307.09 1756.02 2301.54 1786.53 2286.63 1820.17 C 2271.71 1853.81 2242.93 1902.7 2242.93 1902.7 C 2242.93 1902.7 2272.41 1902.01 2295.3 1897.5 C 2318.18 1892.99 2327.55 1887.1 2327.55 1887.1 C 2327.55 1887.1 2310.21 1928.02 2295.3 1942.58 C 2280.38 1957.15 2246.05 1977.26 2246.05 1977.26 C 2246.05 1977.26 2282.12 1977.6 2296.34 1974.83 C 2310.55 1972.06 2313.68 1971.02 2313.68 1971.02 C 2313.68 1971.02 2302.23 1998.41 2276.57 2019.22 C 2250.91 2040.02 2228.37 2050.43 2228.37 2050.43 C 2228.37 2050.43 2259.92 2054.94 2260.27 2057.02 C 2260.62 2059.1 2236.69 2079.9 2221.78 2086.84 C 2206.87 2093.77 2177.39 2090.65 2177.39 2090.65 C 2177.39 2090.65 2171.5 1922.81 2171.15 1921.43 C 2170.8 1920.04 1975.57 1787.57 1975.57 1787.57 C 1975.57 1787.57 1870.5 1813.93 1869.11 1813.58 C 1867.73 1813.23 1849.69 1793.81 1849.69 1793.81 Z " fill="rgb(242,115,72)"/><path d=" M 1873.27 2120.13 C 1873.27 2120.13 1847.26 2168.33 1849.69 2214.8 C 1852.12 2261.27 1877.09 2273.4 1895.81 2244.27 C 1914.54 2215.14 1916.97 2200.93 1916.97 2200.93 C 1916.97 2200.93 1927.63 2208.04 1926.59 2228.32 C 1925.55 2248.61 1921.13 2258.75 1921.13 2258.75 C 1921.13 2258.75 1934.91 2240.81 1937.25 2227.02 C 1939.59 2213.24 1925.81 2194.51 1926.59 2194.77 C 1927.37 2195.03 1950.52 2208.04 1950.52 2225.72 C 1950.52 2243.41 1950.52 2250.69 1950.52 2250.69 C 1950.52 2250.69 1965.08 2226.76 1957.8 2210.64 C 1950.52 2194.51 1933.35 2190.07 1933.35 2190.07 C 1933.35 2190.07 1948.96 2190.61 1958.58 2201.01 C 1968.2 2211.42 1969.5 2218.96 1969.5 2218.96 C 1969.5 2218.96 1971.06 2195.55 1951.82 2185.93 C 1932.57 2176.31 1915.67 2180.21 1914.63 2182.29 C 1913.58 2184.37 1899.28 2218.96 1890.44 2234.56 C 1881.59 2250.17 1873.53 2247.83 1869.63 2229.88 C 1865.73 2211.94 1876.65 2173.19 1883.16 2158.1 C 1889.66 2143.02 1893.3 2132.09 1893.3 2132.09 L 1873.27 2120.13 Z " fill="rgb(150,50,52)"/><path d=" M 1984.59 2155.15 C 1945.67 2160.12 1909.68 2156.19 1876.74 2138.16 C 1843.8 2120.13 1841.72 2106.6 1823.34 2057.71 C 1804.96 2008.81 1795.59 1989.4 1790.39 1912.41 C 1785.19 1835.43 1783.81 1803.53 1818.83 1745.27 C 1853.85 1687.01 1884.02 1670.02 1882.64 1670.02 C 1881.25 1670.02 1862.18 1695.33 1862.87 1734.52 C 1863.56 1773.7 1870.85 1790 1870.85 1790 C 1870.85 1790 1879.17 1754.98 1921.13 1719.26 C 1963.09 1683.54 2007.47 1648.17 2027.24 1623.9 C 2047.01 1599.62 2049.78 1585.4 2049.78 1585.4 C 2049.78 1585.4 2065.73 1623.55 2063.3 1666.2 C 2060.88 1708.86 2041.8 1750.47 2041.8 1750.47 C 2041.8 1750.47 2083.01 1698.1 2109.71 1676.25 C 2136.42 1654.41 2173.93 1632.57 2200.28 1620.78 C 2226.64 1608.99 2249.17 1601.35 2249.17 1601.35 C 2249.17 1601.35 2222.82 1624.59 2208.6 1666.9 C 2194.38 1709.2 2186.06 1742.84 2186.06 1742.84 C 2186.06 1742.84 2223.86 1715.44 2258.88 1699.84 C 2293.91 1684.24 2301.88 1674.18 2307.78 1667.24 C 2313.67 1660.31 2314.71 1653.72 2314.71 1653.72 C 2314.71 1653.72 2313.33 1693.94 2283.16 1743.88 C 2252.99 1793.82 2206.17 1855.89 2206.17 1855.89 C 2206.17 1855.89 2251.18 1829.59 2285.89 1811.18 C 2320.61 1792.77 2349.04 1764.69 2349.04 1764.69 C 2349.04 1764.69 2340.72 1825.02 2310.55 1869.07 C 2280.38 1913.11 2232.88 1941.89 2232.88 1941.89 C 2232.88 1941.89 2267.99 1929.25 2299.85 1930.37 C 2331.71 1931.48 2340.38 1931.83 2340.38 1931.83 C 2340.38 1931.83 2311.67 1960.71 2274.88 1976.79 C 2238.08 1992.86 2212.76 2000.15 2212.76 2000.15 C 2212.76 2000.15 2239.47 1998.76 2270.33 2003.96 C 2301.19 2009.16 2319.57 2012.28 2319.57 2012.28 C 2319.57 2012.28 2290.79 2036.56 2254.38 2050.08 C 2217.97 2063.6 2197.16 2072.27 2197.16 2072.27 C 2197.16 2072.27 2220.05 2068.81 2237.73 2069.5 C 2255.42 2070.19 2258.54 2072.27 2258.54 2072.27 C 2258.54 2072.27 2223.51 2101.75 2172.54 2115.97 C 2121.56 2130.19 2036.26 2148.56 1984.59 2155.15 Z " fill="rgb(234,52,68)"/><path d=" M 2137.17 2089.96 C 2137.17 2089.96 2163.87 2112.15 2176.7 2169.37 C 2189.53 2226.59 2185.02 2272.36 2176.7 2275.48 C 2168.38 2278.6 2153.47 2258.49 2143.06 2225.9 C 2132.66 2193.3 2132.83 2179.43 2124.25 2171.36 C 2115.67 2163.3 2098.5 2158.36 2072.23 2162 C 2045.97 2165.64 2049.35 2178.91 2049.35 2178.91 C 2049.35 2178.91 2060.53 2168.5 2082.38 2171.36 C 2104.22 2174.23 2118.52 2180.73 2116.96 2180.47 C 2115.41 2180.21 2085.76 2178.39 2071.71 2197.11 C 2057.67 2215.84 2066.77 2236.12 2066.77 2236.12 C 2066.77 2236.12 2070.41 2214.28 2084.72 2204.13 C 2099.02 2193.99 2113.59 2191.91 2113.59 2191.91 C 2113.59 2191.91 2089.92 2208.3 2092.78 2232.22 C 2095.64 2256.15 2109.43 2262.13 2109.43 2262.13 C 2109.43 2262.13 2098.24 2236.64 2106.3 2216.36 C 2114.37 2196.07 2123.99 2192.69 2124.77 2193.47 C 2125.55 2194.25 2128.93 2254.85 2144.8 2274.62 C 2160.66 2294.38 2183.03 2306.09 2196.55 2279.56 C 2210.08 2253.03 2205.33 2196.58 2192.1 2152.63 C 2178.87 2108.69 2157.02 2079.04 2155.46 2078.52 C 2153.9 2078 2140.46 2080.34 2137.17 2089.96 Z " fill="rgb(150,50,52)"/><path d=" M 1982.25 1986.97 C 1982.25 1986.97 1999.15 1954.72 2031.66 1930.01 C 2064.17 1905.3 2080.82 1903.48 2081.6 1905.04 C 2082.38 1906.6 2101.62 1952.12 2066.25 1979.95 C 2030.88 2007.77 1982.25 1986.97 1982.25 1986.97 Z " fill="rgb(250,224,214)"/><path d=" M 1888.1 2015.58 C 1888.1 2015.58 1876.39 2001.79 1850.91 1987.49 C 1825.42 1973.18 1806.43 1967.2 1806.43 1967.2 C 1806.43 1967.2 1804.87 2000.49 1831.92 2020.78 C 1858.97 2041.06 1886.54 2018.96 1888.1 2015.58 Z " fill="rgb(250,224,214)"/><path d=" M 1863.12 2005.86 C 1860.46 2002.91 1854.29 2002.46 1852 2006.16 C 1851.38 2007.17 1851.23 2008.23 1851.36 2009.28 C 1851.33 2009.42 1851.3 2009.57 1851.28 2009.72 C 1851.01 2011.83 1853.01 2013.98 1854.53 2015.11 C 1856.61 2016.65 1858.97 2017.21 1861.5 2016.63 C 1866.81 2015.42 1865.95 2009.02 1863.12 2005.86 Z " fill="rgb(104,44,44)"/><path d=" M 2048.84 1955.15 C 2045.66 1950.27 2037.13 1951 2032.61 1953.08 C 2027.74 1955.31 2028.17 1959.84 2029.29 1964.35 C 2029.72 1966.1 2030.23 1967.99 2031.75 1969.13 C 2033.17 1970.18 2034.84 1970.05 2036.47 1969.65 C 2039.74 1970.3 2043.64 1969.18 2046.06 1967.51 C 2049.75 1964.96 2051.33 1958.98 2048.84 1955.15 Z " fill="rgb(104,44,44)"/><path d=" M 1929.19 2070.45 C 1919 2074.42 1918.79 2079.22 1905.52 2091.35 C 1892.26 2103.48 1870.93 2104.52 1862.61 2087.36 C 1854.29 2070.19 1868.33 2037.68 1893.56 2039.5 C 1918.79 2041.32 1948.18 2044.19 1992.65 2033 C 2037.12 2021.82 2090.96 2012.86 2112.81 2011.75 C 2134.65 2010.64 2152.6 2022.86 2130.23 2041.85 C 2107.87 2060.83 2082.64 2061.09 2027.5 2063.17 C 1972.36 2065.25 1949.22 2062.65 1929.19 2070.45 Z " fill="rgb(104,44,44)"/><path d=" M 2043.36 2035.34 C 2045.67 2031.13 2043.16 2026.63 2040.23 2022.47 C 2033.16 2023.85 2025.97 2025.33 2018.82 2026.89 C 2020.91 2031.87 2022.21 2037.01 2022.56 2042.63 C 2029.84 2041.58 2039.2 2042.63 2043.36 2035.34 Z " fill="rgb(250,224,214)"/><path d=" M 2093.82 2026.5 C 2098.5 2029.62 2107.34 2028.58 2110.47 2023.9 C 2112.91 2020.1 2111.81 2016.01 2109.75 2011.94 C 2104.14 2012.35 2096.96 2013.15 2088.7 2014.28 C 2089.86 2019.13 2090.63 2024.02 2093.82 2026.5 Z " fill="rgb(250,224,214)"/><path d=" M 1944.01 2054.07 C 1949.22 2057.19 1958.58 2056.15 1961.7 2051.47 C 1963.87 2047.66 1962.92 2043.43 1961.3 2039.08 C 1953.61 2040.1 1946.43 2040.69 1939.68 2040.99 C 1939.86 2045.98 1939.66 2051.16 1944.01 2054.07 Z " fill="rgb(250,224,214)"/><path d=" M 1880.56 2066.03 C 1884.72 2069.67 1895.64 2066.55 1897.72 2061.87 C 1900.57 2054.95 1896.41 2047.06 1892.96 2039.47 C 1885.16 2039.07 1878.45 2041.97 1873.17 2046.65 C 1873.74 2054.28 1875.11 2061.76 1880.56 2066.03 Z " fill="rgb(250,224,214)"/></g></svg>
