<?xml version="1.0" encoding="UTF-8" standalone="no"?>
<!-- Created with Inkscape (http://www.inkscape.org/) -->

<svg
  xmlns:dc="http://purl.org/dc/elements/1.1/"
  xmlns:cc="http://creativecommons.org/ns#"
  xmlns:rdf="http://www.w3.org/1999/02/22-rdf-syntax-ns#"
  xmlns="http://www.w3.org/2000/svg"
  version="1.1"
  width="109.82674"
  height="137.15439"
  id="svg2"
  xml:space="preserve"><metadata
     id="metadata8"><rdf:RDF><cc:Work
         rdf:about=""><dc:format>image/svg+xml</dc:format><dc:type
           rdf:resource="http://purl.org/dc/dcmitype/StillImage" /><dc:title></dc:title></cc:Work></rdf:RDF></metadata><defs
     id="defs6"><clipPath
       id="clipPath16"><path
         d="m 0,2204.724 787.402,0 L 787.402,0 0,0 0,2204.724 z"
         id="path18" /></clipPath><clipPath
       id="clipPath24"><path
         d="M 3.05176e-5,2204.72 787.402,2204.72 787.402,0 3.05176e-5,0 l 0,2204.72 z"
         id="path26" /></clipPath><clipPath
       id="clipPath38"><path
         d="m 0,2204.724 787.402,0 L 787.402,0 0,0 0,2204.724 z"
         id="path40" /></clipPath><clipPath
       id="clipPath46"><path
         d="m 366.535,64.5675 55.906,0 0,-17.3229 -55.906,0 0,17.3229 z"
         id="path48" /></clipPath><clipPath
       id="clipPath110"><path
         d="m 0,2204.724 787.402,0 L 787.402,0 0,0 0,2204.724 z"
         id="path112" /></clipPath><clipPath
       id="clipPath118"><path
         d="m 522.047,210.237 55.905,0 0,-17.323 -55.905,0 0,17.323 z"
         id="path120" /></clipPath><clipPath
       id="clipPath178"><path
         d="m 0,2204.724 787.402,0 L 787.402,0 0,0 0,2204.724 z"
         id="path180" /></clipPath><clipPath
       id="clipPath186"><path
         d="m 366.142,210.237 55.905,0 0,-17.323 -55.905,0 0,17.323 z"
         id="path188" /></clipPath><clipPath
       id="clipPath246"><path
         d="m 0,2204.724 787.402,0 L 787.402,0 0,0 0,2204.724 z"
         id="path248" /></clipPath><clipPath
       id="clipPath254"><path
         d="m 208.59,210.359 55.906,0 0,-17.323 -55.906,0 0,17.323 z"
         id="path256" /></clipPath><clipPath
       id="clipPath318"><path
         d="m 0,2204.724 787.402,0 L 787.402,0 0,0 0,2204.724 z"
         id="path320" /></clipPath><clipPath
       id="clipPath326"><path
         d="m 516.535,359.843 67.323,0 0,-20.866 -67.323,0 0,20.866 z"
         id="path328" /></clipPath><clipPath
       id="clipPath386"><path
         d="m 0,2204.724 787.402,0 L 787.402,0 0,0 0,2204.724 z"
         id="path388" /></clipPath><clipPath
       id="clipPath394"><path
         d="m 364.567,367.717 55.905,0 0,-17.323 -55.905,0 0,17.323 z"
         id="path396" /></clipPath><clipPath
       id="clipPath450"><path
         d="m 0,2204.724 787.402,0 L 787.402,0 0,0 0,2204.724 z"
         id="path452" /></clipPath><clipPath
       id="clipPath458"><path
         d="m 208.267,360.63 55.906,0 0,-17.323 -55.906,0 0,17.323 z"
         id="path460" /></clipPath><clipPath
       id="clipPath510"><path
         d="m 0,2204.724 787.402,0 L 787.402,0 0,0 0,2204.724 z"
         id="path512" /></clipPath><clipPath
       id="clipPath518"><path
         d="m 521.26,520.473 55.905,0 0,-17.323 -55.905,0 0,17.323 z"
         id="path520" /></clipPath><clipPath
       id="clipPath574"><path
         d="m 0,2204.724 787.402,0 L 787.402,0 0,0 0,2204.724 z"
         id="path576" /></clipPath><clipPath
       id="clipPath582"><path
         d="m 366.142,510.237 55.905,0 0,-17.323 -55.905,0 0,17.323 z"
         id="path584" /></clipPath><clipPath
       id="clipPath638"><path
         d="m 0,2204.724 787.402,0 L 787.402,0 0,0 0,2204.724 z"
         id="path640" /></clipPath><clipPath
       id="clipPath646"><path
         d="m 207.874,522.048 55.905,0 0,-17.323 -55.905,0 0,17.323 z"
         id="path648" /></clipPath><clipPath
       id="clipPath694"><path
         d="m 0,2204.724 787.402,0 L 787.402,0 0,0 0,2204.724 z"
         id="path696" /></clipPath><clipPath
       id="clipPath702"><path
         d="m 523.622,677.56 55.905,0 0,-17.323 -55.905,0 0,17.323 z"
         id="path704" /></clipPath><clipPath
       id="clipPath754"><path
         d="m 0,2204.724 787.402,0 L 787.402,0 0,0 0,2204.724 z"
         id="path756" /></clipPath><clipPath
       id="clipPath762"><path
         d="m 364.566,682.678 55.906,0 0,-17.323 -55.906,0 0,17.323 z"
         id="path764" /></clipPath><clipPath
       id="clipPath814"><path
         d="m 0,2204.724 787.402,0 L 787.402,0 0,0 0,2204.724 z"
         id="path816" /></clipPath><clipPath
       id="clipPath822"><path
         d="m 181.89,704.725 109.449,0 0,-39.764 -109.449,0 0,39.764 z"
         id="path824" /></clipPath><clipPath
       id="clipPath862"><path
         d="m 0,2204.724 787.402,0 L 787.402,0 0,0 0,2204.724 z"
         id="path864" /></clipPath><clipPath
       id="clipPath870"><path
         d="m 522.047,837.796 55.905,0 0,-17.323 -55.905,0 0,17.323 z"
         id="path872" /></clipPath><clipPath
       id="clipPath930"><path
         d="m 0,2204.724 787.402,0 L 787.402,0 0,0 0,2204.724 z"
         id="path932" /></clipPath><clipPath
       id="clipPath938"><path
         d="m 363.779,833.072 55.906,0 0,-17.323 -55.906,0 0,17.323 z"
         id="path940" /></clipPath><clipPath
       id="clipPath982"><path
         d="m 0,2204.724 787.402,0 L 787.402,0 0,0 0,2204.724 z"
         id="path984" /></clipPath><clipPath
       id="clipPath994"><path
         d="m 221.259,837.796 55.906,0 0,-17.323 -55.906,0 0,17.323 z"
         id="path996" /></clipPath><clipPath
       id="clipPath1038"><path
         d="m 0,2204.724 787.402,0 L 787.402,0 0,0 0,2204.724 z"
         id="path1040" /></clipPath><clipPath
       id="clipPath1046"><path
         d="m 522.047,991.339 55.905,0 0,-17.323 -55.905,0 0,17.323 z"
         id="path1048" /></clipPath><clipPath
       id="clipPath1094"><path
         d="m 0,2204.724 787.402,0 L 787.402,0 0,0 0,2204.724 z"
         id="path1096" /></clipPath><clipPath
       id="clipPath1102"><path
         d="m 365.354,977.166 55.906,0 0,-17.323 -55.906,0 0,17.323 z"
         id="path1104" /></clipPath><clipPath
       id="clipPath1186"><path
         d="m 0,2204.724 787.402,0 L 787.402,0 0,0 0,2204.724 z"
         id="path1188" /></clipPath><clipPath
       id="clipPath1194"><path
         d="m 208.267,984.252 55.906,0 0,-17.322 -55.906,0 0,17.322 z"
         id="path1196" /></clipPath><clipPath
       id="clipPath1254"><path
         d="m 0,2204.724 787.402,0 L 787.402,0 0,0 0,2204.724 z"
         id="path1256" /></clipPath><clipPath
       id="clipPath1262"><path
         d="m 523.622,1150.39 55.905,0 0,-17.32 -55.905,0 0,17.32 z"
         id="path1264" /></clipPath><clipPath
       id="clipPath1322"><path
         d="m 0,2204.724 787.402,0 L 787.402,0 0,0 0,2204.724 z"
         id="path1324" /></clipPath><clipPath
       id="clipPath1330"><path
         d="m 365.748,1145.67 55.905,0 0,-17.32 -55.905,0 0,17.32 z"
         id="path1332" /></clipPath><clipPath
       id="clipPath1374"><path
         d="m 0,2204.724 787.402,0 L 787.402,0 0,0 0,2204.724 z"
         id="path1376" /></clipPath><clipPath
       id="clipPath1382"><path
         d="m 207.874,1149.21 55.905,0 0,-17.32 -55.905,0 0,17.32 z"
         id="path1384" /></clipPath><clipPath
       id="clipPath1430"><path
         d="m 0,2204.724 787.402,0 L 787.402,0 0,0 0,2204.724 z"
         id="path1432" /></clipPath><clipPath
       id="clipPath1438"><path
         d="m 518.504,1309.45 55.905,0 0,-17.32 -55.905,0 0,17.32 z"
         id="path1440" /></clipPath><clipPath
       id="clipPath1502"><path
         d="m 0,2204.724 787.402,0 L 787.402,0 0,0 0,2204.724 z"
         id="path1504" /></clipPath><clipPath
       id="clipPath1510"><path
         d="m 364.567,1295.28 55.905,0 0,-17.33 -55.905,0 0,17.33 z"
         id="path1512" /></clipPath><clipPath
       id="clipPath1578"><path
         d="m 0,2204.724 787.402,0 L 787.402,0 0,0 0,2204.724 z"
         id="path1580" /></clipPath><clipPath
       id="clipPath1586"><path
         d="m 209.448,1307.48 55.906,0 0,-17.32 -55.906,0 0,17.32 z"
         id="path1588" /></clipPath><clipPath
       id="clipPath1642"><path
         d="m 0,2204.724 787.402,0 L 787.402,0 0,0 0,2204.724 z"
         id="path1644" /></clipPath><clipPath
       id="clipPath1650"><path
         d="m 500,1467.32 107.087,0 0,-33.07 -107.087,0 0,33.07 z"
         id="path1652" /></clipPath><clipPath
       id="clipPath1706"><path
         d="m 0,2204.724 787.402,0 L 787.402,0 0,0 0,2204.724 z"
         id="path1708" /></clipPath><clipPath
       id="clipPath1714"><path
         d="m 366.141,1468.5 55.906,0 0,-17.32 -55.906,0 0,17.32 z"
         id="path1716" /></clipPath><clipPath
       id="clipPath1734"><path
         d="m 0,2204.724 787.402,0 L 787.402,0 0,0 0,2204.724 z"
         id="path1736" /></clipPath><clipPath
       id="clipPath1774"><path
         d="m 0,2204.724 787.402,0 L 787.402,0 0,0 0,2204.724 z"
         id="path1776" /></clipPath><clipPath
       id="clipPath1782"><path
         d="m 207.48,1468.5 55.905,0 0,-17.32 -55.905,0 0,17.32 z"
         id="path1784" /></clipPath><clipPath
       id="clipPath1838"><path
         d="m 0,2204.724 787.402,0 L 787.402,0 0,0 0,2204.724 z"
         id="path1840" /></clipPath><clipPath
       id="clipPath1846"><path
         d="m 522.047,1619.69 55.905,0 0,-17.33 -55.905,0 0,17.33 z"
         id="path1848" /></clipPath><clipPath
       id="clipPath1890"><path
         d="m 0,2204.724 787.402,0 L 787.402,0 0,0 0,2204.724 z"
         id="path1892" /></clipPath><clipPath
       id="clipPath1898"><path
         d="m 366.535,1618.9 55.906,0 0,-17.32 -55.906,0 0,17.32 z"
         id="path1900" /></clipPath><clipPath
       id="clipPath1954"><path
         d="m 0,2204.724 787.402,0 L 787.402,0 0,0 0,2204.724 z"
         id="path1956" /></clipPath><clipPath
       id="clipPath1962"><path
         d="m 207.874,1624.41 55.905,0 0,-17.32 -55.905,0 0,17.32 z"
         id="path1964" /></clipPath><clipPath
       id="clipPath2026"><path
         d="m 0,2204.724 787.402,0 L 787.402,0 0,0 0,2204.724 z"
         id="path2028" /></clipPath><clipPath
       id="clipPath2034"><path
         d="m 520.078,1779.92 55.906,0 0,-17.32 -55.906,0 0,17.32 z"
         id="path2036" /></clipPath><clipPath
       id="clipPath2090"><path
         d="m 0,2204.724 787.402,0 L 787.402,0 0,0 0,2204.724 z"
         id="path2092" /></clipPath><clipPath
       id="clipPath2098"><path
         d="m 368.11,1781.89 55.905,0 0,-17.32 -55.905,0 0,17.32 z"
         id="path2100" /></clipPath><clipPath
       id="clipPath2158"><path
         d="m 0,2204.724 787.402,0 L 787.402,0 0,0 0,2204.724 z"
         id="path2160" /></clipPath><clipPath
       id="clipPath2166"><path
         d="m 207.874,1775.59 55.905,0 0,-17.32 -55.905,0 0,17.32 z"
         id="path2168" /></clipPath><clipPath
       id="clipPath2226"><path
         d="m 0,2204.724 787.402,0 L 787.402,0 0,0 0,2204.724 z"
         id="path2228" /></clipPath><clipPath
       id="clipPath2234"><path
         d="m 521.26,1928.35 55.905,0 0,-17.33 -55.905,0 0,17.33 z"
         id="path2236" /></clipPath><clipPath
       id="clipPath2294"><path
         d="m 0,2204.724 787.402,0 L 787.402,0 0,0 0,2204.724 z"
         id="path2296" /></clipPath><clipPath
       id="clipPath2302"><path
         d="m 366.535,1940.16 55.905,0 0,-17.33 -55.905,0 0,17.33 z"
         id="path2304" /></clipPath><clipPath
       id="clipPath2358"><path
         d="m 0,2204.724 787.402,0 L 787.402,0 0,0 0,2204.724 z"
         id="path2360" /></clipPath><clipPath
       id="clipPath2366"><path
         d="m 204.33,1922.84 55.906,0 0,-17.33 -55.906,0 0,17.33 z"
         id="path2368" /></clipPath><clipPath
       id="clipPath2418"><path
         d="m 0,2204.724 787.402,0 L 787.402,0 0,0 0,2204.724 z"
         id="path2420" /></clipPath><clipPath
       id="clipPath2426"><path
         d="m 522.44,2090.16 55.906,0 0,-17.33 -55.906,0 0,17.33 z"
         id="path2428" /></clipPath><clipPath
       id="clipPath2478"><path
         d="m 0,2204.724 787.402,0 L 787.402,0 0,0 0,2204.724 z"
         id="path2480" /></clipPath><clipPath
       id="clipPath2486"><path
         d="m 364.566,2100.79 55.906,0 0,-17.33 -55.906,0 0,17.33 z"
         id="path2488" /></clipPath><clipPath
       id="clipPath2526"><path
         d="m 0,2204.724 787.402,0 L 787.402,0 0,0 0,2204.724 z"
         id="path2528" /></clipPath><clipPath
       id="clipPath2534"><path
         d="m 207.086,2088.98 55.906,0 0,-17.33 -55.906,0 0,17.33 z"
         id="path2536" /></clipPath></defs><g
     transform="matrix(1.25,0,0,-1.25,-239.62431,2726.7216)"
     id="g10"><g
       id="g2522"><g
         clip-path="url(#clipPath2526)"
         id="g2524"><g
           id="g2530"><g
             id="g2532" /><g
             id="g2538"><g
               clip-path="url(#clipPath2534)"
               id="g2540"
               style="opacity:0.19999701"><g
                 transform="translate(235.0391,2088.9768)"
                 id="g2542"><path
                   d="m 0,0 c -15.438,0 -27.953,-3.878 -27.953,-8.661 0,-4.784 12.515,-8.662 27.953,-8.662 15.438,0 27.953,3.878 27.953,8.662 C 27.953,-3.878 15.438,0 0,0"
                   id="path2544"
                   style="fill:#000000;fill-opacity:1;fill-rule:evenodd;stroke:none" /></g></g></g></g><g
           transform="translate(245.6692,2181.1025)"
           id="g2546"><path
             d="M 0,0 C -0.098,-2.362 -1.181,-14.764 -1.575,-20.866 -1.968,-26.969 8.169,-36.319 8.661,-23.622 9.154,-10.925 0.098,2.362 0,0 m -21.654,0 c -0.098,2.362 -9.153,-10.925 -8.661,-23.622 0.492,-12.697 10.63,-3.347 10.236,2.756 -0.393,6.102 -1.476,18.504 -1.575,20.866"
             id="path2548"
             style="fill:#bc3453;fill-opacity:1;fill-rule:evenodd;stroke:none" /></g><g
           transform="translate(208.2677,2111.4172)"
           id="g2550"><path
             d="m 0,0 c 2.793,-7.515 17.308,-16.142 17.308,-16.142 l 0,-8.267 c 0,0 -11.62,-4.006 -9.04,-8.268 2.58,-4.263 9.145,-1.759 10.63,1.181 1.484,2.94 0.787,7.087 0.787,7.087 l 0,7.48 c 0,0 3.323,-1.181 5.906,-1.181 l 1.181,0 c 2.582,0 5.905,1.181 5.905,1.181 l 0,-7.48 c 0,0 -0.697,-4.147 0.788,-7.087 1.484,-2.94 8.049,-5.444 10.629,-1.181 2.58,4.262 -9.04,8.268 -9.04,8.268 l 0,8.267 c 0,0 14.515,8.627 17.308,16.142 C 55.155,7.515 -2.793,7.515 0,0"
             id="path2552"
             style="fill:#bc3453;fill-opacity:1;fill-rule:evenodd;stroke:none" /></g><g
           transform="translate(205.5117,2132.2834)"
           id="g2554"><path
             d="m 0,0 c 0,0 4.724,11.024 1.181,7.48 -3.543,-3.543 -14.37,-11.22 -14.96,-13.779 -0.591,-2.559 6.889,-8.465 7.086,-9.055 0.197,-0.591 -3.74,-1.378 -3.543,-4.725 0.197,-3.346 6.496,-6.299 9.449,-2.362 2.952,3.937 -0.788,7.087 -0.788,7.087 0,0 -8.071,8.267 -7.874,9.055 C -9.252,-5.512 0,0 0,0 m 66.929,-15.354 c 0.197,0.59 7.677,6.496 7.087,9.055 C 73.425,-3.74 62.598,3.937 59.055,7.48 55.512,11.024 60.236,0 60.236,0 c 0,0 9.252,-5.512 9.449,-6.299 0.197,-0.788 -7.874,-9.055 -7.874,-9.055 0,0 -3.74,-3.15 -0.787,-7.087 2.952,-3.937 9.252,-0.984 9.448,2.362 0.197,3.347 -3.74,4.134 -3.543,4.725"
             id="path2556"
             style="fill:#bc3453;fill-opacity:1;fill-rule:evenodd;stroke:none" /></g><g
           transform="translate(235.4328,2165.4531)"
           id="g2558"><path
             d="m 0,0 c -23.031,0 -38.976,-36.811 -31.496,-59.055 7.48,-22.244 55.315,-20.473 62.992,0.787 C 39.173,-37.008 23.031,0 0,0"
             id="path2560"
             style="fill:#e75577;fill-opacity:1;fill-rule:evenodd;stroke:none" /></g><g
           transform="translate(270.4724,2107.1553)"
           id="g2562"><path
             d="M 0,0 C 0,6.136 -1.575,8.362 -1.575,14.498 -11.892,5.885 -23.466,2.83 -35.039,2.722 -46.613,2.83 -58.187,5.885 -68.504,14.498 c 0,-6.136 -1.575,-8.362 -1.575,-14.498 0.536,-0.713 1.09,-1.386 1.657,-2.027 -0.05,-0.298 -0.082,-0.602 -0.082,-0.913 0,-3.108 2.544,-5.628 5.683,-5.628 0.362,0 0.714,0.037 1.058,0.101 0.058,-3.058 2.575,-5.52 5.677,-5.52 0.927,0 1.799,0.224 2.572,0.614 0.721,-2.288 2.877,-3.949 5.426,-3.949 1.523,0 2.903,0.597 3.923,1.563 0.983,-1.68 2.814,-2.814 4.916,-2.814 1.672,0 3.17,0.719 4.21,1.857 1.039,-1.138 2.538,-1.857 4.209,-1.857 2.102,0 3.933,1.134 4.916,2.814 1.021,-0.966 2.401,-1.563 3.924,-1.563 2.548,0 4.704,1.661 5.425,3.949 0.773,-0.39 1.646,-0.614 2.573,-0.614 3.101,0 5.618,2.462 5.677,5.52 0.343,-0.064 0.696,-0.101 1.057,-0.101 3.139,0 5.683,2.52 5.683,5.628 0,0.311 -0.032,0.615 -0.081,0.913 C -1.089,-1.386 -0.536,-0.713 0,0"
             id="path2564"
             style="fill:#febc1e;fill-opacity:1;fill-rule:evenodd;stroke:none" /></g><g
           transform="translate(225.7874,2100.3936)"
           id="g2566"><path
             d="m 0,0 c -0.979,0 -1.772,-0.793 -1.772,-1.771 0,-0.979 0.793,-1.772 1.772,-1.772 0.978,0 1.772,0.793 1.772,1.772 C 1.772,-0.793 0.978,0 0,0 m 6.693,5.906 c -0.761,0 -1.378,-0.617 -1.378,-1.378 0,-0.761 0.617,-1.378 1.378,-1.378 0.761,0 1.378,0.617 1.378,1.378 0,0.761 -0.617,1.378 -1.378,1.378 m 0,-11.024 c -0.544,0 -0.984,-0.441 -0.984,-0.984 0,-0.544 0.44,-0.984 0.984,-0.984 0.543,0 0.984,0.44 0.984,0.984 0,0.543 -0.441,0.984 -0.984,0.984 m -14.57,17.414 c -0.853,-0.971 -1.375,-2.24 -1.375,-3.634 0,-3.045 2.468,-5.512 5.512,-5.512 3.044,0 5.512,2.467 5.512,5.512 0,0.491 -0.071,0.964 -0.191,1.417 -3.184,0.449 -6.346,1.168 -9.458,2.217 M -5.709,-3.15 c -0.435,0 -0.787,-0.352 -0.787,-0.787 0,-0.435 0.352,-0.787 0.787,-0.787 0.435,0 0.788,0.352 0.788,0.787 0,0.435 -0.353,0.787 -0.788,0.787 m -11.417,15.355 c 0,1.305 -1.058,2.362 -2.362,2.362 -1.305,0 -2.362,-1.057 -2.362,-2.362 0,-1.305 1.057,-2.362 2.362,-2.362 1.304,0 2.362,1.057 2.362,2.362 m 2.559,-6.299 c -2.066,0 -3.74,-1.675 -3.74,-3.741 0,-2.065 1.674,-3.74 3.74,-3.74 2.066,0 3.74,1.675 3.74,3.74 0,2.066 -1.674,3.741 -3.74,3.741 M 16.142,5.512 c -3.153,0 -5.709,-2.556 -5.709,-5.709 0,-3.152 2.556,-5.709 5.709,-5.709 3.152,0 5.708,2.557 5.708,5.709 0,3.153 -2.556,5.709 -5.708,5.709 M 33.071,1.969 c -2.501,0 -4.528,-2.027 -4.528,-4.528 0,-2.222 1.604,-4.061 3.715,-4.446 2.342,0.665 4.065,2.779 4.112,5.302 0.342,-0.066 0.695,-0.103 1.058,-0.103 0.031,0 0.062,0.004 0.094,0.004 -0.362,2.139 -2.21,3.771 -4.451,3.771 m -6.89,7.874 c -1.739,0 -3.15,-1.41 -3.15,-3.15 0,-1.739 1.411,-3.15 3.15,-3.15 1.74,0 3.15,1.411 3.15,3.15 0,1.74 -1.41,3.15 -3.15,3.15 M 44.159,6.09 c -0.33,1.032 -1.286,1.784 -2.427,1.784 -1.413,0 -2.559,-1.145 -2.559,-2.559 0,-1.413 1.146,-2.559 2.559,-2.559 0.49,0 0.943,0.145 1.332,0.383 0.028,0.224 0.046,0.451 0.046,0.682 0,0.311 -0.032,0.614 -0.081,0.911 0.384,0.435 0.759,0.891 1.13,1.358 m -8.332,2.965 c 2.935,0 5.315,2.38 5.315,5.315 0,1.602 -0.724,3.022 -1.845,3.996 -2.831,-1.949 -5.742,-3.52 -8.707,-4.772 0.378,-2.564 2.567,-4.539 5.237,-4.539 M 22.638,-4.724 c -0.87,0 -1.575,-0.705 -1.575,-1.575 0,-0.87 0.705,-1.575 1.575,-1.575 0.87,0 1.575,0.705 1.575,1.575 0,0.87 -0.705,1.575 -1.575,1.575 m 10.63,10.433 c 0,-0.326 0.264,-0.591 0.59,-0.591 0.326,0 0.591,0.265 0.591,0.591 0,0.326 -0.265,0.59 -0.591,0.59 -0.326,0 -0.59,-0.264 -0.59,-0.59"
             id="path2568"
             style="fill:#ffffff;fill-opacity:1;fill-rule:evenodd;stroke:none" /></g><g
           transform="translate(236.4482,2128.3242)"
           id="g2570"><path
             d="m 0,0 c -7.87,0.338 -14.724,-3.493 -17.353,-9.106 3.806,3.908 10.342,6.336 17.663,6.021 6.284,-0.27 11.82,-2.504 15.448,-5.8 C 13.082,-3.914 7.096,-0.305 0,0"
             id="path2572"
             style="fill:#bc3453;fill-opacity:1;fill-rule:evenodd;stroke:none" /></g><g
           transform="translate(240.5508,2140.1575)"
           id="g2574"><path
             d="m 0,0 c 0,-5.653 3.878,-10.236 8.661,-10.236 4.784,0 8.662,4.583 8.662,10.236 L 0,0 z m -18.11,-10.236 c 4.783,0 8.661,4.583 8.661,10.236 l -17.323,0 c 10e-4,-5.653 3.878,-10.236 8.662,-10.236"
             id="path2576"
             style="fill:#ffffff;fill-opacity:1;fill-rule:evenodd;stroke:none" /></g><g
           transform="translate(249.2122,2150.3943)"
           id="g2578"><path
             d="m 0,0 c -4.773,0 -8.642,-4.562 -8.66,-10.198 5.767,-0.38 11.553,-0.39 17.321,-0.027 C 8.656,-4.577 4.78,0 0,0 m -26.772,0 c -4.772,0 -8.642,-4.562 -8.659,-10.198 5.767,-0.38 11.552,-0.39 17.32,-0.027 C -18.116,-4.577 -21.991,0 -26.772,0"
             id="path2580"
             style="fill:#f06c8b;fill-opacity:1;fill-rule:evenodd;stroke:none" /></g><g
           transform="translate(224.0006,2138.9768)"
           id="g2582"><path
             d="m 0,0 c -1.297,0 -2.347,-1.234 -2.347,-2.756 0,-1.522 1.05,-2.756 2.347,-2.756 1.297,0 2.348,1.234 2.348,2.756 C 2.348,-1.234 1.297,0 0,0 m 23.651,0 c -1.296,0 -2.347,-1.234 -2.347,-2.756 0,-1.522 1.051,-2.756 2.347,-2.756 1.297,0 2.348,1.234 2.348,2.756 0,1.522 -1.051,2.756 -2.348,2.756"
             id="path2584"
             style="fill:#142122;fill-opacity:1;fill-rule:evenodd;stroke:none" /></g></g></g></g></svg>
