<?xml version="1.0" encoding="UTF-8" standalone="no"?>
<!-- Created with Inkscape (http://www.inkscape.org/) -->

<svg
  xmlns:dc="http://purl.org/dc/elements/1.1/"
  xmlns:cc="http://creativecommons.org/ns#"
  xmlns:rdf="http://www.w3.org/1999/02/22-rdf-syntax-ns#"
  xmlns="http://www.w3.org/2000/svg"
  version="1.1"
  width="110.31"
  height="111.60416"
  id="svg2"
  xml:space="preserve"><metadata
     id="metadata8"><rdf:RDF><cc:Work
         rdf:about=""><dc:format>image/svg+xml</dc:format><dc:type
           rdf:resource="http://purl.org/dc/dcmitype/StillImage" /><dc:title></dc:title></cc:Work></rdf:RDF></metadata><defs
     id="defs6"><clipPath
       id="clipPath16"><path
         d="m 0,2204.724 787.402,0 L 787.402,0 0,0 0,2204.724 z"
         id="path18" /></clipPath><clipPath
       id="clipPath24"><path
         d="M 3.05176e-5,2204.72 787.402,2204.72 787.402,0 3.05176e-5,0 l 0,2204.72 z"
         id="path26" /></clipPath><clipPath
       id="clipPath38"><path
         d="m 0,2204.724 787.402,0 L 787.402,0 0,0 0,2204.724 z"
         id="path40" /></clipPath><clipPath
       id="clipPath46"><path
         d="m 366.535,64.5675 55.906,0 0,-17.3229 -55.906,0 0,17.3229 z"
         id="path48" /></clipPath><clipPath
       id="clipPath110"><path
         d="m 0,2204.724 787.402,0 L 787.402,0 0,0 0,2204.724 z"
         id="path112" /></clipPath><clipPath
       id="clipPath118"><path
         d="m 522.047,210.237 55.905,0 0,-17.323 -55.905,0 0,17.323 z"
         id="path120" /></clipPath><clipPath
       id="clipPath178"><path
         d="m 0,2204.724 787.402,0 L 787.402,0 0,0 0,2204.724 z"
         id="path180" /></clipPath><clipPath
       id="clipPath186"><path
         d="m 366.142,210.237 55.905,0 0,-17.323 -55.905,0 0,17.323 z"
         id="path188" /></clipPath><clipPath
       id="clipPath246"><path
         d="m 0,2204.724 787.402,0 L 787.402,0 0,0 0,2204.724 z"
         id="path248" /></clipPath><clipPath
       id="clipPath254"><path
         d="m 208.59,210.359 55.906,0 0,-17.323 -55.906,0 0,17.323 z"
         id="path256" /></clipPath><clipPath
       id="clipPath318"><path
         d="m 0,2204.724 787.402,0 L 787.402,0 0,0 0,2204.724 z"
         id="path320" /></clipPath><clipPath
       id="clipPath326"><path
         d="m 516.535,359.843 67.323,0 0,-20.866 -67.323,0 0,20.866 z"
         id="path328" /></clipPath><clipPath
       id="clipPath386"><path
         d="m 0,2204.724 787.402,0 L 787.402,0 0,0 0,2204.724 z"
         id="path388" /></clipPath><clipPath
       id="clipPath394"><path
         d="m 364.567,367.717 55.905,0 0,-17.323 -55.905,0 0,17.323 z"
         id="path396" /></clipPath><clipPath
       id="clipPath450"><path
         d="m 0,2204.724 787.402,0 L 787.402,0 0,0 0,2204.724 z"
         id="path452" /></clipPath><clipPath
       id="clipPath458"><path
         d="m 208.267,360.63 55.906,0 0,-17.323 -55.906,0 0,17.323 z"
         id="path460" /></clipPath><clipPath
       id="clipPath510"><path
         d="m 0,2204.724 787.402,0 L 787.402,0 0,0 0,2204.724 z"
         id="path512" /></clipPath><clipPath
       id="clipPath518"><path
         d="m 521.26,520.473 55.905,0 0,-17.323 -55.905,0 0,17.323 z"
         id="path520" /></clipPath><clipPath
       id="clipPath574"><path
         d="m 0,2204.724 787.402,0 L 787.402,0 0,0 0,2204.724 z"
         id="path576" /></clipPath><clipPath
       id="clipPath582"><path
         d="m 366.142,510.237 55.905,0 0,-17.323 -55.905,0 0,17.323 z"
         id="path584" /></clipPath><clipPath
       id="clipPath638"><path
         d="m 0,2204.724 787.402,0 L 787.402,0 0,0 0,2204.724 z"
         id="path640" /></clipPath><clipPath
       id="clipPath646"><path
         d="m 207.874,522.048 55.905,0 0,-17.323 -55.905,0 0,17.323 z"
         id="path648" /></clipPath><clipPath
       id="clipPath694"><path
         d="m 0,2204.724 787.402,0 L 787.402,0 0,0 0,2204.724 z"
         id="path696" /></clipPath><clipPath
       id="clipPath702"><path
         d="m 523.622,677.56 55.905,0 0,-17.323 -55.905,0 0,17.323 z"
         id="path704" /></clipPath><clipPath
       id="clipPath754"><path
         d="m 0,2204.724 787.402,0 L 787.402,0 0,0 0,2204.724 z"
         id="path756" /></clipPath><clipPath
       id="clipPath762"><path
         d="m 364.566,682.678 55.906,0 0,-17.323 -55.906,0 0,17.323 z"
         id="path764" /></clipPath><clipPath
       id="clipPath814"><path
         d="m 0,2204.724 787.402,0 L 787.402,0 0,0 0,2204.724 z"
         id="path816" /></clipPath><clipPath
       id="clipPath822"><path
         d="m 181.89,704.725 109.449,0 0,-39.764 -109.449,0 0,39.764 z"
         id="path824" /></clipPath><clipPath
       id="clipPath862"><path
         d="m 0,2204.724 787.402,0 L 787.402,0 0,0 0,2204.724 z"
         id="path864" /></clipPath><clipPath
       id="clipPath870"><path
         d="m 522.047,837.796 55.905,0 0,-17.323 -55.905,0 0,17.323 z"
         id="path872" /></clipPath><clipPath
       id="clipPath930"><path
         d="m 0,2204.724 787.402,0 L 787.402,0 0,0 0,2204.724 z"
         id="path932" /></clipPath><clipPath
       id="clipPath938"><path
         d="m 363.779,833.072 55.906,0 0,-17.323 -55.906,0 0,17.323 z"
         id="path940" /></clipPath><clipPath
       id="clipPath982"><path
         d="m 0,2204.724 787.402,0 L 787.402,0 0,0 0,2204.724 z"
         id="path984" /></clipPath><clipPath
       id="clipPath994"><path
         d="m 221.259,837.796 55.906,0 0,-17.323 -55.906,0 0,17.323 z"
         id="path996" /></clipPath><clipPath
       id="clipPath1038"><path
         d="m 0,2204.724 787.402,0 L 787.402,0 0,0 0,2204.724 z"
         id="path1040" /></clipPath><clipPath
       id="clipPath1046"><path
         d="m 522.047,991.339 55.905,0 0,-17.323 -55.905,0 0,17.323 z"
         id="path1048" /></clipPath><clipPath
       id="clipPath1094"><path
         d="m 0,2204.724 787.402,0 L 787.402,0 0,0 0,2204.724 z"
         id="path1096" /></clipPath><clipPath
       id="clipPath1102"><path
         d="m 365.354,977.166 55.906,0 0,-17.323 -55.906,0 0,17.323 z"
         id="path1104" /></clipPath><clipPath
       id="clipPath1186"><path
         d="m 0,2204.724 787.402,0 L 787.402,0 0,0 0,2204.724 z"
         id="path1188" /></clipPath><clipPath
       id="clipPath1194"><path
         d="m 208.267,984.252 55.906,0 0,-17.322 -55.906,0 0,17.322 z"
         id="path1196" /></clipPath><clipPath
       id="clipPath1254"><path
         d="m 0,2204.724 787.402,0 L 787.402,0 0,0 0,2204.724 z"
         id="path1256" /></clipPath><clipPath
       id="clipPath1262"><path
         d="m 523.622,1150.39 55.905,0 0,-17.32 -55.905,0 0,17.32 z"
         id="path1264" /></clipPath><clipPath
       id="clipPath1322"><path
         d="m 0,2204.724 787.402,0 L 787.402,0 0,0 0,2204.724 z"
         id="path1324" /></clipPath><clipPath
       id="clipPath1330"><path
         d="m 365.748,1145.67 55.905,0 0,-17.32 -55.905,0 0,17.32 z"
         id="path1332" /></clipPath><clipPath
       id="clipPath1374"><path
         d="m 0,2204.724 787.402,0 L 787.402,0 0,0 0,2204.724 z"
         id="path1376" /></clipPath><clipPath
       id="clipPath1382"><path
         d="m 207.874,1149.21 55.905,0 0,-17.32 -55.905,0 0,17.32 z"
         id="path1384" /></clipPath><clipPath
       id="clipPath1430"><path
         d="m 0,2204.724 787.402,0 L 787.402,0 0,0 0,2204.724 z"
         id="path1432" /></clipPath><clipPath
       id="clipPath1438"><path
         d="m 518.504,1309.45 55.905,0 0,-17.32 -55.905,0 0,17.32 z"
         id="path1440" /></clipPath><clipPath
       id="clipPath1502"><path
         d="m 0,2204.724 787.402,0 L 787.402,0 0,0 0,2204.724 z"
         id="path1504" /></clipPath><clipPath
       id="clipPath1510"><path
         d="m 364.567,1295.28 55.905,0 0,-17.33 -55.905,0 0,17.33 z"
         id="path1512" /></clipPath><clipPath
       id="clipPath1578"><path
         d="m 0,2204.724 787.402,0 L 787.402,0 0,0 0,2204.724 z"
         id="path1580" /></clipPath><clipPath
       id="clipPath1586"><path
         d="m 209.448,1307.48 55.906,0 0,-17.32 -55.906,0 0,17.32 z"
         id="path1588" /></clipPath><clipPath
       id="clipPath1642"><path
         d="m 0,2204.724 787.402,0 L 787.402,0 0,0 0,2204.724 z"
         id="path1644" /></clipPath><clipPath
       id="clipPath1650"><path
         d="m 500,1467.32 107.087,0 0,-33.07 -107.087,0 0,33.07 z"
         id="path1652" /></clipPath><clipPath
       id="clipPath1706"><path
         d="m 0,2204.724 787.402,0 L 787.402,0 0,0 0,2204.724 z"
         id="path1708" /></clipPath><clipPath
       id="clipPath1714"><path
         d="m 366.141,1468.5 55.906,0 0,-17.32 -55.906,0 0,17.32 z"
         id="path1716" /></clipPath><clipPath
       id="clipPath1734"><path
         d="m 0,2204.724 787.402,0 L 787.402,0 0,0 0,2204.724 z"
         id="path1736" /></clipPath><clipPath
       id="clipPath1774"><path
         d="m 0,2204.724 787.402,0 L 787.402,0 0,0 0,2204.724 z"
         id="path1776" /></clipPath><clipPath
       id="clipPath1782"><path
         d="m 207.48,1468.5 55.905,0 0,-17.32 -55.905,0 0,17.32 z"
         id="path1784" /></clipPath><clipPath
       id="clipPath1838"><path
         d="m 0,2204.724 787.402,0 L 787.402,0 0,0 0,2204.724 z"
         id="path1840" /></clipPath><clipPath
       id="clipPath1846"><path
         d="m 522.047,1619.69 55.905,0 0,-17.33 -55.905,0 0,17.33 z"
         id="path1848" /></clipPath><clipPath
       id="clipPath1890"><path
         d="m 0,2204.724 787.402,0 L 787.402,0 0,0 0,2204.724 z"
         id="path1892" /></clipPath><clipPath
       id="clipPath1898"><path
         d="m 366.535,1618.9 55.906,0 0,-17.32 -55.906,0 0,17.32 z"
         id="path1900" /></clipPath><clipPath
       id="clipPath1954"><path
         d="m 0,2204.724 787.402,0 L 787.402,0 0,0 0,2204.724 z"
         id="path1956" /></clipPath><clipPath
       id="clipPath1962"><path
         d="m 207.874,1624.41 55.905,0 0,-17.32 -55.905,0 0,17.32 z"
         id="path1964" /></clipPath><clipPath
       id="clipPath2026"><path
         d="m 0,2204.724 787.402,0 L 787.402,0 0,0 0,2204.724 z"
         id="path2028" /></clipPath><clipPath
       id="clipPath2034"><path
         d="m 520.078,1779.92 55.906,0 0,-17.32 -55.906,0 0,17.32 z"
         id="path2036" /></clipPath><clipPath
       id="clipPath2090"><path
         d="m 0,2204.724 787.402,0 L 787.402,0 0,0 0,2204.724 z"
         id="path2092" /></clipPath><clipPath
       id="clipPath2098"><path
         d="m 368.11,1781.89 55.905,0 0,-17.32 -55.905,0 0,17.32 z"
         id="path2100" /></clipPath><clipPath
       id="clipPath2158"><path
         d="m 0,2204.724 787.402,0 L 787.402,0 0,0 0,2204.724 z"
         id="path2160" /></clipPath><clipPath
       id="clipPath2166"><path
         d="m 207.874,1775.59 55.905,0 0,-17.32 -55.905,0 0,17.32 z"
         id="path2168" /></clipPath><clipPath
       id="clipPath2226"><path
         d="m 0,2204.724 787.402,0 L 787.402,0 0,0 0,2204.724 z"
         id="path2228" /></clipPath><clipPath
       id="clipPath2234"><path
         d="m 521.26,1928.35 55.905,0 0,-17.33 -55.905,0 0,17.33 z"
         id="path2236" /></clipPath><clipPath
       id="clipPath2294"><path
         d="m 0,2204.724 787.402,0 L 787.402,0 0,0 0,2204.724 z"
         id="path2296" /></clipPath><clipPath
       id="clipPath2302"><path
         d="m 366.535,1940.16 55.905,0 0,-17.33 -55.905,0 0,17.33 z"
         id="path2304" /></clipPath><clipPath
       id="clipPath2358"><path
         d="m 0,2204.724 787.402,0 L 787.402,0 0,0 0,2204.724 z"
         id="path2360" /></clipPath><clipPath
       id="clipPath2366"><path
         d="m 204.33,1922.84 55.906,0 0,-17.33 -55.906,0 0,17.33 z"
         id="path2368" /></clipPath><clipPath
       id="clipPath2418"><path
         d="m 0,2204.724 787.402,0 L 787.402,0 0,0 0,2204.724 z"
         id="path2420" /></clipPath><clipPath
       id="clipPath2426"><path
         d="m 522.44,2090.16 55.906,0 0,-17.33 -55.906,0 0,17.33 z"
         id="path2428" /></clipPath><clipPath
       id="clipPath2478"><path
         d="m 0,2204.724 787.402,0 L 787.402,0 0,0 0,2204.724 z"
         id="path2480" /></clipPath><clipPath
       id="clipPath2486"><path
         d="m 364.566,2100.79 55.906,0 0,-17.33 -55.906,0 0,17.33 z"
         id="path2488" /></clipPath><clipPath
       id="clipPath2526"><path
         d="m 0,2204.724 787.402,0 L 787.402,0 0,0 0,2204.724 z"
         id="path2528" /></clipPath><clipPath
       id="clipPath2534"><path
         d="m 207.086,2088.98 55.906,0 0,-17.33 -55.906,0 0,17.33 z"
         id="path2536" /></clipPath></defs><g
     transform="matrix(1.25,0,0,-1.25,-240.12075,352.99929)"
     id="g10"><g
       id="g242"><g
         clip-path="url(#clipPath246)"
         id="g244"><g
           id="g250"><g
             id="g252" /><g
             id="g258"><g
               clip-path="url(#clipPath254)"
               id="g260"
               style="opacity:0.19999701"><g
                 transform="translate(236.5428,210.3591)"
                 id="g262"><path
                   d="m 0,0 c -15.438,0 -27.953,-3.878 -27.953,-8.661 0,-4.784 12.515,-8.662 27.953,-8.662 15.438,0 27.953,3.878 27.953,8.662 C 27.953,-3.878 15.438,0 0,0"
                   id="path264"
                   style="fill:#000000;fill-opacity:1;fill-rule:evenodd;stroke:none" /></g></g></g></g><g
           transform="translate(202.6273,280.3054)"
           id="g266"><path
             d="m 0,0 c -1.025,-0.901 1.214,-9.149 0.325,-15.519 -0.889,-6.37 5.742,-11.067 5.742,-11.067 0,0 7.878,-4.661 13.84,5.755 C 29.519,-4.036 1.025,0.901 0,0 m 66.792,0 c -1.024,0.901 -29.519,-4.036 -19.906,-20.831 5.962,-10.416 13.839,-5.755 13.839,-5.755 0,0 6.632,4.697 5.743,11.067 -0.889,6.37 1.349,14.618 0.324,15.519"
             id="path268"
             style="fill:#6b471c;fill-opacity:1;fill-rule:evenodd;stroke:none" /></g><g
           transform="translate(253.7467,204.3395)"
           id="g270"><path
             d="m 0,0 c -0.966,2.501 -0.221,0.591 -4.212,-0.28 -3.991,-0.87 -6.558,-2.07 -6.558,-2.07 0,0 1.488,-4.511 6.392,-3.441 C 0.526,-4.721 0.718,-1.859 0,0 m -35.463,-0.435 c -1.788,-0.88 -0.063,-4.75 4.922,-5.336 4.985,-0.586 6.026,4.049 6.026,4.049 0,0 -1.624,0.276 -5.681,0.753 -4.057,0.477 -3.479,1.414 -5.267,0.534"
             id="path272"
             style="fill:#6b471c;fill-opacity:1;fill-rule:evenodd;stroke:none" /></g><g
           transform="translate(214.9605,240.5513)"
           id="g274"><path
             d="m 0,0 c -2.441,2.441 -4.384,2.016 -6.473,0.271 1.407,5.493 3.053,15.847 -0.22,11.146 -4.182,-6.006 -10.368,-20.126 -7.48,-18.504 0.801,0.45 1.581,0.859 2.321,1.251 -2.102,-3.062 -3.611,-6.294 -4.683,-8.731 -1.444,-3.281 -0.919,-9.711 0.787,-12.598 1.151,-1.949 1.708,4.349 3.963,8.49 -0.574,-2.257 -0.938,-4.39 -1.206,-6.133 -0.545,-3.542 1.626,-9.618 4.021,-11.965 2.395,-2.347 -1.164,12.459 5.31,13.65 5.605,1.032 6.906,10.89 4.338,15.143 C 1.643,-4.849 1.566,-1.566 0,0 m 58.661,-14.567 c -1.072,2.437 -2.581,5.669 -4.683,8.731 0.74,-0.392 1.52,-0.801 2.321,-1.251 2.888,-1.622 -3.298,12.498 -7.48,18.504 C 45.546,16.118 47.192,5.764 48.599,0.271 46.51,2.016 44.567,2.441 42.126,0 40.56,-1.566 40.483,-4.849 41.448,-7.981 c -2.568,-4.253 -1.267,-14.11 4.338,-15.142 6.474,-1.191 2.915,-15.997 5.31,-13.65 2.395,2.347 4.566,8.423 4.021,11.965 -0.268,1.743 -0.633,3.876 -1.206,6.133 2.255,-4.141 2.812,-10.439 3.963,-8.49 1.706,2.887 2.231,9.317 0.787,12.598"
             id="path276"
             style="fill:#9a6b33;fill-opacity:1;fill-rule:evenodd;stroke:none" /></g><g
           transform="translate(249.4236,271.4949)"
           id="g278"><path
             d="m 0,0 c -3.027,2.04 -6.305,3.452 -9.778,4.028 1.116,1.727 2.523,3.046 2.123,3.568 -0.681,0.887 -3.871,-0.547 -3.871,-0.547 0,0 2.096,3.4 1.106,3.828 -0.838,0.362 -5.346,-2.893 -7.092,-7.002 C -20.709,3.231 -23.739,1.894 -26.548,0 -39.788,-8.9 -48.2,-29.857 -46.462,-46.28 c 0.255,-2.966 0.803,-5.817 1.691,-8.458 3.747,-11.142 17.619,-16.257 31.497,-15.917 13.878,-0.34 27.749,4.775 31.496,15.917 0.888,2.641 1.436,5.492 1.691,8.458 C 21.651,-29.857 13.239,-8.9 0,0"
             id="path280"
             style="fill:#9a6b33;fill-opacity:1;fill-rule:evenodd;stroke:none" /></g><g
           transform="translate(258.5757,255.6418)"
           id="g282"><path
             d="m 0,0 c -4.979,-2.645 -10.987,-4.49 -17.571,-5.249 0.118,-2.994 1.565,-5.582 4.04,-6.786 3.854,-1.874 9.064,0.175 11.845,4.755 C -0.26,-4.932 0.284,-2.325 0,0 m -43.024,-7.28 c 2.781,-4.58 7.991,-6.629 11.845,-4.755 2.474,1.204 3.921,3.792 4.04,6.786 -6.584,0.759 -12.593,2.604 -17.571,5.249 -0.284,-2.325 0.259,-4.932 1.686,-7.28"
             id="path284"
             style="fill:#ffffff;fill-opacity:1;fill-rule:evenodd;stroke:none" /></g><g
           transform="translate(252.2707,252.9196)"
           id="g286"><path
             d="m 0,0 c -1.915,-0.661 -3.926,-1.22 -6.015,-1.666 -0.044,-0.22 -0.068,-0.449 -0.068,-0.683 0,-1.924 1.567,-3.484 3.501,-3.484 1.935,0 3.502,1.56 3.502,3.484 C 0.92,-1.442 0.57,-0.62 0,0 m -32.101,0 c -0.569,-0.62 -0.92,-1.442 -0.92,-2.349 0,-1.924 1.568,-3.484 3.502,-3.484 1.934,0 3.502,1.56 3.502,3.484 0,0.234 -0.024,0.463 -0.068,0.683 -2.09,0.446 -4.1,1.005 -6.016,1.666"
             id="path288"
             style="fill:#142122;fill-opacity:1;fill-rule:evenodd;stroke:none" /></g><g
           transform="translate(263.1626,235.4009)"
           id="g290"><path
             d="m 0,0 c -9.633,-2.821 -13.384,-0.336 -16.272,-2.682 -2.464,-2.002 -11.687,-13.324 9.716,-8.03 C 9.281,-6.794 17.182,10.242 17.182,10.242 17.182,10.242 9.633,2.821 0,0 M -37.613,-2.682 C -40.5,-0.336 -44.251,-2.821 -53.884,0 c -9.633,2.821 -17.182,10.242 -17.182,10.242 0,0 7.901,-17.036 23.737,-20.954 21.403,-5.294 12.18,6.028 9.716,8.03"
             id="path292"
             style="fill:#fff9a7;fill-opacity:1;fill-rule:evenodd;stroke:none" /></g><g
           transform="translate(231.032,214.2772)"
           id="g294"><path
             d="M 0,0 C -0.323,-2.868 0.616,-5.295 2.537,-5.943 2.612,-5.969 2.687,-5.99 2.762,-6.009 2.069,-4.327 2.095,-1.937 2.996,0.478 3.072,0.683 3.155,0.881 3.241,1.077 2.338,0.872 1.451,0.604 0.588,0.25 0.391,0.172 0.194,0.088 0,0 M 9.983,0 C 9.789,0.088 9.593,0.172 9.395,0.25 8.532,0.604 7.645,0.872 6.742,1.077 6.828,0.881 6.911,0.683 6.987,0.478 c 0.901,-2.415 0.927,-4.805 0.234,-6.487 0.076,0.019 0.151,0.04 0.225,0.066 1.921,0.648 2.861,3.075 2.537,5.943"
             id="path296"
             style="fill:#fff9a7;fill-opacity:1;fill-rule:evenodd;stroke:none" /></g><g
           transform="translate(236.2204,214.1733)"
           id="g298"><path
             d="m 0,0 c 3.991,0 7.575,-0.902 10.091,-2.335 -1.941,2.323 -5.816,3.91 -10.288,3.91 -4.762,0 -8.849,-1.799 -10.642,-4.371 C -8.316,-1.096 -4.404,0 0,0"
             id="path300"
             style="fill:#704a1d;fill-opacity:1;fill-rule:evenodd;stroke:none" /></g><g
           transform="translate(250.6175,230.3213)"
           id="g302"><path
             d="m 0,0 c -1.044,8.636 -11.236,9.172 -14.162,9.172 -1.46,0 -4.87,-0.136 -8.057,-1.344 -1.407,-0.345 -2.7,-1.139 -3.772,-2.197 -1.47,-1.293 -2.573,-3.055 -2.92,-5.456 -0.076,-0.438 -0.121,-0.874 -0.121,-1.302 l 0,-0.415 c 0,-0.02 0.002,-0.039 0.002,-0.059 l 0,-0.299 c 0,-0.366 0.037,-0.74 0.092,-1.115 0.314,-2.561 1.447,-4.403 2.963,-5.725 1.119,-1.113 2.477,-1.942 3.955,-2.259 0.067,-0.011 0.134,-0.019 0.201,-0.029 2.821,-0.949 5.7,-1.06 7.044,-1.06 1.289,0 4.098,0.106 6.931,0.953 0.309,0.045 0.619,0.084 0.928,0.136 1.964,0.422 3.718,1.748 4.98,3.444 0.926,1.109 1.608,2.486 1.888,4.201 0.001,0.003 0.001,0.006 0.002,0.009 0.007,0.045 0.013,0.091 0.02,0.137 0.075,0.44 0.119,0.878 0.119,1.308 l 0,0.301 c 0,0.02 0.002,0.037 0.002,0.057 l 0,0.415 C 0.096,-0.756 0.057,-0.379 0,0"
             id="path304"
             style="fill:#d8aa74;fill-opacity:1;fill-rule:evenodd;stroke:none" /></g><g
           transform="translate(242.1258,234.2521)"
           id="g306"><path
             d="m 0,0 c -1.957,0 -3.543,-2.379 -3.543,-5.315 0,-2.935 1.586,-5.315 3.543,-5.315 1.957,0 3.544,2.38 3.544,5.315 C 3.544,-2.379 1.957,0 0,0 m -12.205,0 c -1.957,0 -3.543,-2.379 -3.543,-5.315 0,-2.935 1.586,-5.315 3.543,-5.315 1.957,0 3.544,2.38 3.544,5.315 0,2.936 -1.587,5.315 -3.544,5.315"
             id="path308"
             style="fill:#142122;fill-opacity:1;fill-rule:evenodd;stroke:none" /></g><g
           transform="translate(246.063,255.1182)"
           id="g310"><path
             d="m 0,0 c -6.496,-0.394 -7.972,-1.969 -7.48,-3.15 0.492,-1.181 2.362,-3.346 11.023,-1.574 8.662,1.771 13.78,7.874 13.78,7.874 C 17.323,3.15 6.496,0.394 0,0 m -20.079,0 c -6.496,0.394 -17.323,3.15 -17.323,3.15 0,0 5.119,-6.103 13.78,-7.874 8.661,-1.772 10.531,0.393 11.024,1.574 0.492,1.181 -0.985,2.756 -7.481,3.15"
             id="path312"
             style="fill:#142122;fill-opacity:1;fill-rule:evenodd;stroke:none" /></g></g></g></g></svg>
