<?xml version="1.0" encoding="UTF-8" standalone="no"?><!-- Generator: Gravit.io -->
<svg xmlns="http://www.w3.org/2000/svg"
     style="isolation:isolate" viewBox="61.259 106.65 763.241 608.679" width="763.241pt" height="608.679pt"><g><path d=" M 685.008 377.209 C 686.898 377.587 736.797 387.416 770.064 368.892 C 803.331 350.369 815.806 320.882 807.489 282.702 C 799.173 244.521 773.655 237.149 773.655 237.149 C 773.655 237.149 765.905 246.221 749.272 248.301 C 732.639 250.38 727.914 243.387 727.914 243.387 C 727.914 243.387 738.876 238.472 749.272 236.393 C 759.668 234.314 765.339 232.235 765.339 232.235 C 765.339 232.235 735.285 222.972 734.151 194.431 C 733.017 165.891 752.864 153.794 752.486 154.361 C 752.107 154.928 747.193 178.933 750.785 193.865 C 754.376 208.797 764.771 223.162 764.771 223.162 C 764.771 223.162 753.431 193.486 762.314 171.75 C 771.198 150.013 790.856 149.447 790.856 149.447 C 790.856 149.447 779.704 162.866 775.167 183.091 C 770.631 203.315 771.765 219.571 771.765 219.571 C 771.765 219.571 775.734 187.061 793.502 178.177 C 811.27 169.292 824.5 178.933 824.5 178.933 C 824.5 178.933 801.819 181.958 792.935 194.244 C 784.051 206.529 777.625 222.973 777.625 222.973 C 777.625 222.973 802.103 240.457 814.577 260.02 C 827.052 279.583 831.872 328.349 803.803 370.026 C 775.735 411.704 688.693 413.122 688.693 413.122 L 685.008 377.209 Z " fill="rgb(115,147,73)"/><path d=" M 263.411 401.498 C 263.411 401.498 247.25 413.972 212.944 415.106 C 178.638 416.241 139.229 407.167 112.86 369.175 C 86.493 331.184 93.959 299.713 99.44 278.922 C 104.922 258.129 114.184 252.082 114.184 252.082 C 114.184 252.082 133.085 263.8 154.822 256.618 C 176.559 249.435 176.559 230.723 176.559 230.723 C 176.559 230.723 166.541 243.576 151.608 247.356 C 136.676 251.136 125.714 248.49 125.714 248.49 C 125.714 248.49 144.615 234.314 150.286 220.516 C 155.956 206.718 154.443 185.359 144.804 171.75 C 135.164 158.141 128.36 158.708 128.36 158.708 C 128.36 158.708 140.268 175.908 141.402 196.322 C 142.536 216.736 134.598 229.588 134.598 229.588 C 134.598 229.588 142.347 208.419 129.305 189.895 C 116.263 171.372 97.55 170.238 91.124 170.995 C 84.697 171.75 83.752 171.939 83.752 171.939 C 83.752 171.939 102.087 178.744 113.428 195.188 C 124.769 211.632 125.335 227.131 125.335 227.131 C 125.335 227.131 120.232 211.821 100.953 203.693 C 81.673 195.566 61.259 206.718 61.259 206.718 C 61.259 206.718 79.594 208.041 98.307 215.224 C 117.019 222.406 122.5 229.399 121.934 230.156 C 121.366 230.912 107.001 239.606 105.678 243.765 C 104.355 247.923 102.654 252.648 101.709 253.971 C 100.764 255.295 66.174 314.456 92.636 367.758 C 119.098 421.06 169.849 434.386 210.959 437.788 C 252.07 441.19 267.664 430.7 267.664 430.7 L 263.411 401.498 Z " fill="rgb(115,147,73)"/><path d=" M 262.56 448.089 C 262.56 448.089 240.067 456.406 227.403 459.809 C 214.74 463.21 209.825 463.4 209.825 463.4 C 209.825 463.4 204.533 455.272 200.374 455.745 C 196.216 456.217 196.405 473.795 202.453 478.521 C 208.502 483.247 208.691 471.338 208.691 471.338 C 208.691 471.338 234.775 466.235 245.927 466.046 C 257.079 465.856 264.073 466.802 264.073 466.802 L 262.56 448.089 Z " fill="rgb(115,147,73)"/><path d=" M 367.257 582.091 C 366.219 579.435 363.41 580.035 361.672 581.537 C 361.528 581.661 361.389 581.799 361.25 581.935 C 361.011 581.588 360.459 581.419 360.166 581.796 C 355.48 587.795 351.14 594.126 346.744 600.39 C 346.622 600.563 346.498 600.733 346.375 600.906 C 345.739 601.705 345.099 602.5 344.448 603.292 C 343.054 604.988 341.352 606.977 340.25 609.108 C 337.363 612.774 334.355 616.339 331.209 619.813 C 330.04 621.104 329.21 622.529 327.826 623.645 C 327.076 624.25 324.36 623.437 323.583 623.231 C 321.117 622.575 318.273 622.596 316.73 624.901 C 314.396 628.389 319.706 633.441 322.008 635.38 C 323.983 637.045 326.441 638.169 328.942 638.759 C 331.28 639.31 335.52 639.744 336.742 637.095 C 337.99 634.391 335.495 632.202 333.737 630.508 C 332.341 629.162 334.155 627.788 335.032 626.614 C 336.506 624.642 338.025 622.714 339.573 620.799 C 342.082 617.694 344.516 614.528 346.838 611.282 C 348.132 609.475 349.262 607.534 350.661 605.808 C 352.132 603.994 353.849 602.396 355.316 600.574 C 357.827 597.454 360.451 594.389 363.03 591.325 C 365.101 588.865 368.647 585.65 367.257 582.091 Z " fill="rgb(115,147,73)"/><path d=" M 583.506 663.795 C 581.493 663.223 578.922 663.5 576.651 664.152 C 576.552 663.363 576.462 662.573 576.342 661.791 C 575.858 658.653 575.366 655.526 575.103 652.36 C 574.879 649.674 574.402 647.027 574.009 644.364 C 573.536 641.161 573.518 637.917 573.256 634.694 C 572.796 629.028 572.41 623.382 572.5 617.699 C 572.547 614.71 572.608 611.785 572.94 608.809 C 573.242 606.11 573.345 602.65 574.668 600.226 C 575.112 599.413 573.961 598.769 573.444 599.511 C 571.669 602.053 570.646 605.098 569.973 608.214 C 569.533 607.84 568.978 607.597 568.386 607.583 C 565.616 607.519 562.51 609.578 559.976 610.513 C 557.527 611.417 554.17 612.004 552.065 613.681 C 551.022 612.48 549.955 611.3 548.832 610.199 C 546.819 608.226 544.078 607.438 541.87 605.74 C 541.239 605.255 540.688 606.23 541.092 606.749 C 542.527 608.596 544.545 609.854 546.326 611.342 C 548.741 613.36 550.174 616.181 552.036 618.653 C 555.396 623.113 557.944 628.248 560.621 633.138 C 563.433 638.274 565.053 644.056 566.579 649.678 C 567.898 654.545 568.679 659.816 570.433 664.577 C 567.262 667.142 560.554 672.175 564.941 675.428 C 569.507 678.814 577.655 675.614 582.099 673.526 C 584.237 672.522 587.008 670.777 587.231 668.155 C 587.436 665.764 585.606 664.392 583.506 663.795 Z " fill="rgb(115,147,73)"/><path d=" M 743.121 441.106 C 739.569 439.936 737.288 445.519 736.257 448.937 C 732.763 448.539 729.257 448.283 725.737 448.193 C 723.349 448.133 720.961 447.48 718.589 447.195 C 716.237 446.912 713.885 446.624 711.533 446.34 C 706.867 445.774 702.143 444.723 697.692 443.225 C 695.43 442.464 693.159 441.93 691.069 440.74 C 689.842 440.041 688.68 439.233 687.459 438.516 C 686.406 437.527 684.684 437.299 683.905 438.954 C 682.484 441.974 681.672 446.36 682.049 450.05 C 681.724 451.794 681.861 453.559 681.548 455.297 C 681.543 455.326 681.533 455.353 681.528 455.381 C 681.333 455.425 681.137 455.467 680.938 455.497 C 678.821 455.817 678.687 458.481 679.925 459.755 C 679.894 461.01 680.889 461.932 682.172 462.061 C 684.394 462.285 686.474 461.457 688.656 461.167 C 690.825 460.879 692.98 460.503 695.142 460.17 C 700.357 459.366 705.608 458.818 710.855 458.298 C 715.891 457.799 720.803 457.381 725.862 457.236 C 729.416 457.133 733.007 456.508 736.574 456.353 C 736.353 458.522 736.124 461.496 737.226 463.377 C 738.393 465.37 740.64 465.031 742.163 463.794 C 743.966 462.332 744.278 458.144 744.659 456.061 C 745.221 452.982 745.455 450.01 745.565 446.885 C 745.633 444.969 745.304 441.825 743.121 441.106 Z " fill="rgb(115,147,73)"/><path d=" M 662.912 202.962 C 662.215 200.123 658.707 197.41 656.552 196.257 C 654.104 194.946 651.335 194.117 648.729 193.19 C 646.737 192.482 644.695 191.458 642.509 191.862 C 636.819 192.912 640.391 198.953 642.356 202.276 C 641.855 203.706 640.581 205.073 639.743 206.237 C 638.313 208.221 636.757 210.155 635.229 212.065 C 632.827 215.066 630.19 217.66 627.924 220.791 C 622.846 227.801 614.818 231.97 608.483 237.743 C 607.847 238.323 608.692 239.44 609.41 238.943 C 610.039 238.507 610.674 238.081 611.312 237.658 C 610.841 238.099 610.378 238.544 609.932 239.002 C 608.226 240.75 609.925 243.785 612.324 243.111 C 612.41 243.086 612.495 243.057 612.581 243.03 C 612.715 243.259 612.879 243.483 613.077 243.7 C 614.416 245.161 615.988 244.602 617.388 243.62 C 617.41 243.626 617.431 243.638 617.453 243.644 C 617.748 243.73 618.033 243.822 618.316 243.915 C 618.461 244.238 618.658 244.554 618.931 244.858 C 619.052 244.994 619.191 245.102 619.338 245.196 C 619.892 246.311 621.202 247.154 622.331 246.723 C 623.063 248.09 625.461 248.365 626.549 246.84 C 628.753 243.749 630.051 240.242 631.619 236.816 C 633.293 233.158 635.345 229.609 637.479 226.205 C 639.926 222.303 642.393 218.458 645.078 214.709 C 646.999 212.028 649.052 209.187 650.388 206.104 C 654.124 207.26 658.937 209.572 661.775 206.734 C 662.661 205.847 663.025 204.905 663.031 203.958 C 663.065 203.622 663.032 203.282 662.912 202.962 Z " fill="rgb(115,147,73)"/><path d=" M 468.799 189.378 C 467.597 187.354 466.694 185.351 465.845 183.132 C 464.344 179.212 463.443 175.247 462.25 171.237 C 460.969 166.935 459.717 162.807 458.846 158.392 C 457.989 154.048 457.271 149.709 456.608 145.333 C 456.299 143.291 456.159 140.649 455.611 138.284 C 459.24 137.235 463.829 135.212 462.775 131.381 C 461.391 126.346 454.297 127.285 450.597 128.228 C 447.471 129.026 438.832 131 439.006 135.659 C 439.19 140.619 444.831 140.672 448.795 140.676 C 449.348 142.458 449.554 144.41 449.821 146.214 C 450.233 148.984 450.718 151.703 451.253 154.452 C 452.273 159.697 452.715 165.031 453.703 170.281 C 454.671 175.427 454.339 180.736 455.255 185.855 C 455.574 187.633 455.812 189.418 456.013 191.208 C 455.93 192.618 455.925 194.014 456.221 195.216 C 456.302 195.545 456.399 195.837 456.507 196.108 C 456.616 197.25 456.726 198.393 456.848 199.535 C 456.955 200.533 458.291 200.533 458.398 199.535 C 458.446 199.088 458.494 198.646 458.541 198.203 C 459.93 198.625 461.669 198.013 463.264 197.066 C 463.486 197.057 463.707 197.05 463.907 197.021 C 464.819 196.891 465.608 196.448 466.325 195.88 C 466.361 195.851 466.392 195.821 466.426 195.792 C 467.887 195.464 469.207 194.492 469.703 193.148 C 470.166 191.894 469.417 190.417 468.799 189.378 Z " fill="rgb(115,147,73)"/><path d=" M 312.26 276.03 C 310.185 275.281 308.334 273.349 306.502 272.155 C 304.053 270.558 301.905 268.604 299.66 266.742 C 295.139 262.992 290.506 259.346 286.194 255.352 C 283.895 253.222 281.91 250.77 279.661 248.581 C 277.536 246.512 275.398 244.556 273.147 242.618 C 270.144 240.032 267.972 236.761 265.407 233.821 C 265.075 233.366 264.739 232.915 264.4 232.468 C 263.669 231.507 262.854 230.656 262.018 229.833 C 264.047 228.344 265.75 226.551 266.622 224.145 C 267.313 222.233 266.902 219.859 265.401 218.476 C 263.367 216.602 260.375 217.719 258.25 218.757 C 253.139 221.254 247.864 226.456 245.734 231.746 C 244.705 234.302 247.14 235.963 249.329 235.927 C 251.289 235.895 253.208 235.508 255.117 235.095 C 256.188 234.864 257.169 234.402 258.184 234.017 C 259.292 235.521 260.633 236.93 261.651 238.454 C 263.158 240.712 264.686 242.965 266.322 245.134 C 267.199 246.595 268.246 247.935 269.427 249.168 C 272.552 253.253 275.673 257.44 279.162 261.147 C 281.266 263.381 283.21 265.758 285.207 268.089 C 287.46 270.721 289.978 273.097 291.888 276.007 C 293.399 278.31 295.317 280.207 297.07 282.319 C 298.96 284.596 299.722 287.427 301.926 289.455 C 302.169 289.679 302.447 289.752 302.707 289.726 C 303.173 290.869 304.53 291.613 305.823 290.842 C 308.341 289.342 312.094 286.292 312.844 283.066 C 313.084 282.515 313.177 281.899 313.071 281.296 C 313.542 280.747 313.949 280.156 314.217 279.477 C 314.809 277.976 313.572 276.505 312.26 276.03 Z " fill="rgb(115,147,73)"/><path d=" M 496.749 633.134 C 455.838 634.206 409.254 629.442 341.86 580.254 C 274.468 531.067 252.866 485.547 248.356 406.806 C 243.848 328.065 292.046 281 332.307 240.174 C 372.566 199.346 462.159 168.726 536.442 191.408 C 610.725 214.09 677.069 273.062 696.916 349.613 C 716.762 426.164 688.977 509.519 665.161 544.108 C 641.346 578.699 568.953 631.244 496.749 633.134 Z " fill="rgb(146,199,76)"/><path d=" M 430.688 593.725 C 429.809 593.898 440.896 612.438 435.792 642.491 C 430.688 672.544 423.034 700.045 423.034 700.045 C 423.034 700.045 409.424 698.061 407.439 703.448 C 405.455 708.835 441.746 721.026 444.581 712.237 C 447.416 703.448 436.075 703.448 436.643 699.762 C 437.21 696.076 446.282 645.042 452.803 626.614 C 459.324 608.185 467.546 602.23 468.397 601.664 C 469.248 601.096 462.443 587.488 430.688 593.725 Z " fill="rgb(146,199,76)"/><path d=" M 607.512 553.559 C 607.215 554.654 621.31 550.536 635.297 561.876 C 649.284 573.217 693.135 615.178 693.135 615.178 C 693.135 615.178 687.086 623.873 691.245 628.787 C 695.403 633.702 706.933 623.873 712.226 614.8 C 717.519 605.728 715.25 602.325 709.202 602.325 C 703.153 602.325 699.562 607.428 698.05 606.861 C 696.538 606.294 678.77 588.149 658.356 566.224 C 637.943 544.298 631.895 536.926 631.139 529.933 C 630.382 522.939 611.67 538.25 607.512 553.559 Z " fill="rgb(146,199,76)"/><path d=" M 656.656 337.705 C 657.391 338.299 670.832 319.371 692.757 308.03 C 714.683 296.689 729.804 293.287 729.804 293.287 C 729.804 293.287 737.743 303.116 743.035 300.091 C 748.328 297.066 741.712 280.812 736.23 273.44 C 730.75 266.069 726.402 271.74 724.701 275.519 C 723 279.299 724.322 286.104 724.322 286.104 C 724.322 286.104 719.975 289.317 694.836 298.201 C 669.697 307.084 641.156 306.896 640.59 307.084 C 640.022 307.273 635.864 320.882 656.656 337.705 Z " fill="rgb(146,199,76)"/><path d=" M 564.605 250.569 C 565.114 250.256 559.691 210.498 561.203 186.871 C 562.715 163.244 569.898 140.563 569.898 140.563 C 569.898 140.563 580.483 141.319 582.373 135.837 C 584.263 130.355 573.61 125.819 560.886 124.119 C 548.161 122.417 537.577 125.441 538.333 131.679 C 539.088 137.916 553.076 139.05 553.076 139.05 C 553.076 139.05 552.886 176.475 544.948 202.37 C 537.009 228.265 523.967 236.771 523.967 236.771 C 523.967 236.771 544.003 263.232 564.605 250.569 Z " fill="rgb(146,199,76)"/><path d=" M 399.407 242.819 C 398.839 242.819 375.402 225.052 356.689 201.615 C 337.977 178.176 327.014 157.006 327.014 157.006 C 327.014 157.006 337.977 152.66 335.331 147.367 C 332.685 142.075 312.082 150.013 305.088 156.062 C 298.095 162.11 303.576 166.269 309.814 165.323 C 316.052 164.378 318.697 162.299 318.697 162.299 C 318.697 162.299 329.094 177.231 344.971 207.284 C 360.848 237.338 363.872 258.886 364.061 259.453 C 364.25 260.02 372.189 263.989 385.42 257.373 C 398.65 250.758 399.407 242.819 399.407 242.819 Z " fill="rgb(146,199,76)"/><path d=" M 292.613 339.595 C 292.613 339.595 267.475 340.918 242.146 335.815 C 216.819 330.711 182.607 318.614 182.607 318.614 C 182.607 318.614 188.088 305.951 181.473 304.249 C 174.857 302.548 171.833 313.7 167.864 324.474 C 163.895 335.248 166.541 341.296 171.833 337.894 C 177.125 334.492 179.961 328.254 180.717 328.065 C 181.473 327.876 195.375 332.43 224.294 344.149 C 253.213 355.868 272.389 374.374 272.2 374.94 C 272.011 375.508 290.534 366.435 292.613 339.595 Z " fill="rgb(146,199,76)"/><path d=" M 319.264 509.708 C 319.264 509.708 309.625 530.877 281.084 546.945 C 252.542 563.01 229.671 572.839 229.671 572.839 C 229.671 572.839 223.245 562.255 217.008 564.145 C 210.771 566.035 217.763 585.125 222.867 591.174 C 227.971 597.222 230.806 596.844 233.452 594.198 C 236.098 591.551 233.263 581.156 233.263 581.156 C 233.263 581.156 252.92 570.004 282.596 557.718 C 312.271 545.432 326.637 542.975 332.118 543.542 C 337.599 544.109 340.624 544.487 340.624 544.487 C 340.624 544.487 348.751 513.299 319.264 509.708 Z " fill="rgb(146,199,76)"/><path d=" M 550.396 179.649 C 550.254 179.133 549.594 179.204 549.422 179.649 C 547.602 184.377 547.013 189.63 546.023 194.623 C 544.973 199.917 543.583 205.11 541.359 210.069 C 539.077 215.159 536.114 219.762 533.083 224.424 C 531.586 226.729 529.878 228.934 528.161 231.077 C 526.766 232.815 524.804 234.252 524.16 236.448 C 524.018 236.932 524.503 237.45 525 237.288 C 527.106 236.596 528.529 234.479 529.981 232.896 C 531.768 230.948 533.356 228.75 534.872 226.589 C 538.239 221.791 541.261 216.769 543.714 211.445 C 545.833 206.847 547.621 201.503 548.288 196.474 C 548.674 193.556 549.061 190.591 549.729 187.72 C 550.286 185.333 551.058 182.045 550.396 179.649 Z " fill="rgb(115,147,73)"/><path d=" M 565.059 241.228 C 564.66 238.768 564.603 236.288 564.404 233.808 C 563.987 228.61 563.532 223.414 563.088 218.217 C 562.646 213.036 562.144 207.864 561.969 202.664 C 561.887 200.232 561.841 197.81 561.876 195.377 C 561.914 192.785 561.529 190.155 561.8 187.581 C 561.848 187.118 561.102 187.031 561 187.471 C 559.948 191.967 559.851 196.958 559.723 201.558 C 559.568 207.148 559.996 212.649 560.423 218.217 C 560.852 223.797 561.289 229.375 561.976 234.928 C 562.449 238.746 562.178 244.698 565.029 247.593 C 565.337 247.906 565.796 247.651 565.831 247.261 C 566.009 245.251 565.38 243.209 565.059 241.228 Z " fill="rgb(115,147,73)"/><path d=" M 685.575 300.306 C 682.317 300.611 679.214 301.511 676.019 302.203 C 672.233 303.023 668.386 303.316 664.573 303.95 C 657.637 305.099 650.484 304.218 643.545 305.277 C 643.353 305.307 643.301 305.585 643.432 305.707 C 645.517 307.644 648.679 307.291 651.311 307.206 C 655.273 307.077 659.37 307.203 663.297 306.621 C 670.668 305.529 679.07 304.583 685.848 301.313 C 686.321 301.084 686.105 300.257 685.575 300.306 Z " fill="rgb(115,147,73)"/><path d=" M 689.119 309.725 C 687.853 309.632 687.199 309.984 686.187 310.837 C 684.494 312.264 682.647 313.44 680.826 314.695 C 677.464 317.013 674.298 319.54 671.233 322.243 C 668.109 324.995 665.248 328.043 662.245 330.926 C 660.105 332.981 657.035 335.42 656.7 338.555 C 656.632 339.191 657.444 339.354 657.834 339.025 C 658.877 338.149 659.536 336.958 660.415 335.917 C 661.682 334.416 663.118 333.085 664.533 331.725 C 667.286 329.083 669.933 326.334 672.762 323.771 C 678.058 318.97 684.084 315.219 689.457 310.542 C 689.797 310.246 689.5 309.752 689.119 309.725 Z " fill="rgb(115,147,73)"/><path d=" M 643.961 568.31 C 642.807 567.815 641.649 565.574 640.779 564.616 C 639.736 563.468 638.385 562.608 637.253 561.552 C 634.807 559.268 631.489 557.711 628.613 556.053 C 625.417 554.211 621.239 553.497 617.651 552.902 C 614.536 552.385 610.49 552.081 607.472 553.261 C 606.861 553.5 607.096 554.335 607.741 554.236 C 608.818 554.068 610.067 554.462 611.15 554.574 C 613.475 554.815 615.749 555.069 618.039 555.552 C 622.14 556.417 625.915 557.719 629.518 559.837 C 632.33 561.491 634.75 563.458 637.42 565.288 C 638.889 566.294 640.051 567.549 641.44 568.645 C 641.795 568.924 642.161 569.191 642.58 569.363 C 642.838 569.469 643.02 569.547 643.145 569.602 C 643.521 570.007 644.241 569.577 644.305 569.059 C 644.31 569.017 644.314 568.976 644.319 568.935 C 644.346 568.712 644.167 568.397 643.961 568.31 Z " fill="rgb(115,147,73)"/><path d=" M 654.328 559.666 C 653.673 557.377 650.904 555.364 649.298 553.71 C 646.908 551.249 644.912 548.078 642.755 545.393 C 640.567 542.672 638.107 540.068 636.142 537.182 C 634.087 534.165 632.605 530.517 631.376 527.096 C 631.18 526.55 630.282 526.596 630.314 527.24 C 630.65 533.868 634.474 539.404 638.664 544.285 C 641.125 547.152 643.463 550.125 645.947 552.975 C 647.172 554.38 648.756 555.476 649.99 556.917 C 651.075 558.187 651.887 559.58 653.339 560.426 C 653.846 560.72 654.491 560.237 654.328 559.666 Z " fill="rgb(115,147,73)"/><path d=" M 469.889 600.604 C 467.535 602.537 465.39 603.927 463.571 606.492 C 461.686 609.148 459.543 611.584 458.022 614.481 C 456.621 617.153 455.337 620.09 454.208 622.885 C 453.035 625.789 451.059 628.891 450.686 632 C 450.576 632.915 451.829 633.03 452.254 632.425 C 453.822 630.194 454.808 627.614 455.8 625.093 C 456.936 622.207 458.362 619.409 459.623 616.57 C 462.135 610.919 466.212 605.617 470.591 601.306 C 471.056 600.848 470.374 600.206 469.889 600.604 Z " fill="rgb(115,147,73)"/><path d=" M 437.774 613.817 C 436.889 609.924 435.96 606.013 434.542 602.278 C 433.856 600.469 433.201 598.688 432.672 596.824 C 432.184 595.104 431.12 593.841 430.274 592.336 C 430.064 591.962 429.452 592.03 429.351 592.457 C 428.784 594.849 430.247 598 430.923 600.309 C 432.026 604.076 433.28 607.741 434.307 611.538 C 435.433 615.708 435.95 619.607 436.125 623.915 C 436.268 627.431 435.802 631.047 436.34 634.533 C 436.405 634.952 436.992 634.949 437.182 634.643 C 438.831 631.982 438.528 627.932 438.622 624.895 C 438.738 621.162 438.604 617.465 437.774 613.817 Z " fill="rgb(115,147,73)"/><path d=" M 342.684 544.506 C 340.352 542.56 336.108 542.729 333.194 542.64 C 328.564 542.5 323.614 542.846 319.055 543.686 C 314.709 544.487 310.817 546.112 306.609 547.36 C 302.982 548.436 299.871 550.231 296.506 551.814 C 296.061 552.023 296.378 552.773 296.84 552.608 C 299.91 551.504 303.147 550.649 306.258 549.593 C 310.264 548.231 314.25 546.903 318.464 546.393 C 322.73 545.876 327.013 545.351 331.314 545.302 C 334.928 545.261 338.493 545.957 342.088 545.943 C 342.773 545.94 343.269 544.995 342.684 544.506 Z " fill="rgb(115,147,73)"/><path d=" M 319.381 507.063 C 319.246 506.469 318.371 506.362 318.085 506.893 C 316.316 510.186 315.195 513.75 313.101 516.867 C 310.947 520.072 307.906 523.065 305.255 525.865 C 300.083 531.326 294.312 536.183 288.917 541.405 C 288.52 541.788 289.095 542.314 289.505 541.993 C 295.962 536.943 302.355 532.027 308.181 526.222 C 310.913 523.499 313.657 520.659 315.825 517.453 C 317.562 514.883 320.105 510.228 319.381 507.063 Z " fill="rgb(115,147,73)"/><path d=" M 274.11 375.184 C 272.722 372.69 270.1 370.578 267.971 368.719 C 265.454 366.519 262.535 364.813 259.777 362.945 C 257.437 361.361 255.083 359.881 252.774 358.257 C 250.422 356.604 247.776 354.663 244.951 354.031 C 244.415 353.911 244.241 354.636 244.729 354.834 C 246.188 355.426 246.86 356.712 248.105 357.567 C 249.311 358.396 250.545 359.179 251.756 360 C 254.073 361.571 256.157 363.599 258.428 365.253 C 261.186 367.264 264.097 369.047 266.671 371.303 C 268.537 372.938 270.689 376.541 273.476 376.291 C 274.025 376.241 274.399 375.703 274.11 375.184 Z " fill="rgb(115,147,73)"/><path d=" M 293.039 338.192 C 289.524 337.869 285.786 338.417 282.257 338.611 C 278.476 338.818 274.448 338.661 270.669 338.416 C 266.628 338.155 262.488 338.302 258.478 337.707 C 254.757 337.155 251.469 336.578 247.675 336.836 C 247.193 336.87 247.052 337.578 247.557 337.707 C 255.199 339.657 262.784 340.758 270.669 341.105 C 274.801 341.288 279.059 341.457 283.188 341.221 C 286.181 341.051 291.167 341.554 293.496 339.296 C 293.932 338.874 293.572 338.241 293.039 338.192 Z " fill="rgb(115,147,73)"/><path d=" M 364.055 250.984 C 362.551 246.208 361.152 241.402 359.502 236.674 C 358.029 232.454 356.357 228.079 354.199 224.164 C 353.079 222.131 352.164 219.971 350.947 217.993 C 350.039 216.515 349.688 214.771 348.563 213.426 C 348.324 213.139 347.952 213.458 348.001 213.753 C 348.63 217.6 349.999 220.92 351.771 224.425 C 353.839 228.516 355.302 233.06 356.792 237.42 C 358.297 241.821 359.641 246.273 361.086 250.693 C 361.855 253.046 362.772 255.268 363.034 257.752 C 363.222 259.522 363.098 261.242 364.093 262.766 C 364.646 263.615 365.741 263.197 365.859 262.288 C 366.35 258.535 365.168 254.522 364.055 250.984 Z " fill="rgb(115,147,73)"/><path d=" M 404.167 242.318 C 403.364 241.202 402.18 240.864 401.01 240.182 C 398.771 238.878 396.395 237.787 394.137 236.51 C 389.803 234.062 385.608 230.824 381.965 227.466 C 378.661 224.419 374.714 221.597 371.853 218.138 C 370.325 216.292 368.496 214.718 366.97 212.881 C 365.658 211.301 364.26 209.692 362.525 208.562 C 362.205 208.353 361.876 208.813 362.128 209.076 C 363.659 210.678 364.792 212.973 366.134 214.765 C 367.39 216.442 369.063 217.95 370.446 219.544 C 373.621 223.205 377.318 226.554 380.813 229.926 C 384.142 233.136 388.065 235.745 391.913 238.299 C 394.053 239.72 396.509 240.823 398.792 242.001 C 400.253 242.755 401.78 243.61 403.47 243.531 C 404.027 243.505 404.546 242.845 404.167 242.318 Z " fill="rgb(115,147,73)"/><path d=" M 327.771 428.999 C 327.771 429.849 336.275 452.531 349.885 473.512 C 363.494 494.492 378.804 499.029 378.804 499.029 C 378.804 499.029 382.49 488.539 393.831 478.048 C 405.171 467.557 415.945 463.86 415.945 463.86 C 415.945 463.86 420.67 472.094 429.223 491.09 C 437.776 510.086 442.597 529.082 442.597 529.082 C 442.597 529.082 465.562 522.277 486.259 511.503 C 506.956 500.729 515.178 488.539 515.178 488.539 C 515.178 488.539 520.849 501.581 520.281 518.592 C 519.714 535.603 511.209 552.649 512.059 552.632 C 512.91 552.615 539.277 545.527 573.583 518.592 C 607.89 491.657 631.706 456.5 631.706 456.5 C 631.706 456.5 623.2 502.014 576.986 543.617 C 530.772 585.219 489.945 586.354 489.945 586.354 L 477.47 543.617 L 427.57 562.821 C 427.57 562.821 416.229 549.212 411.125 535.603 C 406.022 521.994 407.156 500.163 406.022 500.447 C 404.888 500.729 392.129 512.838 386.459 528.19 C 380.789 543.542 377.953 552.632 377.953 552.632 C 377.953 552.632 350.168 528.276 339.395 489.836 C 328.62 451.398 327.771 428.999 327.771 428.999 Z " fill="rgb(94,123,67)"/><path d=" M 358.391 379.95 C 357.54 381.083 343.364 405.183 358.391 432.118 C 373.417 459.052 398.934 457.635 409.992 453.665 C 421.049 449.696 429.271 428.999 429.271 428.999 L 358.391 379.95 Z " fill="rgb(255,250,213)"/><path d=" M 383.624 401.781 C 383.34 402.631 372.566 415.957 385.892 427.581 C 399.218 439.206 410.275 423.045 410.275 423.045 L 410.275 419.075 L 383.624 401.781 Z " fill="rgb(71,68,48)"/><path d=" M 444.581 448.089 L 447.983 443.743 L 347.049 322.395 C 347.049 322.395 324.935 364.264 325.218 365.16 C 325.502 366.057 444.581 448.089 444.581 448.089 Z " fill="rgb(94,123,67)"/><path d=" M 525.952 435.52 C 526.802 435.803 531.055 459.903 559.975 462.455 C 588.894 465.006 606.062 443.458 607.117 425.313 C 608.173 407.167 598.533 389.306 598.533 389.306 L 552.886 414.823 L 525.952 435.52 Z " fill="rgb(255,250,213)"/><path d=" M 553.454 419.643 C 553.454 419.643 553.454 436.56 571.315 433.771 C 589.177 430.983 580.955 411.199 577.836 410.743 C 574.718 410.287 553.454 419.643 553.454 419.643 Z " fill="rgb(71,68,48)"/><path d=" M 512.343 446.01 L 508.374 444.025 L 624.334 340.824 L 631.706 359.819 L 644.322 377.965 L 639.876 385.242 L 512.343 446.01 Z " fill="rgb(94,123,67)"/></g></svg>
