<?xml version="1.0" encoding="UTF-8" standalone="no"?><!-- Generator: Gravit.io -->
<svg xmlns="http://www.w3.org/2000/svg"
     style="isolation:isolate" viewBox="1698.687 899.759 628.407 583.328" width="628.407pt" height="583.328pt"><g><path d=" M 1972.04 996.525 C 1972.04 996.525 1955.05 965.662 1957.82 963.235 C 1960.59 960.807 1991.8 977.799 1991.8 977.799 L 1972.04 996.525 Z " fill="rgb(194,54,60)"/><path d=" M 2051.8 959.073 C 2051.8 959.073 2058.04 917.46 2059.77 916.767 C 2061.5 916.074 2080.58 959.073 2080.58 959.073 L 2051.8 959.073 Z " fill="rgb(194,54,60)"/><path d=" M 2149.24 1007.62 C 2150.63 1007.27 2190.51 984.388 2193.63 987.855 C 2196.75 991.323 2171.43 1032.94 2171.43 1032.94 L 2149.24 1007.62 Z " fill="rgb(194,54,60)"/><path d=" M 2277.2 1097.44 C 2278.93 1097.09 2322.97 1071.43 2326.79 1073.16 C 2330.6 1074.9 2297.31 1122.4 2297.31 1122.4 L 2277.2 1097.44 Z " fill="rgb(194,54,60)"/><path d=" M 2295.92 1243.77 C 2296.96 1244.12 2327.83 1271.17 2325.4 1273.94 C 2322.97 1276.72 2281.36 1265.97 2281.36 1265.97 L 2295.92 1243.77 Z " fill="rgb(194,54,60)"/><path d=" M 2239.4 1281.92 C 2239.4 1281.92 2249.11 1317.64 2247.72 1319.37 C 2246.34 1321.1 2205.07 1302.03 2205.07 1302.03 L 2239.4 1281.92 Z " fill="rgb(194,54,60)"/><path d=" M 1800.73 1351.27 C 1800.73 1351.27 1765.01 1327.35 1767.09 1324.57 C 1769.18 1321.8 1810.44 1319.72 1810.44 1319.72 L 1800.73 1351.27 Z " fill="rgb(194,54,60)"/><path d=" M 1753.22 1180.66 C 1753.22 1180.66 1705.02 1171.3 1706.41 1167.14 C 1707.8 1162.98 1753.22 1150.49 1753.22 1150.49 L 1753.22 1180.66 Z " fill="rgb(194,54,60)"/><path d=" M 1816.68 1082.18 C 1816.68 1082.18 1817.38 1036.4 1820.15 1034.32 C 1822.93 1032.24 1853.44 1079.4 1853.44 1079.4 L 1816.68 1082.18 Z " fill="rgb(194,54,60)"/><path d=" M 1927.3 1411.27 C 1908.99 1408.98 1910.31 1413 1878.76 1427.22 C 1847.2 1441.44 1817.72 1423.4 1798.65 1401.21 C 1779.58 1379.02 1788.25 1351.27 1797.26 1325.61 C 1806.28 1299.95 1795.18 1287.81 1777.84 1262.85 C 1760.51 1237.88 1723.05 1188.64 1745.59 1124.48 C 1768.14 1060.33 1806.97 1068.31 1838.88 1069.69 C 1870.78 1071.08 1900.6 1058.94 1933.55 1029.12 C 1966.49 999.3 1973.77 963.928 2031.68 951.791 C 2089.59 939.655 2119.07 954.913 2140.92 982.307 C 2162.76 1009.7 2182.18 1029.82 2227.26 1052.01 C 2272.34 1074.2 2306.67 1091.54 2317.77 1141.48 C 2328.87 1191.41 2316.04 1248.98 2295.58 1267.7 C 2275.12 1286.43 2234.2 1290.59 2205.07 1314.86 C 2175.94 1339.14 2179.41 1368.61 2173.86 1393.23 C 2168.31 1417.85 2142.65 1443.52 2090.63 1458.77 C 2038.62 1474.03 2009.14 1468.14 1983.83 1449.06 C 1958.51 1429.99 1952.27 1414.39 1927.3 1411.27 Z " fill="rgb(252,195,78)"/><path d=" M 2241.83 1068.92 C 2217.38 1056.96 2191.37 1053.84 2164.84 1046.03 C 2135.2 1037.71 2115.95 1012.74 2107.63 984.656 C 2081.62 957.087 2037.41 965.41 2010.36 987.777 C 1985.91 1007.54 1966.66 1029.91 1942.74 1050.72 C 1940.14 1052.8 1938.58 1055.4 1935.97 1057.48 C 1915.69 1074.12 1893.84 1086.09 1868.35 1090.25 C 1857.43 1091.81 1847.03 1090.25 1836.1 1091.81 C 1825.18 1093.89 1815.3 1098.05 1807.49 1105.85 C 1789.29 1125.1 1779.93 1152.15 1787.21 1178.16 C 1794.49 1205.72 1813.74 1225.49 1832.98 1246.82 C 1856.91 1273.86 1837.14 1307.15 1819.98 1333.16 C 1809.58 1348.77 1811.13 1368.53 1826.74 1379.46 C 1851.19 1396.62 1878.24 1379.98 1903.72 1375.3 C 1924.53 1371.65 1945.34 1363.85 1964.58 1373.22 C 1976.05 1378.95 1979.45 1390.48 1979.88 1402.48 C 2006.12 1394.41 2038.89 1406.56 2050.41 1431.99 C 2062.37 1436.68 2075.38 1432.51 2086.82 1428.35 C 2105.55 1421.59 2123.23 1411.19 2136.76 1395.58 C 2153.4 1375.82 2152.88 1352.41 2157.04 1327.96 C 2158.6 1316 2174.73 1312.36 2184.09 1304.55 C 2191.37 1298.83 2198.66 1293.11 2202.3 1284.27 C 2206.46 1273.86 2202.3 1263.46 2205.42 1253.06 C 2206.46 1249.94 2206.98 1246.82 2208.54 1243.7 C 2216.34 1230.17 2230.38 1224.45 2240.27 1213.01 C 2242.35 1210.93 2244.95 1208.32 2247.55 1206.76 C 2265.75 1195.84 2283.96 1182.32 2287.08 1161.51 C 2293.32 1124.58 2276.68 1086.09 2241.83 1068.92 Z " fill="rgb(250,182,79)"/><path d=" M 2251.71 1131.86 C 2244.95 1112.1 2218.94 1121.98 2201.25 1117.3 C 2192.93 1114.7 2183.05 1111.06 2181.49 1101.17 C 2179.93 1090.25 2184.61 1079.33 2180.97 1068.92 C 2177.85 1059.04 2166.92 1055.4 2157.56 1052.8 C 2134.16 1047.08 2110.23 1051.76 2088.9 1039.79 C 2074.34 1030.95 2082.14 1013.78 2078.5 1000.78 C 2072.78 980.495 2044.17 987.777 2032.2 999.741 C 2029.6 1002.34 2026.48 1004.42 2023.36 1007.02 C 2015.04 1014.83 2008.8 1024.71 2006.2 1036.67 C 2002.55 1050.72 1992.67 1060.6 1977.59 1063.72 C 1964.58 1066.32 1952.1 1066.32 1940.66 1071.52 C 1938.05 1072.56 1935.97 1073.6 1933.89 1076.2 C 1927.13 1085.57 1924.53 1095.45 1917.77 1104.81 C 1900.08 1130.3 1869.91 1126.66 1842.34 1132.38 C 1828.3 1134.98 1816.34 1146.43 1812.7 1160.47 C 1810.1 1171.91 1811.13 1183.36 1815.3 1193.24 C 1823.1 1214.57 1843.91 1226.53 1861.07 1241.61 C 1878.24 1257.22 1892.8 1282.71 1874.6 1304.03 C 1874.07 1304.55 1874.6 1306.11 1874.6 1307.15 C 1871.99 1312.88 1868.87 1318.6 1864.71 1323.28 C 1858.47 1330.56 1852.23 1340.97 1857.43 1349.29 C 1862.11 1357.61 1871.99 1357.61 1880.84 1355.53 C 1908.93 1349.29 1933.89 1342.01 1961.98 1338.36 C 1969.86 1337.49 1977.55 1337.68 1985.11 1338.66 C 1990.53 1340.9 1995.83 1343.71 2000.99 1347.21 C 2009.32 1352.93 2008.8 1364.37 2015.04 1370.61 C 2023.36 1380.5 2037.41 1372.18 2049.37 1373.74 C 2056.13 1374.77 2059.25 1379.46 2064.45 1383.1 C 2070.17 1387.26 2081.62 1387.26 2085.26 1378.42 C 2093.58 1359.17 2082.14 1332.64 2100.86 1321.72 C 2112.83 1314.44 2129.47 1322.76 2140.92 1311.84 C 2158.08 1295.71 2172.65 1277.51 2179.93 1255.14 C 2184.09 1241.61 2177.33 1227.05 2182.01 1214.05 C 2186.69 1202.08 2197.61 1194.8 2209.06 1189.08 C 2230.9 1177.64 2260.55 1157.87 2251.71 1131.86 Z " fill="rgb(248,161,77)"/><path d=" M 1698.78 1279.49 C 1695.81 1276.1 1764.84 1229.21 1767.01 1229.21 C 1769.18 1229.21 1783.74 1225.74 1791.72 1239.61 C 1799.69 1253.48 1793.26 1269.06 1788.72 1270.48 C 1784.19 1271.89 1701.21 1282.27 1698.78 1279.49 Z " fill="rgb(234,52,68)"/><path d=" M 1862.46 976.413 C 1858.68 977.285 1886.38 1071.08 1888.81 1072.47 C 1891.24 1073.86 1912.74 1078.02 1923.84 1069.69 C 1934.93 1061.37 1934.93 1046.81 1919.67 1030.51 C 1904.42 1014.21 1866.97 975.373 1862.46 976.413 Z " fill="rgb(234,52,68)"/><path d=" M 2246.68 1007.97 C 2246.68 1007.97 2196.75 1056.86 2195.71 1058.6 C 2194.67 1060.33 2194.67 1073.86 2212 1078.71 C 2229.34 1083.57 2235.93 1079.4 2238.71 1071.08 C 2241.48 1062.76 2251.54 1010.74 2250.15 1007.97 C 2248.76 1005.2 2246.68 1007.97 2246.68 1007.97 Z " fill="rgb(234,52,68)"/><path d=" M 2226.46 1389.77 C 2228.3 1388.38 2179.76 1343.3 2175.25 1340.52 C 2170.74 1337.75 2157.22 1335.67 2150.28 1350.93 C 2143.34 1366.19 2153.7 1373.51 2164.79 1377.67 C 2175.89 1381.83 2226.46 1389.77 2226.46 1389.77 Z " fill="rgb(234,52,68)"/><path d=" M 1934.93 1483.05 C 1932.4 1482.3 1951.23 1391.5 1952.97 1389.77 C 1954.7 1388.03 1965.8 1376.94 1981.4 1389.77 C 1997.01 1402.6 2000.82 1415.77 1997.35 1419.94 C 1993.88 1424.1 1940.83 1484.78 1934.93 1483.05 Z " fill="rgb(234,52,68)"/><path d=" M 1862.1 1118.76 C 1862.1 1118.76 1855.16 1153.09 1862.1 1193.67 C 1869.05 1234.24 1880.49 1246.03 1883.09 1243.77 C 1885.69 1241.52 1945.07 1223.31 1966.62 1216.55 C 1988.16 1209.79 2008.45 1205.11 2008.45 1205.11 L 2041.22 1279.96 C 2041.22 1279.96 2130.69 1276.89 2162.94 1239.44 C 2195.19 1201.99 2195.34 1112 2195.34 1112 C 2195.34 1112 2215.47 1206.43 2180.1 1259.09 C 2144.73 1311.74 2037.95 1321.45 2030.22 1319.72 C 2022.49 1317.98 1995.45 1246.03 1989.72 1243.77 C 1984 1241.52 1872.69 1286.77 1868.53 1284.69 C 1864.37 1282.61 1846.16 1246.2 1844.6 1200.95 C 1843.04 1155.69 1862.1 1118.76 1862.1 1118.76 Z " fill="rgb(125,54,48)"/><path d=" M 1924.88 1118.94 L 1984.17 1138.01 C 1984.17 1138.01 1969.96 1159.51 1942.91 1150.49 C 1915.86 1141.48 1924.88 1118.94 1924.88 1118.94 Z " fill="rgb(250,224,214)"/><path d=" M 1884.65 1161.59 L 1953.8 1187.25 C 1953.8 1187.25 1939.79 1209.44 1911.01 1200.43 C 1882.22 1191.41 1884.65 1161.59 1884.65 1161.59 Z " fill="rgb(250,224,214)"/><path d=" M 2060.47 1118.94 L 2119.76 1105.06 C 2119.76 1105.06 2121.5 1129.12 2093.76 1135.82 C 2066.01 1142.52 2060.47 1118.94 2060.47 1118.94 Z " fill="rgb(250,224,214)"/><path d=" M 2078.15 1179.62 L 2144.04 1161.59 C 2144.04 1161.59 2144.73 1188.98 2123.23 1194.88 C 2101.73 1200.77 2078.15 1179.62 2078.15 1179.62 Z " fill="rgb(250,224,214)"/><path d=" M 1951.5 1133.74 C 1950.16 1132.62 1948.41 1132.97 1947.24 1134.13 C 1946.7 1134.66 1946.32 1135.37 1946.19 1136.11 C 1946.02 1136.46 1945.9 1136.83 1945.85 1137.21 C 1945.71 1138.34 1946.71 1139.15 1947.64 1139.5 C 1948.13 1139.68 1948.65 1139.75 1949.16 1139.71 C 1949.33 1139.71 1949.5 1139.69 1949.67 1139.65 C 1950.96 1139.41 1952.13 1138.56 1952.58 1137.34 C 1953.02 1136.15 1952.44 1134.52 1951.5 1133.74 Z " fill="rgb(125,54,48)"/><path d=" M 1921.94 1182.84 C 1921.04 1180.95 1918.94 1180.77 1917.19 1181.47 C 1916.98 1181.46 1916.77 1181.45 1916.55 1181.48 C 1915.82 1181.57 1915.23 1181.91 1915 1182.66 C 1914.93 1182.91 1914.88 1183.17 1914.85 1183.43 C 1914.58 1184.04 1914.61 1184.74 1914.84 1185.36 C 1914.52 1186.83 1915.6 1188.04 1916.95 1188.5 C 1917.36 1188.64 1917.79 1188.66 1918.2 1188.6 C 1921.02 1188.9 1923.12 1185.31 1921.94 1182.84 Z " fill="rgb(125,54,48)"/><path d=" M 2096.06 1119.48 C 2095.1 1117.58 2092.31 1117.69 2090.62 1118.29 C 2089.02 1118.86 2088.06 1120.01 2087.87 1121.66 C 2087.85 1121.81 2087.86 1121.96 2087.88 1122.1 C 2087.77 1123.08 2088.03 1124.13 2088.58 1124.91 C 2090.09 1127.05 2092.77 1126.99 2094.58 1125.3 C 2096.12 1123.88 2097.05 1121.45 2096.06 1119.48 Z " fill="rgb(125,54,48)"/><path d=" M 2120.68 1179.46 C 2120.19 1178.39 2119.02 1177.64 2117.92 1177.34 C 2117.85 1177.32 2117.78 1177.31 2117.72 1177.3 C 2117.71 1177.3 2117.71 1177.3 2117.71 1177.3 C 2117.71 1177.3 2117.7 1177.3 2117.7 1177.3 C 2116.4 1177.02 2115.09 1177.46 2114.35 1178.61 C 2113.42 1180.09 2113.76 1183.03 2115.75 1183.44 C 2115.79 1183.45 2115.83 1183.45 2115.87 1183.45 C 2115.89 1183.46 2115.91 1183.48 2115.94 1183.49 C 2117.06 1184.09 2118.28 1183.81 2119.35 1183.24 C 2120.77 1182.48 2121.37 1180.92 2120.68 1179.46 Z " fill="rgb(125,54,48)"/></g></svg>
