<?xml version="1.0" encoding="UTF-8" standalone="no"?><!-- Generator: Gravit.io -->
<svg xmlns="http://www.w3.org/2000/svg"
     style="isolation:isolate" viewBox="1787.341 65.327 500.061 704.313" width="500.061pt" height="704.313pt"><g><g><path d=" M 2116.44 550.819 C 2116.44 550.819 2155.97 554.287 2155.63 558.102 C 2155.28 561.916 2127.89 577.868 2126.5 577.174 C 2125.11 576.48 2116.44 550.819 2116.44 550.819 Z " fill="rgb(171,53,56)"/><path d=" M 2141.76 639.247 C 2141.76 639.247 2176.78 643.061 2176.78 646.182 C 2176.78 649.303 2141.76 661.787 2141.76 661.787 L 2141.76 639.247 Z " fill="rgb(171,53,56)"/><path d=" M 2003.05 472.448 C 2003.05 472.448 2054.37 588.271 2067.2 618.093 C 2080.03 647.916 2080.38 660.746 2081.42 678.085 C 2082.46 695.423 2081.07 714.496 2077.6 719.004 C 2074.14 723.512 2033.56 743.972 2019.35 743.625 C 2005.13 743.278 1970.1 735.302 1965.25 732.875 C 1960.39 730.448 1945.83 715.189 1947.56 710.681 C 1949.3 706.173 1974.26 670.803 1965.25 633.698 C 1956.23 596.593 1941.32 585.843 1914.97 581.335 C 1888.61 576.828 1846.65 575.44 1833.13 591.392 C 1819.6 607.343 1823.42 617.053 1834.86 650.517 C 1846.31 683.98 1848.04 699.238 1840.76 708.948 C 1833.47 718.658 1797.76 722.125 1797.76 722.125 C 1797.76 722.125 1819.6 730.101 1841.1 721.432 C 1862.6 712.762 1862.26 704.439 1854.97 673.577 C 1847.69 642.713 1835.21 613.932 1846.31 605.61 C 1857.4 597.287 1899.01 598.332 1918.43 606.999 C 1937.85 615.666 1944.44 644.794 1942.36 650.517 C 1940.28 656.238 1918.78 699.585 1925.02 726.98 C 1931.27 754.375 1964.21 759.23 1999.93 767.206 C 2035.64 775.181 2104.3 763.391 2125.8 734.262 C 2147.3 705.133 2161.51 672.539 2147.65 619.134 C 2133.78 565.73 2092.17 470.368 2092.17 470.368 L 2003.05 472.448 Z " fill="rgb(194,54,60)"/><path d=" M 2022.47 579.602 C 2021.38 576.697 2047.78 551.166 2049.86 550.819 C 2051.94 550.473 2063.73 549.779 2066.85 557.061 C 2069.97 564.344 2065.81 573.36 2064.43 574.4 C 2063.04 575.44 2023.51 582.375 2022.47 579.602 Z " fill="rgb(234,52,68)"/><path d=" M 2049.86 661.787 C 2049.86 657.972 2079.34 633.698 2079.34 633.698 C 2079.34 633.698 2089.05 636.473 2090.09 641.674 C 2091.13 646.876 2086.62 655.892 2086.62 655.892 L 2049.86 661.787 Z " fill="rgb(234,52,68)"/><path d=" M 2116.44 476.957 C 2116.44 476.957 2159.79 520.998 2159.27 519.609 C 2158.75 518.223 2149.73 466.554 2149.73 466.554 L 2116.44 476.957 Z " fill="rgb(194,54,60)"/><path d=" M 2227.41 376.393 C 2227.41 376.393 2281.51 399.28 2281.51 401.013 C 2281.51 402.748 2219.09 408.643 2219.09 408.643 L 2227.41 376.393 Z " fill="rgb(194,54,60)"/><path d=" M 2227.06 286.232 C 2227.06 286.232 2287.05 289.699 2287.4 291.78 C 2287.75 293.86 2234 316.054 2234 316.054 L 2227.06 286.232 Z " fill="rgb(194,54,60)"/><path d=" M 2178.17 179.079 C 2178.17 179.079 2229.49 156.884 2230.88 158.272 C 2232.26 159.659 2201.06 206.474 2201.06 206.474 L 2178.17 179.079 Z " fill="rgb(194,54,60)"/><path d=" M 2106.73 142.667 C 2107.77 141.974 2142.8 98.974 2144.53 99.321 C 2146.26 99.668 2138.98 155.151 2138.98 155.151 L 2106.73 142.667 Z " fill="rgb(194,54,60)"/><path d=" M 2002.7 148.563 C 2002.7 148.563 1996.46 99.663 1998.89 99.318 C 2001.31 98.974 2031.83 138.506 2031.83 138.506 L 2002.7 148.563 Z " fill="rgb(194,54,60)"/><path d=" M 1938.89 167.982 C 1938.89 167.982 1926.06 117.006 1928.14 115.966 C 1930.22 114.925 1969.06 158.21 1969.06 158.21 L 1938.89 167.982 Z " fill="rgb(194,54,60)"/><path d=" M 1877.86 221.039 C 1877.86 221.039 1813.01 212.716 1811.28 215.49 C 1809.55 218.264 1865.03 254.329 1865.03 254.329 L 1877.86 221.039 Z " fill="rgb(194,54,60)"/><path d=" M 1865.03 279.296 C 1865.03 279.296 1796.37 297.329 1796.72 299.063 C 1797.06 300.796 1866.77 308.772 1866.77 308.772 L 1865.03 279.296 Z " fill="rgb(194,54,60)"/><path d=" M 1898.67 397.546 C 1898.67 397.546 1868.5 445.748 1869.89 447.482 C 1871.27 449.215 1916.7 424.595 1916.7 424.595 L 1898.67 397.546 Z " fill="rgb(194,54,60)"/><path d=" M 2045.21 492.578 C 2024.13 493.795 1974.79 478.518 1953.46 466.554 C 1932.13 454.589 1898.49 429.102 1877.86 382.808 C 1857.23 336.513 1846.83 284.498 1857.75 242.365 C 1868.67 200.232 1909.28 171.471 1966.49 149.797 C 2023.71 128.124 2063.73 121.687 2117.83 136.772 C 2171.93 151.856 2198.45 180.722 2214.58 214.924 C 2230.7 249.126 2245.79 277.215 2241.11 324.55 C 2236.43 371.884 2228.1 415.578 2211.98 437.424 C 2195.85 459.271 2165.68 474.356 2129.27 483.199 C 2092.86 492.042 2071.94 491.034 2045.21 492.578 Z " fill="rgb(234,52,68)"/><path d=" M 1942.01 526.545 C 1938.37 527.373 1962.13 439.505 1965.25 436.037 C 1968.37 432.569 1979.81 431.529 1989.52 436.037 C 1999.23 440.545 1999.46 450.948 1989.51 464.473 C 1979.56 477.997 1949.64 524.811 1942.01 526.545 Z " fill="rgb(238,95,89)"/><path d=" M 1886.53 359.748 C 1886.35 359.779 1885.87 359.878 1885.13 360.016 C 1872.86 362.279 1788.33 376.907 1787.35 373.965 C 1786.31 370.844 1872.66 327.844 1875.43 326.803 C 1878.21 325.763 1888.61 327.15 1891.73 339.981 C 1894.85 352.812 1896.3 357.99 1886.53 359.748 Z " fill="rgb(238,95,89)"/><path d=" M 1895.89 208.901 C 1895.89 208.901 1848.39 146.481 1850.47 144.054 C 1852.55 141.627 1925.72 181.159 1926.41 182.199 C 1927.1 183.239 1929.88 196.07 1917.74 205.78 C 1905.6 215.49 1895.89 208.901 1895.89 208.901 Z " fill="rgb(238,95,89)"/><path d=" M 2041.89 148.563 C 2042.58 147.175 2059.57 82.675 2063.04 82.328 C 2066.51 81.982 2078.3 148.563 2078.3 148.563 C 2078.3 148.563 2073.79 158.841 2060.61 158.903 C 2047.43 158.965 2041.89 148.563 2041.89 148.563 Z " fill="rgb(238,95,89)"/><path d=" M 2277.69 209.594 C 2277.69 209.594 2221.17 257.449 2219.09 257.449 C 2217.01 257.449 2201.4 250.514 2198.63 243.579 C 2195.85 236.643 2202.79 224.853 2202.79 224.853 L 2277.69 209.594 Z " fill="rgb(238,95,89)"/><path d=" M 2211.46 504.352 C 2210.12 505.45 2164.64 455.11 2164.64 453.723 C 2164.64 452.335 2164.64 434.651 2175.74 428.756 C 2186.84 422.86 2200.71 434.65 2201.06 436.384 C 2201.4 438.118 2215.27 501.23 2211.46 504.352 Z " fill="rgb(238,95,89)"/><path d=" M 2016.66 392.17 C 2017.44 391.91 2060.87 394.251 2060.87 394.251 C 2060.87 394.251 2147.22 399.713 2148.26 399.973 C 2149.3 400.233 2178.95 404.915 2179.73 404.915 C 2180.51 404.915 2200.53 407.515 2201.58 406.215 C 2202.62 404.915 2205.74 397.546 2205.74 397.546 C 2205.74 397.546 2184.67 382.548 2139.94 380.987 C 2095.2 379.426 2040.07 375.266 2013.8 376.305 C 1987.53 377.346 1940.45 377.085 1937.07 379.687 C 1933.69 382.288 1951.64 392.109 1955.8 391.36 C 1959.96 390.61 2016.66 392.17 2016.66 392.17 Z " fill="rgb(129,47,48)"/><path d=" M 2022.38 392.321 C 2022.38 392.321 2020.3 373.445 2021.08 372.145 C 2021.86 370.844 2027.58 359.4 2029.14 359.661 C 2030.7 359.92 2040.33 366.423 2040.33 367.203 C 2040.33 367.983 2040.33 393.177 2040.33 393.177 L 2022.38 392.321 Z " fill="rgb(250,224,214)"/><path d=" M 2152.14 400.632 C 2152.14 400.632 2152.06 376.007 2153.15 376.417 C 2154.24 376.826 2158.58 371.104 2159.27 371.104 C 2159.96 371.104 2170.63 378.126 2170.89 379.167 C 2171.15 380.207 2168.34 403.207 2168.34 403.207 L 2152.14 400.632 Z " fill="rgb(250,224,214)"/><path d=" M 2169.33 319.348 C 2174.01 319.869 2178.17 318.308 2180.77 314.667 C 2181.58 313.341 2182.12 311.995 2182.42 310.646 C 2174.31 310.655 2165.59 310.664 2157.3 310.668 C 2158.63 315.412 2164.13 318.149 2169.33 319.348 Z " fill="rgb(129,47,48)"/><path d=" M 2030.96 313.106 C 2034.6 314.146 2038.76 314.667 2041.89 312.586 C 2044.92 310.853 2045.96 308.308 2046 305.44 C 2043.26 304.693 2040.33 303.947 2037.2 303.223 C 2033.87 302.451 2030.22 301.693 2026.42 300.958 C 2025.88 305.78 2026.53 311.332 2030.96 313.106 Z " fill="rgb(129,47,48)"/><path d=" M 2182.42 310.646 C 2182.12 311.995 2181.58 313.341 2180.77 314.667 C 2178.17 318.308 2174.01 319.869 2169.33 319.348 C 2164.13 318.149 2158.63 315.412 2157.3 310.668 C 2137.38 310.679 2119.94 310.668 2119.39 310.597 C 2119.39 310.597 2123.03 327.931 2126.41 333.913 C 2129.79 339.895 2147.74 349.257 2150.86 351.598 C 2153.98 353.939 2179.47 352.118 2182.85 351.598 C 2186.23 351.078 2211.98 337.034 2213.54 335.213 C 2215.1 333.393 2216.14 310.597 2216.14 310.597 C 2216.14 310.597 2200.85 310.624 2182.42 310.646 Z " fill="rgb(250,224,214)"/><path d=" M 2046 305.44 C 2045.96 308.308 2044.92 310.853 2041.89 312.586 C 2038.76 314.667 2034.6 314.146 2030.96 313.106 C 2026.53 311.332 2025.88 305.78 2026.42 300.958 C 2005.89 296.989 1981.13 293.738 1980.25 293.08 C 1979.21 292.3 1979.47 309.465 1980.25 312.326 C 1981.03 315.187 1985.71 322.729 1990.13 324.81 C 1994.55 326.89 2013.02 336.513 2013.8 336.774 C 2014.58 337.034 2049.17 339.115 2050.21 338.594 C 2051.25 338.074 2061.39 332.872 2063.47 331.68 C 2065.55 330.489 2071.19 314.146 2071.19 314.146 C 2071.19 314.146 2061.96 309.789 2046 305.44 Z " fill="rgb(250,224,214)"/></g></g></svg>
