<?xml version="1.0" encoding="UTF-8" standalone="no"?>
<!-- Created with Inkscape (http://www.inkscape.org/) -->

<svg
  xmlns:dc="http://purl.org/dc/elements/1.1/"
  xmlns:cc="http://creativecommons.org/ns#"
  xmlns:rdf="http://www.w3.org/1999/02/22-rdf-syntax-ns#"
  xmlns="http://www.w3.org/2000/svg"
  version="1.1"
  width="154.26012"
  height="128.24065"
  id="svg2"
  xml:space="preserve"><metadata
     id="metadata8"><rdf:RDF><cc:Work
         rdf:about=""><dc:format>image/svg+xml</dc:format><dc:type
           rdf:resource="http://purl.org/dc/dcmitype/StillImage" /><dc:title></dc:title></cc:Work></rdf:RDF></metadata><defs
     id="defs6"><clipPath
       id="clipPath16"><path
         d="m 0,2204.724 787.402,0 L 787.402,0 0,0 0,2204.724 z"
         id="path18" /></clipPath><clipPath
       id="clipPath24"><path
         d="M 3.05176e-5,2204.72 787.402,2204.72 787.402,0 3.05176e-5,0 l 0,2204.72 z"
         id="path26" /></clipPath><clipPath
       id="clipPath38"><path
         d="m 0,2204.724 787.402,0 L 787.402,0 0,0 0,2204.724 z"
         id="path40" /></clipPath><clipPath
       id="clipPath46"><path
         d="m 366.535,64.5675 55.906,0 0,-17.3229 -55.906,0 0,17.3229 z"
         id="path48" /></clipPath><clipPath
       id="clipPath110"><path
         d="m 0,2204.724 787.402,0 L 787.402,0 0,0 0,2204.724 z"
         id="path112" /></clipPath><clipPath
       id="clipPath118"><path
         d="m 522.047,210.237 55.905,0 0,-17.323 -55.905,0 0,17.323 z"
         id="path120" /></clipPath><clipPath
       id="clipPath178"><path
         d="m 0,2204.724 787.402,0 L 787.402,0 0,0 0,2204.724 z"
         id="path180" /></clipPath><clipPath
       id="clipPath186"><path
         d="m 366.142,210.237 55.905,0 0,-17.323 -55.905,0 0,17.323 z"
         id="path188" /></clipPath><clipPath
       id="clipPath246"><path
         d="m 0,2204.724 787.402,0 L 787.402,0 0,0 0,2204.724 z"
         id="path248" /></clipPath><clipPath
       id="clipPath254"><path
         d="m 208.59,210.359 55.906,0 0,-17.323 -55.906,0 0,17.323 z"
         id="path256" /></clipPath><clipPath
       id="clipPath318"><path
         d="m 0,2204.724 787.402,0 L 787.402,0 0,0 0,2204.724 z"
         id="path320" /></clipPath><clipPath
       id="clipPath326"><path
         d="m 516.535,359.843 67.323,0 0,-20.866 -67.323,0 0,20.866 z"
         id="path328" /></clipPath><clipPath
       id="clipPath386"><path
         d="m 0,2204.724 787.402,0 L 787.402,0 0,0 0,2204.724 z"
         id="path388" /></clipPath><clipPath
       id="clipPath394"><path
         d="m 364.567,367.717 55.905,0 0,-17.323 -55.905,0 0,17.323 z"
         id="path396" /></clipPath><clipPath
       id="clipPath450"><path
         d="m 0,2204.724 787.402,0 L 787.402,0 0,0 0,2204.724 z"
         id="path452" /></clipPath><clipPath
       id="clipPath458"><path
         d="m 208.267,360.63 55.906,0 0,-17.323 -55.906,0 0,17.323 z"
         id="path460" /></clipPath><clipPath
       id="clipPath510"><path
         d="m 0,2204.724 787.402,0 L 787.402,0 0,0 0,2204.724 z"
         id="path512" /></clipPath><clipPath
       id="clipPath518"><path
         d="m 521.26,520.473 55.905,0 0,-17.323 -55.905,0 0,17.323 z"
         id="path520" /></clipPath><clipPath
       id="clipPath574"><path
         d="m 0,2204.724 787.402,0 L 787.402,0 0,0 0,2204.724 z"
         id="path576" /></clipPath><clipPath
       id="clipPath582"><path
         d="m 366.142,510.237 55.905,0 0,-17.323 -55.905,0 0,17.323 z"
         id="path584" /></clipPath><clipPath
       id="clipPath638"><path
         d="m 0,2204.724 787.402,0 L 787.402,0 0,0 0,2204.724 z"
         id="path640" /></clipPath><clipPath
       id="clipPath646"><path
         d="m 207.874,522.048 55.905,0 0,-17.323 -55.905,0 0,17.323 z"
         id="path648" /></clipPath><clipPath
       id="clipPath694"><path
         d="m 0,2204.724 787.402,0 L 787.402,0 0,0 0,2204.724 z"
         id="path696" /></clipPath><clipPath
       id="clipPath702"><path
         d="m 523.622,677.56 55.905,0 0,-17.323 -55.905,0 0,17.323 z"
         id="path704" /></clipPath><clipPath
       id="clipPath754"><path
         d="m 0,2204.724 787.402,0 L 787.402,0 0,0 0,2204.724 z"
         id="path756" /></clipPath><clipPath
       id="clipPath762"><path
         d="m 364.566,682.678 55.906,0 0,-17.323 -55.906,0 0,17.323 z"
         id="path764" /></clipPath><clipPath
       id="clipPath814"><path
         d="m 0,2204.724 787.402,0 L 787.402,0 0,0 0,2204.724 z"
         id="path816" /></clipPath><clipPath
       id="clipPath822"><path
         d="m 181.89,704.725 109.449,0 0,-39.764 -109.449,0 0,39.764 z"
         id="path824" /></clipPath><clipPath
       id="clipPath862"><path
         d="m 0,2204.724 787.402,0 L 787.402,0 0,0 0,2204.724 z"
         id="path864" /></clipPath><clipPath
       id="clipPath870"><path
         d="m 522.047,837.796 55.905,0 0,-17.323 -55.905,0 0,17.323 z"
         id="path872" /></clipPath><clipPath
       id="clipPath930"><path
         d="m 0,2204.724 787.402,0 L 787.402,0 0,0 0,2204.724 z"
         id="path932" /></clipPath><clipPath
       id="clipPath938"><path
         d="m 363.779,833.072 55.906,0 0,-17.323 -55.906,0 0,17.323 z"
         id="path940" /></clipPath><clipPath
       id="clipPath982"><path
         d="m 0,2204.724 787.402,0 L 787.402,0 0,0 0,2204.724 z"
         id="path984" /></clipPath><clipPath
       id="clipPath994"><path
         d="m 221.259,837.796 55.906,0 0,-17.323 -55.906,0 0,17.323 z"
         id="path996" /></clipPath><clipPath
       id="clipPath1038"><path
         d="m 0,2204.724 787.402,0 L 787.402,0 0,0 0,2204.724 z"
         id="path1040" /></clipPath><clipPath
       id="clipPath1046"><path
         d="m 522.047,991.339 55.905,0 0,-17.323 -55.905,0 0,17.323 z"
         id="path1048" /></clipPath><clipPath
       id="clipPath1094"><path
         d="m 0,2204.724 787.402,0 L 787.402,0 0,0 0,2204.724 z"
         id="path1096" /></clipPath><clipPath
       id="clipPath1102"><path
         d="m 365.354,977.166 55.906,0 0,-17.323 -55.906,0 0,17.323 z"
         id="path1104" /></clipPath><clipPath
       id="clipPath1186"><path
         d="m 0,2204.724 787.402,0 L 787.402,0 0,0 0,2204.724 z"
         id="path1188" /></clipPath><clipPath
       id="clipPath1194"><path
         d="m 208.267,984.252 55.906,0 0,-17.322 -55.906,0 0,17.322 z"
         id="path1196" /></clipPath><clipPath
       id="clipPath1254"><path
         d="m 0,2204.724 787.402,0 L 787.402,0 0,0 0,2204.724 z"
         id="path1256" /></clipPath><clipPath
       id="clipPath1262"><path
         d="m 523.622,1150.39 55.905,0 0,-17.32 -55.905,0 0,17.32 z"
         id="path1264" /></clipPath><clipPath
       id="clipPath1322"><path
         d="m 0,2204.724 787.402,0 L 787.402,0 0,0 0,2204.724 z"
         id="path1324" /></clipPath><clipPath
       id="clipPath1330"><path
         d="m 365.748,1145.67 55.905,0 0,-17.32 -55.905,0 0,17.32 z"
         id="path1332" /></clipPath><clipPath
       id="clipPath1374"><path
         d="m 0,2204.724 787.402,0 L 787.402,0 0,0 0,2204.724 z"
         id="path1376" /></clipPath><clipPath
       id="clipPath1382"><path
         d="m 207.874,1149.21 55.905,0 0,-17.32 -55.905,0 0,17.32 z"
         id="path1384" /></clipPath><clipPath
       id="clipPath1430"><path
         d="m 0,2204.724 787.402,0 L 787.402,0 0,0 0,2204.724 z"
         id="path1432" /></clipPath><clipPath
       id="clipPath1438"><path
         d="m 518.504,1309.45 55.905,0 0,-17.32 -55.905,0 0,17.32 z"
         id="path1440" /></clipPath><clipPath
       id="clipPath1502"><path
         d="m 0,2204.724 787.402,0 L 787.402,0 0,0 0,2204.724 z"
         id="path1504" /></clipPath><clipPath
       id="clipPath1510"><path
         d="m 364.567,1295.28 55.905,0 0,-17.33 -55.905,0 0,17.33 z"
         id="path1512" /></clipPath><clipPath
       id="clipPath1578"><path
         d="m 0,2204.724 787.402,0 L 787.402,0 0,0 0,2204.724 z"
         id="path1580" /></clipPath><clipPath
       id="clipPath1586"><path
         d="m 209.448,1307.48 55.906,0 0,-17.32 -55.906,0 0,17.32 z"
         id="path1588" /></clipPath><clipPath
       id="clipPath1642"><path
         d="m 0,2204.724 787.402,0 L 787.402,0 0,0 0,2204.724 z"
         id="path1644" /></clipPath><clipPath
       id="clipPath1650"><path
         d="m 500,1467.32 107.087,0 0,-33.07 -107.087,0 0,33.07 z"
         id="path1652" /></clipPath><clipPath
       id="clipPath1706"><path
         d="m 0,2204.724 787.402,0 L 787.402,0 0,0 0,2204.724 z"
         id="path1708" /></clipPath><clipPath
       id="clipPath1714"><path
         d="m 366.141,1468.5 55.906,0 0,-17.32 -55.906,0 0,17.32 z"
         id="path1716" /></clipPath><clipPath
       id="clipPath1734"><path
         d="m 0,2204.724 787.402,0 L 787.402,0 0,0 0,2204.724 z"
         id="path1736" /></clipPath><clipPath
       id="clipPath1774"><path
         d="m 0,2204.724 787.402,0 L 787.402,0 0,0 0,2204.724 z"
         id="path1776" /></clipPath><clipPath
       id="clipPath1782"><path
         d="m 207.48,1468.5 55.905,0 0,-17.32 -55.905,0 0,17.32 z"
         id="path1784" /></clipPath><clipPath
       id="clipPath1838"><path
         d="m 0,2204.724 787.402,0 L 787.402,0 0,0 0,2204.724 z"
         id="path1840" /></clipPath><clipPath
       id="clipPath1846"><path
         d="m 522.047,1619.69 55.905,0 0,-17.33 -55.905,0 0,17.33 z"
         id="path1848" /></clipPath><clipPath
       id="clipPath1890"><path
         d="m 0,2204.724 787.402,0 L 787.402,0 0,0 0,2204.724 z"
         id="path1892" /></clipPath><clipPath
       id="clipPath1898"><path
         d="m 366.535,1618.9 55.906,0 0,-17.32 -55.906,0 0,17.32 z"
         id="path1900" /></clipPath><clipPath
       id="clipPath1954"><path
         d="m 0,2204.724 787.402,0 L 787.402,0 0,0 0,2204.724 z"
         id="path1956" /></clipPath><clipPath
       id="clipPath1962"><path
         d="m 207.874,1624.41 55.905,0 0,-17.32 -55.905,0 0,17.32 z"
         id="path1964" /></clipPath><clipPath
       id="clipPath2026"><path
         d="m 0,2204.724 787.402,0 L 787.402,0 0,0 0,2204.724 z"
         id="path2028" /></clipPath><clipPath
       id="clipPath2034"><path
         d="m 520.078,1779.92 55.906,0 0,-17.32 -55.906,0 0,17.32 z"
         id="path2036" /></clipPath><clipPath
       id="clipPath2090"><path
         d="m 0,2204.724 787.402,0 L 787.402,0 0,0 0,2204.724 z"
         id="path2092" /></clipPath><clipPath
       id="clipPath2098"><path
         d="m 368.11,1781.89 55.905,0 0,-17.32 -55.905,0 0,17.32 z"
         id="path2100" /></clipPath><clipPath
       id="clipPath2158"><path
         d="m 0,2204.724 787.402,0 L 787.402,0 0,0 0,2204.724 z"
         id="path2160" /></clipPath><clipPath
       id="clipPath2166"><path
         d="m 207.874,1775.59 55.905,0 0,-17.32 -55.905,0 0,17.32 z"
         id="path2168" /></clipPath><clipPath
       id="clipPath2226"><path
         d="m 0,2204.724 787.402,0 L 787.402,0 0,0 0,2204.724 z"
         id="path2228" /></clipPath><clipPath
       id="clipPath2234"><path
         d="m 521.26,1928.35 55.905,0 0,-17.33 -55.905,0 0,17.33 z"
         id="path2236" /></clipPath><clipPath
       id="clipPath2294"><path
         d="m 0,2204.724 787.402,0 L 787.402,0 0,0 0,2204.724 z"
         id="path2296" /></clipPath><clipPath
       id="clipPath2302"><path
         d="m 366.535,1940.16 55.905,0 0,-17.33 -55.905,0 0,17.33 z"
         id="path2304" /></clipPath><clipPath
       id="clipPath2358"><path
         d="m 0,2204.724 787.402,0 L 787.402,0 0,0 0,2204.724 z"
         id="path2360" /></clipPath><clipPath
       id="clipPath2366"><path
         d="m 204.33,1922.84 55.906,0 0,-17.33 -55.906,0 0,17.33 z"
         id="path2368" /></clipPath><clipPath
       id="clipPath2418"><path
         d="m 0,2204.724 787.402,0 L 787.402,0 0,0 0,2204.724 z"
         id="path2420" /></clipPath><clipPath
       id="clipPath2426"><path
         d="m 522.44,2090.16 55.906,0 0,-17.33 -55.906,0 0,17.33 z"
         id="path2428" /></clipPath><clipPath
       id="clipPath2478"><path
         d="m 0,2204.724 787.402,0 L 787.402,0 0,0 0,2204.724 z"
         id="path2480" /></clipPath><clipPath
       id="clipPath2486"><path
         d="m 364.566,2100.79 55.906,0 0,-17.33 -55.906,0 0,17.33 z"
         id="path2488" /></clipPath><clipPath
       id="clipPath2526"><path
         d="m 0,2204.724 787.402,0 L 787.402,0 0,0 0,2204.724 z"
         id="path2528" /></clipPath><clipPath
       id="clipPath2534"><path
         d="m 207.086,2088.98 55.906,0 0,-17.33 -55.906,0 0,17.33 z"
         id="path2536" /></clipPath></defs><g
     transform="matrix(1.25,0,0,-1.25,-610.61594,2131.1938)"
     id="g10"><g
       id="g1834"><g
         clip-path="url(#clipPath1838)"
         id="g1836"><g
           id="g1842"><g
             id="g1844" /><g
             id="g1850"><g
               clip-path="url(#clipPath1846)"
               id="g1852"
               style="opacity:0.19999701"><g
                 transform="translate(549.9997,1619.6855)"
                 id="g1854"><path
                   d="m 0,0 c -15.438,0 -27.953,-3.878 -27.953,-8.661 0,-4.784 12.515,-8.662 27.953,-8.662 15.438,0 27.953,3.878 27.953,8.662 C 27.953,-3.878 15.438,0 0,0"
                   id="path1856"
                   style="fill:#000000;fill-opacity:1;fill-rule:evenodd;stroke:none" /></g></g></g></g><g
           transform="translate(550.3935,1701.6736)"
           id="g1858"><path
             d="m 0,0 c -23.032,0 -38.977,-36.811 -31.496,-59.055 7.48,-22.244 55.315,-20.472 62.992,0.787 C 39.173,-37.008 23.031,0 0,0"
             id="path1860"
             style="fill:#ebf8f8;fill-opacity:1;fill-rule:evenodd;stroke:none" /></g><g
           transform="translate(611.7988,1645.3242)"
           id="g1862"><path
             d="m 0,0 c -0.507,1.288 -4.127,4.203 -4.226,6.072 -0.15,2.824 -2.752,5.561 -5.604,5.69 -8.294,0.376 -20.866,12.205 -20.866,12.205 0,0 -2.231,-24.147 -0.788,-18.504 1.444,5.643 11.293,5.721 13.386,3.15 0.276,-0.339 -0.158,-1.143 -0.849,-1.957 -1.118,-1.318 -0.651,-2.916 -0.875,-4.103 -0.362,-1.919 1.625,-2.197 3.05,-0.392 0.654,0.829 0.158,3.303 0.904,3.774 0.878,0.553 2.234,-0.407 2.936,-2.118 0.289,-0.705 -0.969,-7.512 1.162,-7.721 1.781,-0.176 2.039,2.099 1.568,3.273 -0.47,1.174 -1.288,4.936 -0.109,5.073 1.18,0.137 1.985,-4.067 2.113,-6.363 0.128,-2.296 0.749,-3.75 2.771,-3.023 2.022,0.727 0.606,3.295 0.169,4.219 -0.436,0.923 -2.898,5.442 -1.908,5.602 0.99,0.16 1.749,-3.393 3.995,-6.065 C -0.926,-3.861 0.507,-1.288 0,0 m -113.374,11.762 c -2.852,-0.129 -5.454,-2.866 -5.604,-5.69 -0.099,-1.869 -3.72,-4.784 -4.226,-6.072 -0.507,-1.288 0.926,-3.861 3.171,-1.188 2.246,2.672 3.005,6.225 3.995,6.065 0.99,-0.16 -1.472,-4.679 -1.908,-5.602 -0.437,-0.924 -1.853,-3.492 0.169,-4.219 2.022,-0.727 2.643,0.727 2.771,3.023 0.128,2.296 0.933,6.5 2.113,6.363 1.179,-0.137 0.361,-3.899 -0.109,-5.073 -0.471,-1.174 -0.213,-3.449 1.568,-3.273 2.131,0.209 0.873,7.016 1.162,7.721 0.702,1.711 2.058,2.671 2.936,2.118 0.746,-0.471 0.25,-2.945 0.904,-3.774 1.425,-1.805 3.412,-1.527 3.05,0.392 -0.224,1.187 0.243,2.785 -0.876,4.103 -0.69,0.814 -1.124,1.618 -0.848,1.957 2.093,2.571 11.942,2.493 13.386,-3.15 1.443,-5.643 -0.788,18.504 -0.788,18.504 0,0 -12.572,-11.829 -20.866,-12.205"
             id="path1864"
             style="fill:#ebf8f8;fill-opacity:1;fill-rule:evenodd;stroke:none" /></g><g
           transform="translate(543.7007,1696.063)"
           id="g1866"><path
             d="m 0,0 c 0.596,-0.333 11.82,-0.868 16.142,-0.787 4.322,0.08 1.151,3.531 -2.756,5.118 -3.908,1.587 2.6,4.137 1.575,4.33 C 8.566,9.871 1.406,6.075 -3.543,3.15 -8.493,0.225 -0.596,0.333 0,0 m 39.764,-32.283 c -2.756,11.679 -6.431,10.629 -11.024,11.811 -4.593,1.181 -53.543,-8.662 -53.543,-8.662 0,0 -1.05,-1.05 -2.362,-9.449 -1.313,-8.399 -7.104,-19.18 -3.15,-22.441 3.74,-3.084 6.351,0.378 7.874,-1.574 2.1,-2.691 -2.172,-7.368 2.756,-10.237 2.919,-1.699 5.512,1.05 8.661,0.394 3.15,-0.656 0.463,-7.626 7.874,-7.48 6.435,0.126 6.693,5.249 10.63,5.512 3.937,0.262 5.381,-5.512 10.63,-4.331 5.25,1.181 4.856,7.743 7.481,8.661 2.624,0.919 4.068,-2.493 8.267,0 4.2,2.494 1.838,5.906 4.331,7.874 2.493,1.969 2.697,-1.836 7.087,0.788 4.027,2.407 -2.756,17.454 -5.512,29.134"
             id="path1868"
             style="fill:#ebf8f8;fill-opacity:1;fill-rule:evenodd;stroke:none" /></g><g
           transform="translate(533.8508,1647.1788)"
           id="g1870"><path
             d="M 0,0 C -0.012,-0.108 -0.04,-0.354 -0.082,-0.719 -0.057,-0.462 -0.029,-0.222 0,0 m -1.174,-23.557 c 0.467,-0.097 0.803,-0.335 1.065,-0.665 -0.174,8.364 -0.436,18.794 0.027,23.503 -0.361,-3.179 -1.734,-15.349 -2.419,-22.748 0.433,0.023 0.874,0.005 1.327,-0.09 m -7.48,34.646 c 0,0 -0.011,-0.12 -0.031,-0.34 0.02,0.214 0.031,0.34 0.031,0.34 m -3.937,-24.803 c 0.369,-0.474 0.535,-1.011 0.595,-1.587 1.766,9.854 3.094,23.725 3.311,26.05 -0.23,-2.364 -1.869,-16.91 -8.016,-24.224 1.796,0.098 3.163,0.974 4.11,-0.239 m 31.112,10.005 c -0.005,0.149 -0.01,0.231 -0.01,0.231 0,0 0.003,-0.082 0.01,-0.231 M 43.725,14.08 c -0.006,0.054 -0.011,0.104 -0.017,0.159 0,0 0.007,-0.066 0.017,-0.159 m 0,0 c 1.662,-15.003 2.156,-25.426 2.477,-32.383 0.635,1.839 0.227,3.711 1.837,4.982 1.314,1.038 1.996,0.474 2.986,0.09 -4.747,4.724 -7.092,25.393 -7.3,27.311 M 18.521,-3.709 c 0.071,-1.809 0.403,-13.947 -2.952,-22.345 0.512,0.285 1.079,0.483 1.761,0.529 1.968,0.131 3.312,-1.245 4.821,-2.508 -0.836,2.331 -1.639,5.126 -2.065,8.413 -1.217,9.391 -1.512,14.78 -1.565,15.911 m 14.208,-21.618 c 0.86,1.868 1.422,3.681 2.711,4.133 0.914,0.319 1.685,0.112 2.479,-0.186 -3.481,7.139 -5.587,16.629 -7.203,25.382 0,0 2.851,-19.496 2.013,-29.329"
             id="path1872"
             style="fill:#bdd9da;fill-opacity:1;fill-rule:evenodd;stroke:none" /></g><g
           transform="translate(533.4645,1668.6741)"
           id="g1874"><path
             d="M 0,0 C -0.079,-0.672 2.573,-10.91 15.88,-10.91 29.187,-10.91 32.677,-0.374 32.677,0 32.708,4.76 -0.03,4.76 0,0"
             id="path1876"
             style="fill:#142122;fill-opacity:1;fill-rule:evenodd;stroke:none" /></g><g
           transform="translate(557.5043,1690.0925)"
           id="g1878"><path
             d="M 0,0 C -0.241,0.385 -0.641,0.792 -1.194,1.112 -1.472,1.266 -1.784,1.404 -2.127,1.495 -2.468,1.585 -2.836,1.637 -3.212,1.64 -3.588,1.638 -3.955,1.588 -4.298,1.499 -4.64,1.408 -4.953,1.273 -5.232,1.119 -5.786,0.801 -6.187,0.396 -6.43,0.012 c -0.246,-0.385 -0.351,-0.734 -0.363,-0.985 -0.012,-0.253 0.054,-0.404 0.165,-0.443 0.236,-0.082 0.571,0.285 1.126,0.661 0.274,0.191 0.613,0.375 0.997,0.518 0.195,0.066 0.399,0.127 0.615,0.166 0.216,0.036 0.442,0.057 0.675,0.06 0.233,-0.003 0.458,-0.026 0.674,-0.063 0.217,-0.039 0.42,-0.101 0.614,-0.168 0.385,-0.143 0.722,-0.33 0.996,-0.522 0.553,-0.377 0.887,-0.746 1.124,-0.664 0.11,0.039 0.177,0.189 0.165,0.442 C 0.348,-0.735 0.244,-0.385 0,0 m -9.768,1.112 c -0.278,0.154 -0.59,0.292 -0.932,0.383 -0.342,0.09 -0.709,0.142 -1.085,0.145 -0.376,-0.002 -0.744,-0.052 -1.086,-0.141 -0.342,-0.091 -0.655,-0.226 -0.934,-0.38 -0.554,-0.318 -0.956,-0.723 -1.199,-1.107 -0.245,-0.385 -0.351,-0.734 -0.362,-0.985 -0.012,-0.253 0.054,-0.404 0.164,-0.443 0.236,-0.082 0.572,0.285 1.127,0.661 0.274,0.191 0.612,0.375 0.997,0.518 0.195,0.066 0.399,0.127 0.615,0.166 0.216,0.036 0.441,0.057 0.675,0.06 0.233,-0.003 0.458,-0.026 0.674,-0.063 0.216,-0.039 0.42,-0.101 0.614,-0.168 0.384,-0.143 0.721,-0.33 0.995,-0.522 0.553,-0.377 0.888,-0.746 1.124,-0.664 0.11,0.039 0.177,0.189 0.166,0.442 -0.01,0.251 -0.115,0.601 -0.358,0.986 -0.242,0.385 -0.642,0.792 -1.195,1.112"
             id="path1880"
             style="fill:#bdd9da;fill-opacity:1;fill-rule:evenodd;stroke:none" /></g><g
           transform="translate(546.6597,1687.0281)"
           id="g1882"><path
             d="m 0,0 c -1.441,0.374 -3.05,-0.919 -3.595,-2.887 -0.545,-1.968 0.181,-3.866 1.622,-4.24 1.44,-0.373 3.05,0.919 3.595,2.887 C 2.167,-2.272 1.441,-0.374 0,0 M 9.882,-2.887 C 9.337,-0.919 7.727,0.374 6.287,0 4.846,-0.374 4.12,-2.272 4.665,-4.24 5.21,-6.208 6.82,-7.5 8.26,-7.127 c 1.441,0.374 2.167,2.272 1.622,4.24"
             id="path1884"
             style="fill:#142122;fill-opacity:1;fill-rule:evenodd;stroke:none" /></g></g></g></g></svg>
