<?xml version="1.0" encoding="UTF-8" standalone="no"?>
<!-- Created with Inkscape (http://www.inkscape.org/) -->

<svg
  xmlns:dc="http://purl.org/dc/elements/1.1/"
  xmlns:cc="http://creativecommons.org/ns#"
  xmlns:rdf="http://www.w3.org/1999/02/22-rdf-syntax-ns#"
  xmlns="http://www.w3.org/2000/svg"
  version="1.1"
  width="125.89068"
  height="113.28307"
  id="svg2"
  xml:space="preserve"><metadata
     id="metadata8"><rdf:RDF><cc:Work
         rdf:about=""><dc:format>image/svg+xml</dc:format><dc:type
           rdf:resource="http://purl.org/dc/dcmitype/StillImage" /><dc:title></dc:title></cc:Work></rdf:RDF></metadata><defs
     id="defs6"><clipPath
       id="clipPath16"><path
         d="m 0,2204.724 787.402,0 L 787.402,0 0,0 0,2204.724 z"
         id="path18" /></clipPath><clipPath
       id="clipPath24"><path
         d="M 3.05176e-5,2204.72 787.402,2204.72 787.402,0 3.05176e-5,0 l 0,2204.72 z"
         id="path26" /></clipPath><clipPath
       id="clipPath38"><path
         d="m 0,2204.724 787.402,0 L 787.402,0 0,0 0,2204.724 z"
         id="path40" /></clipPath><clipPath
       id="clipPath46"><path
         d="m 366.535,64.5675 55.906,0 0,-17.3229 -55.906,0 0,17.3229 z"
         id="path48" /></clipPath><clipPath
       id="clipPath110"><path
         d="m 0,2204.724 787.402,0 L 787.402,0 0,0 0,2204.724 z"
         id="path112" /></clipPath><clipPath
       id="clipPath118"><path
         d="m 522.047,210.237 55.905,0 0,-17.323 -55.905,0 0,17.323 z"
         id="path120" /></clipPath><clipPath
       id="clipPath178"><path
         d="m 0,2204.724 787.402,0 L 787.402,0 0,0 0,2204.724 z"
         id="path180" /></clipPath><clipPath
       id="clipPath186"><path
         d="m 366.142,210.237 55.905,0 0,-17.323 -55.905,0 0,17.323 z"
         id="path188" /></clipPath><clipPath
       id="clipPath246"><path
         d="m 0,2204.724 787.402,0 L 787.402,0 0,0 0,2204.724 z"
         id="path248" /></clipPath><clipPath
       id="clipPath254"><path
         d="m 208.59,210.359 55.906,0 0,-17.323 -55.906,0 0,17.323 z"
         id="path256" /></clipPath><clipPath
       id="clipPath318"><path
         d="m 0,2204.724 787.402,0 L 787.402,0 0,0 0,2204.724 z"
         id="path320" /></clipPath><clipPath
       id="clipPath326"><path
         d="m 516.535,359.843 67.323,0 0,-20.866 -67.323,0 0,20.866 z"
         id="path328" /></clipPath><clipPath
       id="clipPath386"><path
         d="m 0,2204.724 787.402,0 L 787.402,0 0,0 0,2204.724 z"
         id="path388" /></clipPath><clipPath
       id="clipPath394"><path
         d="m 364.567,367.717 55.905,0 0,-17.323 -55.905,0 0,17.323 z"
         id="path396" /></clipPath><clipPath
       id="clipPath450"><path
         d="m 0,2204.724 787.402,0 L 787.402,0 0,0 0,2204.724 z"
         id="path452" /></clipPath><clipPath
       id="clipPath458"><path
         d="m 208.267,360.63 55.906,0 0,-17.323 -55.906,0 0,17.323 z"
         id="path460" /></clipPath><clipPath
       id="clipPath510"><path
         d="m 0,2204.724 787.402,0 L 787.402,0 0,0 0,2204.724 z"
         id="path512" /></clipPath><clipPath
       id="clipPath518"><path
         d="m 521.26,520.473 55.905,0 0,-17.323 -55.905,0 0,17.323 z"
         id="path520" /></clipPath><clipPath
       id="clipPath574"><path
         d="m 0,2204.724 787.402,0 L 787.402,0 0,0 0,2204.724 z"
         id="path576" /></clipPath><clipPath
       id="clipPath582"><path
         d="m 366.142,510.237 55.905,0 0,-17.323 -55.905,0 0,17.323 z"
         id="path584" /></clipPath><clipPath
       id="clipPath638"><path
         d="m 0,2204.724 787.402,0 L 787.402,0 0,0 0,2204.724 z"
         id="path640" /></clipPath><clipPath
       id="clipPath646"><path
         d="m 207.874,522.048 55.905,0 0,-17.323 -55.905,0 0,17.323 z"
         id="path648" /></clipPath><clipPath
       id="clipPath694"><path
         d="m 0,2204.724 787.402,0 L 787.402,0 0,0 0,2204.724 z"
         id="path696" /></clipPath><clipPath
       id="clipPath702"><path
         d="m 523.622,677.56 55.905,0 0,-17.323 -55.905,0 0,17.323 z"
         id="path704" /></clipPath><clipPath
       id="clipPath754"><path
         d="m 0,2204.724 787.402,0 L 787.402,0 0,0 0,2204.724 z"
         id="path756" /></clipPath><clipPath
       id="clipPath762"><path
         d="m 364.566,682.678 55.906,0 0,-17.323 -55.906,0 0,17.323 z"
         id="path764" /></clipPath><clipPath
       id="clipPath814"><path
         d="m 0,2204.724 787.402,0 L 787.402,0 0,0 0,2204.724 z"
         id="path816" /></clipPath><clipPath
       id="clipPath822"><path
         d="m 181.89,704.725 109.449,0 0,-39.764 -109.449,0 0,39.764 z"
         id="path824" /></clipPath><clipPath
       id="clipPath862"><path
         d="m 0,2204.724 787.402,0 L 787.402,0 0,0 0,2204.724 z"
         id="path864" /></clipPath><clipPath
       id="clipPath870"><path
         d="m 522.047,837.796 55.905,0 0,-17.323 -55.905,0 0,17.323 z"
         id="path872" /></clipPath><clipPath
       id="clipPath930"><path
         d="m 0,2204.724 787.402,0 L 787.402,0 0,0 0,2204.724 z"
         id="path932" /></clipPath><clipPath
       id="clipPath938"><path
         d="m 363.779,833.072 55.906,0 0,-17.323 -55.906,0 0,17.323 z"
         id="path940" /></clipPath><clipPath
       id="clipPath982"><path
         d="m 0,2204.724 787.402,0 L 787.402,0 0,0 0,2204.724 z"
         id="path984" /></clipPath><clipPath
       id="clipPath994"><path
         d="m 221.259,837.796 55.906,0 0,-17.323 -55.906,0 0,17.323 z"
         id="path996" /></clipPath><clipPath
       id="clipPath1038"><path
         d="m 0,2204.724 787.402,0 L 787.402,0 0,0 0,2204.724 z"
         id="path1040" /></clipPath><clipPath
       id="clipPath1046"><path
         d="m 522.047,991.339 55.905,0 0,-17.323 -55.905,0 0,17.323 z"
         id="path1048" /></clipPath><clipPath
       id="clipPath1094"><path
         d="m 0,2204.724 787.402,0 L 787.402,0 0,0 0,2204.724 z"
         id="path1096" /></clipPath><clipPath
       id="clipPath1102"><path
         d="m 365.354,977.166 55.906,0 0,-17.323 -55.906,0 0,17.323 z"
         id="path1104" /></clipPath><clipPath
       id="clipPath1186"><path
         d="m 0,2204.724 787.402,0 L 787.402,0 0,0 0,2204.724 z"
         id="path1188" /></clipPath><clipPath
       id="clipPath1194"><path
         d="m 208.267,984.252 55.906,0 0,-17.322 -55.906,0 0,17.322 z"
         id="path1196" /></clipPath><clipPath
       id="clipPath1254"><path
         d="m 0,2204.724 787.402,0 L 787.402,0 0,0 0,2204.724 z"
         id="path1256" /></clipPath><clipPath
       id="clipPath1262"><path
         d="m 523.622,1150.39 55.905,0 0,-17.32 -55.905,0 0,17.32 z"
         id="path1264" /></clipPath><clipPath
       id="clipPath1322"><path
         d="m 0,2204.724 787.402,0 L 787.402,0 0,0 0,2204.724 z"
         id="path1324" /></clipPath><clipPath
       id="clipPath1330"><path
         d="m 365.748,1145.67 55.905,0 0,-17.32 -55.905,0 0,17.32 z"
         id="path1332" /></clipPath><clipPath
       id="clipPath1374"><path
         d="m 0,2204.724 787.402,0 L 787.402,0 0,0 0,2204.724 z"
         id="path1376" /></clipPath><clipPath
       id="clipPath1382"><path
         d="m 207.874,1149.21 55.905,0 0,-17.32 -55.905,0 0,17.32 z"
         id="path1384" /></clipPath><clipPath
       id="clipPath1430"><path
         d="m 0,2204.724 787.402,0 L 787.402,0 0,0 0,2204.724 z"
         id="path1432" /></clipPath><clipPath
       id="clipPath1438"><path
         d="m 518.504,1309.45 55.905,0 0,-17.32 -55.905,0 0,17.32 z"
         id="path1440" /></clipPath><clipPath
       id="clipPath1502"><path
         d="m 0,2204.724 787.402,0 L 787.402,0 0,0 0,2204.724 z"
         id="path1504" /></clipPath><clipPath
       id="clipPath1510"><path
         d="m 364.567,1295.28 55.905,0 0,-17.33 -55.905,0 0,17.33 z"
         id="path1512" /></clipPath><clipPath
       id="clipPath1578"><path
         d="m 0,2204.724 787.402,0 L 787.402,0 0,0 0,2204.724 z"
         id="path1580" /></clipPath><clipPath
       id="clipPath1586"><path
         d="m 209.448,1307.48 55.906,0 0,-17.32 -55.906,0 0,17.32 z"
         id="path1588" /></clipPath><clipPath
       id="clipPath1642"><path
         d="m 0,2204.724 787.402,0 L 787.402,0 0,0 0,2204.724 z"
         id="path1644" /></clipPath><clipPath
       id="clipPath1650"><path
         d="m 500,1467.32 107.087,0 0,-33.07 -107.087,0 0,33.07 z"
         id="path1652" /></clipPath><clipPath
       id="clipPath1706"><path
         d="m 0,2204.724 787.402,0 L 787.402,0 0,0 0,2204.724 z"
         id="path1708" /></clipPath><clipPath
       id="clipPath1714"><path
         d="m 366.141,1468.5 55.906,0 0,-17.32 -55.906,0 0,17.32 z"
         id="path1716" /></clipPath><clipPath
       id="clipPath1734"><path
         d="m 0,2204.724 787.402,0 L 787.402,0 0,0 0,2204.724 z"
         id="path1736" /></clipPath><clipPath
       id="clipPath1774"><path
         d="m 0,2204.724 787.402,0 L 787.402,0 0,0 0,2204.724 z"
         id="path1776" /></clipPath><clipPath
       id="clipPath1782"><path
         d="m 207.48,1468.5 55.905,0 0,-17.32 -55.905,0 0,17.32 z"
         id="path1784" /></clipPath><clipPath
       id="clipPath1838"><path
         d="m 0,2204.724 787.402,0 L 787.402,0 0,0 0,2204.724 z"
         id="path1840" /></clipPath><clipPath
       id="clipPath1846"><path
         d="m 522.047,1619.69 55.905,0 0,-17.33 -55.905,0 0,17.33 z"
         id="path1848" /></clipPath><clipPath
       id="clipPath1890"><path
         d="m 0,2204.724 787.402,0 L 787.402,0 0,0 0,2204.724 z"
         id="path1892" /></clipPath><clipPath
       id="clipPath1898"><path
         d="m 366.535,1618.9 55.906,0 0,-17.32 -55.906,0 0,17.32 z"
         id="path1900" /></clipPath><clipPath
       id="clipPath1954"><path
         d="m 0,2204.724 787.402,0 L 787.402,0 0,0 0,2204.724 z"
         id="path1956" /></clipPath><clipPath
       id="clipPath1962"><path
         d="m 207.874,1624.41 55.905,0 0,-17.32 -55.905,0 0,17.32 z"
         id="path1964" /></clipPath><clipPath
       id="clipPath2026"><path
         d="m 0,2204.724 787.402,0 L 787.402,0 0,0 0,2204.724 z"
         id="path2028" /></clipPath><clipPath
       id="clipPath2034"><path
         d="m 520.078,1779.92 55.906,0 0,-17.32 -55.906,0 0,17.32 z"
         id="path2036" /></clipPath><clipPath
       id="clipPath2090"><path
         d="m 0,2204.724 787.402,0 L 787.402,0 0,0 0,2204.724 z"
         id="path2092" /></clipPath><clipPath
       id="clipPath2098"><path
         d="m 368.11,1781.89 55.905,0 0,-17.32 -55.905,0 0,17.32 z"
         id="path2100" /></clipPath><clipPath
       id="clipPath2158"><path
         d="m 0,2204.724 787.402,0 L 787.402,0 0,0 0,2204.724 z"
         id="path2160" /></clipPath><clipPath
       id="clipPath2166"><path
         d="m 207.874,1775.59 55.905,0 0,-17.32 -55.905,0 0,17.32 z"
         id="path2168" /></clipPath><clipPath
       id="clipPath2226"><path
         d="m 0,2204.724 787.402,0 L 787.402,0 0,0 0,2204.724 z"
         id="path2228" /></clipPath><clipPath
       id="clipPath2234"><path
         d="m 521.26,1928.35 55.905,0 0,-17.33 -55.905,0 0,17.33 z"
         id="path2236" /></clipPath><clipPath
       id="clipPath2294"><path
         d="m 0,2204.724 787.402,0 L 787.402,0 0,0 0,2204.724 z"
         id="path2296" /></clipPath><clipPath
       id="clipPath2302"><path
         d="m 366.535,1940.16 55.905,0 0,-17.33 -55.905,0 0,17.33 z"
         id="path2304" /></clipPath><clipPath
       id="clipPath2358"><path
         d="m 0,2204.724 787.402,0 L 787.402,0 0,0 0,2204.724 z"
         id="path2360" /></clipPath><clipPath
       id="clipPath2366"><path
         d="m 204.33,1922.84 55.906,0 0,-17.33 -55.906,0 0,17.33 z"
         id="path2368" /></clipPath><clipPath
       id="clipPath2418"><path
         d="m 0,2204.724 787.402,0 L 787.402,0 0,0 0,2204.724 z"
         id="path2420" /></clipPath><clipPath
       id="clipPath2426"><path
         d="m 522.44,2090.16 55.906,0 0,-17.33 -55.906,0 0,17.33 z"
         id="path2428" /></clipPath><clipPath
       id="clipPath2478"><path
         d="m 0,2204.724 787.402,0 L 787.402,0 0,0 0,2204.724 z"
         id="path2480" /></clipPath><clipPath
       id="clipPath2486"><path
         d="m 364.566,2100.79 55.906,0 0,-17.33 -55.906,0 0,17.33 z"
         id="path2488" /></clipPath><clipPath
       id="clipPath2526"><path
         d="m 0,2204.724 787.402,0 L 787.402,0 0,0 0,2204.724 z"
         id="path2528" /></clipPath><clipPath
       id="clipPath2534"><path
         d="m 207.086,2088.98 55.906,0 0,-17.33 -55.906,0 0,17.33 z"
         id="path2536" /></clipPath></defs><g
     transform="matrix(1.25,0,0,-1.25,-625.04654,1138.9743)"
     id="g10"><g
       id="g858"><g
         clip-path="url(#clipPath862)"
         id="g860"><g
           id="g866"><g
             id="g868" /><g
             id="g874"><g
               clip-path="url(#clipPath870)"
               id="g876"
               style="opacity:0.19999701"><g
                 transform="translate(549.9996,837.7958)"
                 id="g878"><path
                   d="m 0,0 c -15.438,0 -27.953,-3.878 -27.953,-8.661 0,-4.784 12.515,-8.662 27.953,-8.662 15.438,0 27.953,3.878 27.953,8.662 C 27.953,-3.878 15.438,0 0,0"
                   id="path880"
                   style="fill:#000000;fill-opacity:1;fill-rule:evenodd;stroke:none" /></g></g></g></g><g
           transform="translate(512.4365,910.6314)"
           id="g882"><path
             d="M 0,0 C -13.224,-3.46 -12.641,-15.794 -12.252,-17.548 -8.261,-8.769 0,-7.604 0,-7.604 c 0,0 -9.335,-7.215 -8.168,-11.114 2.446,4.174 8.751,4.679 8.751,4.679 0,0 -8.141,-5.995 -8.168,-9.944 3.89,3.153 9.335,3.51 9.335,3.51 0,0 -8.362,-5.655 -7.584,-9.944 4.667,4.094 7.584,4.679 7.584,4.679 0,0 -5.056,-6.824 -3.5,-11.114 1.783,2.626 2.917,2.34 2.917,2.34 0,0 -0.195,-2.535 1.167,-3.509 0.194,0.974 1.75,2.339 1.75,2.339 0,0 -0.778,-2.534 0.583,-3.509 0.195,1.17 2.334,2.339 2.334,2.339 0,0 -0.583,-2.339 0.584,-3.509 0,1.17 2.333,2.34 2.333,2.34 0,0 -0.583,-2.34 1.167,-2.925 -0.389,1.365 1.75,3.509 1.75,3.509 0,0 2.723,22.033 8.752,23.398 C 34.426,-11.132 13.537,3.542 0,0 M 75.914,0 C 62.378,3.542 41.488,-11.132 54.327,-14.039 c 6.029,-1.365 8.752,-23.398 8.752,-23.398 0,0 2.139,-2.144 1.75,-3.509 1.75,0.585 1.167,2.925 1.167,2.925 0,0 2.334,-1.17 2.334,-2.34 1.167,1.17 0.583,3.509 0.583,3.509 0,0 2.139,-1.169 2.334,-2.339 1.361,0.975 0.583,3.509 0.583,3.509 0,0 1.556,-1.365 1.751,-2.339 1.361,0.974 1.166,3.509 1.166,3.509 0,0 1.134,0.286 2.917,-2.34 1.556,4.29 -3.5,11.114 -3.5,11.114 0,0 2.917,-0.585 7.585,-4.679 0.777,4.289 -7.585,9.944 -7.585,9.944 0,0 5.445,-0.357 9.335,-3.51 -0.027,3.949 -8.168,9.944 -8.168,9.944 0,0 6.305,-0.505 8.751,-4.679 1.167,3.899 -8.168,11.114 -8.168,11.114 0,0 8.261,-1.165 12.252,-9.944 C 88.555,-15.794 89.138,-3.46 75.914,0"
             id="path884"
             style="fill:#d36b0f;fill-opacity:1;fill-rule:evenodd;stroke:none" /></g><g
           transform="translate(535.4334,831.4967)"
           id="g886"><path
             d="m 0,0 c -3.991,0.871 -3.246,2.78 -4.212,0.279 -0.718,-1.859 -0.526,-4.72 4.378,-5.79 1.203,-0.263 2.199,-0.188 3.019,0.072 3.312,0.63 4.07,3.996 4.07,3.996 0,0 -1.134,0.191 -3.805,0.526 C 2.482,-0.612 1.321,-0.288 0,0 M 31.77,0.279 C 30.804,2.78 31.549,0.871 27.558,0 c -1.321,-0.288 -2.482,-0.612 -3.45,-0.917 -2.671,-0.335 -3.805,-0.526 -3.805,-0.526 0,0 0.758,-3.366 4.07,-3.996 0.82,-0.26 1.816,-0.335 3.019,-0.072 4.904,1.07 5.096,3.931 4.378,5.79"
             id="path888"
             style="fill:#ffffff;fill-opacity:1;fill-rule:evenodd;stroke:none" /></g><g
           transform="translate(566.7524,876.1366)"
           id="g890"><path
             d="m 0,0 c -34.381,10.741 -2.433,-2.884 4.492,-5.719 6.925,-2.836 21.669,-9.591 19.7,-20.811 -1.968,-11.221 -5.511,-10.236 -7.086,-11.024 -1.575,-0.787 -5.315,-1.378 -3.937,-3.149 1.378,-1.772 4.33,0 4.33,0 0,0 -6.889,-5.709 -1.574,-7.874 5.315,-2.166 4.724,6.102 7.48,10.63 C 26.161,-33.42 38.277,-11.958 0,0 m -33.505,0 c -38.277,-11.958 -26.161,-33.42 -23.405,-37.947 2.756,-4.528 2.165,-12.796 7.48,-10.63 5.315,2.165 -1.574,7.874 -1.574,7.874 0,0 2.952,-1.772 4.33,0 1.378,1.771 -2.362,2.362 -3.937,3.149 -1.575,0.788 -5.118,-0.197 -7.086,11.024 -1.969,11.22 12.775,17.975 19.7,20.811 6.925,2.835 38.873,16.46 4.492,5.719"
             id="path892"
             style="fill:#ea951b;fill-opacity:1;fill-rule:evenodd;stroke:none" /></g><g
           transform="translate(550.3932,903.2485)"
           id="g894"><path
             d="m 0,0 c -23.031,0 -38.976,-36.811 -31.496,-59.055 7.48,-22.244 55.315,-20.473 62.992,0.787 C 39.173,-37.008 23.032,0 0,0"
             id="path896"
             style="fill:#febc1e;fill-opacity:1;fill-rule:evenodd;stroke:none" /></g><g
           transform="translate(561.122,907.8741)"
           id="g898"><path
             d="m 0,0 c -6.034,0 -10.925,-4.926 -10.925,-11.002 0,-6.076 4.891,-11.002 10.925,-11.002 6.034,0 10.925,4.926 10.925,11.002 C 10.925,-4.926 6.034,0 0,0 m -21.85,0 c -6.034,0 -10.926,-4.926 -10.926,-11.002 0,-6.076 4.892,-11.002 10.926,-11.002 6.033,0 10.925,4.926 10.925,11.002 C -10.925,-4.926 -15.817,0 -21.85,0"
             id="path900"
             style="fill:#febc1e;fill-opacity:1;fill-rule:evenodd;stroke:none" /></g><g
           transform="translate(561.636,903.0627)"
           id="g902"><path
             d="m 0,0 c -4.8,1.295 -9.317,-0.01 -10.603,-4.844 -1.287,-4.833 1.562,-9.802 6.362,-11.097 4.799,-1.295 9.733,1.574 11.019,6.407 C 8.064,-4.701 4.8,-1.295 0,0 m -22.879,0 c -4.799,-1.295 -8.063,-4.701 -6.777,-9.534 1.286,-4.833 6.219,-7.702 11.019,-6.407 4.8,1.295 7.648,6.264 6.362,11.097 -1.286,4.834 -5.804,6.139 -10.604,4.844"
             id="path904"
             style="fill:#ffffff;fill-opacity:1;fill-rule:evenodd;stroke:none" /></g><g
           transform="translate(544.0911,895.5781)"
           id="g906"><path
             d="m 0,0 c -1.242,0 -2.249,-1.159 -2.249,-2.589 0,-1.429 1.007,-2.588 2.249,-2.588 1.242,0 2.249,1.159 2.249,2.588 C 2.249,-1.159 1.242,0 0,0 m 11.568,0 c -1.242,0 -2.249,-1.159 -2.249,-2.589 0,-1.429 1.007,-2.588 2.249,-2.588 1.242,0 2.249,1.159 2.249,2.588 0,1.43 -1.007,2.589 -2.249,2.589"
             id="path908"
             style="fill:#1d2e2f;fill-opacity:1;fill-rule:evenodd;stroke:none" /></g><g
           transform="translate(576.3337,862.1553)"
           id="g910"><path
             d="M 0,0 C -1.305,7.606 -8.254,16.585 -25.94,16.585 -43.626,16.585 -50.325,7.629 -51.88,0 -53.499,-6.799 -47.966,-28.691 -25.94,-28.691 -3.914,-28.691 1.619,-6.799 0,0"
             id="path912"
             style="fill:#ea951b;fill-opacity:1;fill-rule:evenodd;stroke:none" /></g><g
           transform="translate(569.4318,862.2828)"
           id="g914"><path
             d="m 0,0 c -0.944,4.211 -5.974,9.181 -18.776,9.181 -12.801,0 -17.65,-4.958 -18.775,-9.181 -1.172,-3.764 2.832,-15.882 18.775,-15.882 C -2.833,-15.882 1.172,-3.764 0,0"
             id="path916"
             style="fill:#142122;fill-opacity:1;fill-rule:evenodd;stroke:none" /></g><g
           transform="translate(550.6561,846.4005)"
           id="g918"><path
             d="M 0,0 C 2.954,0 5.497,0.418 7.674,1.12 6.65,3.685 3.313,5.568 -0.656,5.568 -4.415,5.568 -7.606,3.878 -8.804,1.52 -6.391,0.578 -3.48,0 0,0"
             id="path920"
             style="fill:#c11c1c;fill-opacity:1;fill-rule:evenodd;stroke:none" /></g><g
           transform="translate(561.2994,850.8852)"
           id="g922"><path
             d="M 0,0 C -0.241,1.223 -1.416,2.016 -2.626,1.773 L -2.918,1.715 C -4.127,1.471 -4.912,0.283 -4.672,-0.939 l 0.544,-2.762 c 1.701,0.443 3.195,1.054 4.506,1.78 L 0,0 z m -10.184,19.248 c -0.24,-1.222 0.545,-2.411 1.755,-2.654 l 0.292,-0.059 c 1.209,-0.243 2.385,0.551 2.625,1.774 l 0.378,1.918 c -1.453,0.199 -3.049,0.317 -4.79,0.343 l -0.26,-1.322 z m -1.702,1.314 c -1.748,-0.046 -3.333,-0.19 -4.776,-0.413 l 0.362,-1.84 c 0.241,-1.223 1.416,-2.017 2.626,-1.774 l 0.292,0.059 c 1.209,0.243 1.995,1.432 1.754,2.654 l -0.258,1.314 z M -19.288,1.715 -19.58,1.773 C -20.789,2.016 -21.965,1.223 -22.205,0 l -0.283,-1.436 c 1.282,-0.805 2.763,-1.494 4.46,-2.015 l 0.495,2.512 c 0.24,1.222 -0.545,2.41 -1.755,2.654"
             id="path924"
             style="fill:#ffffff;fill-opacity:1;fill-rule:evenodd;stroke:none" /></g></g></g></g></svg>
