<?xml version="1.0" encoding="UTF-8" standalone="no"?><!-- Generator: Gravit.io -->
<svg xmlns="http://www.w3.org/2000/svg"
     style="isolation:isolate" viewBox="106.799 762.176 741.179 700.654" width="741.179pt" height="700.654pt"><g><path d=" M 360.42 1045.41 C 360.42 1045.41 281.869 902.643 284.735 899.776 C 287.602 896.909 387.369 1021.9 387.369 1021.9 L 360.42 1045.41 Z " fill="rgb(135,48,49)"/><path d=" M 552.5 1014.45 C 552.5 1014.45 654.561 872.254 656.281 872.828 C 658 873.401 578.302 1027.06 578.302 1027.06 L 552.5 1014.45 Z " fill="rgb(135,48,49)"/><path d=" M 628.759 1183.02 C 631.052 1183.02 795.037 1235.2 795.037 1235.2 L 621.878 1209.11 L 628.759 1183.02 Z " fill="rgb(135,48,49)"/><path d=" M 452.733 1279.35 C 452.733 1279.35 450.44 1428.43 452.733 1429 C 455.027 1429.57 479.682 1279.35 479.682 1279.35 L 452.733 1279.35 Z " fill="rgb(135,48,49)"/><path d=" M 328.885 1188.18 L 203.89 1235.2 L 336.014 1215.13 L 328.885 1188.18 Z " fill="rgb(135,48,49)"/><path d=" M 511.791 991.516 C 511.791 991.516 583.462 812.05 586.329 812.05 C 589.196 812.05 552.5 997.823 552.5 997.823 L 511.791 991.516 Z " fill="rgb(171,53,55)"/><path d=" M 593.209 1021.33 L 747.447 928.445 L 621.878 1059.17 L 593.209 1021.33 Z " fill="rgb(171,53,55)"/><path d=" M 633.919 1132.57 C 633.919 1132.57 833.453 1135.43 834.026 1140.02 C 834.599 1144.61 633.919 1166.97 633.919 1166.97 L 633.919 1132.57 Z " fill="rgb(171,53,55)"/><path d=" M 617.865 1217.42 L 759.487 1377.97 L 598.943 1250.68 L 617.865 1217.42 Z " fill="rgb(171,53,55)"/><path d=" M 505.483 1291.39 L 534.726 1462.83 L 540.459 1291.39 L 505.483 1291.39 Z " fill="rgb(171,53,55)"/><path d=" M 401.703 1279.35 C 401.703 1279.35 358.701 1437.03 360.994 1435.88 C 363.288 1434.73 432.666 1287.38 432.666 1287.38 L 401.703 1279.35 Z " fill="rgb(171,53,55)"/><path d=" M 328.885 1217.42 C 328.885 1217.42 207.33 1321.78 209.05 1322.93 C 210.771 1324.07 346.66 1244.37 346.66 1244.37 L 328.885 1217.42 Z " fill="rgb(171,53,55)"/><path d=" M 312.257 1154.35 L 156.3 1175 L 319.138 1183.02 L 312.257 1154.35 Z " fill="rgb(171,53,55)"/><path d=" M 328.312 1088.42 C 328.312 1088.42 206.146 966.287 209.032 962.847 C 211.917 959.407 346.66 1050.57 346.66 1050.57 L 328.312 1088.42 Z " fill="rgb(171,53,55)"/><path d=" M 403.997 1006.42 C 403.997 1006.42 367.301 838.999 369.021 837.279 C 370.741 835.558 442.986 993.809 442.986 993.809 L 403.997 1006.42 Z " fill="rgb(171,53,55)"/><path d=" M 491.723 1309.74 C 456.807 1307.69 391.688 1302.92 342.072 1252.4 C 292.457 1201.89 292.271 1105.97 329.899 1051.58 C 367.527 997.197 435.391 966.71 512.293 975.386 C 589.196 984.062 637.933 1035.09 646.533 1117.66 C 655.134 1200.22 616.718 1254.13 592.063 1274.77 C 567.408 1295.4 522.474 1311.54 491.723 1309.74 Z " fill="rgb(200,56,61)"/><path d=" M 244.791 1411.8 C 242.879 1409.5 358.523 1240.17 360.905 1240.55 C 363.288 1240.93 373.99 1237.49 383.165 1246.29 C 392.338 1255.08 390.427 1266.16 381.635 1276.1 C 372.844 1286.04 244.791 1411.8 244.791 1411.8 Z " fill="rgb(225,54,58)"/><path d=" M 106.799 1064.33 C 106.799 1064.33 322.004 1110.2 326.209 1112.5 C 330.414 1114.79 334.619 1122.82 331.561 1134.67 C 328.503 1146.52 321.622 1148.43 310.537 1145.75 C 299.452 1143.08 106.799 1064.33 106.799 1064.33 Z " fill="rgb(225,54,58)"/><path d=" M 466.877 779.176 L 454.645 993.809 C 454.645 993.809 459.527 1007 476.581 1006.81 C 493.634 1006.61 495.928 997.44 495.545 987.884 C 495.163 978.328 466.877 779.176 466.877 779.176 Z " fill="rgb(225,54,58)"/><path d=" M 847.978 999.734 C 846.832 1000.12 621.688 1065.86 616.335 1067.77 C 610.984 1069.69 602.575 1080.39 609.455 1095.68 C 616.335 1110.97 630.081 1107.27 637.344 1105.36 C 644.606 1103.45 847.978 999.734 847.978 999.734 Z " fill="rgb(225,54,58)"/><path d=" M 663.734 1446.2 C 663.734 1446.2 544.09 1276.48 543.708 1275.33 C 543.326 1274.19 537.975 1262.72 553.647 1253.55 C 569.319 1244.37 580.022 1250.11 584.227 1260.81 C 588.432 1271.51 663.734 1446.2 663.734 1446.2 Z " fill="rgb(225,54,58)"/><path d=" M 471.846 1080.77 C 471.846 1064.83 458.925 1051.91 442.986 1051.91 C 427.047 1051.91 414.126 1064.83 414.126 1080.77 C 414.126 1096.71 427.047 1109.63 442.986 1109.63 C 458.925 1109.63 471.846 1096.71 471.846 1080.77 Z " fill="rgb(251,226,204)"/><path d=" M 557.47 1071.6 C 557.47 1056.19 544.976 1043.69 529.565 1043.69 C 514.154 1043.69 501.661 1056.19 501.661 1071.6 C 501.661 1087.01 514.154 1099.5 529.565 1099.5 C 544.976 1099.5 557.47 1087.01 557.47 1071.6 Z " fill="rgb(251,226,204)"/><path d=" M 505.018 1146.82 C 505.018 1134.83 495.301 1125.11 483.313 1125.11 C 471.326 1125.11 461.608 1134.83 461.608 1146.82 C 461.608 1158.8 471.326 1168.52 483.313 1168.52 C 495.301 1168.52 505.018 1158.8 505.018 1146.82 Z " fill="rgb(251,226,204)"/><path d=" M 423.491 1137.34 C 423.491 1122.04 411.083 1109.63 395.779 1109.63 C 380.474 1109.63 368.066 1122.04 368.066 1137.34 C 368.066 1152.65 380.474 1165.06 395.779 1165.06 C 411.083 1165.06 423.491 1152.65 423.491 1137.34 Z " fill="rgb(251,226,204)"/><path d=" M 603.128 1149.77 C 603.128 1133.84 590.216 1120.93 574.289 1120.93 C 558.36 1120.93 545.448 1133.84 545.448 1149.77 C 545.448 1165.69 558.36 1178.61 574.289 1178.61 C 590.216 1178.61 603.128 1165.69 603.128 1149.77 Z " fill="rgb(251,226,204)"/><path d=" M 447.838 1079.02 C 446.802 1075.84 443.524 1075.33 440.797 1076.54 C 439.536 1077.09 438.479 1078.27 437.935 1079.52 C 437.509 1080.49 437.573 1081.44 437.978 1082.27 C 437.975 1082.37 437.969 1082.47 437.973 1082.57 C 438.119 1086.02 442.272 1086.27 444.727 1085.39 C 447.405 1084.42 448.734 1081.77 447.838 1079.02 Z " fill="rgb(102,44,44)"/><path d=" M 538.452 1066.99 C 537.408 1063.75 534.421 1061.23 530.937 1062.48 C 528.048 1063.52 526.382 1066.77 526.405 1069.77 C 526.199 1070.66 526.227 1071.59 526.603 1072.48 C 528.002 1075.82 533.507 1076.53 536.498 1075.18 C 539.596 1073.79 539.325 1069.71 538.452 1066.99 Z " fill="rgb(102,44,44)"/><path d=" M 484.054 1139.29 C 481.077 1139.1 477.923 1141.09 477.716 1144.24 C 477.709 1144.36 477.708 1144.47 477.707 1144.58 C 477.251 1147.07 478.786 1150.72 481.438 1151.09 C 483.214 1152.26 485.372 1152.55 487.125 1151.03 C 488.322 1149.99 488.817 1148.29 488.768 1146.57 C 489.515 1143.37 487.65 1139.52 484.054 1139.29 Z " fill="rgb(102,44,44)"/><path d=" M 398.617 1137.37 C 398.048 1134.55 395.143 1131.75 392.161 1131.98 C 388.676 1132.25 387.355 1136.03 387.376 1139.02 C 387.389 1140.73 388.188 1142.83 390.049 1143.28 C 391.327 1143.58 392.596 1143.5 393.755 1143.06 C 394.146 1143.18 394.553 1143.26 394.967 1143.27 C 398.152 1143.39 399.123 1139.88 398.617 1137.37 Z " fill="rgb(102,44,44)"/><path d=" M 579.441 1146.06 C 578.622 1144.25 576.479 1143.14 574.233 1143.27 C 573.787 1143.3 573.391 1143.39 573.019 1143.5 C 571.979 1143.42 570.896 1143.66 569.896 1144.3 C 568.764 1145.02 568.135 1146.09 567.878 1147.3 C 567.625 1147.61 567.404 1147.96 567.25 1148.36 C 566.562 1150.17 567.261 1151.75 568.723 1152.66 C 568.844 1152.9 568.972 1153.13 569.11 1153.35 C 570.305 1155.24 572.094 1155.73 573.795 1155.33 C 574.476 1155.41 575.196 1155.28 575.911 1154.87 C 577.881 1153.75 579.03 1151.87 579.799 1149.8 C 580.263 1148.55 580.186 1147.08 579.441 1146.06 Z " fill="rgb(102,44,44)"/><path d=" M 365.963 1227.55 C 367.11 1226.41 369.021 1213.41 387.369 1195.83 C 405.717 1178.24 412.215 1178.61 412.215 1178.61 C 412.215 1178.61 444.324 1238.64 445.853 1238.64 C 447.382 1238.64 481.784 1178.61 481.784 1178.61 C 481.784 1178.61 501.661 1228.7 505.483 1227.17 C 509.307 1225.64 540.955 1176.33 542.522 1176.71 C 544.091 1177.1 555.856 1191.62 565.454 1207.29 C 575.053 1222.97 574.289 1232.91 574.289 1232.91 L 536.828 1207.68 L 508.924 1257.75 L 479.682 1222.2 L 437.644 1264.63 L 401.512 1202.33 L 365.963 1227.55 Z " fill="rgb(102,44,44)"/></g></svg>
