<?xml version="1.0" encoding="UTF-8" standalone="no"?><!-- Generator: Gravit.io -->
<svg xmlns="http://www.w3.org/2000/svg"
     style="isolation:isolate" viewBox="1013.79 824.531 469.53 708.989" width="469.53pt" height="708.989pt"><g><path d=" M 1252.37 1327.88 C 1252.71 1326.15 1281.84 1223.15 1282.88 1222.81 C 1283.92 1222.46 1290.86 1215.87 1290.86 1215.87 C 1290.86 1215.87 1298.49 1241.53 1304.73 1286.27 C 1310.97 1331 1320.33 1458.27 1320.33 1458.27 C 1320.33 1458.27 1314.09 1510.28 1314.09 1508.9 C 1314.09 1507.51 1302.65 1400.01 1297.79 1348.69 C 1292.94 1297.36 1284.27 1268.58 1284.27 1268.58 L 1262.42 1330.31 L 1252.37 1327.88 Z " fill="rgb(66,75,87)"/><path d=" M 1186.82 1325.11 L 1164.28 1269.62 L 1155.96 1456.19 C 1155.96 1456.19 1138.62 1514.79 1138.62 1513.4 C 1138.62 1512.02 1149.37 1319.56 1150.41 1302.91 C 1151.45 1286.27 1158.04 1213.45 1158.04 1213.45 L 1166.71 1213.45 L 1195.15 1322.33 L 1186.82 1325.11 Z " fill="rgb(66,75,87)"/><path d=" M 1266.93 1345.22 C 1271.44 1343.14 1391.08 1263.73 1394.54 1262.69 C 1398.01 1261.65 1415.7 1259.22 1416.04 1260.61 C 1416.39 1261.99 1413.61 1464.51 1413.61 1466.24 C 1413.61 1467.98 1411.53 1515.83 1411.53 1515.83 L 1396.62 1410.41 L 1395.58 1294.94 L 1320.33 1329.61 L 1271.78 1351.46 L 1266.93 1345.22 Z " fill="rgb(81,92,107)"/><path d=" M 1186.82 1334.47 L 1112.62 1254.36 L 1107.07 1341.75 C 1107.07 1341.75 1100.13 1492.25 1100.13 1493.29 C 1100.13 1494.33 1090.77 1515.83 1090.77 1515.83 L 1094.93 1276.56 L 1095.28 1222.11 L 1102.21 1211.71 L 1190.99 1323.72 L 1186.82 1334.47 Z " fill="rgb(81,92,107)"/><path d=" M 1197.57 1372.96 C 1195.49 1372.61 1175.38 1361.17 1175.73 1357.01 C 1176.07 1352.85 1180.88 1333.73 1182.66 1326.49 C 1184.45 1319.26 1186.65 1315.05 1186.65 1315.05 C 1186.65 1315.05 1232.95 1313.32 1236.41 1313.32 C 1239.88 1313.32 1265.85 1320.61 1265.85 1320.61 L 1279.2 1348.13 L 1262.77 1382.32 L 1197.57 1372.96 Z " fill="rgb(85,117,129)"/><path d=" M 1249.94 1343.14 C 1251.33 1341.4 1320.33 1263.38 1320.33 1263.38 L 1343.22 1240.15 C 1343.22 1240.15 1429.91 1400.36 1430.26 1402.44 C 1430.61 1404.52 1483.32 1533.52 1483.32 1533.52 C 1483.32 1533.52 1457.65 1508.6 1456.61 1508.92 C 1455.57 1509.24 1406.33 1401.74 1406.33 1401.74 C 1406.33 1401.74 1336.98 1274.82 1335.94 1274.48 C 1334.9 1274.13 1259.99 1347.82 1259.99 1347.82 L 1253.75 1347.82 L 1249.94 1343.14 Z " fill="rgb(90,102,119)"/><path d=" M 1195.15 1341.4 L 1188.21 1343.14 L 1041.87 1295.63 C 1041.87 1295.63 1032.51 1469.36 1032.51 1470.4 C 1032.51 1471.44 1028 1527.28 1028 1527.28 C 1028 1527.28 1013.79 1449.25 1013.79 1448.21 C 1013.79 1447.17 1020.03 1278.64 1020.37 1277.25 C 1020.72 1275.87 1022.46 1266.85 1023.5 1266.85 C 1024.54 1266.85 1066.15 1280.72 1066.15 1280.72 L 1172.26 1326.15 L 1197.58 1333.78 L 1195.15 1341.4 Z " fill="rgb(90,102,119)"/><path d=" M 1221.85 1325.8 L 1205.9 1320.25 L 1205.9 1248.12 L 1208.33 1199.92 C 1208.33 1199.92 1244.39 1201.66 1244.39 1202.7 C 1244.39 1203.74 1244.39 1260.19 1244.39 1260.19 L 1246.12 1323.37 L 1221.85 1325.8 Z " fill="rgb(103,142,156)"/><path d=" M 1205.9 1291.99 L 1223.67 1295.63 L 1249.94 1295.63 L 1252.37 1302.39 L 1247.6 1307.85 L 1221.59 1307.85 L 1200.52 1303.43 C 1200.52 1303.43 1198.96 1294.33 1198.96 1293.55 C 1198.96 1292.77 1205.9 1291.99 1205.9 1291.99 Z " fill="rgb(121,169,185)"/><path d=" M 1226.01 1282.37 L 1202.08 1278.2 L 1198.96 1274.82 L 1197.58 1264.68 L 1205.9 1262.86 C 1205.9 1262.86 1227.83 1266.42 1228.61 1266.85 C 1229.39 1267.28 1249.94 1268.32 1249.94 1268.32 L 1253.84 1278.2 L 1248.38 1283.93 L 1226.01 1282.37 Z " fill="rgb(121,169,185)"/><path d=" M 1225.66 1246.48 C 1225.66 1246.48 1202.34 1242.57 1201.3 1241.79 C 1200.26 1241.01 1197.58 1231.39 1197.58 1231.39 L 1204.16 1226.19 L 1236.41 1230.87 L 1246.12 1232.17 L 1249.94 1242.31 L 1244.39 1250.12 L 1225.66 1246.48 Z " fill="rgb(121,169,185)"/><path d=" M 1338.1 897.188 C 1319.12 874.821 1294.67 852.194 1293.89 852.194 C 1293.86 852.194 1293.68 852.171 1293.39 852.129 C 1274.25 868.309 1253.8 883.471 1238.79 903.488 C 1239.06 903.578 1239.31 903.725 1239.53 903.95 C 1262.94 925.276 1280.63 950.244 1301.95 974.171 C 1306.12 978.853 1310.8 987.175 1312.36 986.655 C 1332.64 976.252 1344.09 954.925 1356.57 935.16 C 1358.39 932.432 1360.03 929.679 1361.56 926.907 C 1361.7 925.679 1361.77 925.016 1361.77 925.016 C 1361.77 925.016 1357.09 919.555 1338.1 897.188 Z " fill="rgb(149,184,198)"/><path d=" M 1293.39 852.129 C 1287.19 851.25 1226.27 841.531 1226.27 841.531 C 1226.27 841.531 1225.91 841.597 1225.2 841.789 C 1225.64 846.579 1225.98 851.459 1227.05 856.095 C 1231.29 872.269 1233.53 888.157 1236.09 903.971 C 1237.11 903.473 1238.03 903.236 1238.79 903.488 C 1253.8 883.471 1274.25 868.309 1293.39 852.129 Z " fill="rgb(177,201,211)"/><path d=" M 1227.05 856.095 C 1225.98 851.459 1225.64 846.579 1225.2 841.789 C 1221.85 842.697 1210.47 846.473 1189.86 859.996 C 1165.41 876.042 1116.27 915.777 1113.52 918.148 C 1120.89 930.359 1129.33 941.506 1136.02 954.405 C 1138.62 958.566 1141.74 961.688 1143.82 965.849 C 1146.43 971.051 1149.55 976.252 1152.15 981.454 C 1155.79 976.252 1159.95 971.571 1164.63 967.409 C 1188.56 948.684 1203.64 925.276 1229.65 908.111 C 1231.8 906.886 1234.12 904.94 1236.09 903.971 C 1233.53 888.157 1231.29 872.269 1227.05 856.095 Z " fill="rgb(149,184,198)"/><path d=" M 1356.57 935.16 C 1344.09 954.925 1332.64 976.252 1312.36 986.655 C 1310.8 987.175 1306.12 978.853 1301.95 974.171 C 1280.63 950.244 1262.94 925.276 1239.53 903.95 C 1237.45 901.869 1233.29 906.031 1229.65 908.111 C 1203.64 925.276 1188.56 948.684 1164.63 967.409 C 1159.95 971.571 1155.79 976.252 1152.15 981.454 C 1149.55 976.252 1146.43 971.051 1143.82 965.849 C 1141.74 961.688 1138.62 958.566 1136.02 954.405 C 1129.33 941.506 1120.89 930.359 1113.52 918.148 C 1113.46 918.198 1113.41 918.238 1113.4 918.254 C 1112.62 919.034 1110.01 947.903 1107.15 996.278 C 1104.29 1044.65 1107.67 1114.61 1107.67 1114.61 C 1107.67 1114.61 1132.12 1144.52 1149.03 1159.61 C 1165.93 1174.69 1207.96 1207.25 1207.96 1207.25 C 1227.35 1217.18 1244.39 1211.71 1244.39 1211.71 L 1341.49 1109.41 C 1341.49 1109.41 1345.65 1084.45 1349.29 1043.35 C 1352.59 1006.05 1360.18 938.979 1361.56 926.907 C 1360.03 929.679 1358.39 932.432 1356.57 935.16 Z " fill="rgb(121,169,185)"/><path d=" M 1146.69 1116.44 C 1147.99 1115.92 1167.49 1095.37 1181.02 1083.4 C 1194.54 1071.44 1197.92 1070.66 1197.92 1070.66 C 1197.92 1070.66 1222.11 1079.76 1240.05 1089.91 C 1258 1100.05 1281.15 1117.48 1280.11 1116.44 C 1279.07 1115.4 1260.34 1113.83 1259.56 1113.31 C 1258.78 1112.79 1200.78 1089.65 1200.78 1089.65 C 1200.78 1089.65 1154.23 1117.3 1153.45 1116.48 C 1152.67 1115.65 1146.69 1116.44 1146.69 1116.44 Z " fill="rgb(66,75,87)"/><path d=" M 1288.43 1045.95 C 1289.99 1042.83 1289.99 1039.19 1289.47 1036.07 C 1288.96 1034.68 1288.15 1033.57 1287.13 1032.67 C 1282.24 1036 1276.99 1039.59 1271.91 1043.08 C 1271.96 1043.86 1272.08 1044.65 1272.3 1045.43 C 1275.42 1052.2 1285.83 1052.2 1288.43 1045.95 Z " fill="rgb(66,75,87)"/><path d=" M 1308.2 1018.38 C 1308.2 1018.38 1298.71 1024.79 1287.13 1032.67 C 1288.15 1033.57 1288.96 1034.68 1289.47 1036.07 C 1289.99 1039.19 1289.99 1042.83 1288.43 1045.95 C 1285.83 1052.2 1275.42 1052.2 1272.3 1045.43 C 1272.08 1044.65 1271.96 1043.86 1271.91 1043.08 C 1258 1052.65 1245.47 1061.43 1245.78 1061.82 C 1254.36 1072.48 1278.29 1082.36 1301.17 1067.28 C 1324.06 1052.2 1308.2 1018.38 1308.2 1018.38 Z " fill="rgb(195,227,209)"/><path d=" M 1154.23 1044.91 C 1155.79 1050.11 1161.51 1052.72 1166.71 1051.15 C 1167.58 1050.92 1168.36 1050.56 1169.08 1050.11 L 1154.97 1036.55 C 1153.62 1038.97 1153.37 1042.33 1154.23 1044.91 Z " fill="rgb(66,75,87)"/><path d=" M 1169.08 1050.11 C 1168.36 1050.56 1167.58 1050.92 1166.71 1051.15 C 1161.51 1052.72 1155.79 1050.11 1154.23 1044.91 C 1153.37 1042.33 1153.62 1038.97 1154.97 1036.55 L 1141.48 1023.59 C 1141.48 1023.59 1134.98 1050.63 1146.69 1062.34 C 1158.39 1074.04 1181.8 1062.34 1181.8 1062.34 L 1169.08 1050.11 Z " fill="rgb(195,227,209)"/></g></svg>
