<?xml version="1.0" encoding="UTF-8" standalone="no"?>
<!-- Created with Inkscape (http://www.inkscape.org/) -->

<svg
  xmlns:dc="http://purl.org/dc/elements/1.1/"
  xmlns:cc="http://creativecommons.org/ns#"
  xmlns:rdf="http://www.w3.org/1999/02/22-rdf-syntax-ns#"
  xmlns="http://www.w3.org/2000/svg"
  version="1.1"
  width="146.43697"
  height="119.14725"
  id="svg2"
  xml:space="preserve"><metadata
     id="metadata8"><rdf:RDF><cc:Work
         rdf:about=""><dc:format>image/svg+xml</dc:format><dc:type
           rdf:resource="http://purl.org/dc/dcmitype/StillImage" /><dc:title></dc:title></cc:Work></rdf:RDF></metadata><defs
     id="defs6"><clipPath
       id="clipPath16"><path
         d="m 0,2204.724 787.402,0 L 787.402,0 0,0 0,2204.724 z"
         id="path18" /></clipPath><clipPath
       id="clipPath24"><path
         d="M 3.05176e-5,2204.72 787.402,2204.72 787.402,0 3.05176e-5,0 l 0,2204.72 z"
         id="path26" /></clipPath><clipPath
       id="clipPath38"><path
         d="m 0,2204.724 787.402,0 L 787.402,0 0,0 0,2204.724 z"
         id="path40" /></clipPath><clipPath
       id="clipPath46"><path
         d="m 366.535,64.5675 55.906,0 0,-17.3229 -55.906,0 0,17.3229 z"
         id="path48" /></clipPath><clipPath
       id="clipPath110"><path
         d="m 0,2204.724 787.402,0 L 787.402,0 0,0 0,2204.724 z"
         id="path112" /></clipPath><clipPath
       id="clipPath118"><path
         d="m 522.047,210.237 55.905,0 0,-17.323 -55.905,0 0,17.323 z"
         id="path120" /></clipPath><clipPath
       id="clipPath178"><path
         d="m 0,2204.724 787.402,0 L 787.402,0 0,0 0,2204.724 z"
         id="path180" /></clipPath><clipPath
       id="clipPath186"><path
         d="m 366.142,210.237 55.905,0 0,-17.323 -55.905,0 0,17.323 z"
         id="path188" /></clipPath><clipPath
       id="clipPath246"><path
         d="m 0,2204.724 787.402,0 L 787.402,0 0,0 0,2204.724 z"
         id="path248" /></clipPath><clipPath
       id="clipPath254"><path
         d="m 208.59,210.359 55.906,0 0,-17.323 -55.906,0 0,17.323 z"
         id="path256" /></clipPath><clipPath
       id="clipPath318"><path
         d="m 0,2204.724 787.402,0 L 787.402,0 0,0 0,2204.724 z"
         id="path320" /></clipPath><clipPath
       id="clipPath326"><path
         d="m 516.535,359.843 67.323,0 0,-20.866 -67.323,0 0,20.866 z"
         id="path328" /></clipPath><clipPath
       id="clipPath386"><path
         d="m 0,2204.724 787.402,0 L 787.402,0 0,0 0,2204.724 z"
         id="path388" /></clipPath><clipPath
       id="clipPath394"><path
         d="m 364.567,367.717 55.905,0 0,-17.323 -55.905,0 0,17.323 z"
         id="path396" /></clipPath><clipPath
       id="clipPath450"><path
         d="m 0,2204.724 787.402,0 L 787.402,0 0,0 0,2204.724 z"
         id="path452" /></clipPath><clipPath
       id="clipPath458"><path
         d="m 208.267,360.63 55.906,0 0,-17.323 -55.906,0 0,17.323 z"
         id="path460" /></clipPath><clipPath
       id="clipPath510"><path
         d="m 0,2204.724 787.402,0 L 787.402,0 0,0 0,2204.724 z"
         id="path512" /></clipPath><clipPath
       id="clipPath518"><path
         d="m 521.26,520.473 55.905,0 0,-17.323 -55.905,0 0,17.323 z"
         id="path520" /></clipPath><clipPath
       id="clipPath574"><path
         d="m 0,2204.724 787.402,0 L 787.402,0 0,0 0,2204.724 z"
         id="path576" /></clipPath><clipPath
       id="clipPath582"><path
         d="m 366.142,510.237 55.905,0 0,-17.323 -55.905,0 0,17.323 z"
         id="path584" /></clipPath><clipPath
       id="clipPath638"><path
         d="m 0,2204.724 787.402,0 L 787.402,0 0,0 0,2204.724 z"
         id="path640" /></clipPath><clipPath
       id="clipPath646"><path
         d="m 207.874,522.048 55.905,0 0,-17.323 -55.905,0 0,17.323 z"
         id="path648" /></clipPath><clipPath
       id="clipPath694"><path
         d="m 0,2204.724 787.402,0 L 787.402,0 0,0 0,2204.724 z"
         id="path696" /></clipPath><clipPath
       id="clipPath702"><path
         d="m 523.622,677.56 55.905,0 0,-17.323 -55.905,0 0,17.323 z"
         id="path704" /></clipPath><clipPath
       id="clipPath754"><path
         d="m 0,2204.724 787.402,0 L 787.402,0 0,0 0,2204.724 z"
         id="path756" /></clipPath><clipPath
       id="clipPath762"><path
         d="m 364.566,682.678 55.906,0 0,-17.323 -55.906,0 0,17.323 z"
         id="path764" /></clipPath><clipPath
       id="clipPath814"><path
         d="m 0,2204.724 787.402,0 L 787.402,0 0,0 0,2204.724 z"
         id="path816" /></clipPath><clipPath
       id="clipPath822"><path
         d="m 181.89,704.725 109.449,0 0,-39.764 -109.449,0 0,39.764 z"
         id="path824" /></clipPath><clipPath
       id="clipPath862"><path
         d="m 0,2204.724 787.402,0 L 787.402,0 0,0 0,2204.724 z"
         id="path864" /></clipPath><clipPath
       id="clipPath870"><path
         d="m 522.047,837.796 55.905,0 0,-17.323 -55.905,0 0,17.323 z"
         id="path872" /></clipPath><clipPath
       id="clipPath930"><path
         d="m 0,2204.724 787.402,0 L 787.402,0 0,0 0,2204.724 z"
         id="path932" /></clipPath><clipPath
       id="clipPath938"><path
         d="m 363.779,833.072 55.906,0 0,-17.323 -55.906,0 0,17.323 z"
         id="path940" /></clipPath><clipPath
       id="clipPath982"><path
         d="m 0,2204.724 787.402,0 L 787.402,0 0,0 0,2204.724 z"
         id="path984" /></clipPath><clipPath
       id="clipPath994"><path
         d="m 221.259,837.796 55.906,0 0,-17.323 -55.906,0 0,17.323 z"
         id="path996" /></clipPath><clipPath
       id="clipPath1038"><path
         d="m 0,2204.724 787.402,0 L 787.402,0 0,0 0,2204.724 z"
         id="path1040" /></clipPath><clipPath
       id="clipPath1046"><path
         d="m 522.047,991.339 55.905,0 0,-17.323 -55.905,0 0,17.323 z"
         id="path1048" /></clipPath><clipPath
       id="clipPath1094"><path
         d="m 0,2204.724 787.402,0 L 787.402,0 0,0 0,2204.724 z"
         id="path1096" /></clipPath><clipPath
       id="clipPath1102"><path
         d="m 365.354,977.166 55.906,0 0,-17.323 -55.906,0 0,17.323 z"
         id="path1104" /></clipPath><clipPath
       id="clipPath1186"><path
         d="m 0,2204.724 787.402,0 L 787.402,0 0,0 0,2204.724 z"
         id="path1188" /></clipPath><clipPath
       id="clipPath1194"><path
         d="m 208.267,984.252 55.906,0 0,-17.322 -55.906,0 0,17.322 z"
         id="path1196" /></clipPath><clipPath
       id="clipPath1254"><path
         d="m 0,2204.724 787.402,0 L 787.402,0 0,0 0,2204.724 z"
         id="path1256" /></clipPath><clipPath
       id="clipPath1262"><path
         d="m 523.622,1150.39 55.905,0 0,-17.32 -55.905,0 0,17.32 z"
         id="path1264" /></clipPath><clipPath
       id="clipPath1322"><path
         d="m 0,2204.724 787.402,0 L 787.402,0 0,0 0,2204.724 z"
         id="path1324" /></clipPath><clipPath
       id="clipPath1330"><path
         d="m 365.748,1145.67 55.905,0 0,-17.32 -55.905,0 0,17.32 z"
         id="path1332" /></clipPath><clipPath
       id="clipPath1374"><path
         d="m 0,2204.724 787.402,0 L 787.402,0 0,0 0,2204.724 z"
         id="path1376" /></clipPath><clipPath
       id="clipPath1382"><path
         d="m 207.874,1149.21 55.905,0 0,-17.32 -55.905,0 0,17.32 z"
         id="path1384" /></clipPath><clipPath
       id="clipPath1430"><path
         d="m 0,2204.724 787.402,0 L 787.402,0 0,0 0,2204.724 z"
         id="path1432" /></clipPath><clipPath
       id="clipPath1438"><path
         d="m 518.504,1309.45 55.905,0 0,-17.32 -55.905,0 0,17.32 z"
         id="path1440" /></clipPath><clipPath
       id="clipPath1502"><path
         d="m 0,2204.724 787.402,0 L 787.402,0 0,0 0,2204.724 z"
         id="path1504" /></clipPath><clipPath
       id="clipPath1510"><path
         d="m 364.567,1295.28 55.905,0 0,-17.33 -55.905,0 0,17.33 z"
         id="path1512" /></clipPath><clipPath
       id="clipPath1578"><path
         d="m 0,2204.724 787.402,0 L 787.402,0 0,0 0,2204.724 z"
         id="path1580" /></clipPath><clipPath
       id="clipPath1586"><path
         d="m 209.448,1307.48 55.906,0 0,-17.32 -55.906,0 0,17.32 z"
         id="path1588" /></clipPath><clipPath
       id="clipPath1642"><path
         d="m 0,2204.724 787.402,0 L 787.402,0 0,0 0,2204.724 z"
         id="path1644" /></clipPath><clipPath
       id="clipPath1650"><path
         d="m 500,1467.32 107.087,0 0,-33.07 -107.087,0 0,33.07 z"
         id="path1652" /></clipPath><clipPath
       id="clipPath1706"><path
         d="m 0,2204.724 787.402,0 L 787.402,0 0,0 0,2204.724 z"
         id="path1708" /></clipPath><clipPath
       id="clipPath1714"><path
         d="m 366.141,1468.5 55.906,0 0,-17.32 -55.906,0 0,17.32 z"
         id="path1716" /></clipPath><clipPath
       id="clipPath1734"><path
         d="m 0,2204.724 787.402,0 L 787.402,0 0,0 0,2204.724 z"
         id="path1736" /></clipPath><clipPath
       id="clipPath1774"><path
         d="m 0,2204.724 787.402,0 L 787.402,0 0,0 0,2204.724 z"
         id="path1776" /></clipPath><clipPath
       id="clipPath1782"><path
         d="m 207.48,1468.5 55.905,0 0,-17.32 -55.905,0 0,17.32 z"
         id="path1784" /></clipPath><clipPath
       id="clipPath1838"><path
         d="m 0,2204.724 787.402,0 L 787.402,0 0,0 0,2204.724 z"
         id="path1840" /></clipPath><clipPath
       id="clipPath1846"><path
         d="m 522.047,1619.69 55.905,0 0,-17.33 -55.905,0 0,17.33 z"
         id="path1848" /></clipPath><clipPath
       id="clipPath1890"><path
         d="m 0,2204.724 787.402,0 L 787.402,0 0,0 0,2204.724 z"
         id="path1892" /></clipPath><clipPath
       id="clipPath1898"><path
         d="m 366.535,1618.9 55.906,0 0,-17.32 -55.906,0 0,17.32 z"
         id="path1900" /></clipPath><clipPath
       id="clipPath1954"><path
         d="m 0,2204.724 787.402,0 L 787.402,0 0,0 0,2204.724 z"
         id="path1956" /></clipPath><clipPath
       id="clipPath1962"><path
         d="m 207.874,1624.41 55.905,0 0,-17.32 -55.905,0 0,17.32 z"
         id="path1964" /></clipPath><clipPath
       id="clipPath2026"><path
         d="m 0,2204.724 787.402,0 L 787.402,0 0,0 0,2204.724 z"
         id="path2028" /></clipPath><clipPath
       id="clipPath2034"><path
         d="m 520.078,1779.92 55.906,0 0,-17.32 -55.906,0 0,17.32 z"
         id="path2036" /></clipPath><clipPath
       id="clipPath2090"><path
         d="m 0,2204.724 787.402,0 L 787.402,0 0,0 0,2204.724 z"
         id="path2092" /></clipPath><clipPath
       id="clipPath2098"><path
         d="m 368.11,1781.89 55.905,0 0,-17.32 -55.905,0 0,17.32 z"
         id="path2100" /></clipPath><clipPath
       id="clipPath2158"><path
         d="m 0,2204.724 787.402,0 L 787.402,0 0,0 0,2204.724 z"
         id="path2160" /></clipPath><clipPath
       id="clipPath2166"><path
         d="m 207.874,1775.59 55.905,0 0,-17.32 -55.905,0 0,17.32 z"
         id="path2168" /></clipPath><clipPath
       id="clipPath2226"><path
         d="m 0,2204.724 787.402,0 L 787.402,0 0,0 0,2204.724 z"
         id="path2228" /></clipPath><clipPath
       id="clipPath2234"><path
         d="m 521.26,1928.35 55.905,0 0,-17.33 -55.905,0 0,17.33 z"
         id="path2236" /></clipPath><clipPath
       id="clipPath2294"><path
         d="m 0,2204.724 787.402,0 L 787.402,0 0,0 0,2204.724 z"
         id="path2296" /></clipPath><clipPath
       id="clipPath2302"><path
         d="m 366.535,1940.16 55.905,0 0,-17.33 -55.905,0 0,17.33 z"
         id="path2304" /></clipPath><clipPath
       id="clipPath2358"><path
         d="m 0,2204.724 787.402,0 L 787.402,0 0,0 0,2204.724 z"
         id="path2360" /></clipPath><clipPath
       id="clipPath2366"><path
         d="m 204.33,1922.84 55.906,0 0,-17.33 -55.906,0 0,17.33 z"
         id="path2368" /></clipPath><clipPath
       id="clipPath2418"><path
         d="m 0,2204.724 787.402,0 L 787.402,0 0,0 0,2204.724 z"
         id="path2420" /></clipPath><clipPath
       id="clipPath2426"><path
         d="m 522.44,2090.16 55.906,0 0,-17.33 -55.906,0 0,17.33 z"
         id="path2428" /></clipPath><clipPath
       id="clipPath2478"><path
         d="m 0,2204.724 787.402,0 L 787.402,0 0,0 0,2204.724 z"
         id="path2480" /></clipPath><clipPath
       id="clipPath2486"><path
         d="m 364.566,2100.79 55.906,0 0,-17.33 -55.906,0 0,17.33 z"
         id="path2488" /></clipPath><clipPath
       id="clipPath2526"><path
         d="m 0,2204.724 787.402,0 L 787.402,0 0,0 0,2204.724 z"
         id="path2528" /></clipPath><clipPath
       id="clipPath2534"><path
         d="m 207.086,2088.98 55.906,0 0,-17.33 -55.906,0 0,17.33 z"
         id="path2536" /></clipPath></defs><g
     transform="matrix(1.25,0,0,-1.25,-614.77355,542.9685)"
     id="g10"><g
       id="g314"><g
         clip-path="url(#clipPath318)"
         id="g316"><g
           id="g322"><g
             id="g324" /><g
             id="g330"><g
               clip-path="url(#clipPath326)"
               id="g332"
               style="opacity:0.19999701"><g
                 transform="translate(550.1968,359.8427)"
                 id="g334"><path
                   d="m 0,0 c -18.591,0 -33.661,-4.671 -33.661,-10.433 0,-5.762 15.07,-10.433 33.661,-10.433 18.591,0 33.661,4.671 33.661,10.433 C 33.661,-4.671 18.591,0 0,0"
                   id="path336"
                   style="fill:#000000;fill-opacity:1;fill-rule:evenodd;stroke:none" /></g></g></g></g><g
           transform="translate(563.7303,352.7222)"
           id="g338"><path
             d="m 0,0 c 0,0 10.478,4.686 4.678,13.157 -5.8,8.471 -15.533,11.944 -15.533,11.944 l -2.678,-1.746 -2.679,1.746 c 0,0 -9.733,-3.473 -15.533,-11.944 C -37.545,4.686 -27.067,0 -27.067,0 c 0,0 -9.781,-0.847 -8.317,-3.381 2.956,-5.116 10.099,-2.194 12.447,-1.277 2.348,0.918 3.647,1.986 2.651,3.016 -0.997,1.03 -13.082,6.871 -7.656,13.512 2.781,3.405 9.003,4.7 14.409,5.156 C -8.128,16.57 -1.906,15.275 0.875,11.87 6.301,5.229 -5.784,-0.612 -6.78,-1.642 -7.777,-2.672 -6.478,-3.74 -4.13,-4.658 -1.782,-5.575 5.361,-8.497 8.317,-3.381 9.781,-0.847 0,0 0,0"
             id="path340"
             style="fill:#217414;fill-opacity:1;fill-rule:evenodd;stroke:none" /></g><g
           transform="translate(506.3136,382.4493)"
           id="g342"><path
             d="m 0,0 c -7.786,1.129 -5.668,7.581 -5.668,7.581 0,0 6.747,2.541 5.37,4.243 -1.377,1.701 -3.802,-0.571 -3.802,-0.571 0,0 3.867,6.087 1.511,7.177 -2.357,1.089 -3.875,-6.221 -3.875,-6.221 0,0 0.832,7.084 -2.26,7.142 -3.091,0.059 -0.706,-7.226 -0.706,-7.226 0,0 -3.202,6.38 -4.583,4.325 -2.143,-3.191 3.459,-7.353 5.146,-8.86 0.159,-4.866 2.599,-10.512 10.981,-10.375 8.381,0.136 12.045,7.012 12.045,7.012 l -2.848,4.54 C 11.311,8.767 7.822,-1 0,0 m 102.173,16.45 c -1.38,2.055 -4.583,-4.325 -4.583,-4.325 0,0 2.385,7.285 -0.706,7.226 -3.092,-0.058 -2.259,-7.142 -2.259,-7.142 0,0 -1.519,7.31 -3.875,6.221 -2.357,-1.09 1.51,-7.177 1.51,-7.177 0,0 -2.425,2.272 -3.802,0.571 -1.377,-1.702 5.37,-4.243 5.37,-4.243 0,0 2.118,-6.452 -5.668,-7.581 -7.822,-1 -11.31,8.767 -11.31,8.767 l -2.849,-4.54 c 0,0 3.665,-6.876 12.046,-7.012 8.381,-0.137 10.821,5.509 10.98,10.375 1.688,1.507 7.289,5.669 5.146,8.86"
             id="path344"
             style="fill:#217414;fill-opacity:1;fill-rule:evenodd;stroke:none" /></g><g
           transform="translate(569.6138,434.3748)"
           id="g346"><path
             d="m 0,0 c -4.566,0 -8.268,-3.701 -8.268,-8.268 0,-4.566 3.702,-8.267 8.268,-8.267 4.566,0 8.268,3.701 8.268,8.267 C 8.268,-3.701 4.566,0 0,0 m -38.583,0 c -4.566,0 -8.267,-3.701 -8.267,-8.268 0,-4.566 3.701,-8.267 8.267,-8.267 4.566,0 8.268,3.701 8.268,8.267 0,4.567 -3.702,8.268 -8.268,8.268"
             id="path348"
             style="fill:#339c22;fill-opacity:1;fill-rule:evenodd;stroke:none" /></g><g
           transform="translate(531.0311,431.2253)"
           id="g350"><path
             d="m 0,0 c -2.609,0 -4.724,-2.115 -4.724,-4.725 0,-2.609 2.115,-4.724 4.724,-4.724 2.609,0 4.724,2.115 4.724,4.724 C 4.724,-2.115 2.609,0 0,0 m 38.583,0 c -2.61,0 -4.725,-2.115 -4.725,-4.725 0,-2.609 2.115,-4.724 4.725,-4.724 2.609,0 4.724,2.115 4.724,4.724 0,2.61 -2.115,4.725 -4.724,4.725"
             id="path352"
             style="fill:#217414;fill-opacity:1;fill-rule:evenodd;stroke:none" /></g><g
           transform="translate(550.3935,433.1699)"
           id="g354"><path
             d="m 0,0 c -23.032,0 -38.977,-36.811 -31.496,-59.055 7.48,-22.244 55.315,-20.473 62.992,0.787 C 39.173,-37.008 23.031,0 0,0"
             id="path356"
             style="fill:#339c22;fill-opacity:1;fill-rule:evenodd;stroke:none" /></g><g
           transform="translate(542.3331,359.3846)"
           id="g358"><path
             d="m 0,0 c 0,0 0.979,-3.059 1.549,-4.714 0.552,0.143 1.277,1.301 1.277,1.301 0,0 1.324,-3.693 1.338,-5.146 0.967,0.148 1.486,1.949 1.486,1.949 0,0 1.755,-3.828 1.768,-5.142 1.716,1.469 1.671,5.174 1.671,5.174 0,0 1.239,-1.253 1.528,-2.565 1.36,2.642 0.806,5.811 0.806,5.811 0,0 1.01,-0.652 1.691,-1.635 1.286,2.117 1.718,4.891 1.718,4.891 0,0 -8.723,-2.012 -14.832,0.076"
             id="path360"
             style="fill:#ffffff;fill-opacity:1;fill-rule:evenodd;stroke:none" /></g><g
           transform="translate(562.2047,418.8978)"
           id="g362"><path
             d="m 0,0 c -4.131,0 -7.48,-3.349 -7.48,-7.48 0,-4.132 3.349,-7.481 7.48,-7.481 4.131,0 7.48,3.349 7.48,7.481 C 7.48,-3.349 4.131,0 0,0 m -23.622,0 c -4.131,0 -7.48,-3.349 -7.48,-7.48 0,-4.132 3.349,-7.481 7.48,-7.481 4.131,0 7.48,3.349 7.48,7.481 0,4.131 -3.349,7.48 -7.48,7.48"
             id="path364"
             style="fill:#ffffff;fill-opacity:1;fill-rule:evenodd;stroke:none" /></g><g
           transform="translate(564.5669,410.63)"
           id="g366"><path
             d="m 0,0 c -0.87,0 -1.575,-0.705 -1.575,-1.575 0,-0.87 0.705,-1.575 1.575,-1.575 0.87,0 1.575,0.705 1.575,1.575 C 1.575,-0.705 0.87,0 0,0 m -4.724,0 c -0.87,0 -1.575,-0.705 -1.575,-1.575 0,-0.87 0.705,-1.575 1.575,-1.575 0.869,0 1.574,0.705 1.574,1.575 C -3.15,-0.705 -3.855,0 -4.724,0 M 0,1.575 C 0.87,1.575 1.575,2.28 1.575,3.15 1.575,4.019 0.87,4.724 0,4.724 -0.87,4.724 -1.575,4.019 -1.575,3.15 -1.575,2.28 -0.87,1.575 0,1.575 m -4.724,3.149 c -0.87,0 -1.575,-0.705 -1.575,-1.574 0,-0.87 0.705,-1.575 1.575,-1.575 0.869,0 1.574,0.705 1.574,1.575 0,0.869 -0.705,1.574 -1.574,1.574 M -23.622,0 c -0.87,0 -1.575,-0.705 -1.575,-1.575 0,-0.87 0.705,-1.575 1.575,-1.575 0.87,0 1.575,0.705 1.575,1.575 0,0.87 -0.705,1.575 -1.575,1.575 m -4.724,0 c -0.87,0 -1.575,-0.705 -1.575,-1.575 0,-0.87 0.705,-1.575 1.575,-1.575 0.869,0 1.574,0.705 1.574,1.575 0,0.87 -0.705,1.575 -1.574,1.575 m 4.724,4.724 c -0.87,0 -1.575,-0.705 -1.575,-1.574 0,-0.87 0.705,-1.575 1.575,-1.575 0.87,0 1.575,0.705 1.575,1.575 0,0.869 -0.705,1.574 -1.575,1.574 m -4.724,0 c -0.87,0 -1.575,-0.705 -1.575,-1.574 0,-0.87 0.705,-1.575 1.575,-1.575 0.869,0 1.574,0.705 1.574,1.575 0,0.869 -0.705,1.574 -1.574,1.574"
             id="path368"
             style="fill:#142122;fill-opacity:1;fill-rule:evenodd;stroke:none" /></g><g
           transform="translate(543.1605,389.3054)"
           id="g370"><path
             d="M 0,0 C -0.172,-1.369 1.257,-9.269 2.439,-9.758 3.622,-10.247 6.768,-11.23 6.611,-9.141 6.454,-7.052 6.396,1.257 6.396,1.257 6.396,1.257 0.172,1.369 0,0 m 7.928,1.257 c 0,0 -0.058,-8.309 -0.215,-10.398 -0.157,-2.089 2.989,-1.106 4.172,-0.617 1.182,0.489 2.611,8.389 2.439,9.758 C 14.152,1.369 7.928,1.257 7.928,1.257 M -3.464,-0.678 c -0.326,-3.028 0.623,-5.59 2.565,-6.274 0.075,-0.027 0.151,-0.05 0.227,-0.07 -0.7,1.776 -0.674,4.299 0.237,6.848 0.077,0.216 0.161,0.426 0.247,0.632 -0.912,-0.217 -1.809,-0.499 -2.681,-0.872 -0.2,-0.083 -0.398,-0.172 -0.595,-0.264 m 21.394,0 c -0.197,0.092 -0.395,0.181 -0.595,0.264 -0.872,0.373 -1.768,0.655 -2.681,0.872 0.087,-0.206 0.171,-0.416 0.248,-0.632 0.91,-2.549 0.936,-5.072 0.236,-6.848 0.076,0.02 0.152,0.043 0.227,0.07 1.942,0.684 2.892,3.246 2.565,6.274"
             id="path372"
             style="fill:#ffffff;fill-opacity:1;fill-rule:evenodd;stroke:none" /></g><g
           transform="translate(556.2279,402.0915)"
           id="g374"><path
             d="M 0,0 C -2.236,0 -4.287,-0.618 -5.905,-1.646 -7.524,-0.618 -9.575,0 -11.811,0 c -5.218,0 -9.449,-3.349 -9.449,-7.48 0,-4.132 4.231,-7.481 9.449,-7.481 2.236,0 4.287,0.618 5.906,1.646 1.618,-1.028 3.669,-1.646 5.905,-1.646 5.218,0 9.449,3.349 9.449,7.481 C 9.449,-3.349 5.218,0 0,0"
             id="path376"
             style="fill:#59c248;fill-opacity:1;fill-rule:evenodd;stroke:none" /></g><g
           transform="translate(550.3224,402.0915)"
           id="g378"><path
             d="m 0,0 c -3.262,0 -5.905,-0.207 -5.905,-2.599 0,-2.391 2.643,-6.062 5.905,-6.062 3.262,0 5.905,3.671 5.905,6.062 C 5.905,-0.207 3.262,0 0,0"
             id="path380"
             style="fill:#142122;fill-opacity:1;fill-rule:evenodd;stroke:none" /></g></g></g></g></svg>
