<?xml version="1.0" encoding="UTF-8" standalone="no"?><!-- Generator: Gravit.io -->
<svg xmlns="http://www.w3.org/2000/svg"
     style="isolation:isolate" viewBox="933.149 1595.976 660.148 676.316" width="660.148pt" height="676.316pt"><g><path d=" M 1235.6 1843.45 C 1235.6 1843.45 1233.17 1643.71 1233.52 1630.88 C 1233.87 1618.04 1241.5 1607.99 1247.39 1615.62 C 1253.29 1623.25 1261.61 1773.4 1263 1804.26 C 1264.38 1835.12 1263 1841.02 1263 1841.02 L 1235.6 1843.45 Z " fill="rgb(82,100,64)"/><path d=" M 1299.06 1843.45 C 1299.06 1843.45 1386.8 1689.13 1400.32 1674.22 C 1413.84 1659.31 1426.67 1661.39 1418 1685.67 C 1409.34 1709.94 1343.1 1860.78 1343.1 1860.78 L 1299.06 1843.45 Z " fill="rgb(82,100,64)"/><path d=" M 1401.01 1935.69 C 1401.01 1935.69 1567.12 1911.41 1579.95 1911.07 C 1592.78 1910.72 1604.22 1921.82 1574.75 1932.22 C 1545.27 1942.62 1406.21 1974.18 1406.21 1974.18 L 1401.01 1935.69 Z " fill="rgb(82,100,64)"/><path d=" M 1406.21 2004 C 1406.21 2004 1562.26 2065.38 1576.48 2070.58 C 1590.7 2075.78 1594.51 2086.53 1577.17 2085.15 C 1559.83 2083.76 1394.08 2037.29 1394.08 2037.29 L 1406.21 2004 Z " fill="rgb(82,100,64)"/><path d=" M 1269.24 2081.33 C 1269.24 2081.33 1307.38 2245.01 1312.24 2260.27 C 1317.09 2275.53 1328.88 2276.91 1328.19 2258.19 C 1327.5 2239.46 1305.3 2079.6 1305.3 2079.6 L 1269.24 2081.33 Z " fill="rgb(82,100,64)"/><path d=" M 1188.79 2060.18 C 1188.79 2060.18 1126.72 2238.42 1122.55 2250.56 C 1118.39 2262.7 1118.74 2269.46 1123.94 2271.97 C 1129.14 2274.49 1138.43 2262.35 1154.25 2230.45 C 1170.06 2198.54 1225.89 2075.09 1225.89 2075.09 L 1188.79 2060.18 Z " fill="rgb(82,100,64)"/><path d=" M 1134.34 1980.42 C 1134.34 1980.42 972.402 2004 955.063 2007.12 C 937.724 2010.24 933.91 2004.35 933.216 2000.54 C 932.522 1996.72 936.684 1991.17 970.667 1982.85 C 1004.65 1974.53 1129.84 1942.28 1130.88 1941.93 C 1131.92 1941.58 1134.34 1980.42 1134.34 1980.42 Z " fill="rgb(82,100,64)"/><path d=" M 1138.85 1915.57 C 1138.85 1915.57 962.345 1826.45 949.861 1818.48 C 937.377 1810.5 935.296 1801.83 940.151 1798.02 C 945.006 1794.2 950.555 1795.24 986.619 1808.08 C 1022.68 1820.91 1161.05 1878.47 1161.05 1878.47 L 1138.85 1915.57 Z " fill="rgb(82,100,64)"/><path d=" M 1248.55 2094.68 C 1200.97 2088.12 1153.94 2050.64 1137.81 2012.85 C 1121.69 1975.05 1110.76 1897.02 1170.58 1853.33 C 1230.4 1809.64 1309.51 1815.7 1363.07 1860.78 C 1416.62 1905.87 1431.18 1982.85 1407.78 2029.14 C 1384.37 2075.44 1308.83 2103.01 1248.55 2094.68 Z " fill="rgb(130,147,76)"/><path d=" M 1150.99 2008 C 1150.99 2008 1162.09 2005.74 1172.84 2015.79 C 1183.59 2025.85 1176.3 2041.11 1150.3 2057.75 C 1124.29 2074.4 980.03 2171.15 972.748 2171.84 C 965.466 2172.53 959.224 2164.56 972.748 2152.42 C 986.272 2140.28 1143.36 2011.66 1150.99 2008 Z " fill="rgb(99,123,77)"/><path d=" M 1450.95 2239.11 C 1457.19 2247.09 1467.25 2250.21 1467.94 2241.89 C 1468.63 2233.57 1422.17 2154.15 1400.67 2113.24 C 1379.17 2072.32 1372.58 2050.47 1361.48 2051.51 C 1350.38 2052.55 1334.33 2060.53 1347.73 2082.37 C 1361.13 2104.22 1450.95 2239.11 1450.95 2239.11 Z " fill="rgb(99,123,77)"/><path d=" M 1377.78 1913.84 C 1370.5 1917.45 1341.37 1916.27 1340.67 1898.93 C 1339.98 1881.59 1347.61 1879.51 1364.6 1867.03 C 1381.59 1854.54 1542.5 1743.23 1551.17 1740.46 C 1559.84 1737.68 1567.81 1740.46 1557.41 1753.63 C 1547 1766.81 1380.64 1912.42 1377.78 1913.84 Z " fill="rgb(99,123,77)"/><path d=" M 1180.81 1865.29 C 1186.36 1874.66 1198.84 1885.06 1214.45 1876.39 C 1230.05 1867.72 1230.75 1857.32 1220.69 1841.02 C 1210.64 1824.72 1089.96 1655.84 1079.9 1647.17 C 1069.84 1638.5 1059.44 1643.71 1067.76 1662.78 C 1076.09 1681.85 1180.81 1865.29 1180.81 1865.29 Z " fill="rgb(99,123,77)"/><path d=" M 1190.09 1901.96 C 1190.61 1902.74 1205.17 1910.29 1220.78 1925.37 C 1236.38 1940.46 1248.55 1953.72 1248.55 1953.72 C 1248.55 1953.72 1228.32 1962.82 1203.61 1950.6 C 1178.9 1938.38 1190.09 1901.96 1190.09 1901.96 Z " fill="rgb(250,224,214)"/><path d=" M 1293.34 1959.87 C 1293.34 1959.87 1312.85 1949.04 1333.91 1945.4 C 1354.98 1941.76 1370.32 1940.46 1370.32 1940.46 C 1370.32 1940.46 1370.06 1970.37 1339.11 1976.87 C 1308.16 1983.37 1293.34 1959.87 1293.34 1959.87 Z " fill="rgb(250,224,214)"/><path d=" M 1244.71 1997.93 C 1221.82 2000.29 1200.9 1991.52 1187.56 1974.18 C 1174.22 1956.84 1166.94 1946.18 1153.42 1955.02 C 1139.89 1963.86 1141.71 1985.97 1163.56 1993.51 C 1185.41 2001.06 1191.39 2005.22 1200.23 2015.62 C 1209.07 2026.02 1225.2 2024.2 1246.27 2023.16 C 1267.33 2022.12 1272.01 2029.4 1283.98 2041.89 C 1295.94 2054.37 1328.45 2061.13 1346.14 2041.63 C 1363.82 2022.12 1356.86 2002.36 1327.18 1994.29 C 1297.5 1986.23 1269.93 1995.33 1244.71 1997.93 Z " fill="rgb(55,67,50)"/><path d=" M 1305.3 2011.46 C 1307.9 2016.66 1320.39 2021.34 1325.59 2017.18 C 1331.43 2012.8 1332.91 2004.57 1332.92 1996.1 C 1331.11 1995.45 1329.2 1994.84 1327.18 1994.29 C 1320.24 1992.41 1313.42 1991.47 1306.72 1991.16 C 1305.1 1998.65 1302.91 2006.28 1305.3 2011.46 Z " fill="rgb(250,224,214)"/><path d=" M 1169.54 1972.45 C 1167.46 1977.13 1174.22 1983.89 1177.86 1984.41 C 1182.98 1984.68 1187.4 1982.16 1191.63 1978.95 C 1190.2 1977.44 1188.85 1975.85 1187.56 1974.18 C 1184.23 1969.85 1181.27 1965.93 1178.5 1962.63 C 1174.54 1965.26 1171.1 1968.39 1169.54 1972.45 Z " fill="rgb(250,224,214)"/><path d=" M 1230.92 2009.38 C 1232.2 2014.06 1231.04 2019.08 1231.43 2023.89 C 1236.04 2023.73 1241 2023.42 1246.27 2023.16 C 1247.83 2023.08 1249.31 2023.06 1250.7 2023.07 C 1250.65 2018.48 1250.05 2014.07 1248.09 2010.42 C 1245.49 2005.22 1237.16 2009.38 1230.92 2009.38 Z " fill="rgb(250,224,214)"/><path d=" M 1339.11 1956.69 C 1338.35 1952.44 1334.86 1951.2 1331.01 1952.38 C 1327.53 1953.44 1324.9 1956.34 1324.53 1959.98 C 1324.35 1961.79 1325.34 1963.44 1326.78 1964.44 C 1328.18 1967.87 1332.04 1968.06 1335.3 1966.41 C 1339.25 1964.41 1339.82 1960.62 1339.11 1956.69 Z " fill="rgb(55,53,53)"/><path d=" M 1216.32 1931.57 C 1213.62 1930.16 1209.2 1931.54 1207.81 1934.25 C 1205.78 1938.19 1210.46 1942.32 1214.15 1942.22 C 1215.88 1942.18 1217.77 1941.55 1218.56 1939.88 C 1218.76 1939.43 1218.87 1938.98 1218.89 1938.52 C 1219.8 1936.03 1218.72 1932.83 1216.32 1931.57 Z " fill="rgb(55,53,53)"/></g></svg>
