<?xml version="1.0" encoding="UTF-8" standalone="no"?><!-- Generator: Gravit.io -->
<svg xmlns="http://www.w3.org/2000/svg"
     style="isolation:isolate" viewBox="206.31 1622.87 600.264 636.33" width="600.264pt" height="636.33pt"><g><path d=" M 484.075 1709.4 C 484.075 1695.61 471.965 1684.43 457.027 1684.43 C 442.088 1684.43 429.979 1695.61 429.979 1709.4 C 429.979 1723.18 442.088 1734.36 457.027 1734.36 C 471.965 1734.36 484.075 1723.18 484.075 1709.4 Z " fill="rgb(72,109,153)"/><path d=" M 724.909 1859.72 C 724.909 1845.36 713.032 1833.71 698.381 1833.71 C 683.729 1833.71 671.853 1845.36 671.853 1859.72 C 671.853 1874.09 683.729 1885.73 698.381 1885.73 C 713.032 1885.73 724.909 1874.09 724.909 1859.72 Z " fill="rgb(72,109,153)"/><path d=" M 264.567 1913.82 C 264.567 1898.31 251.526 1885.73 235.438 1885.73 C 219.351 1885.73 206.31 1898.31 206.31 1913.82 C 206.31 1929.33 219.351 1941.91 235.438 1941.91 C 251.526 1941.91 264.567 1929.33 264.567 1913.82 Z " fill="rgb(72,109,153)"/><path d=" M 400.85 2159.33 C 400.85 2145.26 389.206 2133.85 374.842 2133.85 C 360.478 2133.85 348.833 2145.26 348.833 2159.33 C 348.833 2173.41 360.478 2184.82 374.842 2184.82 C 389.206 2184.82 400.85 2173.41 400.85 2159.33 Z " fill="rgb(72,109,153)"/><path d=" M 521.006 2178.58 C 521.006 2165.94 510.759 2155.69 498.12 2155.69 C 485.479 2155.69 475.232 2165.94 475.232 2178.58 C 475.232 2191.22 485.479 2201.47 498.12 2201.47 C 510.759 2201.47 521.006 2191.22 521.006 2178.58 Z " fill="rgb(72,109,153)"/><path d=" M 335.656 1738 C 335.656 1711.77 314.231 1690.5 287.802 1690.5 C 261.372 1690.5 239.947 1711.77 239.947 1738 C 239.947 1764.24 261.372 1785.51 287.802 1785.51 C 314.231 1785.51 335.656 1764.24 335.656 1738 Z " fill="rgb(72,109,153)"/><path d=" M 457.027 1814.99 L 455.986 1727.6 C 455.986 1727.6 450.091 1723.96 450.958 1721.01 C 451.825 1718.06 464.656 1717.02 465.176 1721.01 C 465.696 1725 460.841 1726.39 460.841 1726.39 L 468.47 1814.12 L 457.027 1814.99 Z " fill="rgb(62,92,130)"/><path d=" M 352.475 1936.45 L 256.245 1911.74 C 256.245 1911.74 255.205 1905.15 252.604 1905.15 C 250.003 1905.15 246.015 1919.54 249.483 1919.89 C 252.951 1920.23 254.164 1917.63 254.685 1917.63 C 255.205 1917.63 351.607 1950.4 351.607 1950.4 L 352.475 1936.45 Z " fill="rgb(62,92,130)"/><path d=" M 412.293 2074.55 L 381.604 2142.17 C 381.604 2142.17 375.361 2143.56 377.095 2146.68 C 378.83 2149.8 385.418 2150.49 385.938 2148.24 C 386.458 2145.98 385.071 2143.21 385.071 2143.21 L 420.442 2078.02 L 412.293 2074.55 Z " fill="rgb(62,92,130)"/><path d=" M 495.865 2102.46 L 498.12 2163.84 C 498.12 2163.84 492.397 2165.75 494.131 2168.87 C 495.865 2171.99 505.055 2172.16 506.095 2168.87 C 507.135 2165.58 502.974 2163.84 502.974 2163.84 L 506.962 2098.48 L 495.865 2102.46 Z " fill="rgb(62,92,130)"/><path d=" M 621.657 1907.58 C 622.958 1907.32 688.238 1876.11 688.238 1876.11 C 688.238 1876.11 692.139 1879.75 692.919 1876.11 C 693.699 1872.47 688.758 1863.88 686.417 1865.18 C 684.076 1866.48 683.557 1871.17 683.557 1871.17 L 615.675 1896.65 L 621.657 1907.58 Z " fill="rgb(62,92,130)"/><path d=" M 382.817 1854.17 L 311.642 1772.07 C 311.642 1772.07 305.14 1772.6 304.36 1769.21 C 303.58 1765.83 311.382 1758.03 316.323 1758.81 C 321.265 1759.59 317.624 1766.69 317.624 1766.69 L 391.487 1842.82 L 382.817 1854.17 Z " fill="rgb(62,92,130)"/><path d=" M 645.235 1954.69 C 645.235 1865.71 576.389 1793.57 491.464 1793.57 C 406.538 1793.57 337.693 1865.71 337.693 1954.69 C 337.693 2043.67 406.538 2115.8 491.464 2115.8 C 576.389 2115.8 645.235 2043.67 645.235 1954.69 Z " fill="rgb(85,134,192)"/><path d=" M 620.357 1724.48 L 574.93 1842.04 C 574.93 1842.04 580.478 1849.32 576.664 1851.75 C 572.849 1854.17 554.47 1847.58 555.857 1841.69 C 557.244 1835.79 562.792 1835.45 564.526 1833.71 C 566.26 1831.98 614.115 1722.05 614.115 1722.05 L 620.357 1724.48 Z " fill="rgb(72,109,153)"/><path d=" M 731.324 2000.51 L 632.147 1988.03 C 632.147 1988.03 629.373 1977.62 624.171 1979.01 C 618.97 1980.4 621.05 2002.25 624.171 2002.25 C 627.292 2002.25 630.067 1997.04 630.067 1997.04 L 733.405 2009.88 L 731.324 2000.51 Z " fill="rgb(72,109,153)"/><path d=" M 637.695 2189.5 L 568.341 2084.78 C 568.341 2084.78 557.938 2082.7 559.671 2077.84 C 561.406 2072.99 577.703 2064.32 579.438 2068.48 C 581.171 2072.64 577.357 2080.62 577.357 2080.62 L 645.235 2184.82 L 637.695 2189.5 Z " fill="rgb(72,109,153)"/><path d=" M 264.567 2091.02 C 266.301 2090.67 376.792 2017.5 376.792 2017.5 C 376.792 2017.5 375.882 2006.41 381.43 2005.71 C 386.978 2005.02 394.954 2023.75 391.487 2026.17 C 388.019 2028.6 380.39 2025.48 380.39 2025.48 L 271.503 2096.22 L 264.567 2091.02 Z " fill="rgb(72,109,153)"/><path d=" M 681.736 1687.72 C 681.736 1661.29 660.31 1639.87 633.881 1639.87 C 607.452 1639.87 586.026 1661.29 586.026 1687.72 C 586.026 1714.15 607.452 1735.58 633.881 1735.58 C 660.31 1735.58 681.736 1714.15 681.736 1687.72 Z " fill="rgb(85,134,192)"/><path d=" M 806.574 2009.88 C 806.574 1985.74 787.012 1966.18 762.881 1966.18 C 738.75 1966.18 719.187 1985.74 719.187 2009.88 C 719.187 2034.01 738.75 2053.57 762.881 2053.57 C 787.012 2053.57 806.574 2034.01 806.574 2009.88 Z " fill="rgb(85,134,192)"/><path d=" M 704.623 2213.43 C 704.623 2188.15 684.129 2167.66 658.849 2167.66 C 633.569 2167.66 613.075 2188.15 613.075 2213.43 C 613.075 2238.71 633.569 2259.2 658.849 2259.2 C 684.129 2259.2 704.623 2238.71 704.623 2213.43 Z " fill="rgb(85,134,192)"/><path d=" M 284.945 2104.2 C 284.945 2083.86 268.462 2067.38 248.129 2067.38 C 227.797 2067.38 211.314 2083.86 211.314 2104.2 C 211.314 2124.53 227.797 2141.01 248.129 2141.01 C 268.462 2141.01 284.945 2124.53 284.945 2104.2 Z " fill="rgb(85,134,192)"/><path d=" M 508.35 1893.7 C 508.35 1869.77 489.719 1850.36 466.736 1850.36 C 443.754 1850.36 425.124 1869.77 425.124 1893.7 C 425.124 1917.65 443.754 1937.05 466.736 1937.05 C 489.719 1937.05 508.35 1917.65 508.35 1893.7 Z " fill="rgb(211,219,236)"/><path d=" M 473.622 1898.12 C 473.546 1892.77 473.063 1887.19 471.813 1881.96 C 471.015 1878.62 469.118 1874.14 464.914 1875.13 C 459.033 1876.52 460.139 1886.78 460.457 1891.06 C 460.652 1893.69 463.632 1918.87 471.053 1912.31 C 472.583 1910.96 473.073 1908.99 473.213 1907 C 474.043 1904.11 473.647 1899.92 473.622 1898.12 Z " fill="rgb(47,67,93)"/><path d=" M 429.632 2044.21 C 429.632 2044.21 420.962 2027.91 415.761 2001.55 C 410.559 1975.2 415.761 1971.73 415.761 1971.73 C 415.761 1971.73 435.874 1978.32 454.946 1989.41 C 474.019 2000.51 480.954 2003.29 480.954 2002.25 C 480.954 2001.21 489.97 1968.26 504.188 1950.4 C 518.406 1932.54 524.301 1931.85 524.301 1931.85 C 524.301 1931.85 529.156 1945.03 532.971 1963.06 C 536.785 1981.09 536.438 1990.45 536.438 1990.45 C 536.438 1990.45 549.962 1982.83 563.486 1969.65 C 577.011 1956.47 583.946 1945.03 583.946 1945.03 C 583.946 1945.03 587.414 1974.5 573.196 2007.79 C 558.979 2041.08 545.455 2050.96 545.455 2050.96 C 545.455 2050.96 551.002 2034.5 556.204 2018.89 C 561.406 2003.29 559.476 1997.04 559.476 1997.04 L 524.648 2021.66 C 524.648 2021.66 523.954 2005.71 521.006 1984.56 C 518.06 1963.41 515.285 1961.33 515.285 1961.33 C 515.285 1961.33 501.761 1980.05 496.212 1997.04 C 490.664 2014.04 488.583 2029.64 488.583 2029.64 L 425.124 1982.48 C 425.124 1982.48 422.002 2018.89 429.632 2044.21 Z " fill="rgb(47,67,93)"/></g></svg>
