<?xml version="1.0" encoding="UTF-8" standalone="no"?>
<!-- Created with Inkscape (http://www.inkscape.org/) -->

<svg
  xmlns:dc="http://purl.org/dc/elements/1.1/"
  xmlns:cc="http://creativecommons.org/ns#"
  xmlns:rdf="http://www.w3.org/1999/02/22-rdf-syntax-ns#"
  xmlns="http://www.w3.org/2000/svg"
  version="1.1"
  width="144.0506"
  height="122.4145"
  id="svg2"
  xml:space="preserve"><metadata
     id="metadata8"><rdf:RDF><cc:Work
         rdf:about=""><dc:format>image/svg+xml</dc:format><dc:type
           rdf:resource="http://purl.org/dc/dcmitype/StillImage" /><dc:title></dc:title></cc:Work></rdf:RDF></metadata><defs
     id="defs6"><clipPath
       id="clipPath16"><path
         d="m 0,2204.724 787.402,0 L 787.402,0 0,0 0,2204.724 z"
         id="path18" /></clipPath><clipPath
       id="clipPath24"><path
         d="M 3.05176e-5,2204.72 787.402,2204.72 787.402,0 3.05176e-5,0 l 0,2204.72 z"
         id="path26" /></clipPath><clipPath
       id="clipPath38"><path
         d="m 0,2204.724 787.402,0 L 787.402,0 0,0 0,2204.724 z"
         id="path40" /></clipPath><clipPath
       id="clipPath46"><path
         d="m 366.535,64.5675 55.906,0 0,-17.3229 -55.906,0 0,17.3229 z"
         id="path48" /></clipPath><clipPath
       id="clipPath110"><path
         d="m 0,2204.724 787.402,0 L 787.402,0 0,0 0,2204.724 z"
         id="path112" /></clipPath><clipPath
       id="clipPath118"><path
         d="m 522.047,210.237 55.905,0 0,-17.323 -55.905,0 0,17.323 z"
         id="path120" /></clipPath><clipPath
       id="clipPath178"><path
         d="m 0,2204.724 787.402,0 L 787.402,0 0,0 0,2204.724 z"
         id="path180" /></clipPath><clipPath
       id="clipPath186"><path
         d="m 366.142,210.237 55.905,0 0,-17.323 -55.905,0 0,17.323 z"
         id="path188" /></clipPath><clipPath
       id="clipPath246"><path
         d="m 0,2204.724 787.402,0 L 787.402,0 0,0 0,2204.724 z"
         id="path248" /></clipPath><clipPath
       id="clipPath254"><path
         d="m 208.59,210.359 55.906,0 0,-17.323 -55.906,0 0,17.323 z"
         id="path256" /></clipPath><clipPath
       id="clipPath318"><path
         d="m 0,2204.724 787.402,0 L 787.402,0 0,0 0,2204.724 z"
         id="path320" /></clipPath><clipPath
       id="clipPath326"><path
         d="m 516.535,359.843 67.323,0 0,-20.866 -67.323,0 0,20.866 z"
         id="path328" /></clipPath><clipPath
       id="clipPath386"><path
         d="m 0,2204.724 787.402,0 L 787.402,0 0,0 0,2204.724 z"
         id="path388" /></clipPath><clipPath
       id="clipPath394"><path
         d="m 364.567,367.717 55.905,0 0,-17.323 -55.905,0 0,17.323 z"
         id="path396" /></clipPath><clipPath
       id="clipPath450"><path
         d="m 0,2204.724 787.402,0 L 787.402,0 0,0 0,2204.724 z"
         id="path452" /></clipPath><clipPath
       id="clipPath458"><path
         d="m 208.267,360.63 55.906,0 0,-17.323 -55.906,0 0,17.323 z"
         id="path460" /></clipPath><clipPath
       id="clipPath510"><path
         d="m 0,2204.724 787.402,0 L 787.402,0 0,0 0,2204.724 z"
         id="path512" /></clipPath><clipPath
       id="clipPath518"><path
         d="m 521.26,520.473 55.905,0 0,-17.323 -55.905,0 0,17.323 z"
         id="path520" /></clipPath><clipPath
       id="clipPath574"><path
         d="m 0,2204.724 787.402,0 L 787.402,0 0,0 0,2204.724 z"
         id="path576" /></clipPath><clipPath
       id="clipPath582"><path
         d="m 366.142,510.237 55.905,0 0,-17.323 -55.905,0 0,17.323 z"
         id="path584" /></clipPath><clipPath
       id="clipPath638"><path
         d="m 0,2204.724 787.402,0 L 787.402,0 0,0 0,2204.724 z"
         id="path640" /></clipPath><clipPath
       id="clipPath646"><path
         d="m 207.874,522.048 55.905,0 0,-17.323 -55.905,0 0,17.323 z"
         id="path648" /></clipPath><clipPath
       id="clipPath694"><path
         d="m 0,2204.724 787.402,0 L 787.402,0 0,0 0,2204.724 z"
         id="path696" /></clipPath><clipPath
       id="clipPath702"><path
         d="m 523.622,677.56 55.905,0 0,-17.323 -55.905,0 0,17.323 z"
         id="path704" /></clipPath><clipPath
       id="clipPath754"><path
         d="m 0,2204.724 787.402,0 L 787.402,0 0,0 0,2204.724 z"
         id="path756" /></clipPath><clipPath
       id="clipPath762"><path
         d="m 364.566,682.678 55.906,0 0,-17.323 -55.906,0 0,17.323 z"
         id="path764" /></clipPath><clipPath
       id="clipPath814"><path
         d="m 0,2204.724 787.402,0 L 787.402,0 0,0 0,2204.724 z"
         id="path816" /></clipPath><clipPath
       id="clipPath822"><path
         d="m 181.89,704.725 109.449,0 0,-39.764 -109.449,0 0,39.764 z"
         id="path824" /></clipPath><clipPath
       id="clipPath862"><path
         d="m 0,2204.724 787.402,0 L 787.402,0 0,0 0,2204.724 z"
         id="path864" /></clipPath><clipPath
       id="clipPath870"><path
         d="m 522.047,837.796 55.905,0 0,-17.323 -55.905,0 0,17.323 z"
         id="path872" /></clipPath><clipPath
       id="clipPath930"><path
         d="m 0,2204.724 787.402,0 L 787.402,0 0,0 0,2204.724 z"
         id="path932" /></clipPath><clipPath
       id="clipPath938"><path
         d="m 363.779,833.072 55.906,0 0,-17.323 -55.906,0 0,17.323 z"
         id="path940" /></clipPath><clipPath
       id="clipPath982"><path
         d="m 0,2204.724 787.402,0 L 787.402,0 0,0 0,2204.724 z"
         id="path984" /></clipPath><clipPath
       id="clipPath994"><path
         d="m 221.259,837.796 55.906,0 0,-17.323 -55.906,0 0,17.323 z"
         id="path996" /></clipPath><clipPath
       id="clipPath1038"><path
         d="m 0,2204.724 787.402,0 L 787.402,0 0,0 0,2204.724 z"
         id="path1040" /></clipPath><clipPath
       id="clipPath1046"><path
         d="m 522.047,991.339 55.905,0 0,-17.323 -55.905,0 0,17.323 z"
         id="path1048" /></clipPath><clipPath
       id="clipPath1094"><path
         d="m 0,2204.724 787.402,0 L 787.402,0 0,0 0,2204.724 z"
         id="path1096" /></clipPath><clipPath
       id="clipPath1102"><path
         d="m 365.354,977.166 55.906,0 0,-17.323 -55.906,0 0,17.323 z"
         id="path1104" /></clipPath><clipPath
       id="clipPath1186"><path
         d="m 0,2204.724 787.402,0 L 787.402,0 0,0 0,2204.724 z"
         id="path1188" /></clipPath><clipPath
       id="clipPath1194"><path
         d="m 208.267,984.252 55.906,0 0,-17.322 -55.906,0 0,17.322 z"
         id="path1196" /></clipPath><clipPath
       id="clipPath1254"><path
         d="m 0,2204.724 787.402,0 L 787.402,0 0,0 0,2204.724 z"
         id="path1256" /></clipPath><clipPath
       id="clipPath1262"><path
         d="m 523.622,1150.39 55.905,0 0,-17.32 -55.905,0 0,17.32 z"
         id="path1264" /></clipPath><clipPath
       id="clipPath1322"><path
         d="m 0,2204.724 787.402,0 L 787.402,0 0,0 0,2204.724 z"
         id="path1324" /></clipPath><clipPath
       id="clipPath1330"><path
         d="m 365.748,1145.67 55.905,0 0,-17.32 -55.905,0 0,17.32 z"
         id="path1332" /></clipPath><clipPath
       id="clipPath1374"><path
         d="m 0,2204.724 787.402,0 L 787.402,0 0,0 0,2204.724 z"
         id="path1376" /></clipPath><clipPath
       id="clipPath1382"><path
         d="m 207.874,1149.21 55.905,0 0,-17.32 -55.905,0 0,17.32 z"
         id="path1384" /></clipPath><clipPath
       id="clipPath1430"><path
         d="m 0,2204.724 787.402,0 L 787.402,0 0,0 0,2204.724 z"
         id="path1432" /></clipPath><clipPath
       id="clipPath1438"><path
         d="m 518.504,1309.45 55.905,0 0,-17.32 -55.905,0 0,17.32 z"
         id="path1440" /></clipPath><clipPath
       id="clipPath1502"><path
         d="m 0,2204.724 787.402,0 L 787.402,0 0,0 0,2204.724 z"
         id="path1504" /></clipPath><clipPath
       id="clipPath1510"><path
         d="m 364.567,1295.28 55.905,0 0,-17.33 -55.905,0 0,17.33 z"
         id="path1512" /></clipPath><clipPath
       id="clipPath1578"><path
         d="m 0,2204.724 787.402,0 L 787.402,0 0,0 0,2204.724 z"
         id="path1580" /></clipPath><clipPath
       id="clipPath1586"><path
         d="m 209.448,1307.48 55.906,0 0,-17.32 -55.906,0 0,17.32 z"
         id="path1588" /></clipPath><clipPath
       id="clipPath1642"><path
         d="m 0,2204.724 787.402,0 L 787.402,0 0,0 0,2204.724 z"
         id="path1644" /></clipPath><clipPath
       id="clipPath1650"><path
         d="m 500,1467.32 107.087,0 0,-33.07 -107.087,0 0,33.07 z"
         id="path1652" /></clipPath><clipPath
       id="clipPath1706"><path
         d="m 0,2204.724 787.402,0 L 787.402,0 0,0 0,2204.724 z"
         id="path1708" /></clipPath><clipPath
       id="clipPath1714"><path
         d="m 366.141,1468.5 55.906,0 0,-17.32 -55.906,0 0,17.32 z"
         id="path1716" /></clipPath><clipPath
       id="clipPath1734"><path
         d="m 0,2204.724 787.402,0 L 787.402,0 0,0 0,2204.724 z"
         id="path1736" /></clipPath><clipPath
       id="clipPath1774"><path
         d="m 0,2204.724 787.402,0 L 787.402,0 0,0 0,2204.724 z"
         id="path1776" /></clipPath><clipPath
       id="clipPath1782"><path
         d="m 207.48,1468.5 55.905,0 0,-17.32 -55.905,0 0,17.32 z"
         id="path1784" /></clipPath><clipPath
       id="clipPath1838"><path
         d="m 0,2204.724 787.402,0 L 787.402,0 0,0 0,2204.724 z"
         id="path1840" /></clipPath><clipPath
       id="clipPath1846"><path
         d="m 522.047,1619.69 55.905,0 0,-17.33 -55.905,0 0,17.33 z"
         id="path1848" /></clipPath><clipPath
       id="clipPath1890"><path
         d="m 0,2204.724 787.402,0 L 787.402,0 0,0 0,2204.724 z"
         id="path1892" /></clipPath><clipPath
       id="clipPath1898"><path
         d="m 366.535,1618.9 55.906,0 0,-17.32 -55.906,0 0,17.32 z"
         id="path1900" /></clipPath><clipPath
       id="clipPath1954"><path
         d="m 0,2204.724 787.402,0 L 787.402,0 0,0 0,2204.724 z"
         id="path1956" /></clipPath><clipPath
       id="clipPath1962"><path
         d="m 207.874,1624.41 55.905,0 0,-17.32 -55.905,0 0,17.32 z"
         id="path1964" /></clipPath><clipPath
       id="clipPath2026"><path
         d="m 0,2204.724 787.402,0 L 787.402,0 0,0 0,2204.724 z"
         id="path2028" /></clipPath><clipPath
       id="clipPath2034"><path
         d="m 520.078,1779.92 55.906,0 0,-17.32 -55.906,0 0,17.32 z"
         id="path2036" /></clipPath><clipPath
       id="clipPath2090"><path
         d="m 0,2204.724 787.402,0 L 787.402,0 0,0 0,2204.724 z"
         id="path2092" /></clipPath><clipPath
       id="clipPath2098"><path
         d="m 368.11,1781.89 55.905,0 0,-17.32 -55.905,0 0,17.32 z"
         id="path2100" /></clipPath><clipPath
       id="clipPath2158"><path
         d="m 0,2204.724 787.402,0 L 787.402,0 0,0 0,2204.724 z"
         id="path2160" /></clipPath><clipPath
       id="clipPath2166"><path
         d="m 207.874,1775.59 55.905,0 0,-17.32 -55.905,0 0,17.32 z"
         id="path2168" /></clipPath><clipPath
       id="clipPath2226"><path
         d="m 0,2204.724 787.402,0 L 787.402,0 0,0 0,2204.724 z"
         id="path2228" /></clipPath><clipPath
       id="clipPath2234"><path
         d="m 521.26,1928.35 55.905,0 0,-17.33 -55.905,0 0,17.33 z"
         id="path2236" /></clipPath><clipPath
       id="clipPath2294"><path
         d="m 0,2204.724 787.402,0 L 787.402,0 0,0 0,2204.724 z"
         id="path2296" /></clipPath><clipPath
       id="clipPath2302"><path
         d="m 366.535,1940.16 55.905,0 0,-17.33 -55.905,0 0,17.33 z"
         id="path2304" /></clipPath><clipPath
       id="clipPath2358"><path
         d="m 0,2204.724 787.402,0 L 787.402,0 0,0 0,2204.724 z"
         id="path2360" /></clipPath><clipPath
       id="clipPath2366"><path
         d="m 204.33,1922.84 55.906,0 0,-17.33 -55.906,0 0,17.33 z"
         id="path2368" /></clipPath><clipPath
       id="clipPath2418"><path
         d="m 0,2204.724 787.402,0 L 787.402,0 0,0 0,2204.724 z"
         id="path2420" /></clipPath><clipPath
       id="clipPath2426"><path
         d="m 522.44,2090.16 55.906,0 0,-17.33 -55.906,0 0,17.33 z"
         id="path2428" /></clipPath><clipPath
       id="clipPath2478"><path
         d="m 0,2204.724 787.402,0 L 787.402,0 0,0 0,2204.724 z"
         id="path2480" /></clipPath><clipPath
       id="clipPath2486"><path
         d="m 364.566,2100.79 55.906,0 0,-17.33 -55.906,0 0,17.33 z"
         id="path2488" /></clipPath><clipPath
       id="clipPath2526"><path
         d="m 0,2204.724 787.402,0 L 787.402,0 0,0 0,2204.724 z"
         id="path2528" /></clipPath><clipPath
       id="clipPath2534"><path
         d="m 207.086,2088.98 55.906,0 0,-17.33 -55.906,0 0,17.33 z"
         id="path2536" /></clipPath></defs><g
     transform="matrix(1.25,0,0,-1.25,-617.44307,947.81075)"
     id="g10"><g
       id="g690"><g
         clip-path="url(#clipPath694)"
         id="g692"><g
           id="g698"><g
             id="g700" /><g
             id="g706"><g
               clip-path="url(#clipPath702)"
               id="g708"
               style="opacity:0.19999701"><g
                 transform="translate(551.5744,677.5596)"
                 id="g710"><path
                   d="m 0,0 c -15.438,0 -27.953,-3.878 -27.953,-8.661 0,-4.784 12.515,-8.662 27.953,-8.662 15.438,0 27.953,3.878 27.953,8.662 C 27.953,-3.878 15.438,0 0,0"
                   id="path712"
                   style="fill:#000000;fill-opacity:1;fill-rule:evenodd;stroke:none" /></g></g></g></g><g
           transform="translate(603.5432,745.6693)"
           id="g714"><path
             d="M 0,0 C 0,0 3.6,4.555 -2.756,9.055 -3.613,9.663 -5.212,9.307 -6.868,8.4 L -6.299,6.693 -8.243,7.526 C -9.054,6.94 -9.831,6.248 -10.494,5.496 l 0.651,-1.953 -1.61,0.691 c -1.188,-1.847 -1.522,-3.858 0.036,-5.415 0.123,-0.123 0.245,-0.239 0.367,-0.351 -0.632,0.056 -0.553,-0.065 -0.367,-1.224 0.171,-1.069 2.571,-1.043 4.287,-0.906 2.334,-0.473 3.98,0.513 3.98,0.513 0,0 7.678,-5.119 4.725,-11.811 -2.953,-6.693 -23.229,-9.843 -23.229,-9.843 0,0 -5.314,-7.48 2.363,-7.48 7.677,0 23.622,10.236 24.803,18.11 C 6.693,-6.299 0,0 0,0 m -105.512,-14.96 c -2.953,6.692 4.725,11.811 4.725,11.811 0,0 1.646,-0.986 3.98,-0.513 1.716,-0.137 4.116,-0.163 4.287,0.906 0.186,1.159 0.265,1.28 -0.367,1.224 0.122,0.112 0.244,0.228 0.367,0.351 1.558,1.557 1.224,3.568 0.036,5.415 l -1.611,-0.691 0.652,1.953 c -0.664,0.752 -1.44,1.444 -2.251,2.03 l -1.944,-0.833 0.569,1.707 c -1.656,0.907 -3.255,1.263 -4.112,0.655 -6.356,-4.5 -2.756,-9.055 -2.756,-9.055 0,0 -6.693,-6.299 -5.512,-14.173 1.181,-7.874 17.126,-18.11 24.803,-18.11 7.678,0 2.362,7.48 2.362,7.48 0,0 -20.275,3.15 -23.228,9.843"
             id="path716"
             style="fill:#cd9372;fill-opacity:1;fill-rule:evenodd;stroke:none" /></g><g
           transform="translate(538.9764,694.882)"
           id="g718"><path
             d="m 0,0 c 0,0 0.787,-6.102 1.575,-8.268 0.787,-2.165 1.575,-3.937 1.575,-3.937 0,0 -0.734,-5.334 -0.062,-8.704 -3.29,-2.785 -5.191,-3.049 -6.526,-5.234 -0.647,-1.06 0.192,-1.84 1.018,-1.685 0.588,0.109 0.981,0.911 1.162,1.369 0.067,0.195 0.116,0.323 0.116,0.323 0,0 -0.042,-0.136 -0.116,-0.323 -0.24,-0.705 -0.718,-2.346 -0.01,-2.514 0.997,-0.235 1.496,0.041 1.752,0.389 0.116,0.45 0.269,0.833 0.269,0.833 0,0 0.007,-0.458 -0.269,-0.833 -0.159,-0.622 -0.243,-1.376 0.276,-1.463 2.314,-0.212 2.819,2.073 3.026,4.128 0.311,3.081 1.411,1.39 1.947,3.51 0.146,0.577 -0.552,2.563 -0.33,2.113 -1.179,2.387 0.503,7.698 0.503,7.698 0,0 3.149,6.397 3.149,8.661 C 9.055,-1.673 0,0 0,0 m 28.241,-26.143 c -1.335,2.185 -3.236,2.449 -6.526,5.234 0.672,3.37 -0.062,8.704 -0.062,8.704 0,0 0.788,1.772 1.575,3.937 0.788,2.166 1.575,8.268 1.575,8.268 0,0 -9.055,-1.673 -9.055,-3.937 0,-2.264 3.15,-8.661 3.15,-8.661 0,0 1.681,-5.311 0.502,-7.698 0.222,0.45 -0.476,-1.536 -0.33,-2.113 0.536,-2.12 1.636,-0.429 1.947,-3.51 0.207,-2.055 0.712,-4.34 3.026,-4.128 0.519,0.087 0.435,0.841 0.276,1.463 -0.276,0.375 -0.269,0.833 -0.269,0.833 0,0 0.153,-0.383 0.269,-0.833 0.256,-0.348 0.755,-0.624 1.752,-0.389 0.708,0.168 0.231,1.809 -0.01,2.514 -0.074,0.187 -0.116,0.323 -0.116,0.323 0,0 0.049,-0.128 0.116,-0.323 0.181,-0.458 0.574,-1.26 1.162,-1.369 0.826,-0.155 1.665,0.625 1.018,1.685"
             id="path720"
             style="fill:#cd9372;fill-opacity:1;fill-rule:evenodd;stroke:none" /></g><g
           transform="translate(551.9681,752.0673)"
           id="g722"><path
             d="m 0,0 c -23.031,0 -38.976,-36.811 -31.496,-59.055 7.48,-22.244 55.315,-20.472 62.992,0.787 C 39.173,-37.008 23.031,0 0,0"
             id="path724"
             style="fill:#4b5f60;fill-opacity:1;fill-rule:evenodd;stroke:none" /></g><g
           transform="translate(592.3237,712.8096)"
           id="g726"><path
             d="m 0,0 c 0.196,1.763 -6.073,1.567 -7.053,3.134 -0.979,1.566 6.269,3.525 5.486,5.484 -0.784,1.958 -7.445,0.783 -7.837,2.35 -0.391,1.567 6.034,4.359 5.486,6.267 -0.522,1.817 -8.267,-0.47 -8.62,0.784 -0.639,2.27 5.289,5.68 4.702,7.051 -0.588,1.371 -7.445,-1.175 -8.62,0 -0.982,0.981 3.912,6.273 2.351,7.834 -1.176,1.175 -6.855,-1.761 -8.227,-1.173 -1.371,0.587 1.174,6.461 0.39,7.44 -0.783,0.98 -6.463,-2.934 -7.442,-2.346 -0.98,0.588 -1.515,6.411 -2.745,7.047 -1.292,0.668 -3.911,-4.618 -5.092,-4.697 -1.181,-0.078 -1.638,6.264 -3.528,6.264 -1.89,0 -2.157,-6.266 -3.528,-6.657 -1.372,-0.392 -3.8,5.758 -5.092,5.09 -1.231,-0.636 -1.371,-7.247 -2.351,-7.834 -0.98,-0.588 -7.053,4.113 -7.836,3.133 -0.784,-0.979 2.155,-7.246 0.783,-7.834 -1.371,-0.587 -7.444,2.742 -8.62,1.567 -1.561,-1.561 3.333,-6.853 2.351,-7.834 -1.175,-1.175 -8.032,1.371 -8.62,0 -0.587,-1.371 5.341,-4.781 4.702,-7.051 -0.352,-1.254 -8.098,1.033 -8.62,-0.784 -0.548,-1.908 5.877,-4.7 5.486,-6.267 -0.392,-1.567 -7.053,-0.392 -7.837,-2.35 -0.783,-1.959 6.465,-3.918 5.486,-5.484 -0.98,-1.567 -7.249,-1.371 -7.053,-3.134 0.196,-1.763 5.877,-3.134 5.485,-4.701 -0.391,-1.566 -4.505,-2.154 -4.701,-3.917 -0.196,-1.762 5.093,-2.35 4.701,-3.917 -0.391,-1.567 -3.865,-2.926 -3.134,-4.701 1.097,-2.663 4.506,-1.566 4.702,-3.133 0.196,-1.567 -1.959,-4.701 -1.568,-5.484 0.392,-0.784 3.135,-0.98 3.919,-1.567 0.783,-0.588 0.979,-2.155 1.567,-3.134 0.588,-0.979 3.134,-1.371 3.918,-1.567 0.784,-0.196 2.155,-2.742 3.135,-3.133 0.979,-0.392 3.918,0.979 4.701,0.783 1.158,-0.289 2.824,-2.102 4.818,-2.29 1.14,-0.107 2.387,1.389 3.708,1.336 1.529,-0.061 3.158,-1.684 4.833,-1.715 1.437,-0.028 2.908,1.159 4.382,1.192 1.625,0.037 3.253,-1.093 4.84,-1.026 1.67,0.07 3.288,1.457 4.822,1.604 0.823,0.08 3.113,-0.86 4.448,-0.764 1.719,0.124 3.161,1.404 4.197,1.663 0.783,0.196 3.722,-1.175 4.701,-0.783 0.98,0.391 2.351,2.937 3.135,3.133 0.784,0.196 3.33,0.588 3.918,1.567 0.588,0.979 0.784,2.546 1.567,3.134 0.784,0.587 3.527,0.783 3.918,1.567 0.392,0.783 -1.763,3.917 -1.567,5.484 0.196,1.567 3.605,0.47 4.702,3.133 0.731,1.775 -2.743,3.134 -3.135,4.701 -0.391,1.567 4.898,2.155 4.702,3.917 -0.196,1.763 -4.31,2.351 -4.702,3.917 C -5.877,-3.134 -0.196,-1.763 0,0"
             id="path728"
             style="fill:#4b5f60;fill-opacity:1;fill-rule:evenodd;stroke:none" /></g><g
           transform="translate(564.3151,731.9262)"
           id="g730"><path
             d="m 0,0 c -0.242,2.758 -2.925,5.165 -5.992,5.328 -3.059,0.147 -5.517,-2.177 -5.491,-5.153 0.025,-3.104 2.722,-5.723 6.013,-5.659 C -2.184,-5.4 0.252,-2.868 0,0 m -19.489,5.328 c -3.066,-0.163 -5.75,-2.57 -5.992,-5.328 -0.251,-2.868 2.184,-5.4 5.47,-5.484 3.291,-0.064 5.988,2.555 6.014,5.659 0.025,2.976 -2.433,5.3 -5.492,5.153"
             id="path732"
             style="fill:#ffffff;fill-opacity:1;fill-rule:evenodd;stroke:none" /></g><g
           transform="translate(557.2834,735.4332)"
           id="g734"><path
             d="m 0,0 c -1.196,0 -2.165,-1.058 -2.165,-2.362 0,-1.305 0.969,-2.362 2.165,-2.362 1.196,0 2.165,1.057 2.165,2.362 C 2.165,-1.058 1.196,0 0,0 m -11.811,-0.394 c -1.196,0 -2.165,-1.057 -2.165,-2.362 0,-1.304 0.969,-2.362 2.165,-2.362 1.196,0 2.165,1.058 2.165,2.362 0,1.305 -0.969,2.362 -2.165,2.362"
             id="path736"
             style="fill:#142122;fill-opacity:1;fill-rule:evenodd;stroke:none" /></g><g
           transform="translate(568.5524,739.3664)"
           id="g738"><path
             d="M 0,0 C -0.626,1.185 -8.008,-1.983 -17.175,-1.881 -26.341,-1.983 -33.723,1.185 -34.349,0 c -0.739,-1.038 6.59,-6.689 17.174,-6.647 C -6.59,-6.689 0.739,-1.038 0,0"
             id="path740"
             style="fill:#142122;fill-opacity:1;fill-rule:evenodd;stroke:none" /></g><g
           transform="translate(551.405,729.5277)"
           id="g742"><path
             d="m 0,0 c -14.285,0 -28.57,-6.172 -21.088,-15.774 7.483,-9.601 3.742,-26.746 21.088,-26.746 17.346,0 13.265,17.488 21.087,26.746 C 28.91,-6.515 14.285,0 0,0"
             id="path744"
             style="fill:#febc1e;fill-opacity:1;fill-rule:evenodd;stroke:none" /></g><g
           transform="translate(563.0526,698.405)"
           id="g746"><path
             d="M 0,0 C -1.011,0.414 -2.54,-0.122 -3.415,-1.198 -4.29,-2.274 -4.181,-3.482 -3.17,-3.896 -2.159,-4.31 -0.63,-3.774 0.245,-2.698 1.121,-1.622 1.011,-0.414 0,0 m -23.35,0 c -1.01,-0.414 -1.12,-1.622 -0.245,-2.698 0.876,-1.076 2.405,-1.612 3.415,-1.198 1.011,0.414 1.121,1.622 0.246,2.698 -0.876,1.076 -2.405,1.612 -3.416,1.198"
             id="path748"
             style="fill:#bf7100;fill-opacity:1;fill-rule:evenodd;stroke:none" /></g></g></g></g></svg>
