<?xml version="1.0" encoding="UTF-8" standalone="no"?><!-- Generator: Gravit.io -->
<svg xmlns="http://www.w3.org/2000/svg"
     style="isolation:isolate" viewBox="946.461 58.241 627.964 692.762" width="627.964pt" height="692.762pt"><g><path d=" M 1313.16 381.372 C 1313.16 381.372 1339.95 330.656 1395.6 310.63 C 1451.26 290.604 1498.77 304.301 1514.72 324.241 C 1530.67 344.18 1513.33 360.825 1513.33 360.825 C 1513.33 360.825 1539.52 348.688 1559.46 357.01 C 1579.39 365.333 1573.85 376.083 1573.33 375.91 C 1572.81 375.736 1565 367.067 1550.09 365.16 C 1535.18 363.252 1520.1 365.853 1520.1 365.853 C 1520.1 365.853 1542.64 364.292 1545.76 381.372 C 1548.88 398.45 1536.05 409.547 1536.05 409.547 C 1536.05 409.547 1541.94 387.353 1532.41 378.857 C 1522.87 370.362 1516.46 369.321 1516.28 369.841 C 1516.11 370.362 1526.86 382.672 1518.71 393.421 C 1510.56 404.172 1505.53 404.172 1505.53 404.172 C 1505.53 404.172 1512.29 389.954 1509.87 378.857 C 1507.44 367.76 1504.67 365.68 1504.67 365.68 C 1504.67 365.68 1486.98 363.426 1483.69 365.333 C 1480.39 367.241 1479.52 374.87 1481.43 381.631 C 1483.34 388.394 1485.59 390.821 1485.59 390.821 C 1485.59 390.821 1473.11 382.499 1473.8 367.934 C 1474.5 353.37 1482.3 352.832 1489.23 355.181 C 1496.17 357.531 1505.19 361.172 1505.19 361.172 C 1505.19 361.172 1520.96 345.567 1511.08 331.522 C 1501.2 317.478 1471.03 307.769 1434.79 313.491 C 1398.55 319.212 1377.05 329.442 1357.29 350.075 C 1337.52 370.708 1327.12 403.479 1327.12 403.479 L 1313.16 381.372 Z " fill="rgb(127,57,121)"/><path d=" M 1112.46 387.526 C 1112.46 387.526 1087.41 336.637 1068.94 316.352 C 1050.48 296.065 1032.01 288.783 1012.51 295.285 C 993.001 301.787 993.521 320.513 995.082 336.377 C 996.643 352.243 1000.8 361.345 1000.8 361.345 C 1000.8 361.345 1006.7 349.554 1018.66 348.862 C 1030.63 348.168 1037.04 360.131 1037.04 360.131 C 1037.04 360.131 1022.13 357.53 1013.81 361.865 C 1005.49 366.2 998.92 369.321 994.4 371.228 C 989.88 373.136 983.465 376.776 986.933 385.793 C 990.401 394.809 1006.53 404.866 1006.53 404.866 C 1006.53 404.866 992.134 405.732 983.985 397.41 C 975.836 389.087 981.558 374.175 982.078 373.829 C 982.598 373.482 970.461 381.111 972.021 392.902 C 973.582 404.692 985.719 417.523 985.719 417.523 C 985.719 417.523 964.913 411.627 961.445 397.063 C 957.977 382.499 975.143 372.095 975.143 372.095 C 975.143 372.095 963.525 373.309 958.67 377.47 C 953.815 381.631 955.029 399.837 955.029 399.837 C 955.029 399.837 938.038 384.406 951.909 371.055 C 965.779 357.705 996.989 364.466 996.989 364.466 C 996.989 364.466 984.679 337.417 987.106 312.45 C 989.534 287.483 1023 274.825 1054.21 288.522 C 1085.42 302.221 1108.13 341.752 1108.3 342.273 C 1108.48 342.793 1112.46 387.526 1112.46 387.526 Z " fill="rgb(127,57,121)"/><path d=" M 1176.1 558.746 C 1174.28 558.486 1141.25 568.629 1121.48 595.937 C 1101.71 623.246 1096.51 662.258 1109.78 689.046 C 1123.04 715.834 1139.27 723.376 1139.27 723.376 C 1139.27 723.376 1113.42 715.574 1094.95 720.776 C 1076.49 725.977 1082.47 733.259 1094.95 734.04 C 1107.44 734.82 1149.57 733.52 1146.45 727.798 C 1143.33 722.076 1117.58 703.871 1114.72 670.06 C 1111.86 636.25 1127.72 613.363 1153.21 594.897 C 1178.7 576.431 1189.36 580.072 1189.36 580.072 L 1176.1 558.746 Z " fill="rgb(127,57,121)"/><path d=" M 1326.68 606.34 C 1327.72 606.861 1360.49 619.865 1365.7 659.657 C 1370.9 699.449 1348.53 728.73 1345.15 736.066 C 1341.77 743.403 1342.29 745.223 1350.87 747.304 C 1359.45 749.385 1407.05 753.546 1405.75 748.864 C 1404.45 744.183 1395.87 736.012 1381.04 734.246 C 1366.22 732.479 1350.87 738.721 1350.87 738.721 C 1350.87 738.721 1384.68 691.387 1377.92 648.734 C 1371.16 606.081 1349.83 591.256 1348.27 591.516 C 1346.71 591.776 1326.68 606.34 1326.68 606.34 Z " fill="rgb(127,57,121)"/><path d=" M 1114.72 401.224 C 1114.72 401.224 1084.38 421.336 1084.9 423.245 C 1085.42 425.151 1121.48 424.458 1121.48 424.458 L 1114.72 401.224 Z " fill="rgb(127,57,121)"/><path d=" M 1130.5 456.361 C 1129.8 456.361 1111.08 471.792 1111.42 473.353 C 1111.77 474.914 1138.47 473.353 1138.47 473.353 L 1130.5 456.361 Z " fill="rgb(127,57,121)"/><path d=" M 1370.29 512.885 C 1371.16 512.885 1400.63 518.607 1400.46 519.647 C 1400.29 520.688 1376.71 533.345 1376.71 533.345 L 1370.29 512.885 Z " fill="rgb(127,57,121)"/><path d=" M 1331.8 423.071 C 1332.67 422.897 1372.54 419.95 1373.06 421.856 C 1373.58 423.764 1341.68 446.478 1341.68 446.478 L 1331.8 423.071 Z " fill="rgb(127,57,121)"/><path d=" M 1300.76 255.926 C 1301.46 255.753 1337.35 262.167 1337.52 263.555 C 1337.69 264.942 1299.9 273.265 1299.9 273.265 L 1300.76 255.926 Z " fill="rgb(127,57,121)"/><path d=" M 1114.37 209.632 C 1114.37 209.632 1091.83 187.612 1092.18 185.877 C 1092.53 184.145 1122.35 190.386 1123.04 190.56 C 1123.73 190.733 1114.37 209.632 1114.37 209.632 Z " fill="rgb(127,57,121)"/><path d=" M 1209.56 603.914 C 1184.5 587.83 1163.09 561.954 1154.77 536.639 C 1146.45 511.325 1122.87 455.841 1112.46 414.921 C 1102.06 374.003 1095.47 322.33 1098.59 264.593 C 1101.71 206.858 1127.72 142.704 1169.68 114.269 C 1211.64 85.834 1261.58 82.713 1295.21 103.866 C 1328.85 125.019 1321.4 177.035 1311.77 222.809 C 1302.15 268.583 1309.78 318.519 1325.04 374.349 C 1340.29 430.179 1366.3 484.97 1377.75 510.978 C 1389.19 536.986 1388.15 576.865 1360.75 601.139 C 1333.36 625.413 1269.55 642.405 1209.56 603.914 Z " fill="rgb(149,57,140)"/><path d=" M 1204.48 199.489 C 1211.76 194.288 1215.92 187.005 1218.52 179.723 C 1229.29 148.393 1202.74 119.37 1173.56 111.725 C 1172.26 112.548 1170.97 113.397 1169.68 114.269 C 1136.95 136.452 1113.92 180.374 1103.9 226.028 C 1115.64 226.004 1128.29 222.191 1139.98 220.296 C 1162.87 216.654 1184.19 213.013 1204.48 199.489 Z " fill="rgb(140,57,132)"/><path d=" M 1231.01 273.873 C 1248.56 299.959 1281.12 310.073 1310.01 302.827 C 1306.41 274.688 1306.45 248.112 1311.77 222.809 C 1314.92 207.834 1317.84 192.193 1319.16 177.181 C 1290.2 179.673 1261.75 193.558 1241.41 213.534 C 1226.32 228.618 1217.48 254.106 1231.01 273.873 Z " fill="rgb(140,57,132)"/><path d=" M 1216.44 504.823 C 1223.2 498.061 1226.84 488.698 1224.76 478.295 C 1217.48 440.324 1177.43 414.835 1139.98 425.759 C 1132.14 427.936 1124.92 431.329 1118.42 435.708 C 1130.09 472.983 1147.79 515.415 1154.77 536.639 C 1154.79 536.701 1154.81 536.764 1154.84 536.826 C 1178.25 533.949 1199.98 522.49 1216.44 504.823 Z " fill="rgb(140,57,132)"/><path d=" M 1343.21 429.517 C 1316.02 425.602 1287.13 437.017 1270.54 460.09 C 1260.66 473.093 1259.62 490.259 1264.82 505.343 C 1276.26 538.113 1311.63 553.199 1343.36 545.916 C 1358.26 542.409 1371.33 535.944 1382.89 527.462 C 1381.71 521.589 1379.97 516.022 1377.75 510.978 C 1370.17 493.758 1356.21 463.919 1343.21 429.517 Z " fill="rgb(140,57,132)"/><path d=" M 1212.25 635.729 C 1209.01 636.423 1219.53 583.194 1220.57 583.194 C 1221.61 583.194 1227.33 576.691 1236.7 581.893 C 1246.06 587.095 1246.32 595.417 1245.8 596.458 C 1245.28 597.498 1215.89 634.949 1212.25 635.729 Z " fill="rgb(161,85,154)"/><path d=" M 1248.14 542.621 C 1245.69 542.621 1244.29 513.838 1245.96 512.885 C 1247.62 511.932 1251.78 506.209 1258.8 509.591 C 1265.83 512.972 1265.3 520.514 1264 523.115 C 1262.7 525.715 1250.22 542.621 1248.14 542.621 Z " fill="rgb(161,85,154)"/><path d=" M 1358.93 568.109 C 1357.7 569.52 1337.09 565.768 1330.58 563.167 C 1324.08 560.566 1314.72 549.383 1324.34 542.621 C 1333.97 535.859 1342.29 542.361 1346.97 549.123 C 1351.65 555.885 1360.75 566.028 1358.93 568.109 Z " fill="rgb(161,85,154)"/><path d=" M 1126.16 544.702 C 1124.3 544.454 1146.97 510.596 1150.61 508.533 C 1154.25 506.47 1168.56 516.335 1162.83 526.617 C 1157.11 536.899 1130.06 545.222 1126.16 544.702 Z " fill="rgb(161,85,154)"/><path d=" M 1102.5 288.263 C 1101.71 288.002 1065.56 271.618 1066.34 270.317 C 1067.12 269.017 1102.5 270.837 1104.06 271.618 C 1105.62 272.398 1108.86 274.739 1107.63 281.501 C 1106.4 288.263 1102.5 288.263 1102.5 288.263 Z " fill="rgb(161,85,154)"/><path d=" M 1186.5 235.987 C 1183.9 237.547 1177.4 264.855 1177.66 267.196 C 1177.92 269.537 1183.38 277.599 1190.66 276.039 C 1197.94 274.478 1203.67 268.232 1201.59 264.593 C 1199.5 260.955 1186.5 235.987 1186.5 235.987 Z " fill="rgb(161,85,154)"/><path d=" M 1337.52 183.19 C 1338.13 185.531 1308.22 204.517 1297.55 207.898 C 1286.89 211.279 1274.15 200.616 1277.01 191.253 C 1279.87 181.89 1289.23 182.93 1303.02 183.19 C 1316.8 183.451 1337.52 183.19 1337.52 183.19 Z " fill="rgb(161,85,154)"/><path d=" M 1279.61 75.257 C 1278.38 74.441 1256.46 103.866 1255.94 105.167 C 1255.42 106.467 1255.94 119.21 1265.3 119.991 C 1274.67 120.771 1279.09 110.628 1279.61 106.207 C 1280.13 101.785 1281.17 76.298 1279.61 75.257 Z " fill="rgb(161,85,154)"/><path d=" M 1163.09 86.441 C 1163.31 87.749 1169.08 124.933 1170.38 126.753 C 1171.68 128.574 1180.52 132.995 1186.76 128.313 C 1193 123.632 1193.52 114.269 1191.18 111.929 C 1188.84 109.588 1162.81 84.749 1163.09 86.441 Z " fill="rgb(161,85,154)"/><path d=" M 1274.41 327.015 C 1280.13 330.136 1287.93 328.575 1290.53 323.374 C 1292.34 319.539 1292.18 315.313 1290.88 311.333 L 1267.59 320.882 C 1269.14 323.454 1271.68 325.5 1274.41 327.015 Z " fill="rgb(81,44,77)"/><path d=" M 1321.57 298.752 L 1290.88 311.333 C 1292.18 315.313 1292.34 319.539 1290.53 323.374 C 1287.93 328.575 1280.13 330.136 1274.41 327.015 C 1271.68 325.5 1269.14 323.454 1267.59 320.882 L 1231.06 335.857 C 1231.06 335.857 1255.68 365.333 1294.87 350.215 C 1334.05 335.096 1321.57 298.752 1321.57 298.752 Z " fill="rgb(195,227,209)"/><path d=" M 1138.13 331.696 C 1141.77 336.377 1148.53 340.019 1154.77 337.938 C 1158.3 336.878 1160.87 334.557 1162.45 331.69 C 1158.89 330.137 1154.94 328.447 1150.61 326.641 C 1145.38 324.461 1140.36 322.459 1135.74 320.669 C 1134.97 324.44 1135.81 328.384 1138.13 331.696 Z " fill="rgb(81,44,77)"/><path d=" M 1162.45 331.69 C 1160.87 334.557 1158.3 336.878 1154.77 337.938 C 1148.53 340.019 1141.77 336.377 1138.13 331.696 C 1135.81 328.384 1134.97 324.44 1135.74 320.669 C 1120.81 314.886 1110.04 311.333 1110.04 311.333 C 1108.22 322.439 1111.34 353.542 1145.41 359.416 C 1179.48 365.289 1184.94 342.1 1184.94 342.1 C 1184.94 342.1 1177.03 338.063 1162.45 331.69 Z " fill="rgb(195,227,209)"/><path d=" M 1155.55 463.556 C 1155.03 462.517 1150.09 439.231 1157.89 412.902 C 1165.69 386.573 1172.72 385.533 1173.5 386.313 C 1174.28 387.093 1186.76 399.057 1195.08 403.999 C 1203.41 408.939 1212.51 408.68 1212.77 407.12 C 1213.03 405.559 1218.92 393.075 1231.06 379.291 C 1243.2 365.506 1244.14 370.448 1245.23 370.708 C 1246.32 370.968 1256.46 377.21 1262.18 390.214 C 1267.91 403.218 1267.91 406.339 1268.69 406.079 C 1269.47 405.819 1275.69 402.438 1279.73 389.954 C 1283.77 377.47 1286.37 366.807 1286.37 366.807 C 1286.37 366.807 1299.12 374.472 1307.18 412.902 C 1315.24 451.333 1307.7 473.353 1307.18 474.046 C 1306.66 474.74 1305.36 456.274 1298.08 437.548 C 1290.79 418.823 1287.67 412.963 1286.89 412.902 C 1286.11 412.841 1275.19 431.046 1271.55 436.248 C 1267.91 441.45 1263.22 442.49 1263.22 442.49 C 1263.22 442.49 1249.08 424.025 1245.23 417.523 C 1241.38 411.021 1238.26 409.894 1237.48 409.547 C 1236.7 409.2 1218.75 433.647 1218.49 435.208 C 1218.23 436.769 1177.14 409.062 1174.28 412.902 C 1171.42 416.743 1155.03 446.044 1155.55 465.204" fill="rgb(81,44,77)"/></g></svg>
