<?xml version="1.0" encoding="UTF-8" standalone="no"?>
<!-- Created with Inkscape (http://www.inkscape.org/) -->

<svg
  xmlns:dc="http://purl.org/dc/elements/1.1/"
  xmlns:cc="http://creativecommons.org/ns#"
  xmlns:rdf="http://www.w3.org/1999/02/22-rdf-syntax-ns#"
  xmlns="http://www.w3.org/2000/svg"
  version="1.1"
  width="163.85393"
  height="132.97763"
  id="svg2"
  xml:space="preserve"><metadata
     id="metadata8"><rdf:RDF><cc:Work
         rdf:about=""><dc:format>image/svg+xml</dc:format><dc:type
           rdf:resource="http://purl.org/dc/dcmitype/StillImage" /><dc:title></dc:title></cc:Work></rdf:RDF></metadata><defs
     id="defs6"><clipPath
       id="clipPath16"><path
         d="m 0,2204.724 787.402,0 L 787.402,0 0,0 0,2204.724 z"
         id="path18" /></clipPath><clipPath
       id="clipPath24"><path
         d="M 3.05176e-5,2204.72 787.402,2204.72 787.402,0 3.05176e-5,0 l 0,2204.72 z"
         id="path26" /></clipPath><clipPath
       id="clipPath38"><path
         d="m 0,2204.724 787.402,0 L 787.402,0 0,0 0,2204.724 z"
         id="path40" /></clipPath><clipPath
       id="clipPath46"><path
         d="m 366.535,64.5675 55.906,0 0,-17.3229 -55.906,0 0,17.3229 z"
         id="path48" /></clipPath><clipPath
       id="clipPath110"><path
         d="m 0,2204.724 787.402,0 L 787.402,0 0,0 0,2204.724 z"
         id="path112" /></clipPath><clipPath
       id="clipPath118"><path
         d="m 522.047,210.237 55.905,0 0,-17.323 -55.905,0 0,17.323 z"
         id="path120" /></clipPath><clipPath
       id="clipPath178"><path
         d="m 0,2204.724 787.402,0 L 787.402,0 0,0 0,2204.724 z"
         id="path180" /></clipPath><clipPath
       id="clipPath186"><path
         d="m 366.142,210.237 55.905,0 0,-17.323 -55.905,0 0,17.323 z"
         id="path188" /></clipPath><clipPath
       id="clipPath246"><path
         d="m 0,2204.724 787.402,0 L 787.402,0 0,0 0,2204.724 z"
         id="path248" /></clipPath><clipPath
       id="clipPath254"><path
         d="m 208.59,210.359 55.906,0 0,-17.323 -55.906,0 0,17.323 z"
         id="path256" /></clipPath><clipPath
       id="clipPath318"><path
         d="m 0,2204.724 787.402,0 L 787.402,0 0,0 0,2204.724 z"
         id="path320" /></clipPath><clipPath
       id="clipPath326"><path
         d="m 516.535,359.843 67.323,0 0,-20.866 -67.323,0 0,20.866 z"
         id="path328" /></clipPath><clipPath
       id="clipPath386"><path
         d="m 0,2204.724 787.402,0 L 787.402,0 0,0 0,2204.724 z"
         id="path388" /></clipPath><clipPath
       id="clipPath394"><path
         d="m 364.567,367.717 55.905,0 0,-17.323 -55.905,0 0,17.323 z"
         id="path396" /></clipPath><clipPath
       id="clipPath450"><path
         d="m 0,2204.724 787.402,0 L 787.402,0 0,0 0,2204.724 z"
         id="path452" /></clipPath><clipPath
       id="clipPath458"><path
         d="m 208.267,360.63 55.906,0 0,-17.323 -55.906,0 0,17.323 z"
         id="path460" /></clipPath><clipPath
       id="clipPath510"><path
         d="m 0,2204.724 787.402,0 L 787.402,0 0,0 0,2204.724 z"
         id="path512" /></clipPath><clipPath
       id="clipPath518"><path
         d="m 521.26,520.473 55.905,0 0,-17.323 -55.905,0 0,17.323 z"
         id="path520" /></clipPath><clipPath
       id="clipPath574"><path
         d="m 0,2204.724 787.402,0 L 787.402,0 0,0 0,2204.724 z"
         id="path576" /></clipPath><clipPath
       id="clipPath582"><path
         d="m 366.142,510.237 55.905,0 0,-17.323 -55.905,0 0,17.323 z"
         id="path584" /></clipPath><clipPath
       id="clipPath638"><path
         d="m 0,2204.724 787.402,0 L 787.402,0 0,0 0,2204.724 z"
         id="path640" /></clipPath><clipPath
       id="clipPath646"><path
         d="m 207.874,522.048 55.905,0 0,-17.323 -55.905,0 0,17.323 z"
         id="path648" /></clipPath><clipPath
       id="clipPath694"><path
         d="m 0,2204.724 787.402,0 L 787.402,0 0,0 0,2204.724 z"
         id="path696" /></clipPath><clipPath
       id="clipPath702"><path
         d="m 523.622,677.56 55.905,0 0,-17.323 -55.905,0 0,17.323 z"
         id="path704" /></clipPath><clipPath
       id="clipPath754"><path
         d="m 0,2204.724 787.402,0 L 787.402,0 0,0 0,2204.724 z"
         id="path756" /></clipPath><clipPath
       id="clipPath762"><path
         d="m 364.566,682.678 55.906,0 0,-17.323 -55.906,0 0,17.323 z"
         id="path764" /></clipPath><clipPath
       id="clipPath814"><path
         d="m 0,2204.724 787.402,0 L 787.402,0 0,0 0,2204.724 z"
         id="path816" /></clipPath><clipPath
       id="clipPath822"><path
         d="m 181.89,704.725 109.449,0 0,-39.764 -109.449,0 0,39.764 z"
         id="path824" /></clipPath><clipPath
       id="clipPath862"><path
         d="m 0,2204.724 787.402,0 L 787.402,0 0,0 0,2204.724 z"
         id="path864" /></clipPath><clipPath
       id="clipPath870"><path
         d="m 522.047,837.796 55.905,0 0,-17.323 -55.905,0 0,17.323 z"
         id="path872" /></clipPath><clipPath
       id="clipPath930"><path
         d="m 0,2204.724 787.402,0 L 787.402,0 0,0 0,2204.724 z"
         id="path932" /></clipPath><clipPath
       id="clipPath938"><path
         d="m 363.779,833.072 55.906,0 0,-17.323 -55.906,0 0,17.323 z"
         id="path940" /></clipPath><clipPath
       id="clipPath982"><path
         d="m 0,2204.724 787.402,0 L 787.402,0 0,0 0,2204.724 z"
         id="path984" /></clipPath><clipPath
       id="clipPath994"><path
         d="m 221.259,837.796 55.906,0 0,-17.323 -55.906,0 0,17.323 z"
         id="path996" /></clipPath><clipPath
       id="clipPath1038"><path
         d="m 0,2204.724 787.402,0 L 787.402,0 0,0 0,2204.724 z"
         id="path1040" /></clipPath><clipPath
       id="clipPath1046"><path
         d="m 522.047,991.339 55.905,0 0,-17.323 -55.905,0 0,17.323 z"
         id="path1048" /></clipPath><clipPath
       id="clipPath1094"><path
         d="m 0,2204.724 787.402,0 L 787.402,0 0,0 0,2204.724 z"
         id="path1096" /></clipPath><clipPath
       id="clipPath1102"><path
         d="m 365.354,977.166 55.906,0 0,-17.323 -55.906,0 0,17.323 z"
         id="path1104" /></clipPath><clipPath
       id="clipPath1186"><path
         d="m 0,2204.724 787.402,0 L 787.402,0 0,0 0,2204.724 z"
         id="path1188" /></clipPath><clipPath
       id="clipPath1194"><path
         d="m 208.267,984.252 55.906,0 0,-17.322 -55.906,0 0,17.322 z"
         id="path1196" /></clipPath><clipPath
       id="clipPath1254"><path
         d="m 0,2204.724 787.402,0 L 787.402,0 0,0 0,2204.724 z"
         id="path1256" /></clipPath><clipPath
       id="clipPath1262"><path
         d="m 523.622,1150.39 55.905,0 0,-17.32 -55.905,0 0,17.32 z"
         id="path1264" /></clipPath><clipPath
       id="clipPath1322"><path
         d="m 0,2204.724 787.402,0 L 787.402,0 0,0 0,2204.724 z"
         id="path1324" /></clipPath><clipPath
       id="clipPath1330"><path
         d="m 365.748,1145.67 55.905,0 0,-17.32 -55.905,0 0,17.32 z"
         id="path1332" /></clipPath><clipPath
       id="clipPath1374"><path
         d="m 0,2204.724 787.402,0 L 787.402,0 0,0 0,2204.724 z"
         id="path1376" /></clipPath><clipPath
       id="clipPath1382"><path
         d="m 207.874,1149.21 55.905,0 0,-17.32 -55.905,0 0,17.32 z"
         id="path1384" /></clipPath><clipPath
       id="clipPath1430"><path
         d="m 0,2204.724 787.402,0 L 787.402,0 0,0 0,2204.724 z"
         id="path1432" /></clipPath><clipPath
       id="clipPath1438"><path
         d="m 518.504,1309.45 55.905,0 0,-17.32 -55.905,0 0,17.32 z"
         id="path1440" /></clipPath><clipPath
       id="clipPath1502"><path
         d="m 0,2204.724 787.402,0 L 787.402,0 0,0 0,2204.724 z"
         id="path1504" /></clipPath><clipPath
       id="clipPath1510"><path
         d="m 364.567,1295.28 55.905,0 0,-17.33 -55.905,0 0,17.33 z"
         id="path1512" /></clipPath><clipPath
       id="clipPath1578"><path
         d="m 0,2204.724 787.402,0 L 787.402,0 0,0 0,2204.724 z"
         id="path1580" /></clipPath><clipPath
       id="clipPath1586"><path
         d="m 209.448,1307.48 55.906,0 0,-17.32 -55.906,0 0,17.32 z"
         id="path1588" /></clipPath><clipPath
       id="clipPath1642"><path
         d="m 0,2204.724 787.402,0 L 787.402,0 0,0 0,2204.724 z"
         id="path1644" /></clipPath><clipPath
       id="clipPath1650"><path
         d="m 500,1467.32 107.087,0 0,-33.07 -107.087,0 0,33.07 z"
         id="path1652" /></clipPath><clipPath
       id="clipPath1706"><path
         d="m 0,2204.724 787.402,0 L 787.402,0 0,0 0,2204.724 z"
         id="path1708" /></clipPath><clipPath
       id="clipPath1714"><path
         d="m 366.141,1468.5 55.906,0 0,-17.32 -55.906,0 0,17.32 z"
         id="path1716" /></clipPath><clipPath
       id="clipPath1734"><path
         d="m 0,2204.724 787.402,0 L 787.402,0 0,0 0,2204.724 z"
         id="path1736" /></clipPath><clipPath
       id="clipPath1774"><path
         d="m 0,2204.724 787.402,0 L 787.402,0 0,0 0,2204.724 z"
         id="path1776" /></clipPath><clipPath
       id="clipPath1782"><path
         d="m 207.48,1468.5 55.905,0 0,-17.32 -55.905,0 0,17.32 z"
         id="path1784" /></clipPath><clipPath
       id="clipPath1838"><path
         d="m 0,2204.724 787.402,0 L 787.402,0 0,0 0,2204.724 z"
         id="path1840" /></clipPath><clipPath
       id="clipPath1846"><path
         d="m 522.047,1619.69 55.905,0 0,-17.33 -55.905,0 0,17.33 z"
         id="path1848" /></clipPath><clipPath
       id="clipPath1890"><path
         d="m 0,2204.724 787.402,0 L 787.402,0 0,0 0,2204.724 z"
         id="path1892" /></clipPath><clipPath
       id="clipPath1898"><path
         d="m 366.535,1618.9 55.906,0 0,-17.32 -55.906,0 0,17.32 z"
         id="path1900" /></clipPath><clipPath
       id="clipPath1954"><path
         d="m 0,2204.724 787.402,0 L 787.402,0 0,0 0,2204.724 z"
         id="path1956" /></clipPath><clipPath
       id="clipPath1962"><path
         d="m 207.874,1624.41 55.905,0 0,-17.32 -55.905,0 0,17.32 z"
         id="path1964" /></clipPath><clipPath
       id="clipPath2026"><path
         d="m 0,2204.724 787.402,0 L 787.402,0 0,0 0,2204.724 z"
         id="path2028" /></clipPath><clipPath
       id="clipPath2034"><path
         d="m 520.078,1779.92 55.906,0 0,-17.32 -55.906,0 0,17.32 z"
         id="path2036" /></clipPath><clipPath
       id="clipPath2090"><path
         d="m 0,2204.724 787.402,0 L 787.402,0 0,0 0,2204.724 z"
         id="path2092" /></clipPath><clipPath
       id="clipPath2098"><path
         d="m 368.11,1781.89 55.905,0 0,-17.32 -55.905,0 0,17.32 z"
         id="path2100" /></clipPath><clipPath
       id="clipPath2158"><path
         d="m 0,2204.724 787.402,0 L 787.402,0 0,0 0,2204.724 z"
         id="path2160" /></clipPath><clipPath
       id="clipPath2166"><path
         d="m 207.874,1775.59 55.905,0 0,-17.32 -55.905,0 0,17.32 z"
         id="path2168" /></clipPath><clipPath
       id="clipPath2226"><path
         d="m 0,2204.724 787.402,0 L 787.402,0 0,0 0,2204.724 z"
         id="path2228" /></clipPath><clipPath
       id="clipPath2234"><path
         d="m 521.26,1928.35 55.905,0 0,-17.33 -55.905,0 0,17.33 z"
         id="path2236" /></clipPath><clipPath
       id="clipPath2294"><path
         d="m 0,2204.724 787.402,0 L 787.402,0 0,0 0,2204.724 z"
         id="path2296" /></clipPath><clipPath
       id="clipPath2302"><path
         d="m 366.535,1940.16 55.905,0 0,-17.33 -55.905,0 0,17.33 z"
         id="path2304" /></clipPath><clipPath
       id="clipPath2358"><path
         d="m 0,2204.724 787.402,0 L 787.402,0 0,0 0,2204.724 z"
         id="path2360" /></clipPath><clipPath
       id="clipPath2366"><path
         d="m 204.33,1922.84 55.906,0 0,-17.33 -55.906,0 0,17.33 z"
         id="path2368" /></clipPath><clipPath
       id="clipPath2418"><path
         d="m 0,2204.724 787.402,0 L 787.402,0 0,0 0,2204.724 z"
         id="path2420" /></clipPath><clipPath
       id="clipPath2426"><path
         d="m 522.44,2090.16 55.906,0 0,-17.33 -55.906,0 0,17.33 z"
         id="path2428" /></clipPath><clipPath
       id="clipPath2478"><path
         d="m 0,2204.724 787.402,0 L 787.402,0 0,0 0,2204.724 z"
         id="path2480" /></clipPath><clipPath
       id="clipPath2486"><path
         d="m 364.566,2100.79 55.906,0 0,-17.33 -55.906,0 0,17.33 z"
         id="path2488" /></clipPath><clipPath
       id="clipPath2526"><path
         d="m 0,2204.724 787.402,0 L 787.402,0 0,0 0,2204.724 z"
         id="path2528" /></clipPath><clipPath
       id="clipPath2534"><path
         d="m 207.086,2088.98 55.906,0 0,-17.33 -55.906,0 0,17.33 z"
         id="path2536" /></clipPath></defs><g
     transform="matrix(1.25,0,0,-1.25,-606.06497,374.22014)"
     id="g10"><g
       id="g106"><g
         clip-path="url(#clipPath110)"
         id="g108"><g
           id="g114"><g
             id="g116" /><g
             id="g122"><g
               clip-path="url(#clipPath118)"
               id="g124"
               style="opacity:0.19999701"><g
                 transform="translate(549.9997,210.2368)"
                 id="g126"><path
                   d="m 0,0 c -15.438,0 -27.953,-3.878 -27.953,-8.661 0,-4.784 12.515,-8.662 27.953,-8.662 15.438,0 27.953,3.878 27.953,8.662 C 27.953,-3.878 15.438,0 0,0"
                   id="path128"
                   style="fill:#000000;fill-opacity:1;fill-rule:evenodd;stroke:none" /></g></g></g></g><g
           transform="translate(583.2019,256.4246)"
           id="g130"><path
             d="m 0,0 c 2.716,1.203 3.384,5.128 3.384,5.128 0,0 -1.488,-1.799 -3.289,-1.92 2.404,2.88 -0.399,7.109 -0.399,7.109 0,0 0.298,-3.832 -1.321,-5.369 -1.619,-1.536 -6.844,-0.386 -9.682,3.924 -2.839,4.311 3.849,-14.565 6.845,-15.296 2.997,-0.732 3.731,0.361 3.731,0.361 0,0 -0.999,0.622 -0.787,1.574 1.555,0.208 2.602,0.866 2.602,0.866 0,0 -1.113,-0.04 -1.426,1.15 C 1.934,-2.41 2.897,0.275 2.897,0.275 2.897,0.275 1.048,-0.153 0,0 m -54.703,8.872 c -2.838,-4.31 -8.063,-5.46 -9.682,-3.924 -1.619,1.537 -1.321,5.369 -1.321,5.369 0,0 -2.803,-4.229 -0.399,-7.109 -1.801,0.121 -3.289,1.92 -3.289,1.92 0,0 0.668,-3.925 3.384,-5.128 -1.048,-0.153 -2.897,0.275 -2.897,0.275 0,0 0.963,-2.685 3.238,-2.748 -0.312,-1.19 -1.425,-1.15 -1.425,-1.15 0,0 1.047,-0.658 2.602,-0.866 0.212,-0.952 -0.787,-1.574 -0.787,-1.574 0,0 0.734,-1.093 3.731,-0.361 2.996,0.731 9.684,19.607 6.845,15.296"
             id="path132"
             style="fill:#ffbf45;fill-opacity:1;fill-rule:evenodd;stroke:none" /></g><g
           transform="translate(599.203,276.1951)"
           id="g134"><path
             d="m 0,0 c 3.118,-10.925 1.227,-17.921 1.227,-17.921 0,0 -4.326,1.705 -6.514,6.136 -2.986,-7.121 8.072,-13.94 8.072,-13.94 0,0 -0.181,-14.493 -21.278,-11.268 -21.096,3.226 -16.986,-19.437 2.556,-8.972 20.768,3.121 22.863,16.596 23.192,17.656 C 14.69,-26.588 27.31,-7.091 0,0 m -79.126,-36.992 c -21.097,-3.226 -21.277,11.267 -21.277,11.267 0,0 11.057,6.819 8.072,13.94 -2.188,-4.431 -6.515,-6.136 -6.515,-6.136 0,0 -1.89,6.996 1.227,17.921 -27.31,-7.091 -14.69,-26.588 -7.254,-28.309 0.329,-1.06 2.423,-14.535 23.191,-17.656 19.542,-10.465 23.652,12.198 2.556,8.973"
             id="path136"
             style="fill:#976709;fill-opacity:1;fill-rule:evenodd;stroke:none" /></g><g
           transform="translate(550.3934,275.6894)"
           id="g138"><path
             d="m 0,0 c -23.032,0 -38.976,-36.811 -31.496,-59.055 7.48,-22.244 55.315,-20.473 62.992,0.787 C 39.173,-37.008 23.031,0 0,0"
             id="path140"
             style="fill:#d6971e;fill-opacity:1;fill-rule:evenodd;stroke:none" /></g><g
           transform="translate(566.1417,269.2914)"
           id="g142"><path
             d="m 0,0 c -4.131,0 -7.48,-3.349 -7.48,-7.48 0,-4.132 3.349,-7.481 7.48,-7.481 4.131,0 7.48,3.349 7.48,7.481 C 7.48,-3.349 4.131,0 0,0 m -31.496,0 c -4.131,0 -7.48,-3.349 -7.48,-7.48 0,-4.132 3.349,-7.481 7.48,-7.481 4.131,0 7.48,3.349 7.48,7.481 0,4.131 -3.349,7.48 -7.48,7.48"
             id="path144"
             style="fill:#ffffff;fill-opacity:1;fill-rule:evenodd;stroke:none" /></g><g
           transform="translate(531.6929,266.5355)"
           id="g146"><path
             d="m 0,0 c -1.196,0 -2.165,-1.146 -2.165,-2.559 0,-1.413 0.969,-2.559 2.165,-2.559 1.196,0 2.165,1.146 2.165,2.559 C 2.165,-1.146 1.196,0 0,0 m 37.402,0 c -1.196,0 -2.166,-1.146 -2.166,-2.559 0,-1.413 0.97,-2.559 2.166,-2.559 1.195,0 2.165,1.146 2.165,2.559 0,1.413 -0.97,2.559 -2.165,2.559"
             id="path148"
             style="fill:#142122;fill-opacity:1;fill-rule:evenodd;stroke:none" /></g><g
           transform="translate(550.7874,258.6614)"
           id="g150"><path
             d="m 0,0 c -2.174,0 -3.937,-0.141 -3.937,-1.772 0,-1.63 1.763,-4.134 3.937,-4.134 2.174,0 3.937,2.504 3.937,4.134 C 3.937,-0.141 2.174,0 0,0"
             id="path152"
             style="fill:#142122;fill-opacity:1;fill-rule:evenodd;stroke:none" /></g><g
           transform="translate(585.0385,297.063)"
           id="g154"><path
             d="m 0,0 c 0.001,0.316 -0.317,0.575 -0.707,0.565 -14.252,-0.338 -25.716,-11.801 -26.054,-26.054 -0.01,-0.39 0.249,-0.708 0.565,-0.707 0.076,0 0.153,0 0.229,0 0.317,0.001 0.572,0.301 0.581,0.668 0.321,13.522 11.196,24.397 24.718,24.718 C -0.301,-0.801 0,-0.546 0,-0.229 0,-0.153 0,-0.076 0,0 m -68.521,0.535 c -0.388,0.009 -0.705,-0.248 -0.704,-0.563 0,-0.076 0,-0.153 0,-0.229 10e-4,-0.315 0.3,-0.569 0.665,-0.578 13.466,-0.319 24.296,-11.15 24.616,-24.615 0.009,-0.366 0.263,-0.665 0.578,-0.666 0.076,0 0.152,0.001 0.228,0.001 0.315,-0.001 0.573,0.315 0.563,0.704 -0.337,14.193 -11.753,25.609 -25.946,25.946"
             id="path156"
             style="fill:#ffbf45;fill-opacity:1;fill-rule:evenodd;stroke:none" /></g><g
           transform="translate(587.7707,297.3608)"
           id="g158"><path
             d="M 0,0 C -0.083,1.193 -1.117,2.093 -2.31,2.01 L -7.023,1.682 C -8.216,1.6 -9.116,0.565 -9.033,-0.628 l 0.027,-0.393 c 0.083,-1.193 1.117,-2.093 2.31,-2.01 l 4.713,0.328 c 1.193,0.083 2.093,1.117 2.01,2.31 L 0,0 z M -68.912,1.682 -73.625,2.01 C -74.818,2.093 -75.852,1.193 -75.935,0 l -0.027,-0.393 c -0.083,-1.193 0.817,-2.227 2.01,-2.31 l 4.713,-0.328 c 1.193,-0.083 2.227,0.817 2.31,2.01 l 0.027,0.393 c 0.083,1.193 -0.817,2.228 -2.01,2.31"
             id="path160"
             style="fill:#d6971e;fill-opacity:1;fill-rule:evenodd;stroke:none" /></g><g
           transform="translate(550.5906,247.9683)"
           id="g162"><path
             d="m 0,0 c -21.082,0 -21.85,-6.842 -21.85,-11.579 0,-4.737 9.782,-4.289 21.85,-4.289 12.068,0 21.85,-0.448 21.85,4.289 C 21.85,-6.842 21.082,0 0,0"
             id="path164"
             style="fill:#142122;fill-opacity:1;fill-rule:evenodd;stroke:none" /></g><g
           transform="translate(543.0928,245.3951)"
           id="g166"><path
             d="M 0,0 C 1.193,0 2.169,1.053 2.325,2.413 0.644,2.304 -0.871,2.139 -2.23,1.927 -1.922,0.812 -1.046,0 0,0 m -4.284,0.429 c 0.723,0 1.346,0.583 1.676,1.435 -1.107,-0.184 -2.11,-0.4 -3.018,-0.644 0.347,-0.488 0.819,-0.791 1.342,-0.791 m 24.849,-10.721 c -1.065,0 -1.928,-1.248 -1.928,-2.788 0,-0.051 0.009,-0.1 0.011,-0.15 1.386,0.048 2.672,0.128 3.838,0.253 -0.038,1.491 -0.88,2.685 -1.921,2.685 M 4.713,-1.286 c 1.154,0 2.11,1.662 2.313,3.854 C 5.364,2.56 3.828,2.509 2.414,2.418 2.646,0.301 3.585,-1.286 4.713,-1.286 m 13.71,1.715 c 0.586,0 1.104,0.386 1.458,0.982 C 18.922,1.64 17.857,1.836 16.695,2.003 17.008,1.074 17.66,0.429 18.423,0.429 M 14.139,0 C 15.221,0 16.123,0.868 16.4,2.045 15.022,2.232 13.496,2.373 11.81,2.462 11.948,1.078 12.931,0 14.139,0 M 9.426,-1.286 c 1.136,0 2.084,1.61 2.306,3.752 C 10.417,2.534 9.016,2.573 7.498,2.573 7.365,2.573 7.243,2.57 7.113,2.569 7.315,0.377 8.272,-1.286 9.426,-1.286 m -15.853,-9.006 c -1.016,0 -1.839,-1.141 -1.913,-2.582 1.149,-0.156 2.434,-0.257 3.833,-0.322 0.002,0.04 0.008,0.076 0.008,0.116 0,1.54 -0.863,2.788 -1.928,2.788 m 3.856,0 c -1.064,0 -1.928,-1.248 -1.928,-2.788 0,-0.04 0.007,-0.077 0.009,-0.116 1.2,-0.055 2.483,-0.084 3.832,-0.098 0.004,0.072 0.015,0.141 0.015,0.214 0,1.54 -0.863,2.788 -1.928,2.788 m 3.856,0 c -1.064,0 -1.928,-1.248 -1.928,-2.788 0,-0.073 0.011,-0.142 0.015,-0.214 1.225,-0.012 2.503,-0.013 3.826,-0.01 0.004,0.075 0.015,0.147 0.015,0.224 0,1.54 -0.863,2.788 -1.928,2.788 m 11.568,0 c -1.065,0 -1.928,-1.248 -1.928,-2.788 0,-0.076 0.012,-0.147 0.016,-0.222 1.318,-0.004 2.596,-0.006 3.825,10e-4 0.004,0.074 0.015,0.145 0.015,0.221 0,1.54 -0.863,2.788 -1.928,2.788 m -7.712,0 c -1.065,0 -1.928,-1.248 -1.928,-2.788 0,-0.077 0.012,-0.149 0.016,-0.224 1.24,0.003 2.519,0.008 3.825,0.009 0.004,0.072 0.015,0.141 0.015,0.215 0,1.54 -0.863,2.788 -1.928,2.788 m 3.856,0 c -1.065,0 -1.928,-1.248 -1.928,-2.788 0,-0.074 0.011,-0.143 0.015,-0.215 0.138,0 0.275,10e-4 0.414,10e-4 1.161,0 2.3,-0.005 3.412,-0.008 0.004,0.075 0.015,0.146 0.015,0.222 0,1.54 -0.863,2.788 -1.928,2.788 m 7.712,0 c -1.065,0 -1.928,-1.248 -1.928,-2.788 0,-0.076 0.011,-0.147 0.016,-0.221 1.342,0.008 2.623,0.028 3.83,0.07 0.002,0.051 0.01,0.099 0.01,0.151 0,1.54 -0.863,2.788 -1.928,2.788"
             id="path168"
             style="fill:#ffffff;fill-opacity:1;fill-rule:evenodd;stroke:none" /></g><g
           transform="translate(524.6512,233.0646)"
           id="g170"><path
             d="m 0,0 c -7.93,0.4 -1.396,-9.378 -3.612,-9.093 -2.216,0.285 -0.204,9.151 -6.021,7.44 -5.817,-1.712 1.538,-8.238 -0.401,-9.093 -1.939,-0.856 -1.739,4.822 -5.619,2.893 -3.88,-1.929 3.279,-12.412 5.218,-16.12 1.938,-3.708 8.228,-13.029 13.646,-10.746 6.094,2.567 5.15,9.92 3.678,14.053 C 5.418,-16.533 6.037,-0.304 0,0 m 67.138,-7.853 c -3.88,1.929 -3.68,-3.749 -5.619,-2.893 -1.939,0.855 5.416,7.381 -0.401,9.093 -5.817,1.711 -3.805,-7.155 -6.021,-7.44 C 52.881,-9.378 59.415,0.4 51.485,0 c -6.037,-0.304 -5.418,-16.533 -6.889,-20.666 -1.472,-4.133 -2.416,-11.486 3.678,-14.053 5.418,-2.283 11.707,7.038 13.646,10.746 1.939,3.708 9.098,14.191 5.218,16.12"
             id="path172"
             style="fill:#ffbf45;fill-opacity:1;fill-rule:evenodd;stroke:none" /></g></g></g></g></svg>
