<?xml version="1.0" encoding="UTF-8" standalone="no"?>
<!-- Created with Inkscape (http://www.inkscape.org/) -->

<svg
  xmlns:dc="http://purl.org/dc/elements/1.1/"
  xmlns:cc="http://creativecommons.org/ns#"
  xmlns:rdf="http://www.w3.org/1999/02/22-rdf-syntax-ns#"
  xmlns="http://www.w3.org/2000/svg"
  version="1.1"
  width="143.81277"
  height="141.2395"
  id="svg2"
  xml:space="preserve"><metadata
     id="metadata8"><rdf:RDF><cc:Work
         rdf:about=""><dc:format>image/svg+xml</dc:format><dc:type
           rdf:resource="http://purl.org/dc/dcmitype/StillImage" /><dc:title></dc:title></cc:Work></rdf:RDF></metadata><defs
     id="defs6"><clipPath
       id="clipPath16"><path
         d="m 0,2204.724 787.402,0 L 787.402,0 0,0 0,2204.724 z"
         id="path18" /></clipPath><clipPath
       id="clipPath24"><path
         d="M 3.05176e-5,2204.72 787.402,2204.72 787.402,0 3.05176e-5,0 l 0,2204.72 z"
         id="path26" /></clipPath><clipPath
       id="clipPath38"><path
         d="m 0,2204.724 787.402,0 L 787.402,0 0,0 0,2204.724 z"
         id="path40" /></clipPath><clipPath
       id="clipPath46"><path
         d="m 366.535,64.5675 55.906,0 0,-17.3229 -55.906,0 0,17.3229 z"
         id="path48" /></clipPath><clipPath
       id="clipPath110"><path
         d="m 0,2204.724 787.402,0 L 787.402,0 0,0 0,2204.724 z"
         id="path112" /></clipPath><clipPath
       id="clipPath118"><path
         d="m 522.047,210.237 55.905,0 0,-17.323 -55.905,0 0,17.323 z"
         id="path120" /></clipPath><clipPath
       id="clipPath178"><path
         d="m 0,2204.724 787.402,0 L 787.402,0 0,0 0,2204.724 z"
         id="path180" /></clipPath><clipPath
       id="clipPath186"><path
         d="m 366.142,210.237 55.905,0 0,-17.323 -55.905,0 0,17.323 z"
         id="path188" /></clipPath><clipPath
       id="clipPath246"><path
         d="m 0,2204.724 787.402,0 L 787.402,0 0,0 0,2204.724 z"
         id="path248" /></clipPath><clipPath
       id="clipPath254"><path
         d="m 208.59,210.359 55.906,0 0,-17.323 -55.906,0 0,17.323 z"
         id="path256" /></clipPath><clipPath
       id="clipPath318"><path
         d="m 0,2204.724 787.402,0 L 787.402,0 0,0 0,2204.724 z"
         id="path320" /></clipPath><clipPath
       id="clipPath326"><path
         d="m 516.535,359.843 67.323,0 0,-20.866 -67.323,0 0,20.866 z"
         id="path328" /></clipPath><clipPath
       id="clipPath386"><path
         d="m 0,2204.724 787.402,0 L 787.402,0 0,0 0,2204.724 z"
         id="path388" /></clipPath><clipPath
       id="clipPath394"><path
         d="m 364.567,367.717 55.905,0 0,-17.323 -55.905,0 0,17.323 z"
         id="path396" /></clipPath><clipPath
       id="clipPath450"><path
         d="m 0,2204.724 787.402,0 L 787.402,0 0,0 0,2204.724 z"
         id="path452" /></clipPath><clipPath
       id="clipPath458"><path
         d="m 208.267,360.63 55.906,0 0,-17.323 -55.906,0 0,17.323 z"
         id="path460" /></clipPath><clipPath
       id="clipPath510"><path
         d="m 0,2204.724 787.402,0 L 787.402,0 0,0 0,2204.724 z"
         id="path512" /></clipPath><clipPath
       id="clipPath518"><path
         d="m 521.26,520.473 55.905,0 0,-17.323 -55.905,0 0,17.323 z"
         id="path520" /></clipPath><clipPath
       id="clipPath574"><path
         d="m 0,2204.724 787.402,0 L 787.402,0 0,0 0,2204.724 z"
         id="path576" /></clipPath><clipPath
       id="clipPath582"><path
         d="m 366.142,510.237 55.905,0 0,-17.323 -55.905,0 0,17.323 z"
         id="path584" /></clipPath><clipPath
       id="clipPath638"><path
         d="m 0,2204.724 787.402,0 L 787.402,0 0,0 0,2204.724 z"
         id="path640" /></clipPath><clipPath
       id="clipPath646"><path
         d="m 207.874,522.048 55.905,0 0,-17.323 -55.905,0 0,17.323 z"
         id="path648" /></clipPath><clipPath
       id="clipPath694"><path
         d="m 0,2204.724 787.402,0 L 787.402,0 0,0 0,2204.724 z"
         id="path696" /></clipPath><clipPath
       id="clipPath702"><path
         d="m 523.622,677.56 55.905,0 0,-17.323 -55.905,0 0,17.323 z"
         id="path704" /></clipPath><clipPath
       id="clipPath754"><path
         d="m 0,2204.724 787.402,0 L 787.402,0 0,0 0,2204.724 z"
         id="path756" /></clipPath><clipPath
       id="clipPath762"><path
         d="m 364.566,682.678 55.906,0 0,-17.323 -55.906,0 0,17.323 z"
         id="path764" /></clipPath><clipPath
       id="clipPath814"><path
         d="m 0,2204.724 787.402,0 L 787.402,0 0,0 0,2204.724 z"
         id="path816" /></clipPath><clipPath
       id="clipPath822"><path
         d="m 181.89,704.725 109.449,0 0,-39.764 -109.449,0 0,39.764 z"
         id="path824" /></clipPath><clipPath
       id="clipPath862"><path
         d="m 0,2204.724 787.402,0 L 787.402,0 0,0 0,2204.724 z"
         id="path864" /></clipPath><clipPath
       id="clipPath870"><path
         d="m 522.047,837.796 55.905,0 0,-17.323 -55.905,0 0,17.323 z"
         id="path872" /></clipPath><clipPath
       id="clipPath930"><path
         d="m 0,2204.724 787.402,0 L 787.402,0 0,0 0,2204.724 z"
         id="path932" /></clipPath><clipPath
       id="clipPath938"><path
         d="m 363.779,833.072 55.906,0 0,-17.323 -55.906,0 0,17.323 z"
         id="path940" /></clipPath><clipPath
       id="clipPath982"><path
         d="m 0,2204.724 787.402,0 L 787.402,0 0,0 0,2204.724 z"
         id="path984" /></clipPath><clipPath
       id="clipPath994"><path
         d="m 221.259,837.796 55.906,0 0,-17.323 -55.906,0 0,17.323 z"
         id="path996" /></clipPath><clipPath
       id="clipPath1038"><path
         d="m 0,2204.724 787.402,0 L 787.402,0 0,0 0,2204.724 z"
         id="path1040" /></clipPath><clipPath
       id="clipPath1046"><path
         d="m 522.047,991.339 55.905,0 0,-17.323 -55.905,0 0,17.323 z"
         id="path1048" /></clipPath><clipPath
       id="clipPath1094"><path
         d="m 0,2204.724 787.402,0 L 787.402,0 0,0 0,2204.724 z"
         id="path1096" /></clipPath><clipPath
       id="clipPath1102"><path
         d="m 365.354,977.166 55.906,0 0,-17.323 -55.906,0 0,17.323 z"
         id="path1104" /></clipPath><clipPath
       id="clipPath1186"><path
         d="m 0,2204.724 787.402,0 L 787.402,0 0,0 0,2204.724 z"
         id="path1188" /></clipPath><clipPath
       id="clipPath1194"><path
         d="m 208.267,984.252 55.906,0 0,-17.322 -55.906,0 0,17.322 z"
         id="path1196" /></clipPath><clipPath
       id="clipPath1254"><path
         d="m 0,2204.724 787.402,0 L 787.402,0 0,0 0,2204.724 z"
         id="path1256" /></clipPath><clipPath
       id="clipPath1262"><path
         d="m 523.622,1150.39 55.905,0 0,-17.32 -55.905,0 0,17.32 z"
         id="path1264" /></clipPath><clipPath
       id="clipPath1322"><path
         d="m 0,2204.724 787.402,0 L 787.402,0 0,0 0,2204.724 z"
         id="path1324" /></clipPath><clipPath
       id="clipPath1330"><path
         d="m 365.748,1145.67 55.905,0 0,-17.32 -55.905,0 0,17.32 z"
         id="path1332" /></clipPath><clipPath
       id="clipPath1374"><path
         d="m 0,2204.724 787.402,0 L 787.402,0 0,0 0,2204.724 z"
         id="path1376" /></clipPath><clipPath
       id="clipPath1382"><path
         d="m 207.874,1149.21 55.905,0 0,-17.32 -55.905,0 0,17.32 z"
         id="path1384" /></clipPath><clipPath
       id="clipPath1430"><path
         d="m 0,2204.724 787.402,0 L 787.402,0 0,0 0,2204.724 z"
         id="path1432" /></clipPath><clipPath
       id="clipPath1438"><path
         d="m 518.504,1309.45 55.905,0 0,-17.32 -55.905,0 0,17.32 z"
         id="path1440" /></clipPath><clipPath
       id="clipPath1502"><path
         d="m 0,2204.724 787.402,0 L 787.402,0 0,0 0,2204.724 z"
         id="path1504" /></clipPath><clipPath
       id="clipPath1510"><path
         d="m 364.567,1295.28 55.905,0 0,-17.33 -55.905,0 0,17.33 z"
         id="path1512" /></clipPath><clipPath
       id="clipPath1578"><path
         d="m 0,2204.724 787.402,0 L 787.402,0 0,0 0,2204.724 z"
         id="path1580" /></clipPath><clipPath
       id="clipPath1586"><path
         d="m 209.448,1307.48 55.906,0 0,-17.32 -55.906,0 0,17.32 z"
         id="path1588" /></clipPath><clipPath
       id="clipPath1642"><path
         d="m 0,2204.724 787.402,0 L 787.402,0 0,0 0,2204.724 z"
         id="path1644" /></clipPath><clipPath
       id="clipPath1650"><path
         d="m 500,1467.32 107.087,0 0,-33.07 -107.087,0 0,33.07 z"
         id="path1652" /></clipPath><clipPath
       id="clipPath1706"><path
         d="m 0,2204.724 787.402,0 L 787.402,0 0,0 0,2204.724 z"
         id="path1708" /></clipPath><clipPath
       id="clipPath1714"><path
         d="m 366.141,1468.5 55.906,0 0,-17.32 -55.906,0 0,17.32 z"
         id="path1716" /></clipPath><clipPath
       id="clipPath1734"><path
         d="m 0,2204.724 787.402,0 L 787.402,0 0,0 0,2204.724 z"
         id="path1736" /></clipPath><clipPath
       id="clipPath1774"><path
         d="m 0,2204.724 787.402,0 L 787.402,0 0,0 0,2204.724 z"
         id="path1776" /></clipPath><clipPath
       id="clipPath1782"><path
         d="m 207.48,1468.5 55.905,0 0,-17.32 -55.905,0 0,17.32 z"
         id="path1784" /></clipPath><clipPath
       id="clipPath1838"><path
         d="m 0,2204.724 787.402,0 L 787.402,0 0,0 0,2204.724 z"
         id="path1840" /></clipPath><clipPath
       id="clipPath1846"><path
         d="m 522.047,1619.69 55.905,0 0,-17.33 -55.905,0 0,17.33 z"
         id="path1848" /></clipPath><clipPath
       id="clipPath1890"><path
         d="m 0,2204.724 787.402,0 L 787.402,0 0,0 0,2204.724 z"
         id="path1892" /></clipPath><clipPath
       id="clipPath1898"><path
         d="m 366.535,1618.9 55.906,0 0,-17.32 -55.906,0 0,17.32 z"
         id="path1900" /></clipPath><clipPath
       id="clipPath1954"><path
         d="m 0,2204.724 787.402,0 L 787.402,0 0,0 0,2204.724 z"
         id="path1956" /></clipPath><clipPath
       id="clipPath1962"><path
         d="m 207.874,1624.41 55.905,0 0,-17.32 -55.905,0 0,17.32 z"
         id="path1964" /></clipPath><clipPath
       id="clipPath2026"><path
         d="m 0,2204.724 787.402,0 L 787.402,0 0,0 0,2204.724 z"
         id="path2028" /></clipPath><clipPath
       id="clipPath2034"><path
         d="m 520.078,1779.92 55.906,0 0,-17.32 -55.906,0 0,17.32 z"
         id="path2036" /></clipPath><clipPath
       id="clipPath2090"><path
         d="m 0,2204.724 787.402,0 L 787.402,0 0,0 0,2204.724 z"
         id="path2092" /></clipPath><clipPath
       id="clipPath2098"><path
         d="m 368.11,1781.89 55.905,0 0,-17.32 -55.905,0 0,17.32 z"
         id="path2100" /></clipPath><clipPath
       id="clipPath2158"><path
         d="m 0,2204.724 787.402,0 L 787.402,0 0,0 0,2204.724 z"
         id="path2160" /></clipPath><clipPath
       id="clipPath2166"><path
         d="m 207.874,1775.59 55.905,0 0,-17.32 -55.905,0 0,17.32 z"
         id="path2168" /></clipPath><clipPath
       id="clipPath2226"><path
         d="m 0,2204.724 787.402,0 L 787.402,0 0,0 0,2204.724 z"
         id="path2228" /></clipPath><clipPath
       id="clipPath2234"><path
         d="m 521.26,1928.35 55.905,0 0,-17.33 -55.905,0 0,17.33 z"
         id="path2236" /></clipPath><clipPath
       id="clipPath2294"><path
         d="m 0,2204.724 787.402,0 L 787.402,0 0,0 0,2204.724 z"
         id="path2296" /></clipPath><clipPath
       id="clipPath2302"><path
         d="m 366.535,1940.16 55.905,0 0,-17.33 -55.905,0 0,17.33 z"
         id="path2304" /></clipPath><clipPath
       id="clipPath2358"><path
         d="m 0,2204.724 787.402,0 L 787.402,0 0,0 0,2204.724 z"
         id="path2360" /></clipPath><clipPath
       id="clipPath2366"><path
         d="m 204.33,1922.84 55.906,0 0,-17.33 -55.906,0 0,17.33 z"
         id="path2368" /></clipPath><clipPath
       id="clipPath2418"><path
         d="m 0,2204.724 787.402,0 L 787.402,0 0,0 0,2204.724 z"
         id="path2420" /></clipPath><clipPath
       id="clipPath2426"><path
         d="m 522.44,2090.16 55.906,0 0,-17.33 -55.906,0 0,17.33 z"
         id="path2428" /></clipPath><clipPath
       id="clipPath2478"><path
         d="m 0,2204.724 787.402,0 L 787.402,0 0,0 0,2204.724 z"
         id="path2480" /></clipPath><clipPath
       id="clipPath2486"><path
         d="m 364.566,2100.79 55.906,0 0,-17.33 -55.906,0 0,17.33 z"
         id="path2488" /></clipPath><clipPath
       id="clipPath2526"><path
         d="m 0,2204.724 787.402,0 L 787.402,0 0,0 0,2204.724 z"
         id="path2528" /></clipPath><clipPath
       id="clipPath2534"><path
         d="m 207.086,2088.98 55.906,0 0,-17.33 -55.906,0 0,17.33 z"
         id="path2536" /></clipPath></defs><g
     transform="matrix(1.25,0,0,-1.25,-223.3693,1349.902)"
     id="g10"><g
       id="g1182"><g
         clip-path="url(#clipPath1186)"
         id="g1184"><g
           id="g1190"><g
             id="g1192" /><g
             id="g1198"><g
               clip-path="url(#clipPath1194)"
               id="g1200"
               style="opacity:0.19999701"><g
                 transform="translate(236.2202,984.2524)"
                 id="g1202"><path
                   d="m 0,0 c -15.438,0 -27.953,-3.878 -27.953,-8.661 0,-4.784 12.515,-8.662 27.953,-8.662 15.438,0 27.953,3.878 27.953,8.662 C 27.953,-3.878 15.438,0 0,0"
                   id="path1204"
                   style="fill:#000000;fill-opacity:1;fill-rule:evenodd;stroke:none" /></g></g></g></g><g
           transform="translate(229.3503,1051.0803)"
           id="g1206"><path
             d="M 0,0 C -0.443,1.226 -0.49,2.444 -0.207,3.344 L -0.28,3.317 c 1.001,0.852 1.638,2.127 1.638,3.555 0,2.566 -2.056,4.646 -4.592,4.646 -2.537,0 -4.593,-2.08 -4.593,-4.646 0,-2.566 2.056,-4.647 4.593,-4.647 0.012,0 0.024,0.002 0.036,0.002 L -3.375,2.161 c 0.789,-0.5 1.528,-1.459 1.971,-2.685 0.443,-1.227 0.49,-2.445 0.207,-3.344 L 1.97,-2.685 C 1.182,-2.186 0.443,-1.226 0,0 m 21.831,6.872 c 0,2.566 -2.057,4.646 -4.593,4.646 -2.537,0 -4.593,-2.08 -4.593,-4.646 0,-1.466 0.672,-2.771 1.72,-3.623 C 14.617,2.359 14.562,1.185 14.134,0 13.691,-1.226 12.952,-2.186 12.164,-2.685 l 3.167,-1.183 c -0.283,0.899 -0.236,2.117 0.207,3.344 0.443,1.226 1.182,2.185 1.971,2.685 L 17.325,2.23 c 2.496,0.047 4.506,2.105 4.506,4.642"
             id="path1208"
             style="fill:#7f4001;fill-opacity:1;fill-rule:evenodd;stroke:none" /></g><g
           transform="translate(293.3175,995.0404)"
           id="g1210"><path
             d="m 0,0 c -1.564,3.839 -5.76,3.971 -5.76,3.971 0,0 0.677,18.24 -12.757,25.08 -13.652,6.951 -24.082,2.731 -24.082,2.731 0,0 -5.868,-4.88 3.703,-3.833 9.572,1.047 21.95,-0.498 26.418,-11.902 3.783,-9.657 1.552,-12.3 1.552,-12.3 0,0 -5.307,-1.052 -6.667,-3.995 -1.36,-2.944 0.772,-5.311 0.772,-5.311 0,0 0.575,4.071 3.953,4.308 3.378,0.236 3.097,-1.764 2.412,-4.705 -0.684,-2.941 -5.172,-5.338 -5.172,-5.338 0,0 5.566,-0.154 8.083,4.443 2.191,4.001 0.083,6.408 0.083,6.408 0,0 2.574,-2.018 2.113,-5.298 -0.46,-3.28 -3.378,-6.228 -3.378,-6.228 0,0 4.879,2.163 5.823,6.258 0.789,3.42 -2.081,5.501 -2.081,5.501 0,0 3.261,-1.007 3.479,-3.494 0.217,-2.486 -0.154,-4.825 -0.154,-4.825 0,0 3.224,4.69 1.66,8.529 m -71.587,31.852 c 0,0 -10.432,4.21 -24.087,-2.724 -13.436,-6.824 -12.758,-25.02 -12.758,-25.02 0,0 -4.197,-0.131 -5.762,-3.961 -1.564,-3.829 1.661,-8.508 1.661,-8.508 0,0 -0.372,2.333 -0.154,4.814 0.217,2.48 3.479,3.485 3.479,3.485 0,0 -2.871,-2.076 -2.082,-5.488 0.945,-4.085 5.824,-6.243 5.824,-6.243 0,0 -2.918,2.941 -3.378,6.213 -0.461,3.272 2.114,5.285 2.114,5.285 0,0 -2.109,-2.401 0.082,-6.392 2.518,-4.585 8.084,-4.433 8.084,-4.433 0,0 -4.488,2.392 -5.172,5.326 -0.685,2.934 -0.966,4.929 2.413,4.693 3.378,-0.236 3.953,-4.298 3.953,-4.298 0,0 2.132,2.362 0.772,5.299 -1.36,2.936 -6.668,3.985 -6.668,3.985 0,0 -2.232,2.637 1.552,12.27 4.469,11.377 16.849,12.918 26.423,11.874 9.573,-1.045 3.704,3.823 3.704,3.823"
             id="path1212"
             style="fill:#814306;fill-opacity:1;fill-rule:evenodd;stroke:none" /></g><g
           transform="translate(252.6366,978.2327)"
           id="g1214"><path
             d="m 0,0 c -0.966,2.501 -0.221,0.591 -4.212,-0.279 -1.321,-0.289 -2.482,-0.613 -3.449,-0.917 -2.672,-0.335 -3.806,-0.526 -3.806,-0.526 0,0 0.758,-3.367 4.071,-3.997 0.82,-0.26 1.816,-0.334 3.018,-0.072 C 0.526,-4.721 0.718,-1.859 0,0 m -31.77,-0.279 c -3.991,0.87 -3.247,2.78 -4.212,0.279 -0.718,-1.859 -0.526,-4.721 4.378,-5.791 1.202,-0.262 2.198,-0.188 3.018,0.072 3.313,0.63 4.071,3.997 4.071,3.997 0,0 -1.134,0.191 -3.806,0.526 -0.968,0.304 -2.128,0.628 -3.449,0.917"
             id="path1216"
             style="fill:#814306;fill-opacity:1;fill-rule:evenodd;stroke:none" /></g><g
           transform="translate(235.8267,1049.7052)"
           id="g1218"><path
             d="m 0,0 c -23.032,0 -38.977,-36.811 -31.496,-59.055 7.48,-22.244 55.315,-20.473 62.992,0.787 C 39.173,-37.008 23.031,0 0,0"
             id="path1220"
             style="fill:#b7600a;fill-opacity:1;fill-rule:evenodd;stroke:none" /></g><g
           transform="translate(257.0866,1021.6536)"
           id="g1222"><path
             d="m 0,0 c 0,0.377 -0.05,0.748 -0.138,1.114 -0.283,-1.312 -1.009,-2.553 -2.093,-3.684 -0.12,-0.126 -0.245,-0.25 -0.375,-0.373 -0.074,-0.071 -0.147,-0.143 -0.224,-0.213 -0.188,-0.17 -0.386,-0.336 -0.59,-0.5 -0.089,-0.071 -0.181,-0.141 -0.273,-0.211 -0.168,-0.128 -0.34,-0.254 -0.518,-0.378 -0.083,-0.058 -0.165,-0.117 -0.25,-0.174 -0.227,-0.152 -0.464,-0.3 -0.706,-0.446 -0.098,-0.059 -0.198,-0.118 -0.299,-0.176 -0.235,-0.136 -0.476,-0.269 -0.723,-0.398 -0.084,-0.044 -0.169,-0.087 -0.254,-0.13 -0.251,-0.127 -0.509,-0.25 -0.771,-0.37 -0.103,-0.047 -0.206,-0.094 -0.31,-0.14 -0.306,-0.135 -0.618,-0.266 -0.939,-0.392 -0.07,-0.027 -0.143,-0.053 -0.214,-0.08 -0.281,-0.107 -0.567,-0.211 -0.859,-0.311 -0.1,-0.034 -0.199,-0.068 -0.301,-0.102 -0.346,-0.115 -0.699,-0.225 -1.059,-0.329 -0.082,-0.023 -0.166,-0.045 -0.248,-0.069 -0.315,-0.088 -0.634,-0.172 -0.958,-0.251 -0.092,-0.023 -0.183,-0.046 -0.275,-0.068 -0.383,-0.091 -0.772,-0.176 -1.166,-0.255 -0.092,-0.019 -0.185,-0.035 -0.277,-0.053 -0.352,-0.067 -0.708,-0.13 -1.068,-0.188 -0.076,-0.012 -0.151,-0.026 -0.227,-0.038 -0.414,-0.063 -0.835,-0.12 -1.259,-0.17 -0.1,-0.012 -0.201,-0.023 -0.302,-0.034 -0.396,-0.044 -0.795,-0.083 -1.199,-0.115 -0.049,-0.004 -0.097,-0.009 -0.146,-0.013 -0.441,-0.033 -0.888,-0.057 -1.337,-0.076 -0.107,-0.005 -0.214,-0.008 -0.322,-0.012 -0.457,-0.016 -0.918,-0.026 -1.383,-0.026 -0.465,0 -0.926,0.01 -1.383,0.026 -0.108,0.004 -0.215,0.007 -0.322,0.012 -0.449,0.019 -0.896,0.043 -1.337,0.076 -0.049,0.004 -0.097,0.009 -0.146,0.013 -0.404,0.032 -0.803,0.071 -1.199,0.115 -0.101,0.011 -0.202,0.022 -0.302,0.034 -0.424,0.05 -0.845,0.107 -1.259,0.17 -0.076,0.012 -0.151,0.026 -0.227,0.038 -0.36,0.058 -0.716,0.121 -1.068,0.188 -0.092,0.018 -0.185,0.034 -0.277,0.053 -0.394,0.079 -0.783,0.164 -1.166,0.255 -0.093,0.022 -0.183,0.045 -0.275,0.068 -0.324,0.079 -0.643,0.163 -0.958,0.251 -0.082,0.024 -0.166,0.046 -0.248,0.069 -0.36,0.104 -0.713,0.214 -1.059,0.329 -0.102,0.034 -0.201,0.068 -0.301,0.102 -0.292,0.1 -0.578,0.204 -0.859,0.311 -0.071,0.027 -0.144,0.053 -0.214,0.08 -0.321,0.126 -0.633,0.257 -0.939,0.392 -0.104,0.046 -0.207,0.093 -0.31,0.14 -0.262,0.12 -0.52,0.243 -0.771,0.37 -0.085,0.043 -0.17,0.086 -0.254,0.13 -0.247,0.129 -0.488,0.262 -0.723,0.398 -0.101,0.058 -0.201,0.117 -0.3,0.176 -0.241,0.146 -0.478,0.294 -0.705,0.446 -0.085,0.057 -0.167,0.116 -0.25,0.174 -0.178,0.124 -0.351,0.25 -0.518,0.378 -0.092,0.07 -0.184,0.14 -0.273,0.211 -0.204,0.164 -0.402,0.33 -0.59,0.5 -0.078,0.07 -0.15,0.142 -0.224,0.213 -0.13,0.123 -0.255,0.247 -0.376,0.373 -1.083,1.131 -1.809,2.372 -2.092,3.684 -0.088,-0.366 -0.138,-0.737 -0.138,-1.114 0,-1.305 0.549,-2.55 1.536,-3.69 -0.988,-2.509 -1.536,-5.248 -1.536,-8.121 0,-11.959 9.43,-21.654 21.063,-21.654 C -9.43,-33.465 0,-23.77 0,-11.811 0,-8.938 -0.548,-6.199 -1.536,-3.69 -0.549,-2.55 0,-1.305 0,0"
             id="path1224"
             style="fill:#142122;fill-opacity:1;fill-rule:evenodd;stroke:none" /></g><g
           transform="translate(244.535,1013.9341)"
           id="g1226"><path
             d="m 0,0 c -1.805,-0.418 -3.743,-0.706 -5.772,-0.844 0.002,-0.03 0.002,-0.059 0.005,-0.088 0.189,-1.986 1.645,-3.471 3.252,-3.318 1.607,0.153 2.757,1.887 2.568,3.872 C 0.04,-0.25 0.022,-0.124 0,0 m 2.996,-17.511 c -1.441,-0.727 -1.881,-2.76 -0.982,-4.54 0.105,-0.208 0.225,-0.402 0.354,-0.584 1.676,1.041 3.196,2.318 4.524,3.781 -0.981,1.388 -2.617,1.989 -3.896,1.343 M 9.595,3.812 C 9.518,3.963 9.432,4.105 9.342,4.242 8.004,3.124 6.296,2.14 4.303,1.338 4.327,1.284 4.349,1.23 4.376,1.177 c 0.899,-1.78 2.795,-2.633 4.237,-1.906 1.441,0.728 1.88,2.76 0.982,4.541 m -30.401,-21.716 c -1.059,0.534 -2.362,0.213 -3.336,-0.7 1.274,-1.449 2.739,-2.717 4.35,-3.77 0.852,1.763 0.408,3.752 -1.014,4.47 m 4.518,17.526 c -0.189,-1.985 0.96,-3.719 2.567,-3.872 1.607,-0.153 3.064,1.332 3.253,3.318 10e-4,0.014 10e-4,0.028 0.002,0.043 -2.029,0.097 -3.973,0.345 -5.793,0.722 -0.01,-0.07 -0.022,-0.139 -0.029,-0.211 m -4.375,1.462 c -2.012,0.745 -3.762,1.669 -5.166,2.73 0,-10e-4 -10e-4,-10e-4 -10e-4,-0.002 -0.899,-1.781 -0.459,-3.813 0.982,-4.541 1.415,-0.714 3.267,0.098 4.185,1.813"
             id="path1228"
             style="fill:#ffffff;fill-opacity:1;fill-rule:evenodd;stroke:none" /></g><g
           transform="translate(214.9606,1025.197)"
           id="g1230"><path
             d="m 0,0 c -1.74,0 -3.15,-1.41 -3.15,-3.15 0,-1.071 0.536,-2.015 1.353,-2.584 -0.356,0.51 -0.565,1.128 -0.565,1.797 0,1.739 1.41,3.149 3.149,3.149 0.669,0 1.288,-0.209 1.798,-0.564 C 2.016,-0.536 1.071,0 0,0 m 42.52,0 c -1.071,0 -2.016,-0.536 -2.585,-1.352 0.51,0.355 1.129,0.564 1.797,0.564 1.74,0 3.15,-1.41 3.15,-3.149 0,-0.669 -0.21,-1.287 -0.565,-1.797 0.817,0.569 1.352,1.513 1.352,2.584 0,1.74 -1.41,3.15 -3.149,3.15"
             id="path1232"
             style="fill:#142122;fill-opacity:1;fill-rule:evenodd;stroke:none" /></g><g
           transform="translate(250.3936,990.9451)"
           id="g1234"><path
             d="m 0,0 c -1.181,5.512 -5.709,9.449 -13.78,5.512 -11.417,4.33 -14.173,-3.15 -14.173,-3.15 0,0 2.616,-3.098 6.693,-3.937 0.959,-3.717 2.656,-10.562 10.63,-9.842 C -2.656,-10.698 1.181,-5.512 0,0"
             id="path1236"
             style="fill:#c11c1c;fill-opacity:1;fill-rule:evenodd;stroke:none" /></g><g
           transform="translate(260.3344,1067.7166)"
           id="g1238"><path
             d="m 0,0 c -4.457,0 -8.071,-3.613 -8.071,-8.071 0,-1.898 0.66,-3.639 1.756,-5.017 0.026,-1.584 -0.561,-3.493 -1.761,-5.273 -1.271,-1.884 -2.935,-3.196 -4.49,-3.711 l 4.908,-3.31 c -0.105,1.635 0.487,3.669 1.758,5.554 1.271,1.884 2.935,3.196 4.49,3.711 l -0.203,0.137 c 0.521,-0.106 1.061,-0.162 1.613,-0.162 4.457,0 8.071,3.614 8.071,8.071 C 8.071,-3.613 4.457,0 0,0 m -40.152,-17.967 c -0.963,1.429 -1.535,2.943 -1.71,4.305 1.185,1.404 1.901,3.216 1.901,5.197 0,4.458 -3.613,8.071 -8.07,8.071 -4.458,0 -8.071,-3.613 -8.071,-8.071 0,-4.457 3.613,-8.07 8.071,-8.07 0.794,0 1.561,0.119 2.286,0.333 1.219,-0.669 2.436,-1.777 3.417,-3.233 1.271,-1.884 1.863,-3.918 1.758,-5.554 l 4.908,3.311 c -1.555,0.515 -3.219,1.826 -4.49,3.711 m 15.886,30.172 c -5.26,0 -9.523,-4.275 -9.523,-9.549 0,-4.327 2.871,-7.98 6.807,-9.152 0.934,-1.521 1.516,-3.638 1.516,-5.986 0,-2.689 -0.763,-5.076 -1.944,-6.611 l 6.986,0 c -1.182,1.535 -1.945,3.922 -1.945,6.611 0,2.526 0.679,4.776 1.739,6.312 3.456,1.433 5.888,4.844 5.888,8.826 0,5.274 -4.264,9.549 -9.524,9.549"
             id="path1240"
             style="fill:#b7600a;fill-opacity:1;fill-rule:evenodd;stroke:none" /></g><g
           transform="translate(212.5983,1064.9607)"
           id="g1242"><path
             d="m 0,0 c -3.261,0 -5.906,-2.644 -5.906,-5.906 0,-3.261 2.645,-5.905 5.906,-5.905 3.262,0 5.906,2.644 5.906,5.905 C 5.906,-2.644 3.262,0 0,0 m 48.032,0.394 c -3.262,0 -5.906,-2.644 -5.906,-5.906 0,-3.261 2.644,-5.905 5.906,-5.905 3.261,0 5.905,2.644 5.905,5.905 0,3.262 -2.644,5.906 -5.905,5.906 M 23.425,12.598 c -3.805,0 -6.889,-3.084 -6.889,-6.889 0,-3.805 3.084,-6.89 6.889,-6.89 3.805,0 6.89,3.085 6.89,6.89 0,3.805 -3.085,6.889 -6.89,6.889 m -9.739,-16.32 c -1.856,0 -3.361,-1.522 -3.361,-3.4 0,-1.878 1.505,-3.4 3.361,-3.4 1.856,0 3.36,1.522 3.36,3.4 0,1.878 -1.504,3.4 -3.36,3.4 m 20.472,0 c -1.856,0 -3.361,-1.522 -3.361,-3.4 0,-1.878 1.505,-3.4 3.361,-3.4 1.856,0 3.361,1.522 3.361,3.4 0,1.878 -1.505,3.4 -3.361,3.4"
             id="path1244"
             style="fill:#ffffff;fill-opacity:1;fill-rule:evenodd;stroke:none" /></g><g
           transform="translate(215.1574,1060.6301)"
           id="g1246"><path
             d="m 0,0 c -1.196,0 -2.165,-1.146 -2.165,-2.559 0,-1.414 0.969,-2.559 2.165,-2.559 1.196,0 2.165,1.145 2.165,2.559 C 2.165,-1.146 1.196,0 0,0 m 48.031,0.394 c -1.195,0 -2.165,-1.146 -2.165,-2.559 0,-1.414 0.97,-2.559 2.165,-2.559 1.196,0 2.166,1.145 2.166,2.559 0,1.413 -0.97,2.559 -2.166,2.559 M 23.852,11.877 c -1.395,0 -2.526,-1.337 -2.526,-2.986 0,-1.649 1.131,-2.986 2.526,-2.986 1.395,0 2.526,1.337 2.526,2.986 0,1.649 -1.131,2.986 -2.526,2.986 M 12.583,-1.885 c -0.681,0 -1.232,-0.659 -1.232,-1.473 0,-0.814 0.551,-1.473 1.232,-1.473 0.68,0 1.232,0.659 1.232,1.473 0,0.814 -0.552,1.473 -1.232,1.473 m 20.472,0 c -0.68,0 -1.232,-0.659 -1.232,-1.473 0,-0.814 0.552,-1.473 1.232,-1.473 0.681,0 1.232,0.659 1.232,1.473 0,0.814 -0.551,1.473 -1.232,1.473"
             id="path1248"
             style="fill:#142122;fill-opacity:1;fill-rule:evenodd;stroke:none" /></g></g></g></g></svg>
