<?xml version="1.0" encoding="UTF-8" standalone="no"?>
<!-- Created with Inkscape (http://www.inkscape.org/) -->

<svg
  xmlns:dc="http://purl.org/dc/elements/1.1/"
  xmlns:cc="http://creativecommons.org/ns#"
  xmlns:rdf="http://www.w3.org/1999/02/22-rdf-syntax-ns#"
  xmlns="http://www.w3.org/2000/svg"
  version="1.1"
  width="207.50586"
  height="158.95613"
  id="svg2"
  xml:space="preserve"><metadata
     id="metadata8"><rdf:RDF><cc:Work
         rdf:about=""><dc:format>image/svg+xml</dc:format><dc:type
           rdf:resource="http://purl.org/dc/dcmitype/StillImage" /><dc:title></dc:title></cc:Work></rdf:RDF></metadata><defs
     id="defs6"><clipPath
       id="clipPath16"><path
         d="m 0,2204.724 787.402,0 L 787.402,0 0,0 0,2204.724 z"
         id="path18" /></clipPath><clipPath
       id="clipPath24"><path
         d="M 3.05176e-5,2204.72 787.402,2204.72 787.402,0 3.05176e-5,0 l 0,2204.72 z"
         id="path26" /></clipPath><clipPath
       id="clipPath38"><path
         d="m 0,2204.724 787.402,0 L 787.402,0 0,0 0,2204.724 z"
         id="path40" /></clipPath><clipPath
       id="clipPath46"><path
         d="m 366.535,64.5675 55.906,0 0,-17.3229 -55.906,0 0,17.3229 z"
         id="path48" /></clipPath><clipPath
       id="clipPath110"><path
         d="m 0,2204.724 787.402,0 L 787.402,0 0,0 0,2204.724 z"
         id="path112" /></clipPath><clipPath
       id="clipPath118"><path
         d="m 522.047,210.237 55.905,0 0,-17.323 -55.905,0 0,17.323 z"
         id="path120" /></clipPath><clipPath
       id="clipPath178"><path
         d="m 0,2204.724 787.402,0 L 787.402,0 0,0 0,2204.724 z"
         id="path180" /></clipPath><clipPath
       id="clipPath186"><path
         d="m 366.142,210.237 55.905,0 0,-17.323 -55.905,0 0,17.323 z"
         id="path188" /></clipPath><clipPath
       id="clipPath246"><path
         d="m 0,2204.724 787.402,0 L 787.402,0 0,0 0,2204.724 z"
         id="path248" /></clipPath><clipPath
       id="clipPath254"><path
         d="m 208.59,210.359 55.906,0 0,-17.323 -55.906,0 0,17.323 z"
         id="path256" /></clipPath><clipPath
       id="clipPath318"><path
         d="m 0,2204.724 787.402,0 L 787.402,0 0,0 0,2204.724 z"
         id="path320" /></clipPath><clipPath
       id="clipPath326"><path
         d="m 516.535,359.843 67.323,0 0,-20.866 -67.323,0 0,20.866 z"
         id="path328" /></clipPath><clipPath
       id="clipPath386"><path
         d="m 0,2204.724 787.402,0 L 787.402,0 0,0 0,2204.724 z"
         id="path388" /></clipPath><clipPath
       id="clipPath394"><path
         d="m 364.567,367.717 55.905,0 0,-17.323 -55.905,0 0,17.323 z"
         id="path396" /></clipPath><clipPath
       id="clipPath450"><path
         d="m 0,2204.724 787.402,0 L 787.402,0 0,0 0,2204.724 z"
         id="path452" /></clipPath><clipPath
       id="clipPath458"><path
         d="m 208.267,360.63 55.906,0 0,-17.323 -55.906,0 0,17.323 z"
         id="path460" /></clipPath><clipPath
       id="clipPath510"><path
         d="m 0,2204.724 787.402,0 L 787.402,0 0,0 0,2204.724 z"
         id="path512" /></clipPath><clipPath
       id="clipPath518"><path
         d="m 521.26,520.473 55.905,0 0,-17.323 -55.905,0 0,17.323 z"
         id="path520" /></clipPath><clipPath
       id="clipPath574"><path
         d="m 0,2204.724 787.402,0 L 787.402,0 0,0 0,2204.724 z"
         id="path576" /></clipPath><clipPath
       id="clipPath582"><path
         d="m 366.142,510.237 55.905,0 0,-17.323 -55.905,0 0,17.323 z"
         id="path584" /></clipPath><clipPath
       id="clipPath638"><path
         d="m 0,2204.724 787.402,0 L 787.402,0 0,0 0,2204.724 z"
         id="path640" /></clipPath><clipPath
       id="clipPath646"><path
         d="m 207.874,522.048 55.905,0 0,-17.323 -55.905,0 0,17.323 z"
         id="path648" /></clipPath><clipPath
       id="clipPath694"><path
         d="m 0,2204.724 787.402,0 L 787.402,0 0,0 0,2204.724 z"
         id="path696" /></clipPath><clipPath
       id="clipPath702"><path
         d="m 523.622,677.56 55.905,0 0,-17.323 -55.905,0 0,17.323 z"
         id="path704" /></clipPath><clipPath
       id="clipPath754"><path
         d="m 0,2204.724 787.402,0 L 787.402,0 0,0 0,2204.724 z"
         id="path756" /></clipPath><clipPath
       id="clipPath762"><path
         d="m 364.566,682.678 55.906,0 0,-17.323 -55.906,0 0,17.323 z"
         id="path764" /></clipPath><clipPath
       id="clipPath814"><path
         d="m 0,2204.724 787.402,0 L 787.402,0 0,0 0,2204.724 z"
         id="path816" /></clipPath><clipPath
       id="clipPath822"><path
         d="m 181.89,704.725 109.449,0 0,-39.764 -109.449,0 0,39.764 z"
         id="path824" /></clipPath><clipPath
       id="clipPath862"><path
         d="m 0,2204.724 787.402,0 L 787.402,0 0,0 0,2204.724 z"
         id="path864" /></clipPath><clipPath
       id="clipPath870"><path
         d="m 522.047,837.796 55.905,0 0,-17.323 -55.905,0 0,17.323 z"
         id="path872" /></clipPath><clipPath
       id="clipPath930"><path
         d="m 0,2204.724 787.402,0 L 787.402,0 0,0 0,2204.724 z"
         id="path932" /></clipPath><clipPath
       id="clipPath938"><path
         d="m 363.779,833.072 55.906,0 0,-17.323 -55.906,0 0,17.323 z"
         id="path940" /></clipPath><clipPath
       id="clipPath982"><path
         d="m 0,2204.724 787.402,0 L 787.402,0 0,0 0,2204.724 z"
         id="path984" /></clipPath><clipPath
       id="clipPath994"><path
         d="m 221.259,837.796 55.906,0 0,-17.323 -55.906,0 0,17.323 z"
         id="path996" /></clipPath><clipPath
       id="clipPath1038"><path
         d="m 0,2204.724 787.402,0 L 787.402,0 0,0 0,2204.724 z"
         id="path1040" /></clipPath><clipPath
       id="clipPath1046"><path
         d="m 522.047,991.339 55.905,0 0,-17.323 -55.905,0 0,17.323 z"
         id="path1048" /></clipPath><clipPath
       id="clipPath1094"><path
         d="m 0,2204.724 787.402,0 L 787.402,0 0,0 0,2204.724 z"
         id="path1096" /></clipPath><clipPath
       id="clipPath1102"><path
         d="m 365.354,977.166 55.906,0 0,-17.323 -55.906,0 0,17.323 z"
         id="path1104" /></clipPath><clipPath
       id="clipPath1186"><path
         d="m 0,2204.724 787.402,0 L 787.402,0 0,0 0,2204.724 z"
         id="path1188" /></clipPath><clipPath
       id="clipPath1194"><path
         d="m 208.267,984.252 55.906,0 0,-17.322 -55.906,0 0,17.322 z"
         id="path1196" /></clipPath><clipPath
       id="clipPath1254"><path
         d="m 0,2204.724 787.402,0 L 787.402,0 0,0 0,2204.724 z"
         id="path1256" /></clipPath><clipPath
       id="clipPath1262"><path
         d="m 523.622,1150.39 55.905,0 0,-17.32 -55.905,0 0,17.32 z"
         id="path1264" /></clipPath><clipPath
       id="clipPath1322"><path
         d="m 0,2204.724 787.402,0 L 787.402,0 0,0 0,2204.724 z"
         id="path1324" /></clipPath><clipPath
       id="clipPath1330"><path
         d="m 365.748,1145.67 55.905,0 0,-17.32 -55.905,0 0,17.32 z"
         id="path1332" /></clipPath><clipPath
       id="clipPath1374"><path
         d="m 0,2204.724 787.402,0 L 787.402,0 0,0 0,2204.724 z"
         id="path1376" /></clipPath><clipPath
       id="clipPath1382"><path
         d="m 207.874,1149.21 55.905,0 0,-17.32 -55.905,0 0,17.32 z"
         id="path1384" /></clipPath><clipPath
       id="clipPath1430"><path
         d="m 0,2204.724 787.402,0 L 787.402,0 0,0 0,2204.724 z"
         id="path1432" /></clipPath><clipPath
       id="clipPath1438"><path
         d="m 518.504,1309.45 55.905,0 0,-17.32 -55.905,0 0,17.32 z"
         id="path1440" /></clipPath><clipPath
       id="clipPath1502"><path
         d="m 0,2204.724 787.402,0 L 787.402,0 0,0 0,2204.724 z"
         id="path1504" /></clipPath><clipPath
       id="clipPath1510"><path
         d="m 364.567,1295.28 55.905,0 0,-17.33 -55.905,0 0,17.33 z"
         id="path1512" /></clipPath><clipPath
       id="clipPath1578"><path
         d="m 0,2204.724 787.402,0 L 787.402,0 0,0 0,2204.724 z"
         id="path1580" /></clipPath><clipPath
       id="clipPath1586"><path
         d="m 209.448,1307.48 55.906,0 0,-17.32 -55.906,0 0,17.32 z"
         id="path1588" /></clipPath><clipPath
       id="clipPath1642"><path
         d="m 0,2204.724 787.402,0 L 787.402,0 0,0 0,2204.724 z"
         id="path1644" /></clipPath><clipPath
       id="clipPath1650"><path
         d="m 500,1467.32 107.087,0 0,-33.07 -107.087,0 0,33.07 z"
         id="path1652" /></clipPath><clipPath
       id="clipPath1706"><path
         d="m 0,2204.724 787.402,0 L 787.402,0 0,0 0,2204.724 z"
         id="path1708" /></clipPath><clipPath
       id="clipPath1714"><path
         d="m 366.141,1468.5 55.906,0 0,-17.32 -55.906,0 0,17.32 z"
         id="path1716" /></clipPath><clipPath
       id="clipPath1734"><path
         d="m 0,2204.724 787.402,0 L 787.402,0 0,0 0,2204.724 z"
         id="path1736" /></clipPath><clipPath
       id="clipPath1774"><path
         d="m 0,2204.724 787.402,0 L 787.402,0 0,0 0,2204.724 z"
         id="path1776" /></clipPath><clipPath
       id="clipPath1782"><path
         d="m 207.48,1468.5 55.905,0 0,-17.32 -55.905,0 0,17.32 z"
         id="path1784" /></clipPath><clipPath
       id="clipPath1838"><path
         d="m 0,2204.724 787.402,0 L 787.402,0 0,0 0,2204.724 z"
         id="path1840" /></clipPath><clipPath
       id="clipPath1846"><path
         d="m 522.047,1619.69 55.905,0 0,-17.33 -55.905,0 0,17.33 z"
         id="path1848" /></clipPath><clipPath
       id="clipPath1890"><path
         d="m 0,2204.724 787.402,0 L 787.402,0 0,0 0,2204.724 z"
         id="path1892" /></clipPath><clipPath
       id="clipPath1898"><path
         d="m 366.535,1618.9 55.906,0 0,-17.32 -55.906,0 0,17.32 z"
         id="path1900" /></clipPath><clipPath
       id="clipPath1954"><path
         d="m 0,2204.724 787.402,0 L 787.402,0 0,0 0,2204.724 z"
         id="path1956" /></clipPath><clipPath
       id="clipPath1962"><path
         d="m 207.874,1624.41 55.905,0 0,-17.32 -55.905,0 0,17.32 z"
         id="path1964" /></clipPath><clipPath
       id="clipPath2026"><path
         d="m 0,2204.724 787.402,0 L 787.402,0 0,0 0,2204.724 z"
         id="path2028" /></clipPath><clipPath
       id="clipPath2034"><path
         d="m 520.078,1779.92 55.906,0 0,-17.32 -55.906,0 0,17.32 z"
         id="path2036" /></clipPath><clipPath
       id="clipPath2090"><path
         d="m 0,2204.724 787.402,0 L 787.402,0 0,0 0,2204.724 z"
         id="path2092" /></clipPath><clipPath
       id="clipPath2098"><path
         d="m 368.11,1781.89 55.905,0 0,-17.32 -55.905,0 0,17.32 z"
         id="path2100" /></clipPath><clipPath
       id="clipPath2158"><path
         d="m 0,2204.724 787.402,0 L 787.402,0 0,0 0,2204.724 z"
         id="path2160" /></clipPath><clipPath
       id="clipPath2166"><path
         d="m 207.874,1775.59 55.905,0 0,-17.32 -55.905,0 0,17.32 z"
         id="path2168" /></clipPath><clipPath
       id="clipPath2226"><path
         d="m 0,2204.724 787.402,0 L 787.402,0 0,0 0,2204.724 z"
         id="path2228" /></clipPath><clipPath
       id="clipPath2234"><path
         d="m 521.26,1928.35 55.905,0 0,-17.33 -55.905,0 0,17.33 z"
         id="path2236" /></clipPath><clipPath
       id="clipPath2294"><path
         d="m 0,2204.724 787.402,0 L 787.402,0 0,0 0,2204.724 z"
         id="path2296" /></clipPath><clipPath
       id="clipPath2302"><path
         d="m 366.535,1940.16 55.905,0 0,-17.33 -55.905,0 0,17.33 z"
         id="path2304" /></clipPath><clipPath
       id="clipPath2358"><path
         d="m 0,2204.724 787.402,0 L 787.402,0 0,0 0,2204.724 z"
         id="path2360" /></clipPath><clipPath
       id="clipPath2366"><path
         d="m 204.33,1922.84 55.906,0 0,-17.33 -55.906,0 0,17.33 z"
         id="path2368" /></clipPath><clipPath
       id="clipPath2418"><path
         d="m 0,2204.724 787.402,0 L 787.402,0 0,0 0,2204.724 z"
         id="path2420" /></clipPath><clipPath
       id="clipPath2426"><path
         d="m 522.44,2090.16 55.906,0 0,-17.33 -55.906,0 0,17.33 z"
         id="path2428" /></clipPath><clipPath
       id="clipPath2478"><path
         d="m 0,2204.724 787.402,0 L 787.402,0 0,0 0,2204.724 z"
         id="path2480" /></clipPath><clipPath
       id="clipPath2486"><path
         d="m 364.566,2100.79 55.906,0 0,-17.33 -55.906,0 0,17.33 z"
         id="path2488" /></clipPath><clipPath
       id="clipPath2526"><path
         d="m 0,2204.724 787.402,0 L 787.402,0 0,0 0,2204.724 z"
         id="path2528" /></clipPath><clipPath
       id="clipPath2534"><path
         d="m 207.086,2088.98 55.906,0 0,-17.33 -55.906,0 0,17.33 z"
         id="path2536" /></clipPath></defs><g
     transform="matrix(1.25,0,0,-1.25,-377.58432,1358.7599)"
     id="g10"><g
       id="g1090"><g
         clip-path="url(#clipPath1094)"
         id="g1092"><g
           id="g1098"><g
             id="g1100" /><g
             id="g1106"><g
               clip-path="url(#clipPath1102)"
               id="g1108"
               style="opacity:0.19999701"><g
                 transform="translate(393.3068,977.1659)"
                 id="g1110"><path
                   d="m 0,0 c -15.438,0 -27.953,-3.878 -27.953,-8.661 0,-4.784 12.515,-8.662 27.953,-8.662 15.438,0 27.953,3.878 27.953,8.662 C 27.953,-3.878 15.438,0 0,0"
                   id="path1112"
                   style="fill:#000000;fill-opacity:1;fill-rule:evenodd;stroke:none" /></g></g></g></g><g
           transform="translate(376.9026,1001.2198)"
           id="g1114"><path
             d="m 0,0 c -0.268,1.815 -0.743,4.083 -0.743,4.083 -0.718,2.436 -2.246,4.283 -4.042,5.379 -1.8,1.093 -3.894,1.49 -5.888,0.976 -1.994,-0.513 -3.487,-1.91 -4.289,-3.709 -0.806,-1.798 -0.941,-3.943 -0.345,-5.973 0,0 2.817,-3.28 1.991,-9.689 -0.128,-1.011 -0.453,-1.796 -1.047,-2.418 -0.23,-0.237 -0.924,-0.782 -0.896,-0.761 -0.2,-0.147 -0.465,-0.227 -0.752,-0.247 -0.88,-0.032 -1.88,0.959 -1.723,0.814 -0.322,0.265 -0.657,0.574 -0.99,0.916 -1.345,1.366 -2.637,3.167 -3.812,5.001 -0.995,1.568 -2.061,3.371 -3.158,5.324 -3.673,6.662 -4.884,8.34 -8.632,10.276 -1.719,0.888 -3.672,1.444 -5.599,1.619 -1.932,0.182 -3.811,-0.021 -5.52,-0.444 -0.283,-0.071 -0.554,-0.157 -0.828,-0.24 l 1.745,-6.979 c 1.403,0.351 2.846,0.388 3.995,0.009 0.975,-0.31 2.524,-0.658 4.502,-5.273 0.048,-0.112 2.663,-5.918 4.053,-8.398 1.181,-2.095 2.48,-4.276 4.262,-6.514 0.913,-1.124 1.91,-2.24 3.331,-3.385 0,0 2.608,-2.222 5.736,-2.866 2.452,-0.634 4.732,-0.277 4.981,-0.234 0,0 2.153,0.238 4.705,1.468 0.91,0.451 1.662,0.891 2.417,1.413 1.494,1.029 2.808,2.32 3.795,3.696 0.995,1.376 1.673,2.81 2.131,4.159 0.461,1.353 0.712,2.631 0.849,3.801 C 0.288,-7.712 0.303,-2.128 0,0"
             id="path1116"
             style="fill:#febc1e;fill-opacity:1;fill-rule:evenodd;stroke:none" /></g><g
           transform="translate(337.446,994.9717)"
           id="g1118"><path
             d="m 0,0 -15.998,59.705 c -0.281,1.05 -1.361,1.673 -2.411,1.392 l -0.38,-0.102 c -1.05,-0.282 -1.673,-1.361 -1.392,-2.411 L -4.183,-1.121 c 0.281,-1.05 1.361,-1.673 2.411,-1.392 l 0.38,0.102 C -0.342,-2.13 0.281,-1.05 0,0"
             id="path1120"
             style="fill:#bb722b;fill-opacity:1;fill-rule:evenodd;stroke:none" /></g><g
           transform="translate(343.1809,1034.4139)"
           id="g1122"><path
             d="m 0,0 -6.114,22.817 c -0.056,0.21 -0.272,0.335 -0.482,0.279 l -34.226,-9.171 c -0.21,-0.056 -0.334,-0.272 -0.278,-0.482 l 6.114,-22.818 c 0.056,-0.209 0.272,-0.334 0.482,-0.278 l 34.226,9.171 C -0.068,-0.426 0.056,-0.21 0,0"
             id="path1124"
             style="fill:#ffd9b3;fill-opacity:1;fill-rule:evenodd;stroke:none" /></g><g
           transform="translate(334.6456,1014.567)"
           id="g1126"><path
             d="m 0,0 c -0.104,0.115 -0.222,0.219 -0.35,0.312 0.349,1.35 0.365,2.739 -0.437,3.625 -1.421,1.567 -5.184,1.086 -6.877,-0.438 L -8.204,5.3 c 0,0 -3.383,-2.158 -6.045,-1.007 -2.663,1.151 -1.85,6.731 -4.031,6.042 -1.367,-0.431 -1.799,-7.049 2.519,-10.07 2.541,-1.778 5.225,-1.461 7.009,-0.901 0.096,-1.184 0.386,-2.325 0.753,-3.035 -0.021,-2.001 0.616,-4.175 1.306,-4.597 1.105,-0.675 4.443,-0.225 5.512,1.181 C -0.112,-5.681 1.631,-1.8 0,0"
             id="path1128"
             style="fill:#febc1e;fill-opacity:1;fill-rule:evenodd;stroke:none" /></g><g
           transform="translate(338.9207,1038.6771)"
           id="g1130"><path
             d="M 0,0 C -0.086,0.304 -0.218,0.588 -0.396,0.851 -0.574,1.113 -0.805,1.327 -1.089,1.491 -1.373,1.655 -1.654,1.776 -1.932,1.855 -2.21,1.934 -2.473,1.988 -2.721,2.016 -2.969,2.045 -3.194,2.053 -3.398,2.04 -3.601,2.027 -3.776,2.013 -3.921,1.999 -4.206,1.981 -4.438,2.01 -4.615,2.087 c -0.178,0.076 -0.257,0.245 -0.236,0.508 0.014,0.194 0.115,0.318 0.304,0.373 0.188,0.055 0.399,0.064 0.632,0.027 0.121,-0.017 0.245,-0.047 0.372,-0.087 0.126,-0.041 0.241,-0.08 0.342,-0.119 0.121,-0.051 0.243,-0.101 0.364,-0.151 l 0.451,1.748 C -2.828,4.549 -3.269,4.65 -3.71,4.69 -3.897,4.706 -4.093,4.711 -4.298,4.706 -4.504,4.7 -4.708,4.675 -4.911,4.629 -5.114,4.582 -5.313,4.513 -5.507,4.419 -5.702,4.326 -5.882,4.203 -6.048,4.051 -6.387,3.736 -6.624,3.408 -6.76,3.065 -6.896,2.722 -6.959,2.386 -6.949,2.057 -6.94,1.729 -6.873,1.424 -6.748,1.142 -6.623,0.861 -6.469,0.629 -6.288,0.446 -6.092,0.241 -5.83,0.096 -5.5,0.011 c 0.329,-0.086 0.666,-0.138 1.011,-0.158 0.345,-0.019 0.67,-0.021 0.977,-0.005 0.306,0.015 0.533,0.027 0.68,0.033 0.297,0.005 0.496,-0.06 0.599,-0.194 0.102,-0.134 0.142,-0.283 0.119,-0.446 -0.02,-0.171 -0.163,-0.303 -0.428,-0.394 -0.266,-0.092 -0.638,-0.14 -1.117,-0.144 -0.241,10e-4 -0.465,0.02 -0.673,0.055 -0.208,0.036 -0.39,0.078 -0.544,0.128 -0.179,0.051 -0.349,0.113 -0.509,0.187 l 0.441,-2.715 c 0.177,-0.043 0.377,-0.077 0.598,-0.1 0.197,-0.022 0.432,-0.034 0.705,-0.035 0.274,-10e-4 0.589,0.013 0.946,0.042 0.428,0.04 0.801,0.124 1.119,0.25 0.318,0.127 0.587,0.282 0.807,0.465 0.22,0.183 0.398,0.386 0.533,0.609 0.135,0.222 0.233,0.453 0.293,0.693 0.062,0.232 0.089,0.5 0.082,0.805 C 0.132,-0.609 0.086,-0.304 0,0 m -6.561,0.074 -3.762,-0.933 0.386,-1.35 1.114,0.249 c -10e-4,-0.183 -0.042,-0.355 -0.122,-0.518 -0.072,-0.135 -0.182,-0.274 -0.33,-0.417 -0.148,-0.143 -0.362,-0.248 -0.642,-0.315 -0.209,-0.056 -0.414,-0.072 -0.615,-0.047 -0.201,0.025 -0.392,0.096 -0.572,0.213 -0.181,0.117 -0.347,0.282 -0.499,0.494 -0.152,0.212 -0.277,0.483 -0.373,0.813 -0.202,0.658 -0.254,1.207 -0.156,1.648 0.097,0.44 0.345,0.751 0.744,0.932 0.2,0.087 0.385,0.122 0.555,0.106 0.17,-0.017 0.327,-0.062 0.471,-0.135 0.144,-0.073 0.269,-0.16 0.374,-0.26 0.106,-0.1 0.189,-0.188 0.251,-0.262 l 2.062,1.67 c -0.139,0.145 -0.296,0.285 -0.473,0.42 -0.148,0.118 -0.325,0.24 -0.533,0.367 -0.208,0.126 -0.44,0.234 -0.695,0.323 -0.246,0.083 -0.533,0.134 -0.862,0.154 -0.328,0.02 -0.67,-10e-4 -1.026,-0.064 -0.356,-0.062 -0.713,-0.176 -1.07,-0.342 -0.357,-0.166 -0.685,-0.389 -0.983,-0.667 -0.609,-0.57 -0.981,-1.301 -1.114,-2.194 -0.134,-0.892 0.011,-1.895 0.433,-3.008 0.213,-0.547 0.481,-1.014 0.804,-1.4 0.323,-0.385 0.685,-0.686 1.086,-0.901 0.402,-0.216 0.83,-0.347 1.286,-0.395 0.456,-0.047 0.923,-0.007 1.403,0.121 0.517,0.139 0.948,0.308 1.292,0.508 0.344,0.2 0.63,0.424 0.858,0.671 0.227,0.247 0.405,0.512 0.532,0.795 0.127,0.283 0.231,0.567 0.312,0.854 0.097,0.316 0.146,0.645 0.145,0.989 -10e-4,0.343 -0.022,0.654 -0.064,0.933 -0.054,0.325 -0.126,0.641 -0.217,0.948 m -7.73,-3.326 c -0.06,0.224 -0.132,0.476 -0.215,0.757 -0.084,0.279 -0.172,0.577 -0.264,0.891 -0.093,0.315 -0.186,0.63 -0.278,0.945 -0.22,0.728 -0.454,1.51 -0.703,2.346 l -2.726,-0.954 c 0.264,-0.923 0.503,-1.754 0.717,-2.492 0.093,-0.314 0.182,-0.624 0.267,-0.928 0.086,-0.304 0.165,-0.577 0.238,-0.818 0.073,-0.242 0.132,-0.439 0.178,-0.593 0.045,-0.153 0.07,-0.238 0.074,-0.253 0.01,-0.039 0.024,-0.107 0.043,-0.206 0.018,-0.099 0.019,-0.206 0.005,-0.322 -0.015,-0.115 -0.059,-0.229 -0.133,-0.339 -0.073,-0.111 -0.195,-0.189 -0.365,-0.235 -0.178,-0.048 -0.328,-0.047 -0.449,0.004 -0.121,0.05 -0.218,0.121 -0.293,0.213 -0.074,0.092 -0.131,0.189 -0.171,0.29 -0.039,0.101 -0.064,0.171 -0.074,0.21 -0.005,0.015 -0.035,0.104 -0.091,0.268 -0.056,0.163 -0.124,0.372 -0.205,0.628 -0.081,0.255 -0.175,0.543 -0.281,0.862 -0.107,0.32 -0.213,0.647 -0.319,0.983 -0.25,0.778 -0.536,1.658 -0.857,2.641 l -2.862,-1.003 c 0.294,-0.882 0.57,-1.695 0.827,-2.437 0.11,-0.319 0.22,-0.637 0.33,-0.955 0.11,-0.319 0.215,-0.616 0.314,-0.892 0.098,-0.276 0.187,-0.521 0.265,-0.736 0.079,-0.215 0.14,-0.375 0.184,-0.479 0.221,-0.512 0.492,-0.914 0.814,-1.204 0.322,-0.291 0.672,-0.493 1.051,-0.607 0.378,-0.114 0.772,-0.161 1.181,-0.143 0.409,0.019 0.811,0.081 1.205,0.186 0.742,0.199 1.314,0.46 1.716,0.783 0.402,0.323 0.689,0.665 0.862,1.026 0.172,0.361 0.257,0.723 0.255,1.087 -0.002,0.364 -0.036,0.682 -0.101,0.955 -0.033,0.123 -0.079,0.297 -0.139,0.521 m -11.74,2.271 0.714,-2.666 -1.898,-0.521 -0.776,2.712 -2.482,-0.752 2.416,-8.273 2.353,0.631 -0.897,3.623 1.649,0.479 1.068,-3.615 2.764,0.766 -2.291,8.318 -2.62,-0.702 z m 21.355,7.118 -0.64,2.437 -2.786,-0.684 -0.375,1.353 1.875,0.515 -0.405,1.556 -1.965,-0.502 -0.349,1.211 2.567,0.663 -0.52,1.712 -4.945,-1.437 2.276,-8.26 5.267,1.436 z m -16.683,2.499 c 0.231,0.004 0.455,-0.046 0.674,-0.149 0.218,-0.103 0.37,-0.316 0.457,-0.641 0.098,-0.363 0.083,-0.663 -0.044,-0.9 -0.127,-0.237 -0.285,-0.422 -0.473,-0.555 -0.222,-0.159 -0.489,-0.277 -0.8,-0.352 l -0.669,2.405 c 0.298,0.122 0.584,0.186 0.855,0.192 m 1.041,-6.666 -0.63,2.304 c 0.127,0.05 0.255,0.106 0.384,0.165 0.129,0.059 0.26,0.119 0.393,0.18 l 2.258,-2.352 2.29,1.409 0.128,-0.463 5.267,1.436 -0.64,2.437 -2.786,-0.684 -0.375,1.353 1.874,0.515 -0.404,1.556 -1.965,-0.501 -0.35,1.21 2.568,0.664 -0.52,1.711 -4.945,-1.437 2.131,-7.734 -2.765,2.173 c 0.089,0.098 0.175,0.204 0.257,0.317 0.081,0.113 0.146,0.234 0.194,0.363 0.116,0.279 0.178,0.581 0.186,0.907 0.008,0.325 -0.034,0.649 -0.124,0.973 -0.091,0.323 -0.229,0.63 -0.415,0.92 -0.185,0.29 -0.409,0.54 -0.673,0.751 -0.267,0.194 -0.548,0.323 -0.843,0.389 -0.296,0.066 -0.587,0.096 -0.875,0.089 -0.288,-0.007 -0.56,-0.036 -0.815,-0.088 -0.255,-0.052 -0.472,-0.102 -0.65,-0.149 l -2.897,-0.777 2.253,-8.316 2.489,0.679 z m -5.27,-1.337 -0.956,3.756 1.74,0.554 -0.477,1.686 -1.785,-0.479 -0.281,0.956 2.446,0.656 -0.464,1.776 -4.948,-1.376 2.281,-8.234 2.444,0.705 z"
             id="path1132"
             style="fill:#9e203d;fill-opacity:1;fill-rule:evenodd;stroke:none" /></g><g
           transform="translate(466.4555,1004.5438)"
           id="g1134"><path
             d="m 0,0 c -1.229,2.238 -3.105,4.29 -5.879,5.947 -1.368,0.792 -2.921,1.447 -4.633,1.876 -1.708,0.423 -3.588,0.625 -5.52,0.444 -1.926,-0.175 -3.88,-0.731 -5.598,-1.619 -3.748,-1.936 -4.96,-3.614 -8.632,-10.276 -1.098,-1.953 -2.164,-3.756 -3.159,-5.324 -1.175,-1.834 -2.466,-3.635 -3.812,-5.001 -0.333,-0.342 -0.667,-0.651 -0.99,-0.916 0.158,0.145 -0.843,-0.846 -1.723,-0.814 -0.287,0.02 -0.551,0.1 -0.752,0.247 0.028,-0.021 -0.665,0.524 -0.895,0.761 -0.595,0.622 -0.92,1.407 -1.047,2.418 -0.827,6.409 1.99,9.689 1.99,9.689 0.597,2.03 0.462,4.175 -0.344,5.973 -0.802,1.799 -2.295,3.196 -4.289,3.709 -1.995,0.514 -4.088,0.117 -5.889,-0.976 -1.796,-1.096 -3.324,-2.943 -4.042,-5.379 0,0 -0.475,-2.268 -0.743,-4.083 -0.303,-2.128 -0.288,-7.712 -0.229,-8.196 0.137,-1.17 0.388,-2.448 0.849,-3.802 0.458,-1.348 1.137,-2.782 2.131,-4.158 0.988,-1.376 2.302,-2.667 3.795,-3.696 0.755,-0.522 1.508,-0.962 2.417,-1.413 2.553,-1.23 4.705,-1.468 4.705,-1.468 0.249,-0.043 2.529,-0.4 4.982,0.234 3.127,0.644 5.736,2.866 5.736,2.866 1.42,1.145 2.417,2.261 3.33,3.385 1.782,2.238 3.081,4.419 4.263,6.514 1.389,2.48 4.004,8.286 4.053,8.398 1.977,4.615 3.526,4.962 4.501,5.272 1.41,0.466 3.267,0.332 4.943,-0.281 1.661,-0.575 3.147,-1.75 4.086,-2.895 2.013,-2.498 2.005,-4.785 1.563,-7.262 -0.026,-0.125 -1.02,-2.844 1.275,-3.915 1.404,-0.66 2.682,0.188 3.115,0.597 1.115,1.182 2.117,4.346 2.056,7.012 C 1.595,-4.371 1.207,-2.185 0,0"
             id="path1136"
             style="fill:#febc1e;fill-opacity:1;fill-rule:evenodd;stroke:none" /></g><g
           transform="translate(464.9245,1001.2114)"
           id="g1138"><path
             d="m 0,0 c -0.354,-0.034 -0.598,-0.473 -0.547,-0.981 0.052,-0.508 0.38,-0.892 0.733,-0.859 0.354,0.034 0.599,0.473 0.547,0.981 C 0.682,-0.351 0.354,0.034 0,0 M -2.921,4.51 C -2.637,4.79 -2.733,5.346 -3.136,5.752 -3.539,6.159 -4.095,6.263 -4.379,5.983 -4.663,5.704 -4.567,5.148 -4.164,4.741 -3.762,4.335 -3.205,4.231 -2.921,4.51 M -6.183,5.965 C -7.241,6.646 -8.394,6.74 -8.757,6.176 -9.12,5.611 -8.556,4.601 -7.497,3.92 c 1.058,-0.68 2.21,-0.775 2.573,-0.21 0.363,0.565 -0.2,1.575 -1.259,2.255 m -5.103,0.953 c -0.922,-0.036 -1.652,-0.54 -1.629,-1.127 0.022,-0.587 0.788,-1.034 1.71,-0.999 0.922,0.035 1.652,0.539 1.629,1.126 -0.022,0.587 -0.788,1.035 -1.71,1 m 9.232,-12.463 c -0.418,0.031 -0.792,-0.419 -0.835,-1.005 -0.042,-0.586 0.262,-1.086 0.68,-1.117 0.419,-0.03 0.793,0.42 0.835,1.006 0.043,0.586 -0.261,1.086 -0.68,1.116 m 0.531,4.887 c 0.653,0.378 0.64,1.627 -0.032,2.79 -0.671,1.163 -1.745,1.799 -2.399,1.422 -0.654,-0.378 -0.64,-1.627 0.031,-2.79 0.671,-1.163 1.746,-1.799 2.4,-1.422 m -0.152,-0.629 c -0.504,0 -0.912,-0.749 -0.912,-1.672 0,-0.923 0.408,-1.671 0.912,-1.671 0.503,0 0.911,0.748 0.911,1.671 0,0.923 -0.408,1.672 -0.911,1.672"
             id="path1140"
             style="fill:#db7109;fill-opacity:1;fill-rule:evenodd;stroke:none" /></g><g
           transform="translate(317.4811,1017.9183)"
           id="g1142"><path
             d="M 0,0 C -0.167,-0.194 -0.075,-0.544 0.205,-0.782 0.485,-1.02 0.847,-1.056 1.014,-0.862 1.181,-0.668 1.089,-0.318 0.809,-0.08 0.529,0.158 0.167,0.194 0,0 m 5.54,-1.641 c -0.411,0.01 -0.752,-0.213 -0.76,-0.5 -0.008,-0.287 0.319,-0.527 0.731,-0.538 0.411,-0.01 0.752,0.214 0.76,0.5 0.009,0.287 -0.319,0.528 -0.731,0.538 m 3.1,1.545 C 8.547,0.379 7.751,0.622 6.862,0.447 5.973,0.273 5.327,-0.253 5.42,-0.727 5.514,-1.201 6.31,-1.444 7.199,-1.27 c 0.889,0.174 1.534,0.7 1.441,1.174 M 0.151,3.732 C 0.072,4.148 -0.232,4.439 -0.529,4.382 -0.826,4.326 -1.002,3.943 -0.923,3.528 -0.844,3.112 -0.539,2.821 -0.243,2.878 0.054,2.934 0.23,3.317 0.151,3.732 M 3.432,0.303 C 2.503,0.573 1.628,0.367 1.477,-0.155 1.326,-0.677 1.956,-1.318 2.884,-1.587 3.813,-1.856 4.688,-1.651 4.839,-1.129 4.99,-0.607 4.36,0.034 3.432,0.303 M -0.425,2.377 C -0.686,2.126 -0.525,1.534 -0.065,1.055 0.396,0.576 0.981,0.391 1.242,0.642 1.503,0.893 1.342,1.485 0.882,1.964 0.421,2.443 -0.164,2.628 -0.425,2.377"
             id="path1144"
             style="fill:#db7109;fill-opacity:1;fill-rule:evenodd;stroke:none" /></g><g
           transform="translate(403.9369,1074.8033)"
           id="g1146"><path
             d="M 0,0 C -0.098,-2.362 -1.181,-14.764 -1.575,-20.866 -1.968,-26.969 8.169,-36.319 8.661,-23.622 9.154,-10.925 0.098,2.362 0,0 m -21.654,0 c -0.098,2.362 -9.153,-10.925 -8.661,-23.622 0.492,-12.697 10.63,-3.347 10.236,2.756 -0.393,6.102 -1.476,18.504 -1.575,20.866"
             id="path1148"
             style="fill:#bc3453;fill-opacity:1;fill-rule:evenodd;stroke:none" /></g><g
           transform="translate(388.7069,979.1724)"
           id="g1150"><path
             d="m 0,0 c -1.258,23.711 -9.429,38.232 -9.429,38.232 0,0 -22.408,12.134 -7.049,-1.073 8.272,-7.114 12.016,-16.973 13.45,-24.885 -0.328,0.25 -0.761,0.355 -1.191,0.24 -0.735,-0.196 -1.171,-0.952 -0.974,-1.687 0.197,-0.735 0.953,-1.172 1.688,-0.975 0.332,0.089 0.598,0.296 0.777,0.559 0.836,-5.876 0.39,-10.356 -0.314,-11.226 -1.684,-2.082 -6.13,-4.878 -6.415,-7.543 -0.212,-1.982 0.713,-4.696 5.728,-4.46 1.229,0.057 2.172,0.387 2.897,0.85 3.036,1.466 2.897,4.914 2.897,4.914 C 2.302,-4.137 2.476,-2.394 0,0 m 19.417,38.232 c 0,0 -8.171,-14.521 -9.429,-38.232 -2.476,-2.394 -2.303,-4.137 -2.065,-7.054 0,0 -0.139,-3.448 2.897,-4.914 0.725,-0.463 1.668,-0.793 2.897,-0.85 5.014,-0.236 5.94,2.478 5.728,4.46 -0.286,2.665 -4.731,5.461 -6.415,7.543 -0.7,0.865 -1.146,5.298 -0.329,11.126 0.179,-0.264 0.446,-0.471 0.779,-0.561 0.735,-0.197 1.49,0.24 1.687,0.975 0.197,0.735 -0.239,1.491 -0.974,1.687 -0.431,0.116 -0.867,0.009 -1.195,-0.244 1.419,7.93 5.158,17.846 13.468,24.991 15.359,13.207 -7.049,1.073 -7.049,1.073"
             id="path1152"
             style="fill:#9e203d;fill-opacity:1;fill-rule:evenodd;stroke:none" /></g><g
           transform="translate(434.5212,1039.9629)"
           id="g1154"><path
             d="m 0,0 c 2.175,0.789 3.668,2.935 3.512,5.36 -0.148,2.434 -1.904,4.383 -4.16,4.884 1.92,1.299 2.823,3.758 2.076,6.076 -0.755,2.318 -2.938,3.766 -5.244,3.692 1.526,1.734 1.797,4.341 0.493,6.396 -1.305,2.056 -3.775,2.911 -5.999,2.261 1.05,2.064 0.665,4.654 -1.1,6.323 -1.772,1.669 -4.382,1.883 -6.367,0.699 0.501,2.269 -0.509,4.686 -2.634,5.854 -2.134,1.175 -4.719,0.74 -6.352,-0.905 -0.066,2.319 -1.649,4.416 -4.012,5.016 -2.348,0.6 -4.744,-0.461 -5.917,-2.459 -0.64,2.22 -2.692,3.84 -5.12,3.84 l 0,0.008 -0.181,0 c -2.429,-0.008 -4.472,-1.644 -5.104,-3.872 -1.182,1.989 -3.578,3.05 -5.925,2.433 -2.355,-0.609 -3.93,-2.705 -3.996,-5.023 -1.641,1.636 -4.218,2.063 -6.343,0.879 -2.126,-1.184 -3.126,-3.601 -2.61,-5.862 -2.002,1.176 -4.603,0.946 -6.359,-0.731 l -0.009,0 c -1.764,-1.67 -2.133,-4.26 -1.075,-6.323 -2.223,0.641 -4.693,-0.23 -5.99,-2.286 -1.296,-2.055 -1.017,-4.67 0.526,-6.405 -2.315,0.074 -4.497,-1.389 -5.236,-3.708 -0.747,-2.318 0.173,-4.768 2.093,-6.067 -2.257,-0.51 -3.997,-2.467 -4.136,-4.893 -0.14,-2.425 1.354,-4.57 3.528,-5.352 -2.059,-1.052 -3.266,-3.379 -2.806,-5.763 0.459,-2.393 2.445,-4.103 4.751,-4.316 -1.731,-1.538 -2.322,-4.095 -1.28,-6.29 1.042,-2.203 3.389,-3.355 5.67,-2.985 -1.296,-1.924 -1.23,-4.539 0.32,-6.413 0.249,-0.297 0.529,-0.548 0.823,-0.777 0.357,21.17 14.464,45.9 33.342,45.9 18.958,0 33.235,-25.071 33.414,-45.797 0.305,0.236 0.595,0.496 0.85,0.806 1.552,1.882 1.601,4.497 0.296,6.413 2.289,-0.362 4.628,0.805 5.662,3.009 1.034,2.203 0.435,4.761 -1.305,6.289 2.306,0.223 4.284,1.941 4.735,4.334 C 3.282,-3.363 2.067,-1.045 0,0"
             id="path1156"
             style="fill:#000000;fill-opacity:1;fill-rule:evenodd;stroke:none" /></g><g
           transform="translate(393.7005,1059.1539)"
           id="g1158"><path
             d="m 0,0 c -23.031,0 -38.976,-36.811 -31.496,-59.055 7.48,-22.244 55.315,-20.472 62.992,0.787 C 39.173,-37.008 23.032,0 0,0"
             id="path1160"
             style="fill:#febc1e;fill-opacity:1;fill-rule:evenodd;stroke:none" /></g><g
           transform="translate(394.0322,1021.1635)"
           id="g1162"><path
             d="m 0,0 c -7.992,3.764 -9.651,-2.706 -13.596,-2.706 0,-1.586 5.495,-8.337 8.905,-8.337 4.756,0 4.691,0.693 4.691,0.693 0,0 1.492,-0.609 4.812,-0.609 3.321,0 8.784,6.854 8.784,8.253 C 9.444,-2.706 7.473,3.974 0,0"
             id="path1164"
             style="fill:#bc3453;fill-opacity:1;fill-rule:evenodd;stroke:none" /></g><g
           transform="translate(393.8976,1016.718)"
           id="g1166"><path
             d="m 0,0 c -5.28,0 -10.035,0.615 -13.377,1.597 2.512,-1.612 7.554,-2.714 13.377,-2.714 5.823,0 10.865,1.102 13.377,2.714 C 10.035,0.615 5.28,0 0,0"
             id="path1168"
             style="fill:#9e203d;fill-opacity:1;fill-rule:evenodd;stroke:none" /></g><g
           transform="translate(426.8557,1019.3095)"
           id="g1170"><path
             d="M 0,0 C -7.703,-8.271 -19.671,-13.637 -33.155,-13.79 -46.64,-13.637 -58.607,-8.271 -66.31,0 c -1.877,-8.584 -2.485,-17.139 -1.699,-24.06 0.317,-2.787 2.977,-5.137 7.068,-6.997 6.159,-3.538 16.91,-5.086 27.786,-4.933 10.876,-0.153 21.627,1.395 27.786,4.933 4.091,1.86 6.751,4.21 7.068,6.997 C 2.484,-17.139 1.877,-8.584 0,0"
             id="path1172"
             style="fill:#bc3453;fill-opacity:1;fill-rule:evenodd;stroke:none" /></g><g
           transform="translate(421.2182,1037.8499)"
           id="g1174"><path
             d="m 0,0 c -5.927,12.164 -15.831,21.698 -27.518,21.698 -12.787,0 -23.381,-11.352 -29.003,-25.253 3.059,3.325 17.365,6.035 24.279,12.949 7.481,7.481 10.236,9.055 12.205,8.268 C -18.069,16.875 -4.683,8.607 -0.746,1.127 -0.492,0.644 -0.243,0.274 0,0"
             id="path1176"
             style="fill:#000000;fill-opacity:1;fill-rule:evenodd;stroke:none" /></g><g
           transform="translate(415.676,1030.9056)"
           id="g1178"><path
             d="m 0,0 1.994,1.951 c 0.44,0.431 0.44,1.129 0,1.56 L 1.396,4.097 c -0.441,0.43 -1.155,0.43 -1.595,0 L -2.193,2.146 -3.987,3.901 c -0.441,0.431 -1.155,0.431 -1.595,0 L -6.18,3.316 c -0.441,-0.431 -0.441,-1.129 0,-1.56 L -4.386,0 -6.18,-1.756 c -0.441,-0.431 -0.441,-1.129 0,-1.56 l 0.598,-0.586 c 0.44,-0.431 1.154,-0.431 1.595,0 l 1.794,1.756 1.994,-1.951 c 0.44,-0.431 1.154,-0.431 1.595,0 l 0.598,0.586 c 0.44,0.43 0.44,1.129 0,1.56 L 0,0 z m -37.376,3.511 -0.598,0.586 c -0.441,0.43 -1.155,0.43 -1.595,0 l -1.994,-1.951 -1.794,1.755 c -0.441,0.431 -1.155,0.431 -1.595,0 l -0.599,-0.585 c -0.44,-0.431 -0.44,-1.129 0,-1.56 L -43.756,0 -45.551,-1.756 c -0.44,-0.431 -0.44,-1.129 0,-1.56 l 0.599,-0.586 c 0.44,-0.431 1.154,-0.431 1.595,0 l 1.794,1.756 1.994,-1.951 c 0.44,-0.431 1.154,-0.431 1.595,0 l 0.598,0.586 c 0.44,0.43 0.44,1.129 0,1.56 L -39.37,0 l 1.994,1.951 c 0.44,0.431 0.44,1.129 0,1.56"
             id="path1180"
             style="fill:#142122;fill-opacity:1;fill-rule:evenodd;stroke:none" /></g></g></g></g></svg>
