<?xml version="1.0" encoding="UTF-8" standalone="no"?>
<!-- Created with Inkscape (http://www.inkscape.org/) -->

<svg
  xmlns:dc="http://purl.org/dc/elements/1.1/"
  xmlns:cc="http://creativecommons.org/ns#"
  xmlns:rdf="http://www.w3.org/1999/02/22-rdf-syntax-ns#"
  xmlns="http://www.w3.org/2000/svg"
  version="1.1"
  width="147.30597"
  height="115.77487"
  id="svg2"
  xml:space="preserve"><metadata
     id="metadata8"><rdf:RDF><cc:Work
         rdf:about=""><dc:format>image/svg+xml</dc:format><dc:type
           rdf:resource="http://purl.org/dc/dcmitype/StillImage" /><dc:title></dc:title></cc:Work></rdf:RDF></metadata><defs
     id="defs6"><clipPath
       id="clipPath16"><path
         d="m 0,2204.724 787.402,0 L 787.402,0 0,0 0,2204.724 z"
         id="path18" /></clipPath><clipPath
       id="clipPath24"><path
         d="M 3.05176e-5,2204.72 787.402,2204.72 787.402,0 3.05176e-5,0 l 0,2204.72 z"
         id="path26" /></clipPath><clipPath
       id="clipPath38"><path
         d="m 0,2204.724 787.402,0 L 787.402,0 0,0 0,2204.724 z"
         id="path40" /></clipPath><clipPath
       id="clipPath46"><path
         d="m 366.535,64.5675 55.906,0 0,-17.3229 -55.906,0 0,17.3229 z"
         id="path48" /></clipPath><clipPath
       id="clipPath110"><path
         d="m 0,2204.724 787.402,0 L 787.402,0 0,0 0,2204.724 z"
         id="path112" /></clipPath><clipPath
       id="clipPath118"><path
         d="m 522.047,210.237 55.905,0 0,-17.323 -55.905,0 0,17.323 z"
         id="path120" /></clipPath><clipPath
       id="clipPath178"><path
         d="m 0,2204.724 787.402,0 L 787.402,0 0,0 0,2204.724 z"
         id="path180" /></clipPath><clipPath
       id="clipPath186"><path
         d="m 366.142,210.237 55.905,0 0,-17.323 -55.905,0 0,17.323 z"
         id="path188" /></clipPath><clipPath
       id="clipPath246"><path
         d="m 0,2204.724 787.402,0 L 787.402,0 0,0 0,2204.724 z"
         id="path248" /></clipPath><clipPath
       id="clipPath254"><path
         d="m 208.59,210.359 55.906,0 0,-17.323 -55.906,0 0,17.323 z"
         id="path256" /></clipPath><clipPath
       id="clipPath318"><path
         d="m 0,2204.724 787.402,0 L 787.402,0 0,0 0,2204.724 z"
         id="path320" /></clipPath><clipPath
       id="clipPath326"><path
         d="m 516.535,359.843 67.323,0 0,-20.866 -67.323,0 0,20.866 z"
         id="path328" /></clipPath><clipPath
       id="clipPath386"><path
         d="m 0,2204.724 787.402,0 L 787.402,0 0,0 0,2204.724 z"
         id="path388" /></clipPath><clipPath
       id="clipPath394"><path
         d="m 364.567,367.717 55.905,0 0,-17.323 -55.905,0 0,17.323 z"
         id="path396" /></clipPath><clipPath
       id="clipPath450"><path
         d="m 0,2204.724 787.402,0 L 787.402,0 0,0 0,2204.724 z"
         id="path452" /></clipPath><clipPath
       id="clipPath458"><path
         d="m 208.267,360.63 55.906,0 0,-17.323 -55.906,0 0,17.323 z"
         id="path460" /></clipPath><clipPath
       id="clipPath510"><path
         d="m 0,2204.724 787.402,0 L 787.402,0 0,0 0,2204.724 z"
         id="path512" /></clipPath><clipPath
       id="clipPath518"><path
         d="m 521.26,520.473 55.905,0 0,-17.323 -55.905,0 0,17.323 z"
         id="path520" /></clipPath><clipPath
       id="clipPath574"><path
         d="m 0,2204.724 787.402,0 L 787.402,0 0,0 0,2204.724 z"
         id="path576" /></clipPath><clipPath
       id="clipPath582"><path
         d="m 366.142,510.237 55.905,0 0,-17.323 -55.905,0 0,17.323 z"
         id="path584" /></clipPath><clipPath
       id="clipPath638"><path
         d="m 0,2204.724 787.402,0 L 787.402,0 0,0 0,2204.724 z"
         id="path640" /></clipPath><clipPath
       id="clipPath646"><path
         d="m 207.874,522.048 55.905,0 0,-17.323 -55.905,0 0,17.323 z"
         id="path648" /></clipPath><clipPath
       id="clipPath694"><path
         d="m 0,2204.724 787.402,0 L 787.402,0 0,0 0,2204.724 z"
         id="path696" /></clipPath><clipPath
       id="clipPath702"><path
         d="m 523.622,677.56 55.905,0 0,-17.323 -55.905,0 0,17.323 z"
         id="path704" /></clipPath><clipPath
       id="clipPath754"><path
         d="m 0,2204.724 787.402,0 L 787.402,0 0,0 0,2204.724 z"
         id="path756" /></clipPath><clipPath
       id="clipPath762"><path
         d="m 364.566,682.678 55.906,0 0,-17.323 -55.906,0 0,17.323 z"
         id="path764" /></clipPath><clipPath
       id="clipPath814"><path
         d="m 0,2204.724 787.402,0 L 787.402,0 0,0 0,2204.724 z"
         id="path816" /></clipPath><clipPath
       id="clipPath822"><path
         d="m 181.89,704.725 109.449,0 0,-39.764 -109.449,0 0,39.764 z"
         id="path824" /></clipPath><clipPath
       id="clipPath862"><path
         d="m 0,2204.724 787.402,0 L 787.402,0 0,0 0,2204.724 z"
         id="path864" /></clipPath><clipPath
       id="clipPath870"><path
         d="m 522.047,837.796 55.905,0 0,-17.323 -55.905,0 0,17.323 z"
         id="path872" /></clipPath><clipPath
       id="clipPath930"><path
         d="m 0,2204.724 787.402,0 L 787.402,0 0,0 0,2204.724 z"
         id="path932" /></clipPath><clipPath
       id="clipPath938"><path
         d="m 363.779,833.072 55.906,0 0,-17.323 -55.906,0 0,17.323 z"
         id="path940" /></clipPath><clipPath
       id="clipPath982"><path
         d="m 0,2204.724 787.402,0 L 787.402,0 0,0 0,2204.724 z"
         id="path984" /></clipPath><clipPath
       id="clipPath994"><path
         d="m 221.259,837.796 55.906,0 0,-17.323 -55.906,0 0,17.323 z"
         id="path996" /></clipPath><clipPath
       id="clipPath1038"><path
         d="m 0,2204.724 787.402,0 L 787.402,0 0,0 0,2204.724 z"
         id="path1040" /></clipPath><clipPath
       id="clipPath1046"><path
         d="m 522.047,991.339 55.905,0 0,-17.323 -55.905,0 0,17.323 z"
         id="path1048" /></clipPath><clipPath
       id="clipPath1094"><path
         d="m 0,2204.724 787.402,0 L 787.402,0 0,0 0,2204.724 z"
         id="path1096" /></clipPath><clipPath
       id="clipPath1102"><path
         d="m 365.354,977.166 55.906,0 0,-17.323 -55.906,0 0,17.323 z"
         id="path1104" /></clipPath><clipPath
       id="clipPath1186"><path
         d="m 0,2204.724 787.402,0 L 787.402,0 0,0 0,2204.724 z"
         id="path1188" /></clipPath><clipPath
       id="clipPath1194"><path
         d="m 208.267,984.252 55.906,0 0,-17.322 -55.906,0 0,17.322 z"
         id="path1196" /></clipPath><clipPath
       id="clipPath1254"><path
         d="m 0,2204.724 787.402,0 L 787.402,0 0,0 0,2204.724 z"
         id="path1256" /></clipPath><clipPath
       id="clipPath1262"><path
         d="m 523.622,1150.39 55.905,0 0,-17.32 -55.905,0 0,17.32 z"
         id="path1264" /></clipPath><clipPath
       id="clipPath1322"><path
         d="m 0,2204.724 787.402,0 L 787.402,0 0,0 0,2204.724 z"
         id="path1324" /></clipPath><clipPath
       id="clipPath1330"><path
         d="m 365.748,1145.67 55.905,0 0,-17.32 -55.905,0 0,17.32 z"
         id="path1332" /></clipPath><clipPath
       id="clipPath1374"><path
         d="m 0,2204.724 787.402,0 L 787.402,0 0,0 0,2204.724 z"
         id="path1376" /></clipPath><clipPath
       id="clipPath1382"><path
         d="m 207.874,1149.21 55.905,0 0,-17.32 -55.905,0 0,17.32 z"
         id="path1384" /></clipPath><clipPath
       id="clipPath1430"><path
         d="m 0,2204.724 787.402,0 L 787.402,0 0,0 0,2204.724 z"
         id="path1432" /></clipPath><clipPath
       id="clipPath1438"><path
         d="m 518.504,1309.45 55.905,0 0,-17.32 -55.905,0 0,17.32 z"
         id="path1440" /></clipPath><clipPath
       id="clipPath1502"><path
         d="m 0,2204.724 787.402,0 L 787.402,0 0,0 0,2204.724 z"
         id="path1504" /></clipPath><clipPath
       id="clipPath1510"><path
         d="m 364.567,1295.28 55.905,0 0,-17.33 -55.905,0 0,17.33 z"
         id="path1512" /></clipPath><clipPath
       id="clipPath1578"><path
         d="m 0,2204.724 787.402,0 L 787.402,0 0,0 0,2204.724 z"
         id="path1580" /></clipPath><clipPath
       id="clipPath1586"><path
         d="m 209.448,1307.48 55.906,0 0,-17.32 -55.906,0 0,17.32 z"
         id="path1588" /></clipPath><clipPath
       id="clipPath1642"><path
         d="m 0,2204.724 787.402,0 L 787.402,0 0,0 0,2204.724 z"
         id="path1644" /></clipPath><clipPath
       id="clipPath1650"><path
         d="m 500,1467.32 107.087,0 0,-33.07 -107.087,0 0,33.07 z"
         id="path1652" /></clipPath><clipPath
       id="clipPath1706"><path
         d="m 0,2204.724 787.402,0 L 787.402,0 0,0 0,2204.724 z"
         id="path1708" /></clipPath><clipPath
       id="clipPath1714"><path
         d="m 366.141,1468.5 55.906,0 0,-17.32 -55.906,0 0,17.32 z"
         id="path1716" /></clipPath><clipPath
       id="clipPath1734"><path
         d="m 0,2204.724 787.402,0 L 787.402,0 0,0 0,2204.724 z"
         id="path1736" /></clipPath><clipPath
       id="clipPath1774"><path
         d="m 0,2204.724 787.402,0 L 787.402,0 0,0 0,2204.724 z"
         id="path1776" /></clipPath><clipPath
       id="clipPath1782"><path
         d="m 207.48,1468.5 55.905,0 0,-17.32 -55.905,0 0,17.32 z"
         id="path1784" /></clipPath><clipPath
       id="clipPath1838"><path
         d="m 0,2204.724 787.402,0 L 787.402,0 0,0 0,2204.724 z"
         id="path1840" /></clipPath><clipPath
       id="clipPath1846"><path
         d="m 522.047,1619.69 55.905,0 0,-17.33 -55.905,0 0,17.33 z"
         id="path1848" /></clipPath><clipPath
       id="clipPath1890"><path
         d="m 0,2204.724 787.402,0 L 787.402,0 0,0 0,2204.724 z"
         id="path1892" /></clipPath><clipPath
       id="clipPath1898"><path
         d="m 366.535,1618.9 55.906,0 0,-17.32 -55.906,0 0,17.32 z"
         id="path1900" /></clipPath><clipPath
       id="clipPath1954"><path
         d="m 0,2204.724 787.402,0 L 787.402,0 0,0 0,2204.724 z"
         id="path1956" /></clipPath><clipPath
       id="clipPath1962"><path
         d="m 207.874,1624.41 55.905,0 0,-17.32 -55.905,0 0,17.32 z"
         id="path1964" /></clipPath><clipPath
       id="clipPath2026"><path
         d="m 0,2204.724 787.402,0 L 787.402,0 0,0 0,2204.724 z"
         id="path2028" /></clipPath><clipPath
       id="clipPath2034"><path
         d="m 520.078,1779.92 55.906,0 0,-17.32 -55.906,0 0,17.32 z"
         id="path2036" /></clipPath><clipPath
       id="clipPath2090"><path
         d="m 0,2204.724 787.402,0 L 787.402,0 0,0 0,2204.724 z"
         id="path2092" /></clipPath><clipPath
       id="clipPath2098"><path
         d="m 368.11,1781.89 55.905,0 0,-17.32 -55.905,0 0,17.32 z"
         id="path2100" /></clipPath><clipPath
       id="clipPath2158"><path
         d="m 0,2204.724 787.402,0 L 787.402,0 0,0 0,2204.724 z"
         id="path2160" /></clipPath><clipPath
       id="clipPath2166"><path
         d="m 207.874,1775.59 55.905,0 0,-17.32 -55.905,0 0,17.32 z"
         id="path2168" /></clipPath><clipPath
       id="clipPath2226"><path
         d="m 0,2204.724 787.402,0 L 787.402,0 0,0 0,2204.724 z"
         id="path2228" /></clipPath><clipPath
       id="clipPath2234"><path
         d="m 521.26,1928.35 55.905,0 0,-17.33 -55.905,0 0,17.33 z"
         id="path2236" /></clipPath><clipPath
       id="clipPath2294"><path
         d="m 0,2204.724 787.402,0 L 787.402,0 0,0 0,2204.724 z"
         id="path2296" /></clipPath><clipPath
       id="clipPath2302"><path
         d="m 366.535,1940.16 55.905,0 0,-17.33 -55.905,0 0,17.33 z"
         id="path2304" /></clipPath><clipPath
       id="clipPath2358"><path
         d="m 0,2204.724 787.402,0 L 787.402,0 0,0 0,2204.724 z"
         id="path2360" /></clipPath><clipPath
       id="clipPath2366"><path
         d="m 204.33,1922.84 55.906,0 0,-17.33 -55.906,0 0,17.33 z"
         id="path2368" /></clipPath><clipPath
       id="clipPath2418"><path
         d="m 0,2204.724 787.402,0 L 787.402,0 0,0 0,2204.724 z"
         id="path2420" /></clipPath><clipPath
       id="clipPath2426"><path
         d="m 522.44,2090.16 55.906,0 0,-17.33 -55.906,0 0,17.33 z"
         id="path2428" /></clipPath><clipPath
       id="clipPath2478"><path
         d="m 0,2204.724 787.402,0 L 787.402,0 0,0 0,2204.724 z"
         id="path2480" /></clipPath><clipPath
       id="clipPath2486"><path
         d="m 364.566,2100.79 55.906,0 0,-17.33 -55.906,0 0,17.33 z"
         id="path2488" /></clipPath><clipPath
       id="clipPath2526"><path
         d="m 0,2204.724 787.402,0 L 787.402,0 0,0 0,2204.724 z"
         id="path2528" /></clipPath><clipPath
       id="clipPath2534"><path
         d="m 207.086,2088.98 55.906,0 0,-17.33 -55.906,0 0,17.33 z"
         id="path2536" /></clipPath></defs><g
     transform="matrix(1.25,0,0,-1.25,-418.71886,2321.4874)"
     id="g10"><g
       id="g2086"><g
         clip-path="url(#clipPath2090)"
         id="g2088"><g
           id="g2094"><g
             id="g2096" /><g
             id="g2102"><g
               clip-path="url(#clipPath2098)"
               id="g2104"
               style="opacity:0.19999701"><g
                 transform="translate(396.0627,1781.8901)"
                 id="g2106"><path
                   d="m 0,0 c -15.438,0 -27.953,-3.878 -27.953,-8.661 0,-4.784 12.515,-8.662 27.953,-8.662 15.438,0 27.953,3.878 27.953,8.662 C 27.953,-3.878 15.438,0 0,0"
                   id="path2108"
                   style="fill:#000000;fill-opacity:1;fill-rule:evenodd;stroke:none" /></g></g></g></g><g
           transform="translate(412.4792,1775.8704)"
           id="g2110"><path
             d="m 0,0 c -0.966,2.501 -0.221,0.591 -4.212,-0.279 -1.321,-0.289 -2.482,-0.613 -3.449,-0.917 -2.672,-0.335 -3.806,-0.526 -3.806,-0.526 0,0 0.758,-3.367 4.071,-3.997 0.82,-0.26 1.816,-0.334 3.018,-0.072 C 0.526,-4.721 0.718,-1.859 0,0 m -31.77,-0.279 c -3.991,0.87 -3.247,2.78 -4.212,0.279 -0.718,-1.859 -0.526,-4.721 4.378,-5.791 1.202,-0.262 2.198,-0.188 3.018,0.072 3.313,0.63 4.071,3.997 4.071,3.997 0,0 -1.134,0.191 -3.806,0.526 -0.967,0.304 -2.128,0.628 -3.449,0.917"
             id="path2112"
             style="fill:#ff986a;fill-opacity:1;fill-rule:evenodd;stroke:none" /></g><g
           transform="translate(364.2124,1857.1899)"
           id="g2114"><path
             d="m 0,0 c 0,0 -9.559,-15.155 -5.795,-24.059 3.764,-8.904 11.948,-11.354 19.426,-8.185 7.478,3.169 11.418,10.758 7.654,19.662 C 17.521,-3.678 0,0 0,0 m 63.165,0 c 0,0 -17.521,-3.678 -21.285,-12.582 -3.764,-8.904 0.176,-16.493 7.654,-19.662 7.478,-3.169 15.662,-0.719 19.426,8.185 C 72.724,-15.155 63.165,0 63.165,0"
             id="path2116"
             style="fill:#ffffff;fill-opacity:1;fill-rule:evenodd;stroke:none" /></g><g
           transform="translate(365.2544,1852.9093)"
           id="g2118"><path
             d="m 0,0 c 0,0 -7.025,-11.253 -4.259,-17.864 2.766,-6.611 8.781,-8.431 14.276,-6.077 5.495,2.353 8.391,7.987 5.624,14.599 C 12.876,-2.731 0,0 0,0 m 61.081,0 c 0,0 -12.876,-2.731 -15.642,-9.342 -2.766,-6.612 0.13,-12.246 5.625,-14.599 5.495,-2.354 11.509,-0.534 14.276,6.077 C 68.106,-11.253 61.081,0 61.081,0"
             id="path2120"
             style="fill:#ff986a;fill-opacity:1;fill-rule:evenodd;stroke:none" /></g><g
           transform="translate(395.669,1847.3429)"
           id="g2122"><path
             d="m 0,0 c -23.032,0 -38.977,-36.811 -31.496,-59.055 7.48,-22.244 55.315,-20.473 62.992,0.787 C 39.173,-37.008 23.031,0 0,0"
             id="path2124"
             style="fill:#ffffff;fill-opacity:1;fill-rule:evenodd;stroke:none" /></g><g
           transform="translate(445.9307,1808.252)"
           id="g2126"><path
             d="m 0,0 c -13.518,10.449 -26.772,6.518 -26.772,6.518 0,0 -11.285,-4.159 -0.859,-6.108 10.425,-1.95 20.259,-6.809 22.078,-15.349 1.82,-8.54 -8.058,-16.95 -8.058,-16.95 0,0 4.538,-1.136 6.951,2.622 -0.423,-3.777 -2.308,-5.755 -2.308,-5.755 0,0 4.941,0.638 5.696,5.184 0.876,-2.457 0.075,-6.129 -0.368,-7.154 C 3.474,-35.112 14.003,-10.824 0,0 m -76.435,4.346 c -10.426,1.95 -20.259,6.81 -22.079,15.349 -1.819,8.54 8.058,16.95 8.058,16.95 0,0 -4.537,1.136 -6.95,-2.622 0.422,3.777 2.308,5.755 2.308,5.755 0,0 -4.941,-0.638 -5.696,-5.184 -0.876,2.457 -0.075,6.129 0.368,7.154 -7.114,-1.88 -17.644,-26.168 -3.64,-36.992 13.518,-10.449 26.772,-6.518 26.772,-6.518 0,0 11.284,4.159 0.859,6.108"
             id="path2128"
             style="fill:#ffffff;fill-opacity:1;fill-rule:evenodd;stroke:none" /></g><g
           transform="translate(403.4839,1841.5084)"
           id="g2130"><path
             d="m 0,0 c -0.255,0.243 -0.538,0.448 -0.838,0.603 0.003,0.012 0.006,0.024 0.009,0.036 0.11,0.015 0.221,0.037 0.329,0.076 0.558,0.202 1.25,0.352 1.819,0.497 0.57,0.142 1.003,0.279 1.046,0.412 C 2.389,1.689 2.2,2.059 1.852,2.475 1.499,2.896 0.977,3.352 0.374,3.627 0.056,3.776 -0.281,3.871 -0.617,3.911 c -0.001,0.012 -0.004,0.024 -0.005,0.037 0.098,0.053 0.193,0.114 0.28,0.19 0.227,0.198 0.482,0.399 0.74,0.599 0.259,0.201 0.523,0.4 0.75,0.587 0.458,0.375 0.805,0.7 0.776,0.855 C 1.913,6.256 1.582,6.558 1.065,6.816 0.809,6.945 0.5,7.059 0.183,7.135 -0.147,7.206 -0.477,7.244 -0.814,7.221 -1.149,7.198 -1.468,7.128 -1.761,7.006 -1.781,6.998 -1.799,6.988 -1.818,6.979 c -0.008,0.01 -0.016,0.02 -0.023,0.029 0.057,0.096 0.108,0.197 0.143,0.308 0.093,0.289 0.205,0.597 0.315,0.907 0.113,0.311 0.227,0.627 0.316,0.909 0.181,0.568 0.291,1.039 0.181,1.154 -0.053,0.059 -0.5,0.143 -1.07,0.071 C -2.237,10.332 -2.553,10.247 -2.857,10.14 -3.161,10.029 -3.463,9.863 -3.728,9.674 -4.015,9.465 -4.26,9.215 -4.456,8.938 -4.467,8.942 -4.479,8.947 -4.49,8.952 c 0.001,0.113 -0.006,0.227 -0.03,0.342 -0.129,0.576 -0.198,1.301 -0.291,1.881 -0.09,0.585 -0.187,1.049 -0.328,1.1 -0.07,0.023 -0.472,-0.104 -0.941,-0.426 -0.116,-0.078 -0.235,-0.164 -0.353,-0.263 -0.12,-0.102 -0.237,-0.212 -0.349,-0.33 C -7.006,11.025 -7.209,10.747 -7.366,10.455 -7.523,10.167 -7.635,9.854 -7.692,9.536 -7.696,9.515 -7.698,9.495 -7.701,9.474 -7.713,9.473 -7.726,9.472 -7.738,9.471 c -0.048,0.101 -0.105,0.2 -0.178,0.292 -0.188,0.241 -0.379,0.495 -0.572,0.768 -0.193,0.271 -0.385,0.537 -0.565,0.773 -0.362,0.475 -0.679,0.831 -0.834,0.808 -0.076,-0.01 -0.388,-0.33 -0.652,-0.841 -0.136,-0.246 -0.249,-0.557 -0.334,-0.869 -0.082,-0.316 -0.121,-0.661 -0.116,-0.988 0.009,-0.359 0.077,-0.704 0.194,-1.022 -0.01,-0.007 -0.021,-0.014 -0.031,-0.021 -0.092,0.064 -0.19,0.123 -0.298,0.167 -0.275,0.106 -0.573,0.246 -0.872,0.388 -0.298,0.139 -0.594,0.277 -0.861,0.401 -0.547,0.247 -0.975,0.402 -1.101,0.318 -0.03,-0.022 -0.075,-0.135 -0.106,-0.316 -0.03,-0.182 -0.051,-0.428 -0.048,-0.704 0.01,-0.28 0.048,-0.593 0.12,-0.904 0.081,-0.316 0.197,-0.632 0.348,-0.922 0.168,-0.315 0.378,-0.595 0.62,-0.832 -0.006,-0.011 -0.013,-0.021 -0.019,-0.032 -0.111,0.018 -0.223,0.029 -0.34,0.024 -0.588,-0.036 -1.306,0.013 -1.888,0.027 -0.589,0.017 -1.05,0.008 -1.122,-0.111 -0.035,-0.059 0.032,-0.461 0.264,-0.952 0.11,-0.245 0.259,-0.511 0.447,-0.769 0.185,-0.258 0.398,-0.506 0.649,-0.724 0.262,-0.234 0.552,-0.427 0.858,-0.57 -0.003,-0.012 -0.006,-0.024 -0.008,-0.037 -0.11,-0.019 -0.218,-0.046 -0.325,-0.089 -0.272,-0.113 -0.582,-0.211 -0.896,-0.301 -0.311,-0.087 -0.621,-0.174 -0.901,-0.252 -0.562,-0.156 -1.001,-0.292 -1.033,-0.419 -0.015,-0.063 0.17,-0.407 0.529,-0.795 0.18,-0.194 0.393,-0.4 0.64,-0.591 0.25,-0.191 0.527,-0.368 0.819,-0.511 0.312,-0.153 0.644,-0.263 0.978,-0.323 10e-4,-0.013 0.002,-0.025 0.002,-0.037 -0.101,-0.047 -0.2,-0.101 -0.293,-0.17 -0.484,-0.357 -1.091,-0.675 -1.606,-0.945 -0.51,-0.268 -0.907,-0.483 -0.917,-0.606 -0.003,-0.031 0.06,-0.113 0.174,-0.224 0.113,-0.112 0.279,-0.251 0.494,-0.388 0.424,-0.281 1.003,-0.583 1.622,-0.762 0.327,-0.096 0.67,-0.155 1.008,-0.165 0.002,-0.012 0.005,-0.024 0.008,-0.036 -0.093,-0.061 -0.183,-0.128 -0.263,-0.208 -0.836,-0.822 -2.007,-1.682 -2.006,-1.919 -0.044,-1.438 3.086,-1.067 3.086,-1.067 l 0.011,-0.036 c 0,0 -1.887,-1.681 -1.695,-2.065 0.193,-0.384 2.702,-1.075 2.702,-1.075 l 0.012,-0.035 c 0,0 -1.342,-2.023 -1.266,-2.277 0.075,-0.254 2.402,-0.818 2.402,-0.818 l 0.014,-0.035 c 0,0 -0.749,-1.86 -0.749,-2.135 10e-4,-0.274 1.986,-0.921 1.986,-0.921 l 0.014,-0.034 -0.13,-1.656 1.51,-1.366 c 0,0 -0.083,-0.193 -0.101,-0.303 -0.043,-0.277 -0.096,-0.595 -0.137,-0.925 -0.02,-0.164 -0.038,-0.332 -0.051,-0.498 -0.014,-0.166 -0.014,-0.335 -0.05,-0.473 -0.108,-0.573 -0.18,-1.024 -0.081,-1.113 0.047,-0.044 0.438,-0.021 0.959,0.121 0.519,0.141 1.18,0.409 1.697,0.845 0.258,0.216 0.475,0.473 0.625,0.756 0.01,0.018 0.017,0.037 0.026,0.055 0.998,-0.234 1.705,0.169 1.014,2.382 -0.015,0.048 -0.029,0.097 -0.044,0.146 0.09,0.069 0.176,0.144 0.254,0.23 0.398,0.438 0.026,1.228 0.026,1.228 0,0 0.055,0.868 0.329,1.142 -0.421,0.567 -0.58,0.541 -1.273,0.63 -10e-4,0.01 -0.002,0.021 -0.003,0.031 0.102,0.052 0.292,0.181 0.292,0.181 0,0 0.771,1.073 1.611,1.583 -0.513,0.842 -1.792,1.476 -1.972,1.533 0.001,0.011 0.002,0.023 0.002,0.034 0.108,0.033 0.214,0.072 0.316,0.124 0.256,0.137 1.178,0.702 2.128,0.993 0.127,0.933 -1.935,2.138 -1.935,2.138 l 0.008,0.032 c 0,0 2.821,0.369 2.883,0.463 0.03,0.038 -0.127,0.316 -0.373,0.701 -0.245,0.383 -0.287,0.782 -0.711,1.255 -0.227,0.253 -0.478,0.497 -0.75,0.703 0.004,0.01 0.008,0.02 0.012,0.029 0.115,-0.006 0.23,-0.005 0.345,0.011 0.575,0.079 1.272,-0.002 1.834,-0.089 0.561,-0.085 0.988,-0.173 1.051,-0.105 0.016,0.018 -0.001,0.101 -0.047,0.233 -0.042,0.131 -0.109,0.309 -0.201,0.521 -0.092,0.212 -0.208,0.457 -0.345,0.718 -0.144,0.251 -0.277,0.566 -0.454,0.838 -0.184,0.295 -0.408,0.564 -0.661,0.792 0.005,0.011 0.011,0.022 0.017,0.033 0.111,-0.014 0.223,-0.021 0.338,-0.012 0.594,0.047 1.293,0.002 1.879,-0.027 0.579,-0.025 1.034,-0.033 1.109,0.076 0.039,0.052 -0.047,0.439 -0.261,0.918 C 0.836,-1.025 0.474,-0.451 0,0"
             id="path2132"
             style="fill:#ffffff;fill-opacity:1;fill-rule:evenodd;stroke:none" /></g><g
           transform="translate(390.5094,1835.827)"
           id="g2134"><path
             d="m 0,0 c -1.282,0 -2.321,-1.234 -2.321,-2.756 0,-1.522 1.039,-2.756 2.321,-2.756 1.282,0 2.321,1.234 2.321,2.756 C 2.321,-1.234 1.282,0 0,0 M 10.713,0 C 9.431,0 8.392,-1.234 8.392,-2.756 c 0,-1.522 1.039,-2.756 2.321,-2.756 1.282,0 2.321,1.234 2.321,2.756 0,1.522 -1.039,2.756 -2.321,2.756"
             id="path2136"
             style="fill:#001e20;fill-opacity:1;fill-rule:evenodd;stroke:none" /></g><g
           transform="translate(395.6693,1833.4647)"
           id="g2138"><path
             d="m 0,0 c -8.88,0 -12.205,-2.734 -11.206,-5.606 0.205,-0.588 0.594,-1.417 1.15,-2.331 0.19,0.054 0.387,0.093 0.594,0.093 1.212,0 2.194,-1.003 2.194,-2.241 0,-0.385 -0.104,-0.742 -0.272,-1.059 1.881,-1.871 4.415,-3.423 7.54,-3.423 3.125,0 5.659,1.552 7.539,3.423 -0.167,0.317 -0.271,0.674 -0.271,1.059 0,1.238 0.982,2.241 2.194,2.241 0.207,0 0.404,-0.039 0.594,-0.093 0.556,0.914 0.945,1.743 1.15,2.331 C 12.205,-2.734 8.88,0 0,0"
             id="path2140"
             style="fill:#ff986a;fill-opacity:1;fill-rule:evenodd;stroke:none" /></g><g
           transform="translate(396.3254,1805.568)"
           id="g2142"><path
             d="m 0,0 c -15.943,0 -19.948,-12.119 -18.776,-15.882 1.126,-4.223 5.975,-9.181 18.776,-9.181 12.801,0 17.831,4.97 18.776,9.181 C 19.947,-12.119 15.943,0 0,0"
             id="path2144"
             style="fill:#142122;fill-opacity:1;fill-rule:evenodd;stroke:none" /></g><g
           transform="translate(395.8661,1788.5828)"
           id="g2146"><path
             d="m 0,0 c -6.638,0 -12.115,-2.271 -13.037,-5.225 2.95,-1.684 7.285,-2.853 13.496,-2.853 5.625,0 9.748,0.96 12.684,2.393 C 12.678,-2.51 6.98,0 0,0"
             id="path2148"
             style="fill:#c11c1c;fill-opacity:1;fill-rule:evenodd;stroke:none" /></g><g
           transform="translate(398.8313,1784.1545)"
           id="g2150"><path
             d="M 0,0 -0.292,-0.059 C -1.501,-0.302 -2.287,-1.49 -2.046,-2.713 l 0.26,-1.322 c 1.741,0.027 3.337,0.144 4.789,0.343 L 2.626,-1.773 C 2.385,-0.551 1.209,0.243 0,0 M -5.245,-0.059 -5.537,0 c -1.209,0.243 -2.385,-0.551 -2.625,-1.773 l -0.363,-1.841 c 1.444,-0.222 3.029,-0.367 4.776,-0.412 l 0.259,1.313 c 0.24,1.223 -0.545,2.411 -1.755,2.654 M 4.009,21.024 3.466,18.262 C 3.225,17.039 4.01,15.851 5.22,15.608 l 0.292,-0.059 c 1.209,-0.243 2.385,0.551 2.625,1.774 l 0.378,1.92 C 7.205,19.969 5.71,20.581 4.009,21.024 M -9.89,20.773 c -1.697,-0.52 -3.179,-1.209 -4.46,-2.014 l 0.282,-1.436 c 0.241,-1.223 1.416,-2.017 2.626,-1.774 l 0.292,0.059 c 1.209,0.243 1.995,1.431 1.754,2.654 l -0.494,2.511 z"
             id="path2152"
             style="fill:#ffffff;fill-opacity:1;fill-rule:evenodd;stroke:none" /></g></g></g></g></svg>
