<?xml version="1.0" encoding="UTF-8" standalone="no"?>
<!-- Created with Inkscape (http://www.inkscape.org/) -->

<svg
  xmlns:dc="http://purl.org/dc/elements/1.1/"
  xmlns:cc="http://creativecommons.org/ns#"
  xmlns:rdf="http://www.w3.org/1999/02/22-rdf-syntax-ns#"
  xmlns="http://www.w3.org/2000/svg"
  version="1.1"
  width="119.34946"
  height="129.02661"
  id="svg2"
  xml:space="preserve"><metadata
     id="metadata8"><rdf:RDF><cc:Work
         rdf:about=""><dc:format>image/svg+xml</dc:format><dc:type
           rdf:resource="http://purl.org/dc/dcmitype/StillImage" /><dc:title></dc:title></cc:Work></rdf:RDF></metadata><defs
     id="defs6"><clipPath
       id="clipPath16"><path
         d="m 0,2204.724 787.402,0 L 787.402,0 0,0 0,2204.724 z"
         id="path18" /></clipPath><clipPath
       id="clipPath24"><path
         d="M 3.05176e-5,2204.72 787.402,2204.72 787.402,0 3.05176e-5,0 l 0,2204.72 z"
         id="path26" /></clipPath><clipPath
       id="clipPath38"><path
         d="m 0,2204.724 787.402,0 L 787.402,0 0,0 0,2204.724 z"
         id="path40" /></clipPath><clipPath
       id="clipPath46"><path
         d="m 366.535,64.5675 55.906,0 0,-17.3229 -55.906,0 0,17.3229 z"
         id="path48" /></clipPath><clipPath
       id="clipPath110"><path
         d="m 0,2204.724 787.402,0 L 787.402,0 0,0 0,2204.724 z"
         id="path112" /></clipPath><clipPath
       id="clipPath118"><path
         d="m 522.047,210.237 55.905,0 0,-17.323 -55.905,0 0,17.323 z"
         id="path120" /></clipPath><clipPath
       id="clipPath178"><path
         d="m 0,2204.724 787.402,0 L 787.402,0 0,0 0,2204.724 z"
         id="path180" /></clipPath><clipPath
       id="clipPath186"><path
         d="m 366.142,210.237 55.905,0 0,-17.323 -55.905,0 0,17.323 z"
         id="path188" /></clipPath><clipPath
       id="clipPath246"><path
         d="m 0,2204.724 787.402,0 L 787.402,0 0,0 0,2204.724 z"
         id="path248" /></clipPath><clipPath
       id="clipPath254"><path
         d="m 208.59,210.359 55.906,0 0,-17.323 -55.906,0 0,17.323 z"
         id="path256" /></clipPath><clipPath
       id="clipPath318"><path
         d="m 0,2204.724 787.402,0 L 787.402,0 0,0 0,2204.724 z"
         id="path320" /></clipPath><clipPath
       id="clipPath326"><path
         d="m 516.535,359.843 67.323,0 0,-20.866 -67.323,0 0,20.866 z"
         id="path328" /></clipPath><clipPath
       id="clipPath386"><path
         d="m 0,2204.724 787.402,0 L 787.402,0 0,0 0,2204.724 z"
         id="path388" /></clipPath><clipPath
       id="clipPath394"><path
         d="m 364.567,367.717 55.905,0 0,-17.323 -55.905,0 0,17.323 z"
         id="path396" /></clipPath><clipPath
       id="clipPath450"><path
         d="m 0,2204.724 787.402,0 L 787.402,0 0,0 0,2204.724 z"
         id="path452" /></clipPath><clipPath
       id="clipPath458"><path
         d="m 208.267,360.63 55.906,0 0,-17.323 -55.906,0 0,17.323 z"
         id="path460" /></clipPath><clipPath
       id="clipPath510"><path
         d="m 0,2204.724 787.402,0 L 787.402,0 0,0 0,2204.724 z"
         id="path512" /></clipPath><clipPath
       id="clipPath518"><path
         d="m 521.26,520.473 55.905,0 0,-17.323 -55.905,0 0,17.323 z"
         id="path520" /></clipPath><clipPath
       id="clipPath574"><path
         d="m 0,2204.724 787.402,0 L 787.402,0 0,0 0,2204.724 z"
         id="path576" /></clipPath><clipPath
       id="clipPath582"><path
         d="m 366.142,510.237 55.905,0 0,-17.323 -55.905,0 0,17.323 z"
         id="path584" /></clipPath><clipPath
       id="clipPath638"><path
         d="m 0,2204.724 787.402,0 L 787.402,0 0,0 0,2204.724 z"
         id="path640" /></clipPath><clipPath
       id="clipPath646"><path
         d="m 207.874,522.048 55.905,0 0,-17.323 -55.905,0 0,17.323 z"
         id="path648" /></clipPath><clipPath
       id="clipPath694"><path
         d="m 0,2204.724 787.402,0 L 787.402,0 0,0 0,2204.724 z"
         id="path696" /></clipPath><clipPath
       id="clipPath702"><path
         d="m 523.622,677.56 55.905,0 0,-17.323 -55.905,0 0,17.323 z"
         id="path704" /></clipPath><clipPath
       id="clipPath754"><path
         d="m 0,2204.724 787.402,0 L 787.402,0 0,0 0,2204.724 z"
         id="path756" /></clipPath><clipPath
       id="clipPath762"><path
         d="m 364.566,682.678 55.906,0 0,-17.323 -55.906,0 0,17.323 z"
         id="path764" /></clipPath><clipPath
       id="clipPath814"><path
         d="m 0,2204.724 787.402,0 L 787.402,0 0,0 0,2204.724 z"
         id="path816" /></clipPath><clipPath
       id="clipPath822"><path
         d="m 181.89,704.725 109.449,0 0,-39.764 -109.449,0 0,39.764 z"
         id="path824" /></clipPath><clipPath
       id="clipPath862"><path
         d="m 0,2204.724 787.402,0 L 787.402,0 0,0 0,2204.724 z"
         id="path864" /></clipPath><clipPath
       id="clipPath870"><path
         d="m 522.047,837.796 55.905,0 0,-17.323 -55.905,0 0,17.323 z"
         id="path872" /></clipPath><clipPath
       id="clipPath930"><path
         d="m 0,2204.724 787.402,0 L 787.402,0 0,0 0,2204.724 z"
         id="path932" /></clipPath><clipPath
       id="clipPath938"><path
         d="m 363.779,833.072 55.906,0 0,-17.323 -55.906,0 0,17.323 z"
         id="path940" /></clipPath><clipPath
       id="clipPath982"><path
         d="m 0,2204.724 787.402,0 L 787.402,0 0,0 0,2204.724 z"
         id="path984" /></clipPath><clipPath
       id="clipPath994"><path
         d="m 221.259,837.796 55.906,0 0,-17.323 -55.906,0 0,17.323 z"
         id="path996" /></clipPath><clipPath
       id="clipPath1038"><path
         d="m 0,2204.724 787.402,0 L 787.402,0 0,0 0,2204.724 z"
         id="path1040" /></clipPath><clipPath
       id="clipPath1046"><path
         d="m 522.047,991.339 55.905,0 0,-17.323 -55.905,0 0,17.323 z"
         id="path1048" /></clipPath><clipPath
       id="clipPath1094"><path
         d="m 0,2204.724 787.402,0 L 787.402,0 0,0 0,2204.724 z"
         id="path1096" /></clipPath><clipPath
       id="clipPath1102"><path
         d="m 365.354,977.166 55.906,0 0,-17.323 -55.906,0 0,17.323 z"
         id="path1104" /></clipPath><clipPath
       id="clipPath1186"><path
         d="m 0,2204.724 787.402,0 L 787.402,0 0,0 0,2204.724 z"
         id="path1188" /></clipPath><clipPath
       id="clipPath1194"><path
         d="m 208.267,984.252 55.906,0 0,-17.322 -55.906,0 0,17.322 z"
         id="path1196" /></clipPath><clipPath
       id="clipPath1254"><path
         d="m 0,2204.724 787.402,0 L 787.402,0 0,0 0,2204.724 z"
         id="path1256" /></clipPath><clipPath
       id="clipPath1262"><path
         d="m 523.622,1150.39 55.905,0 0,-17.32 -55.905,0 0,17.32 z"
         id="path1264" /></clipPath><clipPath
       id="clipPath1322"><path
         d="m 0,2204.724 787.402,0 L 787.402,0 0,0 0,2204.724 z"
         id="path1324" /></clipPath><clipPath
       id="clipPath1330"><path
         d="m 365.748,1145.67 55.905,0 0,-17.32 -55.905,0 0,17.32 z"
         id="path1332" /></clipPath><clipPath
       id="clipPath1374"><path
         d="m 0,2204.724 787.402,0 L 787.402,0 0,0 0,2204.724 z"
         id="path1376" /></clipPath><clipPath
       id="clipPath1382"><path
         d="m 207.874,1149.21 55.905,0 0,-17.32 -55.905,0 0,17.32 z"
         id="path1384" /></clipPath><clipPath
       id="clipPath1430"><path
         d="m 0,2204.724 787.402,0 L 787.402,0 0,0 0,2204.724 z"
         id="path1432" /></clipPath><clipPath
       id="clipPath1438"><path
         d="m 518.504,1309.45 55.905,0 0,-17.32 -55.905,0 0,17.32 z"
         id="path1440" /></clipPath><clipPath
       id="clipPath1502"><path
         d="m 0,2204.724 787.402,0 L 787.402,0 0,0 0,2204.724 z"
         id="path1504" /></clipPath><clipPath
       id="clipPath1510"><path
         d="m 364.567,1295.28 55.905,0 0,-17.33 -55.905,0 0,17.33 z"
         id="path1512" /></clipPath><clipPath
       id="clipPath1578"><path
         d="m 0,2204.724 787.402,0 L 787.402,0 0,0 0,2204.724 z"
         id="path1580" /></clipPath><clipPath
       id="clipPath1586"><path
         d="m 209.448,1307.48 55.906,0 0,-17.32 -55.906,0 0,17.32 z"
         id="path1588" /></clipPath><clipPath
       id="clipPath1642"><path
         d="m 0,2204.724 787.402,0 L 787.402,0 0,0 0,2204.724 z"
         id="path1644" /></clipPath><clipPath
       id="clipPath1650"><path
         d="m 500,1467.32 107.087,0 0,-33.07 -107.087,0 0,33.07 z"
         id="path1652" /></clipPath><clipPath
       id="clipPath1706"><path
         d="m 0,2204.724 787.402,0 L 787.402,0 0,0 0,2204.724 z"
         id="path1708" /></clipPath><clipPath
       id="clipPath1714"><path
         d="m 366.141,1468.5 55.906,0 0,-17.32 -55.906,0 0,17.32 z"
         id="path1716" /></clipPath><clipPath
       id="clipPath1734"><path
         d="m 0,2204.724 787.402,0 L 787.402,0 0,0 0,2204.724 z"
         id="path1736" /></clipPath><clipPath
       id="clipPath1774"><path
         d="m 0,2204.724 787.402,0 L 787.402,0 0,0 0,2204.724 z"
         id="path1776" /></clipPath><clipPath
       id="clipPath1782"><path
         d="m 207.48,1468.5 55.905,0 0,-17.32 -55.905,0 0,17.32 z"
         id="path1784" /></clipPath><clipPath
       id="clipPath1838"><path
         d="m 0,2204.724 787.402,0 L 787.402,0 0,0 0,2204.724 z"
         id="path1840" /></clipPath><clipPath
       id="clipPath1846"><path
         d="m 522.047,1619.69 55.905,0 0,-17.33 -55.905,0 0,17.33 z"
         id="path1848" /></clipPath><clipPath
       id="clipPath1890"><path
         d="m 0,2204.724 787.402,0 L 787.402,0 0,0 0,2204.724 z"
         id="path1892" /></clipPath><clipPath
       id="clipPath1898"><path
         d="m 366.535,1618.9 55.906,0 0,-17.32 -55.906,0 0,17.32 z"
         id="path1900" /></clipPath><clipPath
       id="clipPath1954"><path
         d="m 0,2204.724 787.402,0 L 787.402,0 0,0 0,2204.724 z"
         id="path1956" /></clipPath><clipPath
       id="clipPath1962"><path
         d="m 207.874,1624.41 55.905,0 0,-17.32 -55.905,0 0,17.32 z"
         id="path1964" /></clipPath><clipPath
       id="clipPath2026"><path
         d="m 0,2204.724 787.402,0 L 787.402,0 0,0 0,2204.724 z"
         id="path2028" /></clipPath><clipPath
       id="clipPath2034"><path
         d="m 520.078,1779.92 55.906,0 0,-17.32 -55.906,0 0,17.32 z"
         id="path2036" /></clipPath><clipPath
       id="clipPath2090"><path
         d="m 0,2204.724 787.402,0 L 787.402,0 0,0 0,2204.724 z"
         id="path2092" /></clipPath><clipPath
       id="clipPath2098"><path
         d="m 368.11,1781.89 55.905,0 0,-17.32 -55.905,0 0,17.32 z"
         id="path2100" /></clipPath><clipPath
       id="clipPath2158"><path
         d="m 0,2204.724 787.402,0 L 787.402,0 0,0 0,2204.724 z"
         id="path2160" /></clipPath><clipPath
       id="clipPath2166"><path
         d="m 207.874,1775.59 55.905,0 0,-17.32 -55.905,0 0,17.32 z"
         id="path2168" /></clipPath><clipPath
       id="clipPath2226"><path
         d="m 0,2204.724 787.402,0 L 787.402,0 0,0 0,2204.724 z"
         id="path2228" /></clipPath><clipPath
       id="clipPath2234"><path
         d="m 521.26,1928.35 55.905,0 0,-17.33 -55.905,0 0,17.33 z"
         id="path2236" /></clipPath><clipPath
       id="clipPath2294"><path
         d="m 0,2204.724 787.402,0 L 787.402,0 0,0 0,2204.724 z"
         id="path2296" /></clipPath><clipPath
       id="clipPath2302"><path
         d="m 366.535,1940.16 55.905,0 0,-17.33 -55.905,0 0,17.33 z"
         id="path2304" /></clipPath><clipPath
       id="clipPath2358"><path
         d="m 0,2204.724 787.402,0 L 787.402,0 0,0 0,2204.724 z"
         id="path2360" /></clipPath><clipPath
       id="clipPath2366"><path
         d="m 204.33,1922.84 55.906,0 0,-17.33 -55.906,0 0,17.33 z"
         id="path2368" /></clipPath><clipPath
       id="clipPath2418"><path
         d="m 0,2204.724 787.402,0 L 787.402,0 0,0 0,2204.724 z"
         id="path2420" /></clipPath><clipPath
       id="clipPath2426"><path
         d="m 522.44,2090.16 55.906,0 0,-17.33 -55.906,0 0,17.33 z"
         id="path2428" /></clipPath><clipPath
       id="clipPath2478"><path
         d="m 0,2204.724 787.402,0 L 787.402,0 0,0 0,2204.724 z"
         id="path2480" /></clipPath><clipPath
       id="clipPath2486"><path
         d="m 364.566,2100.79 55.906,0 0,-17.33 -55.906,0 0,17.33 z"
         id="path2488" /></clipPath><clipPath
       id="clipPath2526"><path
         d="m 0,2204.724 787.402,0 L 787.402,0 0,0 0,2204.724 z"
         id="path2528" /></clipPath><clipPath
       id="clipPath2534"><path
         d="m 207.086,2088.98 55.906,0 0,-17.33 -55.906,0 0,17.33 z"
         id="path2536" /></clipPath></defs><g
     transform="matrix(1.25,0,0,-1.25,-430.4825,1148.7129)"
     id="g10"><g
       id="g926"><g
         clip-path="url(#clipPath930)"
         id="g928"><g
           id="g934"><g
             id="g936" /><g
             id="g942"><g
               clip-path="url(#clipPath938)"
               id="g944"
               style="opacity:0.19999701"><g
                 transform="translate(391.7319,833.0715)"
                 id="g946"><path
                   d="m 0,0 c -15.438,0 -27.953,-3.878 -27.953,-8.661 0,-4.784 12.515,-8.662 27.953,-8.662 15.438,0 27.953,3.878 27.953,8.662 C 27.953,-3.878 15.438,0 0,0"
                   id="path948"
                   style="fill:#000000;fill-opacity:1;fill-rule:evenodd;stroke:none" /></g></g></g></g><g
           transform="translate(382.234,918.5906)"
           id="g950"><path
             d="m 0,0 c -2.059,0.706 -5.461,0.756 -8.242,-2.8 -2.78,-3.556 -1.113,-3.721 -3.63,-5.92 -2.517,-2.198 -15.669,-18.68 -15.669,-18.68 0,0 -6.87,-1.003 -5.254,-6.975 1.557,-5.758 9.977,-1.95 13.06,-8.559 -0.224,-0.156 -0.469,-0.36 -0.754,-0.659 -5.647,-5.912 -12.125,1.68 -16.023,-3.128 -3.899,-4.808 1.977,-8.502 1.977,-8.502 0,0 5.346,-20.386 6.757,-23.414 1.411,-3.028 -0.181,-2.505 0.921,-6.88 1.101,-4.375 4.232,-5.705 6.401,-5.892 2.169,-0.187 7.011,3.52 4.5,4.029 -1.272,0.257 -1.852,-0.803 -3.307,-0.393 -1.454,0.41 -2.873,4.186 -1.746,4.789 1.128,0.604 2.029,-3.049 2.902,-1.862 0.872,1.187 -2.301,4.202 -4.43,5.359 -2.129,1.158 -3.561,4.697 -5.299,10.53 -1.737,5.832 0.079,14.938 0.079,14.938 0,0 5.304,0.333 5.675,-3.434 0.251,-2.545 3.462,7.362 3.783,12.243 2.428,-0.228 4.669,17.675 3.049,14.816 -1.867,-3.294 -6.581,-0.846 -6.581,-0.846 0,0 2.029,9.061 5.983,13.692 3.953,4.631 6.696,7.289 9.112,7.487 2.416,0.197 6.54,1.672 6.223,3.11 -0.317,1.438 -2.621,-1.538 -3.408,-0.53 -0.786,1.008 2.042,3.887 3.538,3.674 C 1.113,-4.021 1.214,-5.224 2.482,-5.503 4.984,-6.053 2.059,-0.706 0,0 m 56.296,-46.721 c -3.898,4.808 -10.376,-2.784 -16.024,3.128 -0.285,0.299 -0.53,0.503 -0.753,0.659 3.082,6.609 11.502,2.801 13.06,8.559 1.616,5.972 -5.254,6.975 -5.254,6.975 0,0 -13.152,16.482 -15.669,18.68 -2.518,2.199 -0.85,2.364 -3.63,5.92 -2.781,3.556 -6.183,3.506 -8.242,2.8 -2.059,-0.706 -4.984,-6.053 -2.482,-5.503 1.268,0.279 1.369,1.482 2.865,1.696 1.496,0.213 4.323,-2.666 3.537,-3.674 -0.786,-1.008 -3.091,1.968 -3.407,0.53 -0.317,-1.438 3.807,-2.913 6.223,-3.11 2.415,-0.198 5.159,-2.856 9.112,-7.487 3.953,-4.631 5.983,-13.692 5.983,-13.692 0,0 -4.715,-2.448 -6.581,0.846 -1.62,2.859 0.62,-15.044 3.049,-14.816 0.32,-4.881 3.532,-14.788 3.782,-12.243 0.372,3.767 5.675,3.434 5.675,3.434 0,0 1.817,-9.106 0.079,-14.938 -1.738,-5.833 -3.169,-9.372 -5.298,-10.53 -2.129,-1.157 -5.302,-4.172 -4.43,-5.359 0.873,-1.187 1.774,2.466 2.901,1.862 1.128,-0.603 -0.291,-4.379 -1.745,-4.789 -1.455,-0.41 -2.035,0.65 -3.307,0.393 -2.511,-0.509 2.331,-4.216 4.5,-4.029 2.168,0.187 5.3,1.517 6.401,5.892 1.101,4.375 -0.49,3.852 0.921,6.88 1.41,3.028 6.757,23.414 6.757,23.414 0,0 5.875,3.694 1.977,8.502"
             id="path952"
             style="fill:#674071;fill-opacity:1;fill-rule:evenodd;stroke:none" /></g><g
           transform="translate(404.3307,829.9213)"
           id="g954"><path
             d="M 0,0 C -2.362,0.984 8.858,6.89 6.299,9.449 3.74,12.008 0,13.189 -4.331,15.748 c -4.33,2.559 -11.023,2.559 -15.354,0 -4.331,-2.559 -8.071,-3.74 -10.63,-6.299 -2.559,-2.559 8.661,-8.465 6.299,-9.449 -2.362,-0.984 -8.858,-3.346 -6.299,-6.299 2.559,-2.953 8.661,-1.772 11.024,1.181 2.362,2.953 2.559,5.118 1.574,5.906 -0.984,0.787 -6.102,6.102 -4.724,7.48 1.378,1.378 9.843,2.756 9.843,2.756 l 1.181,0 c 0,0 8.464,-1.378 9.842,-2.756 C -0.197,6.89 -5.315,1.575 -6.299,0.788 -7.284,0 -7.087,-2.165 -4.724,-5.118 -2.362,-8.071 3.74,-9.252 6.299,-6.299 8.858,-3.346 2.362,-0.984 0,0"
             id="path956"
             style="fill:#674071;fill-opacity:1;fill-rule:evenodd;stroke:none" /></g><g
           transform="translate(405.9495,903.7874)"
           id="g958"><path
             d="m 0,0 c -4.098,2.832 -8.667,4.507 -13.562,4.507 0,0 0,0 0,0 -0.001,0 -0.001,0 -0.001,0 -4.894,0 -9.464,-1.675 -13.562,-4.507 -13.067,-9.003 -21.341,-29.764 -19.627,-46.065 0.254,-2.975 0.803,-5.834 1.693,-8.483 3.747,-11.142 17.619,-16.257 31.497,-15.917 13.878,-0.34 27.749,4.775 31.496,15.917 0.891,2.649 1.44,5.508 1.694,8.483 C 21.342,-29.764 13.067,-9.003 0,0"
             id="path960"
             style="fill:#b675c6;fill-opacity:1;fill-rule:evenodd;stroke:none" /></g><g
           transform="translate(392.7769,875.1969)"
           id="g962"><path
             d="M 0,0 C -0.224,0 -0.432,-0.014 -0.651,-0.018 -0.87,-0.014 -1.078,0 -1.302,0 c -22.184,0 -21.865,-20.626 -20.951,-23.042 0.106,-0.279 0.215,-0.56 0.327,-0.841 1.194,-5.438 3.872,-8.874 10.835,-10.479 2.342,-0.678 5.203,-1.071 8.738,-1.071 0.583,0 1.148,0.006 1.702,0.015 0.554,-0.009 1.119,-0.015 1.702,-0.015 3.535,0 6.396,0.393 8.738,1.071 6.963,1.605 9.641,5.041 10.835,10.479 0.112,0.281 0.221,0.562 0.327,0.841 C 21.866,-20.626 22.184,0 0,0"
             id="path964"
             style="fill:#142122;fill-opacity:1;fill-rule:evenodd;stroke:none" /></g><g
           transform="translate(391.7322,851.1813)"
           id="g966"><path
             d="m 0,0 c -5.694,2.887 -11.024,-1.204 -11.024,-5.118 0,-3.914 4.936,-5.118 11.024,-5.118 6.088,0 11.024,1.204 11.024,5.118 C 11.024,-1.204 6.219,2.756 0,0"
             id="path968"
             style="fill:#f53d3d;fill-opacity:1;fill-rule:evenodd;stroke:none" /></g><g
           transform="translate(399.4864,903.1498)"
           id="g970"><path
             d="M 0,0 C -2.729,0 -5.226,-0.991 -7.164,-2.631 -9.101,-0.991 -11.598,0 -14.327,0 c -6.155,0 -11.144,-5.024 -11.144,-11.221 0,-6.196 4.989,-11.22 11.144,-11.22 2.729,0 5.226,0.991 7.163,2.631 1.938,-1.64 4.435,-2.631 7.164,-2.631 6.154,0 11.143,5.024 11.143,11.22 C 11.143,-5.024 6.154,0 0,0"
             id="path972"
             style="fill:#ffffff;fill-opacity:1;fill-rule:evenodd;stroke:none" /></g><g
           transform="translate(397.0079,898.819)"
           id="g974"><path
             d="m 0,0 c -1.218,0 -2.205,-1.322 -2.205,-2.953 0,-1.63 0.987,-2.952 2.205,-2.952 1.218,0 2.205,1.322 2.205,2.952 C 2.205,-1.322 1.218,0 0,0 m -9.37,0 c -1.218,0 -2.205,-1.322 -2.205,-2.953 0,-1.63 0.987,-2.952 2.205,-2.952 1.217,0 2.205,1.322 2.205,2.952 C -7.165,-1.322 -8.153,0 -9.37,0"
             id="path976"
             style="fill:#1d2e2f;fill-opacity:1;fill-rule:evenodd;stroke:none" /></g></g></g></g></svg>
