<?xml version="1.0" encoding="UTF-8" standalone="no"?>
<!-- Created with Inkscape (http://www.inkscape.org/) -->

<svg
  xmlns:dc="http://purl.org/dc/elements/1.1/"
  xmlns:cc="http://creativecommons.org/ns#"
  xmlns:rdf="http://www.w3.org/1999/02/22-rdf-syntax-ns#"
  xmlns="http://www.w3.org/2000/svg"
  version="1.1"
  width="142.84999"
  height="121.45463"
  id="svg2"
  xml:space="preserve"><metadata
     id="metadata8"><rdf:RDF><cc:Work
         rdf:about=""><dc:format>image/svg+xml</dc:format><dc:type
           rdf:resource="http://purl.org/dc/dcmitype/StillImage" /><dc:title></dc:title></cc:Work></rdf:RDF></metadata><defs
     id="defs6"><clipPath
       id="clipPath16"><path
         d="m 0,2204.724 787.402,0 L 787.402,0 0,0 0,2204.724 z"
         id="path18" /></clipPath><clipPath
       id="clipPath24"><path
         d="M 3.05176e-5,2204.72 787.402,2204.72 787.402,0 3.05176e-5,0 l 0,2204.72 z"
         id="path26" /></clipPath><clipPath
       id="clipPath38"><path
         d="m 0,2204.724 787.402,0 L 787.402,0 0,0 0,2204.724 z"
         id="path40" /></clipPath><clipPath
       id="clipPath46"><path
         d="m 366.535,64.5675 55.906,0 0,-17.3229 -55.906,0 0,17.3229 z"
         id="path48" /></clipPath><clipPath
       id="clipPath110"><path
         d="m 0,2204.724 787.402,0 L 787.402,0 0,0 0,2204.724 z"
         id="path112" /></clipPath><clipPath
       id="clipPath118"><path
         d="m 522.047,210.237 55.905,0 0,-17.323 -55.905,0 0,17.323 z"
         id="path120" /></clipPath><clipPath
       id="clipPath178"><path
         d="m 0,2204.724 787.402,0 L 787.402,0 0,0 0,2204.724 z"
         id="path180" /></clipPath><clipPath
       id="clipPath186"><path
         d="m 366.142,210.237 55.905,0 0,-17.323 -55.905,0 0,17.323 z"
         id="path188" /></clipPath><clipPath
       id="clipPath246"><path
         d="m 0,2204.724 787.402,0 L 787.402,0 0,0 0,2204.724 z"
         id="path248" /></clipPath><clipPath
       id="clipPath254"><path
         d="m 208.59,210.359 55.906,0 0,-17.323 -55.906,0 0,17.323 z"
         id="path256" /></clipPath><clipPath
       id="clipPath318"><path
         d="m 0,2204.724 787.402,0 L 787.402,0 0,0 0,2204.724 z"
         id="path320" /></clipPath><clipPath
       id="clipPath326"><path
         d="m 516.535,359.843 67.323,0 0,-20.866 -67.323,0 0,20.866 z"
         id="path328" /></clipPath><clipPath
       id="clipPath386"><path
         d="m 0,2204.724 787.402,0 L 787.402,0 0,0 0,2204.724 z"
         id="path388" /></clipPath><clipPath
       id="clipPath394"><path
         d="m 364.567,367.717 55.905,0 0,-17.323 -55.905,0 0,17.323 z"
         id="path396" /></clipPath><clipPath
       id="clipPath450"><path
         d="m 0,2204.724 787.402,0 L 787.402,0 0,0 0,2204.724 z"
         id="path452" /></clipPath><clipPath
       id="clipPath458"><path
         d="m 208.267,360.63 55.906,0 0,-17.323 -55.906,0 0,17.323 z"
         id="path460" /></clipPath><clipPath
       id="clipPath510"><path
         d="m 0,2204.724 787.402,0 L 787.402,0 0,0 0,2204.724 z"
         id="path512" /></clipPath><clipPath
       id="clipPath518"><path
         d="m 521.26,520.473 55.905,0 0,-17.323 -55.905,0 0,17.323 z"
         id="path520" /></clipPath><clipPath
       id="clipPath574"><path
         d="m 0,2204.724 787.402,0 L 787.402,0 0,0 0,2204.724 z"
         id="path576" /></clipPath><clipPath
       id="clipPath582"><path
         d="m 366.142,510.237 55.905,0 0,-17.323 -55.905,0 0,17.323 z"
         id="path584" /></clipPath><clipPath
       id="clipPath638"><path
         d="m 0,2204.724 787.402,0 L 787.402,0 0,0 0,2204.724 z"
         id="path640" /></clipPath><clipPath
       id="clipPath646"><path
         d="m 207.874,522.048 55.905,0 0,-17.323 -55.905,0 0,17.323 z"
         id="path648" /></clipPath><clipPath
       id="clipPath694"><path
         d="m 0,2204.724 787.402,0 L 787.402,0 0,0 0,2204.724 z"
         id="path696" /></clipPath><clipPath
       id="clipPath702"><path
         d="m 523.622,677.56 55.905,0 0,-17.323 -55.905,0 0,17.323 z"
         id="path704" /></clipPath><clipPath
       id="clipPath754"><path
         d="m 0,2204.724 787.402,0 L 787.402,0 0,0 0,2204.724 z"
         id="path756" /></clipPath><clipPath
       id="clipPath762"><path
         d="m 364.566,682.678 55.906,0 0,-17.323 -55.906,0 0,17.323 z"
         id="path764" /></clipPath><clipPath
       id="clipPath814"><path
         d="m 0,2204.724 787.402,0 L 787.402,0 0,0 0,2204.724 z"
         id="path816" /></clipPath><clipPath
       id="clipPath822"><path
         d="m 181.89,704.725 109.449,0 0,-39.764 -109.449,0 0,39.764 z"
         id="path824" /></clipPath><clipPath
       id="clipPath862"><path
         d="m 0,2204.724 787.402,0 L 787.402,0 0,0 0,2204.724 z"
         id="path864" /></clipPath><clipPath
       id="clipPath870"><path
         d="m 522.047,837.796 55.905,0 0,-17.323 -55.905,0 0,17.323 z"
         id="path872" /></clipPath><clipPath
       id="clipPath930"><path
         d="m 0,2204.724 787.402,0 L 787.402,0 0,0 0,2204.724 z"
         id="path932" /></clipPath><clipPath
       id="clipPath938"><path
         d="m 363.779,833.072 55.906,0 0,-17.323 -55.906,0 0,17.323 z"
         id="path940" /></clipPath><clipPath
       id="clipPath982"><path
         d="m 0,2204.724 787.402,0 L 787.402,0 0,0 0,2204.724 z"
         id="path984" /></clipPath><clipPath
       id="clipPath994"><path
         d="m 221.259,837.796 55.906,0 0,-17.323 -55.906,0 0,17.323 z"
         id="path996" /></clipPath><clipPath
       id="clipPath1038"><path
         d="m 0,2204.724 787.402,0 L 787.402,0 0,0 0,2204.724 z"
         id="path1040" /></clipPath><clipPath
       id="clipPath1046"><path
         d="m 522.047,991.339 55.905,0 0,-17.323 -55.905,0 0,17.323 z"
         id="path1048" /></clipPath><clipPath
       id="clipPath1094"><path
         d="m 0,2204.724 787.402,0 L 787.402,0 0,0 0,2204.724 z"
         id="path1096" /></clipPath><clipPath
       id="clipPath1102"><path
         d="m 365.354,977.166 55.906,0 0,-17.323 -55.906,0 0,17.323 z"
         id="path1104" /></clipPath><clipPath
       id="clipPath1186"><path
         d="m 0,2204.724 787.402,0 L 787.402,0 0,0 0,2204.724 z"
         id="path1188" /></clipPath><clipPath
       id="clipPath1194"><path
         d="m 208.267,984.252 55.906,0 0,-17.322 -55.906,0 0,17.322 z"
         id="path1196" /></clipPath><clipPath
       id="clipPath1254"><path
         d="m 0,2204.724 787.402,0 L 787.402,0 0,0 0,2204.724 z"
         id="path1256" /></clipPath><clipPath
       id="clipPath1262"><path
         d="m 523.622,1150.39 55.905,0 0,-17.32 -55.905,0 0,17.32 z"
         id="path1264" /></clipPath><clipPath
       id="clipPath1322"><path
         d="m 0,2204.724 787.402,0 L 787.402,0 0,0 0,2204.724 z"
         id="path1324" /></clipPath><clipPath
       id="clipPath1330"><path
         d="m 365.748,1145.67 55.905,0 0,-17.32 -55.905,0 0,17.32 z"
         id="path1332" /></clipPath><clipPath
       id="clipPath1374"><path
         d="m 0,2204.724 787.402,0 L 787.402,0 0,0 0,2204.724 z"
         id="path1376" /></clipPath><clipPath
       id="clipPath1382"><path
         d="m 207.874,1149.21 55.905,0 0,-17.32 -55.905,0 0,17.32 z"
         id="path1384" /></clipPath><clipPath
       id="clipPath1430"><path
         d="m 0,2204.724 787.402,0 L 787.402,0 0,0 0,2204.724 z"
         id="path1432" /></clipPath><clipPath
       id="clipPath1438"><path
         d="m 518.504,1309.45 55.905,0 0,-17.32 -55.905,0 0,17.32 z"
         id="path1440" /></clipPath><clipPath
       id="clipPath1502"><path
         d="m 0,2204.724 787.402,0 L 787.402,0 0,0 0,2204.724 z"
         id="path1504" /></clipPath><clipPath
       id="clipPath1510"><path
         d="m 364.567,1295.28 55.905,0 0,-17.33 -55.905,0 0,17.33 z"
         id="path1512" /></clipPath><clipPath
       id="clipPath1578"><path
         d="m 0,2204.724 787.402,0 L 787.402,0 0,0 0,2204.724 z"
         id="path1580" /></clipPath><clipPath
       id="clipPath1586"><path
         d="m 209.448,1307.48 55.906,0 0,-17.32 -55.906,0 0,17.32 z"
         id="path1588" /></clipPath><clipPath
       id="clipPath1642"><path
         d="m 0,2204.724 787.402,0 L 787.402,0 0,0 0,2204.724 z"
         id="path1644" /></clipPath><clipPath
       id="clipPath1650"><path
         d="m 500,1467.32 107.087,0 0,-33.07 -107.087,0 0,33.07 z"
         id="path1652" /></clipPath><clipPath
       id="clipPath1706"><path
         d="m 0,2204.724 787.402,0 L 787.402,0 0,0 0,2204.724 z"
         id="path1708" /></clipPath><clipPath
       id="clipPath1714"><path
         d="m 366.141,1468.5 55.906,0 0,-17.32 -55.906,0 0,17.32 z"
         id="path1716" /></clipPath><clipPath
       id="clipPath1734"><path
         d="m 0,2204.724 787.402,0 L 787.402,0 0,0 0,2204.724 z"
         id="path1736" /></clipPath><clipPath
       id="clipPath1774"><path
         d="m 0,2204.724 787.402,0 L 787.402,0 0,0 0,2204.724 z"
         id="path1776" /></clipPath><clipPath
       id="clipPath1782"><path
         d="m 207.48,1468.5 55.905,0 0,-17.32 -55.905,0 0,17.32 z"
         id="path1784" /></clipPath><clipPath
       id="clipPath1838"><path
         d="m 0,2204.724 787.402,0 L 787.402,0 0,0 0,2204.724 z"
         id="path1840" /></clipPath><clipPath
       id="clipPath1846"><path
         d="m 522.047,1619.69 55.905,0 0,-17.33 -55.905,0 0,17.33 z"
         id="path1848" /></clipPath><clipPath
       id="clipPath1890"><path
         d="m 0,2204.724 787.402,0 L 787.402,0 0,0 0,2204.724 z"
         id="path1892" /></clipPath><clipPath
       id="clipPath1898"><path
         d="m 366.535,1618.9 55.906,0 0,-17.32 -55.906,0 0,17.32 z"
         id="path1900" /></clipPath><clipPath
       id="clipPath1954"><path
         d="m 0,2204.724 787.402,0 L 787.402,0 0,0 0,2204.724 z"
         id="path1956" /></clipPath><clipPath
       id="clipPath1962"><path
         d="m 207.874,1624.41 55.905,0 0,-17.32 -55.905,0 0,17.32 z"
         id="path1964" /></clipPath><clipPath
       id="clipPath2026"><path
         d="m 0,2204.724 787.402,0 L 787.402,0 0,0 0,2204.724 z"
         id="path2028" /></clipPath><clipPath
       id="clipPath2034"><path
         d="m 520.078,1779.92 55.906,0 0,-17.32 -55.906,0 0,17.32 z"
         id="path2036" /></clipPath><clipPath
       id="clipPath2090"><path
         d="m 0,2204.724 787.402,0 L 787.402,0 0,0 0,2204.724 z"
         id="path2092" /></clipPath><clipPath
       id="clipPath2098"><path
         d="m 368.11,1781.89 55.905,0 0,-17.32 -55.905,0 0,17.32 z"
         id="path2100" /></clipPath><clipPath
       id="clipPath2158"><path
         d="m 0,2204.724 787.402,0 L 787.402,0 0,0 0,2204.724 z"
         id="path2160" /></clipPath><clipPath
       id="clipPath2166"><path
         d="m 207.874,1775.59 55.905,0 0,-17.32 -55.905,0 0,17.32 z"
         id="path2168" /></clipPath><clipPath
       id="clipPath2226"><path
         d="m 0,2204.724 787.402,0 L 787.402,0 0,0 0,2204.724 z"
         id="path2228" /></clipPath><clipPath
       id="clipPath2234"><path
         d="m 521.26,1928.35 55.905,0 0,-17.33 -55.905,0 0,17.33 z"
         id="path2236" /></clipPath><clipPath
       id="clipPath2294"><path
         d="m 0,2204.724 787.402,0 L 787.402,0 0,0 0,2204.724 z"
         id="path2296" /></clipPath><clipPath
       id="clipPath2302"><path
         d="m 366.535,1940.16 55.905,0 0,-17.33 -55.905,0 0,17.33 z"
         id="path2304" /></clipPath><clipPath
       id="clipPath2358"><path
         d="m 0,2204.724 787.402,0 L 787.402,0 0,0 0,2204.724 z"
         id="path2360" /></clipPath><clipPath
       id="clipPath2366"><path
         d="m 204.33,1922.84 55.906,0 0,-17.33 -55.906,0 0,17.33 z"
         id="path2368" /></clipPath><clipPath
       id="clipPath2418"><path
         d="m 0,2204.724 787.402,0 L 787.402,0 0,0 0,2204.724 z"
         id="path2420" /></clipPath><clipPath
       id="clipPath2426"><path
         d="m 522.44,2090.16 55.906,0 0,-17.33 -55.906,0 0,17.33 z"
         id="path2428" /></clipPath><clipPath
       id="clipPath2478"><path
         d="m 0,2204.724 787.402,0 L 787.402,0 0,0 0,2204.724 z"
         id="path2480" /></clipPath><clipPath
       id="clipPath2486"><path
         d="m 364.566,2100.79 55.906,0 0,-17.33 -55.906,0 0,17.33 z"
         id="path2488" /></clipPath><clipPath
       id="clipPath2526"><path
         d="m 0,2204.724 787.402,0 L 787.402,0 0,0 0,2204.724 z"
         id="path2528" /></clipPath><clipPath
       id="clipPath2534"><path
         d="m 207.086,2088.98 55.906,0 0,-17.33 -55.906,0 0,17.33 z"
         id="path2536" /></clipPath></defs><g
     transform="matrix(1.25,0,0,-1.25,-615.56949,750.49212)"
     id="g10"><g
       id="g506"><g
         clip-path="url(#clipPath510)"
         id="g508"><g
           id="g514"><g
             id="g516" /><g
             id="g522"><g
               clip-path="url(#clipPath518)"
               id="g524"
               style="opacity:0.19999701"><g
                 transform="translate(549.2123,520.4729)"
                 id="g526"><path
                   d="m 0,0 c -15.438,0 -27.953,-3.878 -27.953,-8.661 0,-4.784 12.515,-8.662 27.953,-8.662 15.438,0 27.953,3.878 27.953,8.662 C 27.953,-3.878 15.438,0 0,0"
                   id="path528"
                   style="fill:#000000;fill-opacity:1;fill-rule:evenodd;stroke:none" /></g></g></g></g><g
           transform="translate(578.1204,593.4692)"
           id="g530"><path
             d="m 0,0 c -2.884,5.744 -10.242,-3.505 -16.958,-10.763 -6.177,-6.676 -7.488,-2.666 -11.359,-4.403 -3.872,1.737 -5.183,-2.273 -11.359,4.403 C -46.393,-3.505 -53.75,5.744 -56.634,0 c -3.77,-7.507 1.012,-20.612 6.551,-23.323 9.572,-4.684 18.317,-0.213 21.766,3.645 3.448,-3.858 12.194,-8.329 21.765,-3.645 C -1.013,-20.612 3.769,-7.507 0,0"
             id="path532"
             style="fill:#bf8136;fill-opacity:1;fill-rule:evenodd;stroke:none" /></g><g
           transform="translate(546.3111,577.3426)"
           id="g534"><path
             d="M 0,0 C -3.673,2.467 -4.607,-1.48 -9.7,4.115 -14.794,9.71 -20.332,16.798 -22.802,12.648 -26.03,7.224 -20.573,-3.044 -16.268,-5.236 -5.531,-10.702 2.374,-1.594 0,0 M 29.786,12.648 C 27.316,16.798 21.778,9.71 16.684,4.115 11.591,-1.48 10.657,2.467 6.984,0 c -2.373,-1.594 5.531,-10.702 16.268,-5.236 4.305,2.192 9.762,12.46 6.534,17.884"
             id="path536"
             style="fill:#965f1c;fill-opacity:1;fill-rule:evenodd;stroke:none" /></g><g
           transform="translate(526.1172,554.5337)"
           id="g538"><path
             d="m 0,0 c 0,0 -13.254,3.931 -26.772,-6.518 -14.004,-10.824 -3.474,-35.112 3.64,-36.992 -0.443,1.025 -1.244,4.697 -0.368,7.154 0.754,-4.546 5.695,-5.184 5.695,-5.184 0,0 -1.885,1.978 -2.307,5.755 2.413,-3.758 6.95,-2.622 6.95,-2.622 0,0 -9.877,8.41 -8.058,16.95 1.82,8.54 11.653,13.4 22.079,15.349 C 11.284,-4.159 0,0 0,0 m 64.552,45.86 c 0.664,-1.088 2.152,-5.114 1.548,-8.03 -1.574,5.02 -7.276,4.959 -7.276,4.959 0,0 2.449,-1.938 3.525,-6.142 -3.329,3.867 -8.293,1.864 -8.293,1.864 0,0 12.527,-7.944 11.814,-17.889 C 65.157,10.679 54.778,3.626 43.267,-0.229 c -11.51,-3.855 1.753,-5.435 1.753,-5.435 0,0 14.401,-3.2 29.506,10.274 15.105,13.475 -1.613,40.251 -9.974,41.25"
             id="path540"
             style="fill:#965f1c;fill-opacity:1;fill-rule:evenodd;stroke:none" /></g><g
           transform="translate(569.1722,514.4534)"
           id="g542"><path
             d="m 0,0 c -0.966,2.501 -0.221,0.591 -4.212,-0.28 -1.321,-0.288 -2.481,-0.612 -3.449,-0.917 -2.672,-0.334 -3.806,-0.526 -3.806,-0.526 0,0 0.758,-3.366 4.071,-3.996 0.82,-0.26 1.816,-0.334 3.018,-0.072 C 0.526,-4.721 0.718,-1.859 0,0 m -34.526,-0.28 c -3.991,0.871 -3.247,2.781 -4.212,0.28 -0.718,-1.859 -0.527,-4.721 4.378,-5.791 1.202,-0.262 2.198,-0.188 3.018,0.072 3.313,0.63 4.071,3.996 4.071,3.996 0,0 -1.134,0.192 -3.806,0.526 -0.968,0.305 -2.129,0.629 -3.449,0.917"
             id="path544"
             style="fill:#965f1c;fill-opacity:1;fill-rule:evenodd;stroke:none" /></g><g
           transform="translate(549.6061,585.9257)"
           id="g546"><path
             d="m 0,0 c -23.032,0 -38.977,-36.811 -31.496,-59.055 7.48,-22.244 55.315,-20.473 62.992,0.787 C 39.173,-37.008 23.031,0 0,0"
             id="path548"
             style="fill:#bf8136;fill-opacity:1;fill-rule:evenodd;stroke:none" /></g><g
           transform="translate(572.038,562.4518)"
           id="g550"><path
             d="m 0,0 c -1.316,0.212 -3.214,-0.623 -5.496,-2.226 -3.889,-2.483 -8.073,-4.162 -12.362,-5.047 1.505,-3.987 4.782,-6.753 8.586,-6.753 5.228,0 9.466,5.223 9.466,11.667 C 0.194,-1.551 0.127,-0.762 0,0 m -45.651,0 c -0.127,-0.762 -0.194,-1.551 -0.194,-2.359 0,-6.444 4.239,-11.667 9.467,-11.667 3.803,0 7.08,2.766 8.585,6.753 -4.288,0.885 -8.473,2.564 -12.362,5.047 -2.281,1.603 -4.18,2.438 -5.496,2.226"
             id="path552"
             style="fill:#ffffff;fill-opacity:1;fill-rule:evenodd;stroke:none" /></g><g
           transform="translate(574.9146,565.1188)"
           id="g554"><path
             d="m 0,0 c -0.799,1.81 -5.969,-0.906 -10.554,-2.267 -4.83,-1.433 -13.261,-3.152 -11.866,-7.025 0.69,-1.915 2.752,-2.146 5.362,-1.456 0.144,-1.576 1.285,-2.804 2.672,-2.804 1.484,0 2.688,1.406 2.688,3.141 0,0.608 -0.15,1.173 -0.406,1.654 C -6.058,-5.692 0.282,-0.64 0,0 m -40.85,-2.267 c -4.585,1.361 -9.755,4.077 -10.554,2.267 -0.282,-0.64 6.058,-5.692 12.104,-8.757 -0.256,-0.481 -0.406,-1.046 -0.406,-1.654 0,-1.735 1.204,-3.141 2.688,-3.141 1.387,0 2.528,1.228 2.672,2.804 2.61,-0.69 4.672,-0.459 5.362,1.456 1.395,3.873 -7.036,5.592 -11.866,7.025"
             id="path556"
             style="fill:#142122;fill-opacity:1;fill-rule:evenodd;stroke:none" /></g><g
           transform="translate(549.803,542.9135)"
           id="g558"><path
             d="m 0,0 c -9.023,0 -16.339,-9.249 -16.339,-12.401 0,-3.153 7.316,-5.709 16.339,-5.709 9.024,0 16.339,2.556 16.339,5.709 C 16.339,-9.249 9.024,0 0,0"
             id="path560"
             style="fill:#142122;fill-opacity:1;fill-rule:evenodd;stroke:none" /></g><g
           transform="translate(549.803,542.9135)"
           id="g562"><path
             d="m 0,0 c -0.198,0 -0.394,-0.01 -0.591,-0.019 l 0,-2.146 c 0,-2.501 2.028,-4.528 4.528,-4.528 l 0.394,0 c 2.26,0 4.128,1.658 4.467,3.823 C 6.258,-1.195 3.24,0 0,0 m -5.709,-4.724 0.394,0 c 1.74,0 3.15,1.41 3.15,3.149 l 0,1.394 c -2.348,-0.379 -4.538,-1.335 -6.462,-2.576 0.468,-1.153 1.597,-1.967 2.918,-1.967"
             id="path564"
             style="fill:#ffffff;fill-opacity:1;fill-rule:evenodd;stroke:none" /></g><g
           transform="translate(549.6062,551.575)"
           id="g566"><path
             d="m 0,0 c -1.522,0 -2.756,-1.234 -2.756,-2.756 0,-1.522 1.234,-2.756 2.756,-2.756 1.522,0 2.756,1.234 2.756,2.756 C 2.756,-1.234 1.522,0 0,0"
             id="path568"
             style="fill:#965f1c;fill-opacity:1;fill-rule:evenodd;stroke:none" /></g></g></g></g></svg>
